<?xml version="1.0" encoding="utf-8"?>
<!-- Generator: Adobe Illustrator 21.1.0, SVG Export Plug-In . SVG Version: 6.00 Build 0)  -->
<svg version="1.1" id="Ebene_1" xmlns="http://www.w3.org/2000/svg" xmlns:xlink="http://www.w3.org/1999/xlink" x="0px" y="0px"
	 viewBox="0 0 618 489" style="enable-background:new 0 0 618 489;" xml:space="preserve">
<style type="text/css">
	.st0{fill:#212121;}
	.st1{fill:#FFFFFF;}
	.st2{font-family:'Helvetica';}
	.st3{font-size:12px;}
	.st4{font-size:11px;}
	.st5{fill:#93C01F;}
</style>
<g>
	<path class="st0" d="M144.7,279.4c0-0.5-0.1-2.6-0.1-3.1l-0.3-1.9c-0.9-4.5-3.6-8.5-7.6-11.2l-26.7-18c-0.1-0.1-0.2-0.1-0.3-0.2
		l-12.5-8.4c-4.1-2.7-6.5-7.2-6.5-11.9V97.8h-3.7v126.8c0,4.7-2.4,9.2-6.5,11.9l-12.5,8.4c-0.1,0.1-0.2,0.1-0.3,0.2l-26.7,18
		c-4,2.7-6.7,6.7-7.6,11.2l-0.3,1.9c-0.1,0.5-0.1,2.6-0.1,3.1l0-1.5v0.3v30.7c0,5.8,3,11.4,8,14.8l27,18.2c0,0,0,0,0,0l12.5,8.4
		c4.1,2.7,6.5,7.2,6.5,11.9V489h3.7V362.2c0-4.7,2.4-9.2,6.5-11.9l12.5-8.4c0,0,0,0,0,0l27-18.2c5-3.4,8-8.9,8-14.8v-30.7v-0.3"/>
</g>
<g>
	<path class="st0" d="M585,279.4c0-0.5-0.1-2.6-0.1-3.1l-0.3-1.9c-0.9-4.5-3.6-8.5-7.6-11.2l-26.7-18c-0.1-0.1-0.2-0.1-0.3-0.2
		l-12.5-8.4c-4.1-2.7-6.5-7.2-6.5-11.9V97.8h-3.7v126.8c0,4.7-2.4,9.2-6.5,11.9l-12.5,8.4c-0.1,0.1-0.2,0.1-0.3,0.2l-26.7,18
		c-4,2.7-6.7,6.7-7.6,11.2l-0.3,1.9c-0.1,0.5-0.1,2.6-0.1,3.1l0-1.5v0.3v30.7c0,5.8,3,11.4,8,14.8l27,18.2c0,0,0,0,0,0l12.5,8.4
		c4.1,2.7,6.5,7.2,6.5,11.9V489h3.7V362.2c0-4.7,2.4-9.2,6.5-11.9l12.5-8.4c0,0,0,0,0,0l27-18.2c5-3.4,8-8.9,8-14.8v-30.7v-0.3"/>
</g>
<path class="st0" d="M474.8,181.6c0-0.5-0.1-2.6-0.1-3.1l-0.3-1.9c-0.9-4.5-3.6-8.5-7.6-11.2l-26.7-18c-0.1-0.1-0.2-0.1-0.3-0.2
	l-12.5-8.4c-4.1-2.7-6.5-7.2-6.5-11.9v-29h-3.7v29c0,4.7-2.4,9.2-6.5,11.9l-12.5,8.4c-0.1,0.1-0.2,0.1-0.3,0.2l-26.7,18
	c-4,2.7-6.7,6.7-7.6,11.2l-0.3,1.9c-0.1,0.5-0.1,2.6-0.1,3.1l0-1.5v0.3v30.7c0,5.8,3,11.4,8,14.8l27,18.2c0,0,0,0,0,0l12.5,8.4
	c4.1,2.7,6.5,7.2,6.5,11.9v29h0v29c0,4.7-2.4,9.2-6.5,11.9l-12.5,8.4c-0.1,0.1-0.2,0.1-0.3,0.2l-26.7,18c-4,2.7-6.7,6.7-7.6,11.2
	l-0.3,1.9c-0.1,0.5-0.1,2.6-0.1,3.1l0-1.5v0.3v30.7c0,5.8,3,11.4,8,14.8l27,18.2c0,0,0,0,0,0l12.5,8.4c4.1,2.7,6.5,7.2,6.5,11.9v29
	h3.7v-29c0-4.7,2.4-9.2,6.5-11.9l12.5-8.4c0,0,0,0,0,0l27-18.2c5-3.4,8-8.9,8-14.8V376v-0.3l0,1.5c0-0.5-0.1-2.6-0.1-3.1l-0.3-1.9
	c-0.9-4.5-3.6-8.5-7.6-11.2l-26.7-18c-0.1-0.1-0.2-0.1-0.3-0.2l-12.5-8.4c-4.1-2.7-6.5-7.2-6.5-11.9v-29h0v-29
	c0-4.7,2.4-9.2,6.5-11.9l12.5-8.4c0,0,0,0,0,0l27-18.2c5-3.4,8-8.9,8-14.8v-30.7v-0.3L474.8,181.6z"/>
<g>
	<path class="st0" d="M364.8,83.8c0-0.5-0.1-2.6-0.1-3.1l-0.3-1.9c-0.9-4.5-3.6-8.5-7.6-11.2l-26.7-18c-0.1-0.1-0.2-0.1-0.3-0.2
		l-12.5-8.4c-4.1-2.7-6.5-7.2-6.5-11.9V0h-3.7v29c0,4.7-2.4,9.2-6.5,11.9l-12.5,8.4c-0.1,0.1-0.2,0.1-0.3,0.2l-26.7,18
		c-4,2.7-6.7,6.7-7.6,11.2l-0.3,1.9c-0.1,0.5-0.1,2.6-0.1,3.1l0-1.5v0.3v30.7c0,5.8,3,11.4,8,14.8l27,18.2c0,0,0,0,0,0l12.5,8.4
		c4.1,2.7,6.5,7.2,6.5,11.9v29h3.7v-29c0-4.7,2.4-9.2,6.5-11.9l12.5-8.4c0,0,0,0,0,0l27-18.2c5-3.4,8-8.9,8-14.8V82.6v-0.3"/>
</g>
<path class="st0" d="M254.8,181.6c0-0.5-0.1-2.6-0.1-3.1l-0.3-1.9c-0.9-4.5-3.6-8.5-7.6-11.2l-26.7-18c-0.1-0.1-0.2-0.1-0.3-0.2
	l-12.5-8.4c-4.1-2.7-6.5-7.2-6.5-11.9v-29h-3.7v29c0,4.7-2.4,9.2-6.5,11.9l-12.5,8.4c-0.1,0.1-0.2,0.1-0.3,0.2l-26.7,18
	c-4,2.7-6.7,6.7-7.6,11.2l-0.3,1.9c-0.1,0.5-0.1,2.6-0.1,3.1l0-1.5v0.3v30.7c0,5.8,3,11.4,8,14.8l27,18.2c0,0,0,0,0,0l12.5,8.4
	c4.1,2.7,6.5,7.2,6.5,11.9v29h0v29c0,4.7-2.4,9.2-6.5,11.9l-12.5,8.4c-0.1,0.1-0.2,0.1-0.3,0.2l-26.7,18c-4,2.7-6.7,6.7-7.6,11.2
	l-0.3,1.9c-0.1,0.5-0.1,2.6-0.1,3.1l0-1.5v0.3v30.7c0,5.8,3,11.4,8,14.8l27,18.2c0,0,0,0,0,0l12.5,8.4c4.1,2.7,6.5,7.2,6.5,11.9v29
	h3.7v-29c0-4.7,2.4-9.2,6.5-11.9l12.5-8.4c0,0,0,0,0,0l27-18.2c5-3.4,8-8.9,8-14.8V376v-0.3l0,1.5c0-0.5-0.1-2.6-0.1-3.1l-0.3-1.9
	c-0.9-4.5-3.6-8.5-7.6-11.2l-26.7-18c-0.1-0.1-0.2-0.1-0.3-0.2l-12.5-8.4c-4.1-2.7-6.5-7.2-6.5-11.9v-29h0v-29
	c0-4.7,2.4-9.2,6.5-11.9l12.5-8.4c0,0,0,0,0,0l27-18.2c5-3.4,8-8.9,8-14.8v-30.7v-0.3L254.8,181.6z"/>
<text transform="matrix(1 0 0 1 268.2023 85.942)"><tspan x="0" y="0" class="st1 st2 st3">Das günstigste </tspan><tspan x="-1.9" y="14.4" class="st1 st2 st3">Parkhaus in der </tspan><tspan x="12.2" y="28.8" class="st1 st2 st3">Innenstadt</tspan></text>
<text transform="matrix(1 0 0 1 54.6928 280.6086)"><tspan x="0" y="0" class="st1 st2 st3">Straßenbahn</tspan><tspan x="-19.6" y="13.2" class="st1 st2 st4">Verkehrsknotenpunkt</tspan><tspan x="-10.3" y="27.6" class="st1 st2 st3">vor dem Eingang</tspan></text>
<text transform="matrix(1 0 0 1 492.7048 289.6264)"><tspan x="0" y="0" class="st1 st2 st3">5min Fußweg</tspan><tspan x="-8.2" y="14.4" class="st1 st2 st3">in die Innenstadt</tspan></text>
<text transform="matrix(1 0 0 1 366.1296 183.9418)"><tspan x="0" y="0" class="st1 st2 st3">Direkte Verbindung</tspan><tspan x="8.8" y="14.4" class="st1 st2 st3">Hauptbahnhof - </tspan><tspan x="19.9" y="28.8" class="st1 st2 st3">Flughafen in</tspan><tspan x="21.7" y="43.2" class="st1 st2 st3">14 Minuten</tspan></text>
<text transform="matrix(1 0 0 1 148.7697 183.9418)"><tspan x="0" y="0" class="st1 st2 st3">21 Bahnsteiggleise</tspan><tspan x="19.5" y="14.4" class="st1 st2 st3">und direkte</tspan><tspan x="8.3" y="28.8" class="st1 st2 st3">Anbindung zum</tspan><tspan x="20.9" y="43.2" class="st1 st2 st3">Marktplatz</tspan></text>
<text transform="matrix(1 0 0 1 162.5291 382.6086)"><tspan x="0" y="0" class="st1 st2 st3">24h Öffnung</tspan><tspan x="-9.7" y="14.4" class="st1 st2 st3">für Gastronomie</tspan><tspan x="13.1" y="28.8" class="st1 st2 st3">möglich</tspan></text>
<text transform="matrix(1 0 0 1 373.572 387.1821)"><tspan x="0" y="0" class="st1 st2 st3">Sonntagsöffnung</tspan><tspan x="4.3" y="14.4" class="st1 st2 st3">für Reisebedarf</tspan></text>
<path class="st5" d="M362.2,242.7v27.5c-1.7-2.7-3.9-5.1-6.5-7l-10.6-7.6c-4.2-3-6.6-7.8-6.6-12.9h-3.8v26.8h0c0,0.2,0,0.4,0,0.6
	v0.1c-1.7-2.7-3.9-5.1-6.5-7l-10.6-7.6c-4.1-3-6.6-7.8-6.6-12.9h-3.8v23.7c0,5.1-2.5,9.9-6.6,12.9l-10.6,7.6c-2.7,1.9-4.9,4.3-6.5,7
	v-51.3h-3.8c0,5.1-2.5,9.9-6.6,12.9l-10.6,7.6c-2.7,1.9-4.9,4.3-6.6,7v-27.5H252v40.5v0.3v22.9c0,6.3,3.1,12.3,8.2,15.9l27.6,19.7
	c0,0,0,0,0,0l12.7,9.1c4.2,3,6.6,7.8,6.6,12.9v27h0v29c0,4.7-2.4,9.2-6.5,11.9l-12.5,8.4c-0.1,0.1-0.2,0.1-0.3,0.2l-26.7,18
	c-4,2.7-6.7,6.7-7.6,11.2l-0.3,1.9c-0.1,0.5-0.1,2.6-0.1,3.1l0-1.5v0.3V489h111.6v-15.2v-0.3l0,1.5c0-0.5-0.1-2.6-0.1-3.1l-0.3-1.9
	c-0.9-4.5-3.6-8.5-7.6-11.2l-26.7-18c-0.1-0.1-0.2-0.1-0.3-0.2l-12.5-8.4c-4.1-2.7-6.5-7.2-6.5-11.9v-29h0v-27
	c0-5.1,2.5-9.9,6.6-12.9l12.7-9.1c0.1-0.1,0.2-0.2,0.3-0.2l27.3-19.5c4-2.9,6.8-7.2,7.8-11.9l0,0c0,0,0-0.1,0-0.1
	c0.3-1.3,0.4-2.6,0.4-3.9v-22.9v-0.3v-40.5H362.2z M264.5,266.2l10.6-7.6c1.7-1.2,3.2-2.8,4.4-4.5V307v0.3v1.5
	c-1.7-2.7-3.9-5.1-6.5-7l-10.6-7.6c-3.9-2.8-6.3-7.2-6.6-11.9C256.1,275.9,259.3,270,264.5,266.2z M262.4,319.4
	c-4.1-3-6.6-7.8-6.6-12.9v-13.7c1.2,1.7,2.7,3.2,4.4,4.5l10.6,7.6c5.5,3.9,8.7,10.3,8.7,17v0.3v4.1c0,2.1,0.4,4.2,1,6.2L262.4,319.4
	z M307.1,345.2v7.5c-1.2-1.7-2.7-3.2-4.4-4.5l-12.7-9.1c-4.2-3-6.6-7.8-6.6-12.9v-4.1v-0.3v-6c1.2,1.7,2.7,3.2,4.4,4.5l10.6,7.6
	c5.5,3.9,8.7,10.3,8.7,17V345.2z M334.7,326.2c0,5-2.4,9.7-6.4,12.7l-3.4,2.4l0,0l-9.6,6.9c-1.7,1.2-3.2,2.8-4.4,4.5v-7.5v-0.3
	v-19.7c0-6.7,3.3-13.1,8.7-17l10.6-7.6c1.7-1.2,3.2-2.8,4.4-4.5V326.2z M334.7,283.6v1c0,5.1-2.5,9.9-6.6,12.9l-10.6,7.6
	c-6.5,4.6-10.3,12.1-10.3,20v6.7c-1.7-2.7-3.9-5.1-6.5-7l-10.6-7.6c-3.8-2.7-6.2-7-6.5-11.6c0.4-6.2,3.6-12,8.7-15.7l10.6-7.6
	c5.1-3.7,8.2-9.6,8.2-15.9v-12.2c1.2,1.7,2.7,3.2,4.4,4.5l10.6,7.6c5.5,3.9,8.7,10.3,8.7,17V283.6z M361.8,310.1
	c-0.9,3.7-3,7.1-6.2,9.3l-18.2,13c0.7-2,1-4.1,1-6.2v-41.6v-1v-0.3v-2V281c1.2,1.7,2.7,3.2,4.4,4.4l10.6,7.6
	C358.8,296.8,362.2,303.8,361.8,310.1z M362.2,283.6v13.6c-1.7-2.8-3.9-5.4-6.6-7.3l-10.6-7.6c-4-2.8-6.4-7.4-6.6-12.2v-15.9
	c1.2,1.7,2.7,3.2,4.4,4.5l10.6,7.6c5.5,3.9,8.7,10.3,8.7,17V283.6z"/>
</svg>
