<?xml version="1.0" encoding="iso-8859-1"?>
<!-- Generator: Adobe Illustrator 21.0.0, SVG Export Plug-In . SVG Version: 6.00 Build 0)  -->
<svg version="1.1" xmlns="http://www.w3.org/2000/svg" xmlns:xlink="http://www.w3.org/1999/xlink" x="0px" y="0px"
	 viewBox="0 0 810.6 808.2" style="enable-background:new 0 0 810.6 808.2;" xml:space="preserve">
<style type="text/css">
	.st0{display:none;}
	.st1{display:inline;fill:#88A80D;}
	.st2{display:inline;fill:#FFFFFF;}
	.st3{font-family:'Helvetica';}
	.st4{font-size:30px;}
	.st5{fill:#88A80D;}
	.st6{fill:#FFFFFF;}
	.st7{font-size:21px;}
</style>
<g id="Ebene_1" class="st0">
	<circle class="st1" cx="167.5" cy="650.2" r="158"/>
	<text transform="matrix(1 0 0 1 43.5679 660.2229)" class="st2 st3 st4">DIENSTLEISTUNG</text>
</g>
<g id="Ebene_2" class="st0">
	<circle class="st1" cx="513.2" cy="626.4" r="181.4"/>
	<text transform="matrix(1 0 0 1 404.355 636.4274)" class="st2 st3 st4">GASTRONOMIE</text>
</g>
<g id="Ebene_3" class="st0">
	<circle class="st1" cx="656.8" cy="291" r="153.8"/>
	<text transform="matrix(1 0 0 1 550.394 301.0173)" class="st2 st3 st4">LEBENSMITTEL</text>
</g>
<g id="Ebene_4" class="st0">
	<circle class="st1" cx="403.7" cy="124.4" r="124.4"/>
	<text transform="matrix(1 0 0 1 357.8398 129.2148)" class="st2 st3 st4">MODE</text>
</g>
<g id="Ebene_5" class="st0">
	<circle class="st1" cx="158" cy="324.2" r="158"/>
	<text transform="matrix(1 0 0 1 65.4431 334.2229)" class="st2 st3 st4">HARTWAREN</text>
</g>
<g id="Ebene_6">
	<circle class="st5" cx="198" cy="555.6" r="78.5"/>
	<circle class="st5" cx="88.5" cy="723.6" r="78.5"/>
	<circle class="st5" cx="293" cy="719.6" r="78.5"/>
	<text transform="matrix(1 0 0 1 145.4106 562.6187)" class="st6 st3 st7">FINANZEN</text>
	<text transform="matrix(1 0 0 1 28.9559 730.1074)" class="st6 st3 st7">TOURISMUS</text>
	<text transform="matrix(1 0 0 1 246.9731 726.6187)" class="st6 st3 st7">LOGISTIK</text>
	<circle class="st5" cx="382.5" cy="552.9" r="78.5"/>
	<circle class="st5" cx="521" cy="719.6" r="78.5"/>
	<circle class="st5" cx="587" cy="536.6" r="78.5"/>
	<text transform="matrix(1 0 0 1 325.9629 559.863)" class="st6 st3 st7">FAST FOOD</text>
	<text transform="matrix(1 0 0 1 537.1567 543.8315)" class="st6 st3 st7">B&#xC4;CKEREI</text>
	<text transform="matrix(1 0 0 1 494.6235 726.6187)" class="st6 st3 st7">CAFE</text>
	<circle class="st5" cx="505" cy="353.6" r="78.5"/>
	<circle class="st5" cx="703.7" cy="359.9" r="78.5"/>
	<text transform="matrix(1 0 0 1 436.7344 360.6187)" class="st6 st3 st7">SUPERMARKT</text>
	<text transform="matrix(1 0 0 1 672.8093 366.863)" class="st6 st3 st7">KIOSK</text>
	<circle class="st5" cx="462" cy="169.6" r="78.5"/>
	<circle class="st5" cx="320" cy="363.6" r="78.5"/>
	<circle class="st5" cx="282.6" cy="140.4" r="78.5"/>
	<text transform="matrix(1 0 0 1 428.7046 176.6187)" class="st6 st3 st7">TEXTIL</text>
	<text transform="matrix(1 0 0 1 267.615 370.6184)" class="st6 st3 st7">SCHMUCK</text>
	<text transform="matrix(1 0 0 1 239.911 147.3631)" class="st6 st3 st7">SCHUHE</text>
	<circle class="st5" cx="138" cy="248.6" r="78.5"/>
	<circle class="st5" cx="91.1" cy="415.9" r="78.5"/>
	<text transform="matrix(1 0 0 1 70.9839 243.0186)"><tspan x="0" y="0" class="st6 st3 st7">TELEKOM-</tspan><tspan x="0" y="25.2" class="st6 st3 st7">MUNIKATION</tspan></text>
	<text transform="matrix(1 0 0 1 27.4243 422.863)" class="st6 st3 st7">ELEKTRONIK</text>
</g>
</svg>
