<svg id="Ebene_1" data-name="Ebene 1" xmlns="http://www.w3.org/2000/svg" xmlns:xlink="http://www.w3.org/1999/xlink" viewBox="0 0 111.59 195.59"><defs><style>.cls-1{fill:none;}.cls-2{clip-path:url(#clip-path);}</style><clipPath id="clip-path" transform="translate(0 0)"><rect style="background-color:#212121" class="cls-1" width="111.59" height="195.59"/></clipPath></defs><title>element_01</title><g style="fill:#212121;"  class="cls-2" ><path d="M0,82.3v31A17.88,17.88,0,0,0,8,128l27,18.22h0l12.46,8.42A14.45,14.45,0,0,1,54,166.62v29h3.68v-29a14.45,14.45,0,0,1,6.49-11.92l12.46-8.42.27-.21,26.71-18a18.08,18.08,0,0,0,7.63-11.21h.4v-.32c0-.54-.06-1.07-.1-1.61s.1-1.07.1-1.61v-31" transform="translate(0 0)"/><path d="M111.59,82.3a17.88,17.88,0,0,0-8-14.75l-27-18.22h0L64.13,40.9A14.45,14.45,0,0,1,57.64,29V0H54V29A14.45,14.45,0,0,1,47.47,40.9L35,49.32l-.27.21L8,67.53A18.08,18.08,0,0,0,.4,78.74L.1,80.67c-.05.53-.1,1.72-.1,2.26" transform="translate(0 0)"/></g></svg>