<?xml version="1.0" encoding="iso-8859-1"?>
<!-- Generator: Adobe Illustrator 21.0.0, SVG Export Plug-In . SVG Version: 6.00 Build 0)  -->
<svg version="1.1" id="Ebene_1" xmlns="http://www.w3.org/2000/svg" xmlns:xlink="http://www.w3.org/1999/xlink" x="0px" y="0px"
	 viewBox="0 0 111.6 195.6" style="enable-background:new 0 0 111.6 195.6;" xml:space="preserve">
<style type="text/css">
	.st0{clip-path:url(#SVGID_2_);fill:#212121;}
	.st1{fill:none;}
	.st2{fill:#FFFFFF;}
	.st3{font-family:'Helvetica';}
	.st4{font-size:10px;}
</style>
<title>element_01</title>
<g>
	<g>
		<defs>
			<rect id="SVGID_1_" width="111.6" height="195.6"/>
		</defs>
		<clipPath id="SVGID_2_">
			<use xlink:href="#SVGID_1_"  style="overflow:visible;"/>
		</clipPath>
		<path class="st0" d="M111.6,82.3c-0.1-5.9-3-11.5-8-14.8l-27-18.2l-12.5-8.4c-4-2.6-6.4-7.1-6.5-11.9V0H54v29
			c-0.1,4.8-2.5,9.3-6.5,11.9L35,49.3l-0.3,0.2L8,67.5c-3.9,2.6-6.6,6.6-7.6,11.2l-0.3,1.9c0,0.4,0,1.1-0.1,1.7h0v31
			c0.1,5.9,3.1,11.4,8,14.7l27,18.2l12.5,8.4c4,2.6,6.5,7.1,6.5,12v29h3.7v-29c0-4.8,2.5-9.3,6.5-11.9l12.5-8.4l0.3-0.2l26.7-18
			c3.9-2.6,7-6.6,8-11.2v-0.3c0-0.5-0.1-1.1-0.1-1.6s0.1-1.1,0.1-1.6v-31"/>
	</g>
</g>
<rect x="5.6" y="89.1" class="st1" width="99.7" height="45"/>
<text transform="matrix(1 0 0 1 12.1499 96.5041)" class="st2 st3 st4"><span class="count-1">68.000</span>  BESUCHER </text>
<text transform="matrix(1 0 0 1 33.9499 108.5041)" class="st2 st3 st4">PRO TAG</text>
</svg>
