<?xml version="1.0" encoding="utf-8"?>
<!-- Generator: Adobe Illustrator 22.0.0, SVG Export Plug-In . SVG Version: 6.00 Build 0)  -->
<svg version="1.1" id="Ebene_1" xmlns="http://www.w3.org/2000/svg" xmlns:xlink="http://www.w3.org/1999/xlink" x="0px" y="0px"
	 viewBox="0 0 2473.3 1304.8" style="enable-background:new 0 0 2473.3 1304.8;" xml:space="preserve">
<style type="text/css">
	.st0{fill:#E0E0E0;stroke:#E0E0E0;stroke-width:0.656;}
	.st1{fill:#FBED22;stroke:#FBED22;stroke-width:2;stroke-miterlimit:10;}
	.st2{fill:#8AA80C;stroke:#8AA80C;stroke-width:2;stroke-miterlimit:10;}
	.st3{fill:#CACF18;stroke:#CACF18;stroke-width:2;stroke-miterlimit:10;}
	.st4{fill:#68770C;stroke:#68770C;stroke-width:2;stroke-miterlimit:10;}
	.st5{fill:#E0E0E0;stroke:#E0E0E0;stroke-width:2;stroke-miterlimit:10;}
	.st6{fill:none;stroke:#FFFFFF;stroke-width:2;stroke-miterlimit:10;}
	.st7{fill:none;}
	.st8{fill:#757575;}
	.st9{font-family:'Lato','Helvetica','Verdana';}
	.st10{font-size:56.2542px;}
	.st11{font-size:28.1271px;}
	.st12{fill:#68770C;}
	.st13{fill:#353535;}
	.st14{font-size:25.6523px;}
	.st15{fill:#8AA80C;}
	.st16{fill:#CACF18;}
	.st17{fill:#FBED22;}
    
    @import url('https://fonts.googleapis.com/css?family=Lato:300,400,700')
    
</style>
<g>
	<path class="st0" d="M1220.4,970.7V950h25.8v-90.2h91.8c14.3,6.2,30.2,9.7,46.9,9.7c16.6,0,32.4-3.5,46.8-9.7h43
		c14.3,6.2,30.2,9.7,46.8,9.7c16.6,0,32.4-3.5,46.8-9.7h42.7c14.3,6.2,30.2,9.7,46.8,9.7c16.6,0,32.4-3.5,46.8-9.7h85.7v91.1h24
		v19.8h150.3v-19.8h24.7v-19.8h20.3v-77.9h117.1v-48.4h212.4V618.6h26.7V493.1h-26.7V353.6H697.3v139.5h-24.2v125.4h24.2v186.2
		h305.9v32.5h44V950h25.3v20.7H1220.4z"/>
</g>
<g id="map-54">
	<polygon class="st1" points="673,527.7 840.7,527.7 840.7,425.3 697.3,425.3 697.3,493.1 673,493.1 	"/>
</g>
<g id="map-55">
	<rect x="840.7" y="425.3" class="st1" width="30.9" height="102.1"/>
</g>
<rect x="885.8" y="425.3" class="st2" width="37.7" height="102.1"/>
<rect x="923.5" y="425.3" class="st2" width="88.8" height="102.1"/>
<g id="map-58">
	<rect x="1012.3" y="425.3" class="st2" width="45" height="102.1"/>
</g>
<g id="map-59">
	<polygon class="st2" points="1057.3,425.3 1057.3,527.4 1065.8,527.4 1119.4,523 1119.4,425.3 	"/>
</g>
<g id="map-60">
	<polygon class="st2" points="1119.4,523 1160.5,520.1 1160.5,425.3 1119.4,425.3 	"/>
</g>
<g id="map-61">
	<polygon class="st2" points="1160.5,520.1 1160.5,425.3 1205.5,425.3 1205.5,517.3 	"/>
</g>
<g id="map-62">
	<polygon class="st2" points="1205.5,517.3 1205.5,425.3 1244.6,425.3 1244.6,515.1 	"/>
</g>
<g id="map-63">
	<polygon class="st3" points="1257.1,514.5 1257.1,425.3 1305.8,425.3 1305.8,512.2 	"/>
</g>
<g id="map-64">
	<polygon class="st3" points="1305.8,512.2 1305.8,425.3 1337.7,425.3 1337.8,511 	"/>
</g>
<g id="map-65">
	<polygon class="st3" points="1337.8,511 1337.8,425.3 1365.4,425.3 1365.4,510.1 	"/>
</g>
<g id="map-66">
	<polygon class="st3" points="1365.4,510.1 1365.4,425.3 1401.1,425.3 1401.1,509.1 	"/>
</g>
<g id="map-67">
	<polygon class="st3" points="1401.1,509.1 1401.1,425.3 1430,425.3 1430,508.5 	"/>
</g>
<g id="map-68">
	<polygon class="st3" points="1430,508.5 1430,425.3 1492,425.3 1492,507.7 	"/>
</g>
<g id="map-69">
	<polygon class="st3" points="1492,507.7 1492,425.3 1536.7,425.3 1536.7,450.8 1552.5,450.8 1552.5,507.7 	"/>
</g>
<g id="map-70">
	<polygon class="st3" points="1552.5,507.7 1552.5,450.8 1536.7,450.8 1536.7,425.3 1599.8,425.3 1599.8,508.3 	"/>
</g>
<g id="map-71">
	<polygon class="st3" points="1613.2,508.6 1613.2,425.3 1655,425.3 1655,449.1 1678,449.1 1678,465.4 1655,465.4 1655,509.5 	"/>
</g>
<g id="map-72">
	<polygon class="st3" points="1655,509.6 1655,465.4 1678,465.4 1678,510.3 	"/>
</g>
<g id="map-73">
	<polygon class="st3" points="1678,510.3 1678,449.1 1655,449.1 1655,425.3 1738.5,425.3 1738.5,512.5 	"/>
</g>
<g id="map-74">
	<polygon class="st3" points="1738.5,512.5 1738.5,425.3 1770.5,425.3 1770.5,513.9 	"/>
</g>
<g id="map-75">
	<polygon class="st3" points="1770.5,513.9 1770.5,425.3 1799.3,425.3 1799.3,515.4 	"/>
</g>
<g id="map-76">
	<polygon class="st3" points="1799.3,515.4 1799.3,425.3 1831.1,425.3 1831.1,468.1 1862.8,468.1 1862.8,519.1 	"/>
</g>
<g id="map-77">
	<polygon class="st2" points="1862.8,519.1 1862.8,468.1 1831.1,468.1 1831.1,425.3 1903.2,425.3 1903.2,521.9 	"/>
</g>
<g id="map-78">
	<polygon class="st2" points="1903.2,521.9 1903.2,425.3 1951.5,425.3 1951.5,525.6 	"/>
</g>
<g id="map-79">
	<polygon class="st2" points="1951.5,525.6 1951.5,425.3 2023.7,425.3 2023.7,527.4 1971.8,527.4 	"/>
</g>
<g id="map-80">
	<rect x="2023.7" y="425.3" class="st2" width="52.2" height="102.1"/>
</g>
<g id="map-81">
	<rect x="2097" y="490.9" class="st1" width="36.3" height="36.6"/>
</g>
<g id="map-82">
	<polygon class="st1" points="2257.7,527.4 2133.3,527.4 2133.3,490.9 2097,490.9 2097,376 2207.9,376 2207.9,473.7 2257.7,473.7 	
		"/>
</g>
<g id="map-83">
	<polygon class="st1" points="2257.7,527.4 2257.7,480.7 2298.6,480.7 2298.6,451.8 2338.8,451.8 2338.8,493.1 2365.5,493.1 
		2365.5,527.4 	"/>
</g>
<g id="map-84">
	<polygon class="st4" points="2365.5,618.6 2365.5,586.7 2285.3,586.7 2285.3,609.5 2231.7,609.5 2231.7,586.7 2047.7,586.7 
		2047.7,652.2 2020.4,652.2 2020.4,694.3 2028.1,694.3 2028.1,804.8 2126.5,804.8 2338.8,804.8 2338.8,618.6 	"/>
</g>
<g id="map-85">
	<rect x="2231.7" y="586.7" class="st4" width="53.7" height="22.9"/>
</g>
<g id="map-86">
	<rect x="2016.7" y="586.7" class="st4" width="30.9" height="65.6"/>
</g>
<g id="map-87">
	<polygon class="st4" points="2016.7,652.2 2016.7,586.7 1972.7,586.7 1972.7,694.3 2020.4,694.3 2020.4,652.2 	"/>
</g>
<g id="map-88">
	<rect x="1989.2" y="694.3" class="st4" width="38.9" height="30.8"/>
</g>
<g id="map-89">
	<rect x="1989.2" y="725.1" class="st4" width="38.9" height="29.9"/>
</g>
<g id="map-90">
	<polygon class="st5" points="1989.2,859.8 1943.8,859.8 1943.8,970.7 1964.5,970.7 1964.5,950.9 1989.2,950.9 	"/>
</g>
<g id="map-91">
	<polygon class="st3" points="1890.2,592.5 1946.2,588.8 1946.2,653.8 1890.2,653.8 	"/>
</g>
<g id="map-92">
	<polygon class="st3" points="1890.2,653.8 1832.9,653.8 1832.9,596.2 1890.2,592.5 	"/>
</g>
<g id="map-93">
	<polygon class="st5" points="1790.2,859.8 1790.2,950.9 1814.2,950.9 1814.2,970.7 1834.2,970.7 1834.2,859.8 	"/>
</g>
<g id="map-94">
	<g>
		<path class="st3" d="M1704.3,761.1h-133v-47.6h-31v47.6v6.2v100.7c9.8-1.6,19.1-4.3,27.9-8.2h42.7c14.3,6.2,30.2,9.7,46.8,9.7
			c16.6,0,32.3-3.5,46.6-9.7L1704.3,761.1L1704.3,761.1z"/>
		<path class="st3" d="M1704.3,761.1h-133v-47.6h-31v47.6v6.2v100.7c9.8-1.6,19.1-4.3,27.9-8.2h42.7c14.3,6.2,30.2,9.7,46.8,9.7
			c16.6,0,32.3-3.5,46.6-9.7L1704.3,761.1L1704.3,761.1z"/>
	</g>
</g>
<g id="map-95">
	<rect x="1738.5" y="750.2" class="st2" width="36.4" height="21.6"/>
</g>
<g id="map-96">
	<rect x="1738.5" y="723.4" class="st2" width="51.8" height="26.8"/>
</g>
<g id="map97">
	<rect x="1738.5" y="694.3" class="st2" width="51.8" height="29.1"/>
</g>
<g id="map-98">
	<polygon class="st2" points="1808.2,653.8 1760.7,653.8 1760.7,694.3 1790.2,694.3 1808.2,694.3 	"/>
</g>
<g id="map-99">
	<polygon class="st2" points="1808.2,653.8 1769.2,653.8 1769.2,599.5 1808.2,597.6 	"/>
</g>
<g id="map-100">
	<polygon class="st2" points="1769.2,653.8 1738.1,653.8 1738.1,600.7 1769.2,599.5 	"/>
</g>
<g id="map-101">
	<polygon class="st2" points="1760.7,653.8 1738.1,653.7 1738.1,600.7 1698.1,602 1615,604.6 1615,652.7 1576,652.7 1576,700.5 
		1571.3,700.5 1571.3,761 1738.5,761 1738.1,694.3 1760.7,694.3 	"/>
</g>
<g id="map-102">
	<polygon class="st2" points="1615,652.7 1576,652.7 1576,605 1615,604.5 	"/>
</g>
<g id="map-103">
	<polygon class="st2" points="1576,652.7 1536.9,652.7 1536.9,605.3 1576,605 	"/>
</g>
<g id="map-104">
	<polygon class="st2" points="1504.7,652.7 1459.6,652.7 1459.6,605 1504.7,605.3 	"/>
</g>
<g id="map-105">
	<polygon class="st2" points="1459.6,653.4 1428.6,653.4 1428.6,604.6 1459.6,605 	"/>
</g>
<g id="map-106">
	<polygon class="st2" points="1459.6,752.3 1366.3,752.3 1366.3,603.1 1428.6,604.6 1428.6,653.4 1459.6,653.4 	"/>
</g>
<g id="map-107">
	<polygon class="st2" points="1366.3,752.3 1303,752.3 1303,694.3 1274.7,694.3 1274.7,646.3 1303,646.3 1303,600.9 1366.3,603.1 	
		"/>
</g>
<g id="map-108">
	<polygon class="st2" points="1303,646.3 1270.8,646.3 1270.8,599.5 1303,600.9 	"/>
</g>
<g id="map-109">
	<polygon class="st2" points="1270.8,646.3 1270.8,599.5 1230.3,597.6 1230.3,646.3 	"/>
</g>
<g id="map-110">
	<polygon class="st2" points="1274.7,646.3 1230.3,646.3 1230.3,694.3 1246.1,694.3 1274.7,694.3 	"/>
</g>
<g id="map-111">
	<rect x="1246.1" y="694.3" class="st2" width="56.8" height="32.5"/>
</g>
<g id="map-112">
	<rect x="1266.6" y="726.8" class="st2" width="36.4" height="25.5"/>
</g>
<g id="map-113">
	<polygon class="st3" points="1459.7,713.4 1495.7,713.4 1495.7,866.6 1474,859.8 1431.6,859.8 1416.4,865.1 1402.4,868.1 
		1393.8,869.2 1384.5,869.4 1374.1,869 1363.4,867.6 1349.2,864 1337.9,859.8 1337.9,752.3 1459.7,752.3 	"/>
</g>
<g id="map-114">
	<polygon class="st5" points="1220.4,970.7 1220.4,950 1246.1,950 1246.1,859.8 1201.2,859.8 1201.2,970.7 	"/>
</g>
<g id="map-115">
	<g>
		<line class="st6" x1="1201.2" y1="653.8" x2="1201.2" y2="596"/>
		<path class="st3" d="M1146.2,653.8h55V596c-20.3-1.1-38.7-2.3-55-3.4V653.8z"/>
	</g>
</g>
<g id="map-116">
	<g>
		<line class="st6" x1="1091.6" y1="588.7" x2="1091.6" y2="653.8"/>
		<path class="st3" d="M1146.2,592.7c-22.6-1.5-41.1-2.8-54.6-3.9v65.1h54.6V592.7z"/>
	</g>
</g>
<g id="map-117_1_">
	<polygon class="st5" points="1047.2,859.8 1047.2,950 1072.5,950 1072.5,970.7 1091.6,970.7 1091.6,859.8 	"/>
</g>
<g id="map-118_1_">
	<rect x="1002.1" y="694.3" class="st1" width="45.1" height="56.3"/>
</g>
<g id="map-119_1_">
	<polygon class="st1" points="1016,586.7 1016,694.3 1047.2,694.3 1065.8,694.3 1065.8,661.3 1065.8,653.8 1065.8,586.7 	"/>
</g>
<g id="map-120_1_">
	<polygon class="st1" points="1016,694.3 1016,586.7 961.8,586.7 961.8,686.2 947.3,686.2 947.3,804.8 1016,804.8 1016,750.7 
		1002.1,750.7 1002.1,694.3 	"/>
</g>
<polygon class="st1" points="961.8,686.2 961.8,586.7 898.9,586.7 898.9,676.6 871.7,676.6 871.7,804.8 947.3,804.8 947.3,686.2 "/>
<g id="map-122_1_">
	<polygon class="st1" points="809.7,586.7 809.7,641.1 775.6,641.1 775.6,783.2 785.7,783.2 785.7,804.8 871.7,804.8 871.7,676.6 
		898.9,676.6 898.9,586.7 	"/>
</g>
<g id="map-123">
	<polygon class="st1" points="809.7,586.7 809.7,641.1 775.6,641.1 775.6,783.2 785.7,783.2 785.7,804.8 697.3,804.8 697.3,618.6 
		673,618.6 673,586.7 	"/>
</g>
<rect x="693.9" y="111.5" class="st7" width="1394.2" height="49.6"/>
<text transform="matrix(1 0 0 1 693.9248 152.4756)" class="st8 st9 st10">EG: VERZEHR UND SHOPPING</text>
<rect x="693.9" y="180.7" class="st7" width="1598.6" height="63.2"/>
<text transform="matrix(1 0 0 1 693.9248 201.4111)" class="st8 st9 st11">SCHEMATISCHE DARSTELLUNG DER BRANCHEN UND BELEGUNGSPLÄNE PRO ETAGE</text>
<rect x="106.6" y="370.2" class="st12" width="418.1" height="73.4"/>
<rect x="107.3" y="392.1" class="st7" width="417.4" height="73.4"/>
<text transform="matrix(1 0 0 1 129.2627 422.0518)" class="st13 st9 st14">UNTERHALTUNGSELEKTRONIK</text>
<rect x="107" y="485.4" class="st15" width="418.1" height="73.4"/>
<rect x="107.7" y="507.3" class="st7" width="417.4" height="73.4"/>
<text transform="matrix(1 0 0 1 274.7832 537.1963)" class="st13 st9 st14">MODE</text>
<rect x="107.3" y="598.9" class="st16" width="418.1" height="73.4"/>
<rect x="108" y="620.9" class="st7" width="417.4" height="73.4"/>
<text transform="matrix(1 0 0 1 267.5537 650.7935)" class="st13 st9 st14"> </text>
<text transform="matrix(1 0 0 1 294.916 650.7935)" class="st13 st9 st14"> </text>
<text transform="matrix(1 0 0 1 231.498 647.9429)" class="st13 st9 st14">GASTRONOMIE</text>
<rect x="107.7" y="712.5" class="st17" width="418.1" height="73.4"/>
<rect x="108.5" y="734.6" class="st7" width="417.4" height="73.4"/>
<text transform="matrix(1 0 0 1 275.3027 761.54)" class="st13 st9 st14"> </text>
<text transform="matrix(1 0 0 1 250.3628 761.54)" class="st13 st9 st14">GESUNDHEIT</text>
</svg>
