<?xml version="1.0" encoding="utf-8"?>
<!-- Generator: Adobe Illustrator 22.0.0, SVG Export Plug-In . SVG Version: 6.00 Build 0)  -->
<svg version="1.1" id="Ebene_1" xmlns="http://www.w3.org/2000/svg" xmlns:xlink="http://www.w3.org/1999/xlink" x="0px" y="0px"
	 viewBox="0 0 2258.6 1304.8" style="enable-background:new 0 0 2258.6 1304.8;" xml:space="preserve">
<style type="text/css">
	.st0{fill:#E0E0E0;stroke:#FFFFFF;stroke-width:0.635;}
	.st1{fill:#CACF18;stroke:#FFFFFF;stroke-width:2;stroke-miterlimit:10;}
	.st2{fill:#8AA80C;stroke:#FFFFFF;stroke-width:2;stroke-miterlimit:10;}
	.st3{fill:#FBED22;stroke:#FFFFFF;stroke-width:2;stroke-miterlimit:10;}
	.st4{fill:#68770C;stroke:#FFFFFF;stroke-width:2;stroke-miterlimit:10;}
	.st5{fill:none;}
	.st6{enable-background:new    ;}
	.st7{fill:#757575;}
	.st8{font-family:'Lato','Helvetica','Verdana';}
	.st9{font-size:60px;}
	.st10{font-family:'lato','Helvetica','Verdana';}
	.st11{font-size:30px;}
	.st12{fill:#68770C;}
	.st13{fill:#353535;}
	.st14{font-size:18px;}
	.st15{fill:#8AA80C;}
	.st16{fill:#CACF18;}
	.st17{fill:#FBED22;}
    
    
      @import url('https://fonts.googleapis.com/css?family=Lato:300,400,700')
</style>
<g id="Ebene_1_1_">
	<path class="st0" d="M412,446.4v123.3h-21.4v110.9H412v164.5h270.3v28.8h38.9v99.6h22.4v18.3h130.7v-18.3h22.8v-79.7h81.1
		c12.7,5.5,26.7,8.6,41.4,8.6s28.7-3.1,41.4-8.6h38c12.7,5.5,26.7,8.6,41.4,8.6c14.7,0,28.7-3.1,41.3-8.6h37.7
		c12.7,5.5,26.6,8.6,41.3,8.6c14.7,0,28.7-3.1,41.4-8.6h75.7v80.5h21.2v17.5h132.8v-17.5h21.8v-17.5h17.9V888H1675v-42.8h187.6
		V680.5h23.6V569.7h-23.6V446.4h-143.9v74.1h-65.3v-74.1h-44.3v74.1h-65.3v-74.1h-44.3v74.1h-65.3v-74.1h-44.3v74.1h-65.3v-74.1
		h-44.3v74.1H1215v-74.1h-44.3v74.1h-65.3v-74.1H1061v74.1h-65.3v-74.1h-44.3v74.1H886v-74.1h-44.3v74.1h-65.3v-74.1h-44.3v74.1
		h-65.3v-74.1H412z"/>
</g>
<g id="map-124_1_">
	<polygon class="st1" points="567.6,845.1 488.6,845.1 488.6,705.8 544.3,705.8 544.3,779.4 567.6,779.4 	"/>
</g>
<g id="map-125_1_">
	<polygon class="st1" points="544.3,705.8 613.5,705.8 613.5,746.7 620.9,746.7 620.9,845.1 567.6,845.1 567.6,779.4 544.3,779.4 	
		"/>
</g>
<g id="map-126_1_">
	<polygon class="st1" points="682,746.7 682,705.8 613.5,705.8 613.5,746.7 620.9,746.7 620.9,803.5 675.7,803.5 675.7,746.7 	"/>
</g>
<g id="map-127_1_">
	<polygon class="st1" points="721.3,803.5 721.3,705.8 682,705.8 682,746.7 675.7,746.7 675.7,803.5 	"/>
</g>
<g id="map-128_1_">
	<rect x="721.3" y="705.8" class="st1" width="60.3" height="40.8"/>
</g>
<g id="map-129_1_">
	<rect x="836.8" y="705.8" class="st1" width="60.3" height="40.8"/>
</g>
<g id="map-130_1_">
	<rect x="917.7" y="705.8" class="st1" width="29.2" height="44.7"/>
</g>
<g id="map-131_1_">
	<path class="st2" d="M1086.5,893.7V705.8H946.9V812h-49.8v81.7h81.1c12.7,5.5,26.7,8.6,41.4,8.6s28.7-3.1,41.4-8.6H1086.5z"/>
</g>
<g id="map-132_1_">
	<polygon class="st1" points="1086.5,705.8 1190,705.8 1190,893.7 1181.7,893.7 1170.7,897.7 1156.6,901 1143.2,902.3 1131.5,902.3 
		1119.1,900.1 1108.5,897.3 1099,893.7 1086.5,893.7 	"/>
</g>
<g id="map-133_1_">
	<polygon class="st1" points="1190,705.8 1244.6,705.8 1244.6,901 1234,898.8 1219.4,893.7 1190,893.7 	"/>
</g>
<g id="map-134_1_">
	<polygon class="st1" points="1244.6,705.8 1244.6,901 1258.6,902.2 1272.2,901.6 1291.3,897.7 1302.2,893.7 1377.9,893.7 
		1377.9,810.1 1330.8,810.1 1330.8,705.8 	"/>
</g>
<g id="map-135_1_">
	<rect x="1330.8" y="705.8" class="st1" width="26.9" height="40.8"/>
</g>
<g id="map-136_1_">
	<rect x="1377.8" y="705.8" class="st1" width="60.3" height="40.8"/>
</g>
<g id="map-137_1_">
	<rect x="1493.4" y="705.8" class="st1" width="60.3" height="40.8"/>
</g>
<g id="map-138_1_">
	<rect x="1553.7" y="705.8" class="st3" width="54.8" height="95.3"/>
</g>
<g id="map-139_1_">
	<polygon class="st4" points="1660.6,748 1660.6,705.8 1633.4,705.8 1608.5,705.8 1608.5,748 1608.5,779.4 1633.4,779.4 1633.4,748 
			"/>
</g>
<g id="map-140_1_">
	<polygon class="st4" points="1660.6,705.8 1660.6,748 1633.4,748 1633.4,779.4 1608.5,779.4 1608.5,801.1 1553.7,801.1 
		1553.7,845.1 1862.7,845.1 1862.7,719 1786.7,719 1786.7,705.8 	"/>
</g>
<g id="map-141">
	<polygon class="st3" points="1862.7,719 1862.7,680.5 1886.3,680.5 1886.3,651.4 1786.7,651.4 1786.7,719 	"/>
	<rect x="390.6" y="112" class="st5" width="1487" height="52.9"/>
	<text transform="matrix(1 0 0 1 390.6177 155.6901)" class="st6"><tspan x="0" y="0" class="st7 st8 st9">OG: ANKOMMEN UND VERWEILEN</tspan></text>
	<rect x="390.6" y="185.8" class="st5" width="1705" height="67.4"/>
	<text transform="matrix(1 0 0 1 390.6177 207.8844)" class="st6"><tspan x="0" y="0" class="st7 st8 st11">SCHEMATISCHE DARSTELLUNG DER BRANCHEN UND BELEGUNGSPLÄNE PRO ETAGE</tspan></text>
	<rect x="75.6" y="443.2" class="st12" width="293.4" height="51.5"/>
	<rect x="76.1" y="458.6" class="st5" width="292.9" height="51.5"/>
	<text transform="matrix(1 0 0 1 90.5023 478.5836)" class="st13 st8 st14">UNTERHALTUNGSELEKTRONIK</text>
	<rect x="75.9" y="524" class="st15" width="293.4" height="51.5"/>
	<rect x="76.4" y="539.4" class="st5" width="292.9" height="51.5"/>
	<text transform="matrix(1 0 0 1 157.6124 559.3795)" class="st13 st8 st14">BUCHHANDLUNG</text>
	<rect x="76.1" y="603.7" class="st16" width="293.4" height="51.5"/>
	<rect x="76.6" y="619.1" class="st5" width="292.9" height="51.5"/>
	<text transform="matrix(1 0 0 1 188.5397 640.0895)" class="st13 st10 st14"> </text>
	<text transform="matrix(1 0 0 1 207.7397 640.0895)" class="st13 st10 st14"> </text>
	<text transform="matrix(1 0 0 1 163.2397 638.0895)" class="st13 st8 st14">GASTRONOMIE</text>
	<rect x="76.4" y="683.4" class="st17" width="293.4" height="51.5"/>
	<rect x="76.9" y="698.9" class="st5" width="292.9" height="51.5"/>
	<text transform="matrix(1 0 0 1 203.9769 717.7995)" class="st13 st10 st14"> </text>
	<text transform="matrix(1 0 0 1 186.4769 717.7995)" class="st13 st8 st14">SERVICE</text>
</g>
<g id="Ebene_20">
</g>
</svg>
