<?xml version="1.0" encoding="utf-8"?>
<!-- Generator: Adobe Illustrator 22.0.0, SVG Export Plug-In . SVG Version: 6.00 Build 0)  -->
<svg version="1.1" id="Ebene_1" xmlns="http://www.w3.org/2000/svg" xmlns:xlink="http://www.w3.org/1999/xlink" x="0px" y="0px"
	 viewBox="0 0 2258.6 1304.8" style="enable-background:new 0 0 2258.6 1304.8;" xml:space="preserve">
<style type="text/css">
	.st0{fill:#E0E0E0;stroke:#E0E0E0;stroke-width:0.635;}
	.st1{fill:#CACF18;stroke:#CACF18;stroke-width:2;stroke-miterlimit:10;}
	.st2{fill:#8AA80C;stroke:#8AA80C;stroke-width:2;stroke-miterlimit:10;}
	.st3{fill:#FBED22;stroke:#FBED22;stroke-width:2;stroke-miterlimit:10;}
	.st4{fill:#68770C;stroke:#68770C;stroke-width:2;stroke-miterlimit:10;}
	.st5{fill:none;}
	.st6{fill:#757575;}
	.st7{font-family:'Lato','Helvetica','Verdana';}
	.st8{font-size:59.7431px;}
	.st9{font-size:29.8716px;}
	.st10{fill:#68770C;}
	.st11{fill:#353535;}
	.st12{font-size:23.0156px;}
	.st13{fill:#8AA80C;}
	.st14{fill:#CACF18;}
	.st15{fill:#FBED22;}
    
    @import url('https://fonts.googleapis.com/css?family=Lato:300,400,700')
</style>
<path class="st0" d="M659.2,444.9v122.8h-21.3v110.4h21.3v163.8h269.1v28.7h38.7v99.2h22.3V988h130.1v-18.2h22.7v-79.4h80.8
	c12.6,5.5,26.6,8.6,41.2,8.6s28.6-3.1,41.2-8.6h37.8c12.6,5.5,26.6,8.6,41.2,8.6s28.6-3.1,41.1-8.6h37.5c12.6,5.5,26.5,8.6,41.1,8.6
	s28.6-3.1,41.2-8.6h75.4v80.2h21.1V988h132.2v-17.4h21.7v-17.4h17.8v-68.5h103.1V842h186.8V678h23.5V567.7h-23.5V444.9h-143.3v73.8
	h-65v-73.8h-44.1v73.8h-65v-73.8h-44.1v73.8h-65v-73.8h-44.1v73.8h-65v-73.8h-44.1v73.8h-65v-73.8h-44.1v73.8h-65v-73.8h-44.2v73.8
	h-65v-73.8h-44.1v73.8h-65.1v-73.8h-44.1v73.8h-65v-73.8h-44.1v73.8h-65v-73.8H659.2z"/>
<polygon class="st1" points="814.1,841.9 735.5,841.9 735.5,703.2 790.9,703.2 790.9,776.5 814.1,776.5 "/>
<polygon class="st1" points="790.9,703.2 859.8,703.2 859.8,743.9 867.2,743.9 867.2,841.9 814.1,841.9 814.1,776.5 790.9,776.5 "/>
<polygon class="st1" points="928.1,743.9 928.1,703.2 859.8,703.2 859.8,743.9 867.2,743.9 867.2,800.5 921.8,800.5 921.8,743.9 "/>
<polygon class="st1" points="967.2,800.5 967.2,703.2 928.1,703.2 928.1,743.9 921.8,743.9 921.8,800.5 "/>
<rect x="967.2" y="703.2" class="st1" width="60" height="40.6"/>
<rect x="1082.2" y="703.2" class="st1" width="60" height="40.6"/>
<rect x="1162.7" y="703.2" class="st1" width="29.1" height="44.5"/>
<path class="st2" d="M1330.8,890.3V703.2h-139V809h-49.6v81.4h80.8c12.6,5.5,26.6,8.6,41.2,8.6s28.6-3.1,41.2-8.6H1330.8z"/>
<polygon class="st1" points="1330.8,703.2 1433.9,703.2 1433.9,890.3 1425.6,890.3 1414.7,894.3 1400.6,897.6 1387.3,898.9 
	1375.6,898.9 1363.3,896.7 1352.7,893.9 1343.3,890.3 1330.8,890.3 "/>
<polygon class="st1" points="1433.9,703.2 1488.2,703.2 1488.2,897.6 1477.7,895.4 1463.2,890.3 1433.9,890.3 "/>
<polygon class="st1" points="1488.2,703.2 1488.2,897.6 1502.2,898.8 1515.7,898.2 1534.7,894.3 1545.6,890.3 1621,890.3 
	1621,807.1 1574.1,807.1 1574.1,703.2 "/>
<rect x="1574.1" y="703.2" class="st1" width="26.8" height="40.6"/>
<rect x="1620.9" y="703.2" class="st1" width="60" height="40.6"/>
<rect x="1736" y="703.2" class="st1" width="60" height="40.6"/>
<rect x="1796" y="703.2" class="st3" width="54.6" height="94.9"/>
<polygon class="st4" points="1902.5,745.2 1902.5,703.2 1875.4,703.2 1850.6,703.2 1850.6,745.2 1850.6,776.5 1875.4,776.5 
	1875.4,745.2 "/>
<polygon class="st4" points="1902.5,703.2 1902.5,745.2 1875.4,745.2 1875.4,776.5 1850.6,776.5 1850.6,798.1 1796,798.1 
	1796,841.9 2103.7,841.9 2103.7,716.4 2028,716.4 2028,703.2 "/>
<polygon class="st3" points="2103.7,716.4 2103.7,678 2127.2,678 2127.2,649.1 2028,649.1 2028,716.4 "/>
<rect x="637.9" y="112" class="st5" width="1480.6" height="52.7"/>
<text transform="matrix(1 0 0 1 637.917 155.4697)" class="st6 st7 st8">OG: ANKOMMEN UND VERWEILEN</text>
<rect x="637.9" y="185.5" class="st5" width="1697.7" height="67.1"/>
<text transform="matrix(1 0 0 1 637.917 207.4409)" class="st6 st7 st9">SCHEMATISCHE DARSTELLUNG DER BRANCHEN UND BELEGUNGSPLÄNE PRO ETAGE</text>
<rect x="75.6" y="443.2" class="st10" width="375.2" height="65.9"/>
<rect x="76.2" y="462.9" class="st5" width="374.5" height="65.9"/>
<text transform="matrix(1 0 0 1 94.6548 488.4434)" class="st11 st7 st12">UNTERHALTUNGSELEKTRONIK</text>
<rect x="76" y="546.5" class="st13" width="375.2" height="65.9"/>
<rect x="76.6" y="566.2" class="st5" width="374.5" height="65.9"/>
<text transform="matrix(1 0 0 1 180.4648 591.7529)" class="st11 st7 st12">BUCHHANDLUNG</text>
<rect x="76.2" y="648.4" class="st14" width="375.2" height="65.9"/>
<rect x="76.9" y="668.1" class="st5" width="374.5" height="65.9"/>
<text transform="matrix(1 0 0 1 220.0098 694.9521)" class="st11 st7 st12"> </text>
<text transform="matrix(1 0 0 1 244.5596 694.9521)" class="st11 st7 st12"> </text>
<text transform="matrix(1 0 0 1 187.6602 692.3945)" class="st11 st7 st12">GASTRONOMIE</text>
<rect x="76.6" y="750.3" class="st15" width="375.2" height="65.9"/>
<rect x="77.3" y="770.1" class="st5" width="374.5" height="65.9"/>
<text transform="matrix(1 0 0 1 239.7485 794.3154)" class="st11 st7 st12"> </text>
<text transform="matrix(1 0 0 1 217.3721 794.3154)" class="st11 st7 st12">SERVICE</text>
</svg>
