<?xml version="1.0" encoding="utf-8"?>
<!-- Generator: Adobe Illustrator 22.0.0, SVG Export Plug-In . SVG Version: 6.00 Build 0)  -->
<svg version="1.1" id="Ebene_1" xmlns="http://www.w3.org/2000/svg" xmlns:xlink="http://www.w3.org/1999/xlink" x="0px" y="0px"
	 viewBox="0 0 274.3 130.5" style="enable-background:new 0 0 274.3 130.5;" xml:space="preserve">
<style type="text/css">
	.st0{fill:#E0E0E0;stroke:#FFFFFF;stroke-width:0.656;}
	.st1{opacity:0.5;fill:#E0E0E0;stroke:#FFFFFF;stroke-width:0.25;enable-background:new    ;}
	.st2{fill:#FBED22;stroke:#FFFFFF;stroke-width:0.25;}
	.st3{fill:#E0E0E0;stroke:#FFFFFF;stroke-width:0.25;}
	.st4{fill:#8AA80C;stroke:#FFFFFF;stroke-width:0.25;}
	.st5{fill:#CACF18;stroke:#FFFFFF;stroke-width:0.25;}
	.st6{fill:#CACF18;}
	.st7{fill:#8AA80C;}
	.st8{fill:none;}
	.st9{fill:#353535;}
	.st10{font-family:'lato','Helvetica','Verdana';}
	.st11{font-size:2px;}
	.st12{fill:#FBED22;}
	.st13{enable-background:new    ;}
	.st14{fill:#757575;}
	.st15{font-size:6px;}
	.st16{font-family:'Lato','Helvetica','Verdana';}
	.st17{font-size:2.5px;}
    
      @import url('https://fonts.googleapis.com/css?family=Lato:300,400,700')
</style>
<g id="Ebene_1_1_">
</g>
<g id="Ebene_2_1_">
	<path class="st0" d="M64.5,38.5v12.3h-2.1v11.1h2.1v16.5h27v2.9h3.9v10h2.1V93h1.8v0.4h-1.6v5.3h-7.9v7.4h12.4v-3.2h8.6v-9.5h-2V93
		h2v-1.7h2.1v-8h8.1c1.3,0.5,2.7,0.9,4.1,0.9c1.5,0,2.9-0.3,4.1-0.9h3.8c1.3,0.5,2.7,0.9,4.1,0.9c1.5,0,2.9-0.3,4.1-0.9h3.8
		c1.3,0.5,2.7,0.9,4.1,0.9c1.5,0,2.9-0.3,4.1-0.9h7.6v8.1h2.1V93h13.3v-1.8h2.2v-1.8h1.8v-6.9h10.3v-4.3h18.8V61.9h2.4V50.8h-2.4
		V38.5H64.5z"/>
</g>
<g id="Ebene_58">
</g>
<g id="Ebene_60">
</g>
<g id="Ebene_57">
</g>
<g id="Ebene_59">
</g>
<g id="Ebene_3">
	<path class="st1" d="M188.4,38.5h-1.9v4.4h-17.3v8.3c-1.4,0.3-2.6,1.1-3.3,2.2h-57.2c-0.9-1.4-2.5-2.3-4.4-2.3
		c-2.9,0-5.2,2.3-5.2,5.2c0,2.1,1.2,3.9,3,4.7v13.4c-0.6,0.6-1,1.4-1,2.3s0.4,1.7,1,2.3v14.3h-0.2c-0.4,1.1-0.9,3.8-6.4,6.9
		c-3.3,1.9-4.3,3.9-4.7,5.8h4.6c1.4-2.7,3.4-1.4,8-6.2c2.4-2.5,3.2-6.5,3.2-6.5h-0.1V79.1c0.6-0.6,1-1.4,1-2.3s-0.4-1.8-1-2.3V61.1
		c0.9-0.4,1.6-1,2.1-1.8H166c0.9,1.3,2.5,2.2,4.3,2.2c2.9,0,5.2-2.3,5.2-5.2c0-2.5-1.8-4.7-4.2-5.1v-6.4h17.2v-6.3H188.4z"/>
</g>
<g id="map-53">
	<path class="st2" d="M101.1,101.8c-2.7,2.1-4.2,2-5.3,3.4h6v-2.8L101.1,101.8z"/>
</g>
<g id="map-52">
	<path class="st2" d="M101.8,102.4h5.2l1.6-1.5l-3-3l-0.6-0.3c-0.4,0.8-0.9,1.6-1.6,2.2c-0.7,0.7-1.3,1.3-1.9,1.8l0,0
		c-0.1,0.1-0.2,0.2-0.3,0.2L101.8,102.4z"/>
</g>
<g id="map-51">
	<path class="st2" d="M105,97.5l0.6,0.3l2.4,2.4l2-2v-4.6h-1.2v-0.5h-2.2v0.2c0.1,0,0.1,0,0.1,0S106.1,95.4,105,97.5z"/>
</g>
<g id="map-50">
	<rect x="106.5" y="90.1" class="st2" width="2.3" height="1.8"/>
	<rect x="106.5" y="90.1" class="st2" width="2.3" height="1.8"/>
</g>
<g id="map-49">
	<rect x="106.5" y="85" class="st3" width="5.3" height="4.1"/>
</g>
<g id="map-48">
	<rect x="106.5" y="82.5" class="st3" width="5.3" height="2.4"/>
</g>
<g id="map-47">
	<rect x="106.5" y="79.5" class="st3" width="6" height="3"/>
</g>
<g id="map-46">
	<path class="st2" d="M106.5,79.5h6v-2.7h-4.9c0,0.9-0.4,1.7-1,2.3L106.5,79.5L106.5,79.5z"/>
</g>
<g id="map-45">
	<path class="st3" d="M107.5,76.8h4.9v-8.3h-6v5.9C107.1,75,107.5,75.8,107.5,76.8L107.5,76.8z"/>
</g>
<g id="map-44">
	<rect x="106.5" y="65.2" class="st2" width="6" height="3.3"/>
</g>
<g id="map-43">
	<path class="st4" d="M106.5,63.7h3.3v-4.3h-1.2c-0.5,0.8-1.3,1.4-2.1,1.8C106.5,61.2,106.5,63.7,106.5,63.7z"/>
</g>
<g id="map-42">
	<rect x="109.7" y="59.4" class="st4" width="3" height="4.3"/>
</g>
<g id="map-41">
	<rect x="112.8" y="59.4" class="st4" width="2.3" height="4.3"/>
</g>
<g id="map-40">
	<rect x="116.4" y="59.4" class="st4" width="3.7" height="4.3"/>
</g>
<g id="map-39">
	<rect x="120.1" y="59.4" class="st4" width="3.7" height="4.3"/>
</g>
<g id="map-38">
	<rect x="123.7" y="59.4" class="st4" width="5.4" height="4.3"/>
</g>
<g id="map-37">
	<rect x="129.2" y="59.4" class="st4" width="4.2" height="4.3"/>
</g>
<g id="map-36">
	<rect x="134.5" y="59.4" class="st4" width="5.6" height="4.3"/>
</g>
<g id="map-35">
	<rect x="140.1" y="59.4" class="st4" width="5.5" height="4.3"/>
</g>
<g id="map-34">
	<rect x="145.6" y="59.4" class="st4" width="5.5" height="4.3"/>
</g>
<g id="map-33">
	<rect x="151.1" y="59.4" class="st4" width="3.3" height="4.3"/>
</g>
<g id="map-32">
	<rect x="154.4" y="59.4" class="st4" width="3.3" height="4.3"/>
</g>
<g id="map-31">
	<path class="st5" d="M166.4,59.3H159v4.5h8.1v-2.3l0.6-0.8C167.1,60.2,166.7,59.8,166.4,59.3z"/>
</g>
<g id="map-30">
	<path class="st5" d="M167.2,60.7l-0.6,0.8v2.2h3.5v-2.1C169.1,61.6,168.1,61.3,167.2,60.7z"/>
</g>
<g id="map-29">
	<path class="st5" d="M170.2,61.6v2.1h4.6v-1.8l-1.2-1.5C172.7,61.2,171.5,61.6,170.2,61.6L170.2,61.6z"/>
</g>
<g id="map-28">
	<path class="st5" d="M174.8,63.7v-1.8l-1.2-1.5c0.1-0.1,0.2-0.2,0.3-0.3l0,0c0.1-0.1,0.2-0.2,0.3-0.3l0,0c0.2-0.2,0.3-0.4,0.5-0.6
		l0,0c0.5-0.8,0.8-1.8,0.8-2.8c0-0.2,0-0.5,0-0.7l0,0c0,0,0,0,0-0.1s0-0.3-0.1-0.4v-0.1c0-0.1-0.1-0.3-0.1-0.4v-0.1
		c0-0.1-0.1-0.3-0.1-0.4c0,0,0,0,0-0.1c-0.1-0.1-0.1-0.3-0.2-0.4l0,0c-0.3-0.6-0.7-1.1-1.2-1.5l2.1-2.5v-5h21.8v4.8h2.8v14h-9.1v4.6
		h-9.5v-4.6h-7.1V63.7z"/>
</g>
<g id="map-27">
	<path class="st5" d="M173.6,52.4l2.1-2.5v-5h-4.4v6.4C172.1,51.4,172.9,51.8,173.6,52.4z"/>
</g>
<g id="map-26">
	<path class="st5" d="M169.2,44.9h-3.7v8.6h0.3c0.8-1.1,1.9-2,3.3-2.2L169.2,44.9L169.2,44.9z"/>
</g>
<g id="map-25">
	<rect x="161.6" y="44.9" class="st5" width="3.9" height="8.6"/>
</g>
<g id="map-24">
	<polygon class="st5" points="161.6,44.9 160.7,44.9 160.7,51.1 156.5,51.1 156.5,53.5 161.6,53.5 	"/>
</g>
<g id="map-23">
	<polygon class="st5" points="157.2,51.1 157.2,44.9 152.4,44.9 152.4,53.5 156.5,53.5 156.5,51.1 	"/>
</g>
<g id="map-22">
	<polygon class="st4" points="151,53.5 151,44.9 145.6,44.9 145.6,50.6 146.8,50.6 146.8,53.5 	"/>
</g>
<g id="map-21">
	<polygon class="st4" points="146.8,53.5 146.8,50.6 144.7,50.6 144.7,44.9 138.8,44.9 138.8,53.5 	"/>
</g>
<g id="map-20">
	<rect x="138.8" y="44.9" class="st3" width="0" height="8.6"/>
</g>
<g id="map-19">
	<rect x="134.6" y="51.1" class="st4" width="4.2" height="2.3"/>
</g>
<g id="map-18">
	<polygon class="st4" points="135.1,51.1 135.1,44.9 130.5,44.9 130.5,53.5 134.6,53.5 134.6,51.1 	"/>
</g>
<g id="map-17">
	<rect x="126.3" y="44.9" class="st4" width="2.9" height="8.6"/>
</g>
<g id="map-16">
	<rect x="121" y="44.9" class="st4" width="5.3" height="8.6"/>
</g>
<g id="map-15">
	<polygon class="st4" points="121,53.5 121,44.9 116.9,44.9 116.9,51.1 116.4,51.1 116.4,53.5 	"/>
</g>
<g id="map-14">
	<rect x="112.8" y="51.1" class="st4" width="3.6" height="2.3"/>
</g>
<g id="map-13">
	<path class="st4" d="M113.1,51.1v-6.3h-4.5v6.4l-0.8,1.2c0.3,0.3,0.6,0.6,0.9,1h4.1v-2.3C112.8,51.1,113.1,51.1,113.1,51.1z"/>
</g>
<g id="map-12">
	<path class="st5" d="M104.3,51.1L104.3,51.1c0.2,0,0.5,0,0.7,0h0.1c0.2,0,0.3,0.1,0.5,0.1c0.1,0,0.2,0.1,0.3,0.1
		c0.1,0,0.2,0.1,0.3,0.1c0.1,0.1,0.2,0.1,0.4,0.2c0.1,0,0.1,0.1,0.2,0.1l0.6-0.9v-6H95.2v6.3h-3.8v4.4h7.7
		C99.6,53,101.7,51.1,104.3,51.1z"/>
</g>
<g id="map-11">
	<rect x="80" y="44.9" class="st5" width="11.5" height="10.6"/>
</g>
<g id="map-10">
	<path class="st5" d="M99.1,55.5h-23v8.4h18.7v-1.6h4.8v-0.4l1.3-1.6c-1.1-1-1.9-2.4-1.9-4C99.1,56.1,99.1,55.8,99.1,55.5z"/>
	<rect x="80.1" y="54.6" class="st6" width="11.2" height="1.9"/>
</g>
<g id="map-9">
	<path class="st5" d="M102.1,61.1c-0.4-0.2-0.8-0.4-1.1-0.7L99.7,62v0.4h2.4V61.1z"/>
</g>
<g id="map-8">
	<rect x="96.9" y="65.2" class="st3" width="5.1" height="3.3"/>
</g>
<g id="map-7">
	<path class="st3" d="M102.1,65.1H97V76h4.3c0.1-0.7,0.7-1.4,0.9-1.6v-9.3H102.1z"/>
</g>
<g id="map-6">
	<path class="st3" d="M101.2,77.4h-4.4v5.8h5.3V79C101.6,78.6,101.3,78,101.2,77.4z"/>
</g>
<g id="map-5">
	<polygon class="st3" points="102.1,83.2 96.8,83.2 96.8,89.1 98.8,89.1 98.8,87.1 102.1,87.1 	"/>
</g>
<rect x="106.5" y="85" class="st2" width="5.3" height="4.1"/>
<polygon class="st2" points="106.5,79.5 106.5,82.5 106.5,84.9 111.8,84.9 111.8,82.5 112.5,82.5 112.5,79.5 "/>
<path class="st2" d="M112.4,76.8v-8.3h-6v5.9c0.7,0.6,1.1,1.4,1.1,2.4H112.4z"/>
<path class="st2" d="M101.2,77.4h-4.4v5.8v5.9h2v-2h3.3v-3.9V79C101.6,78.6,101.3,78,101.2,77.4z"/>
<g id="map-4">
	<rect x="98.8" y="87.1" class="st2" width="3.2" height="2.1"/>
</g>
<g id="map-3">
	<rect x="99.7" y="90.1" class="st2" width="2.3" height="1.8"/>
</g>
<g id="map-2">
	<path class="st2" d="M99.8,93.7h-1.5v4.7c2.9-2.3,3.2-4.1,3.6-5h0.2v-0.2h-2.3C99.8,93.2,99.8,93.7,99.8,93.7z"/>
</g>
<g id="map-1">
	<path class="st2" d="M97.1,99.2h-6.6v4.6l0.8,0.4c0.6-1.3,1.8-2.7,4.1-4C96.1,99.8,96.6,99.5,97.1,99.2z"/>
</g>
<rect x="13" y="38.5" class="st7" width="38" height="6.7"/>
<rect x="13.1" y="40.5" class="st8" width="37.9" height="6.7"/>
<text transform="matrix(1 0 0 1 22.0973 43.3721)" class="st9 st10 st11">NAHVERSORGUNG</text>
<rect x="13" y="49" class="st6" width="38" height="6.7"/>
<rect x="13.1" y="51" class="st8" width="37.9" height="6.7"/>
<text transform="matrix(1 0 0 1 24.2847 53.8354)" class="st9 st10 st11">LEBENSMITTEL</text>
<rect x="13.1" y="59.3" class="st12" width="38" height="6.7"/>
<rect x="13.1" y="61.3" class="st8" width="37.9" height="6.7"/>
<text transform="matrix(1 0 0 1 27.314 64.1582)" class="st9 st10 st11">SERVICE</text>
<rect x="64" y="11.9" class="st8" width="152.8" height="11.7"/>
<text transform="matrix(1 0 0 1 64 16.2373)" class="st13"><tspan x="0" y="0" class="st14 st10 st15">UG: NAHVERSORGUNG UND SERVICE</tspan></text>
<rect x="64" y="18.9" class="st8" width="152.8" height="11.7"/>
<text transform="matrix(1 0 0 1 64 21.0586)" class="st13"><tspan x="0" y="0" class="st14 st10 st17">SCHEMATISCHE DARSTELLUNG BRANCHEN BELEGUNSPLÄNE PRO ETAGE</tspan></text>
<path class="st2" d="M97,65.1V76h4.3c0.1-0.7,0.7-1.4,0.9-1.6v-9.3h-0.1H97z"/>
</svg>
