<?xml version="1.0" encoding="utf-8"?>
<!-- Generator: Adobe Illustrator 22.0.0, SVG Export Plug-In . SVG Version: 6.00 Build 0)  -->
<svg version="1.1" id="Ebene_1" xmlns="http://www.w3.org/2000/svg" xmlns:xlink="http://www.w3.org/1999/xlink" x="0px" y="0px"
	 viewBox="0 0 274.3 130.5" style="enable-background:new 0 0 274.3 130.5;" xml:space="preserve">
<style type="text/css">
	.st0{fill:#E0E0E0;stroke:#FFFFFF;stroke-width:0.656;}
	.st1{opacity:0.5;fill:#E0E0E0;stroke:#E0E0E0;stroke-width:0.25;enable-background:new    ;}
	.st2{fill:#FBED22;stroke:#FBED22;stroke-width:0.25;}
	.st3{fill:#E0E0E0;stroke:#E0E0E0;stroke-width:0.25;}
	.st4{fill:#8AA80C;stroke:#8AA80C;stroke-width:0.25;}
	.st5{fill:#CACF18;stroke:#CACF18;stroke-width:0.25;}
	.st6{fill:#CACF18;}
	.st7{fill:#8AA80C;}
	.st8{fill:none;}
	.st9{fill:#353535;}
	.st10{font-family:'Lato','Helvetica','Verdana';}
	.st11{font-size:2.6441px;}
	.st12{fill:#FBED22;}
	.st13{fill:#757575;}
	.st14{font-size:6px;}
	.st15{font-size:2.5px;}
    
    @import url('https://fonts.googleapis.com/css?family=Lato:300,400,700')
</style>
<g id="Ebene_1_1_">
</g>
<g id="Ebene_2_1_">
	<path class="st0" d="M93,38.5v12.3h-2.1v11.1H93v16.5h27v2.9h3.9v10h2.1V93h1.8v0.4h-1.6v5.3h-7.9v7.4h12.4v-3.2h8.6v-9.5h-2V93h2
		v-1.7h2.1v-8h8.1c1.3,0.5,2.7,0.9,4.1,0.9c1.5,0,2.9-0.3,4.1-0.9h3.8c1.3,0.5,2.7,0.9,4.1,0.9c1.5,0,2.9-0.3,4.1-0.9h3.8
		c1.3,0.5,2.7,0.9,4.1,0.9c1.5,0,2.9-0.3,4.1-0.9h7.6v8.1h2.1V93h13.3v-1.8h2.2v-1.8h1.8v-6.9H219v-4.3h18.8V61.9h2.4V50.8h-2.4
		V38.5H93z"/>
</g>
<g id="Ebene_58">
</g>
<g id="Ebene_60">
</g>
<g id="Ebene_57">
</g>
<g id="Ebene_59">
</g>
<g id="Ebene_3">
	<path class="st1" d="M216.9,38.5H215v4.4h-17.3v8.3c-1.4,0.3-2.6,1.1-3.3,2.2h-57.2c-0.9-1.4-2.5-2.3-4.4-2.3
		c-2.9,0-5.2,2.3-5.2,5.2c0,2.1,1.2,3.9,3,4.7v13.4c-0.6,0.6-1,1.4-1,2.3s0.4,1.7,1,2.3v14.3h-0.2c-0.4,1.1-0.9,3.8-6.4,6.9
		c-3.3,1.9-4.3,3.9-4.7,5.8h4.6c1.4-2.7,3.4-1.4,8-6.2c2.4-2.5,3.2-6.5,3.2-6.5H135V79.1c0.6-0.6,1-1.4,1-2.3s-0.4-1.8-1-2.3V61.1
		c0.9-0.4,1.6-1,2.1-1.8h57.4c0.9,1.3,2.5,2.2,4.3,2.2c2.9,0,5.2-2.3,5.2-5.2c0-2.5-1.8-4.7-4.2-5.1v-6.4H217v-6.3H216.9z"/>
</g>
<g id="map-53">
	<path class="st2" d="M129.6,101.8c-2.7,2.1-4.2,2-5.3,3.4h6v-2.8L129.6,101.8z"/>
</g>
<g id="map-52">
	<path class="st2" d="M130.3,102.4h5.2l1.6-1.5l-3-3l-0.6-0.3c-0.4,0.8-0.9,1.6-1.6,2.2c-0.7,0.7-1.3,1.3-1.9,1.8l0,0
		c-0.1,0.1-0.2,0.2-0.3,0.2L130.3,102.4z"/>
</g>
<g id="map-51">
	<path class="st2" d="M133.5,97.5l0.6,0.3l2.4,2.4l2-2v-4.6h-1.2v-0.5h-2.2v0.2c0.1,0,0.1,0,0.1,0S134.6,95.4,133.5,97.5z"/>
</g>
<g id="map-50">
	<rect x="135" y="90.1" class="st2" width="2.3" height="1.8"/>
	<rect x="135" y="90.1" class="st2" width="2.3" height="1.8"/>
</g>
<g id="map-49">
	<rect x="135" y="85" class="st3" width="5.3" height="4.1"/>
</g>
<g id="map-48">
	<rect x="135" y="82.5" class="st3" width="5.3" height="2.4"/>
</g>
<g id="map-47">
	<rect x="135" y="79.5" class="st3" width="6" height="3"/>
</g>
<g id="map-46">
	<path class="st2" d="M135,79.5h6v-2.7h-4.9c0,0.9-0.4,1.7-1,2.3L135,79.5L135,79.5z"/>
</g>
<g id="map-45">
	<path class="st3" d="M136,76.8h4.9v-8.3h-6v5.9C135.6,75,136,75.8,136,76.8L136,76.8z"/>
</g>
<g id="map-44">
	<rect x="135" y="65.2" class="st2" width="6" height="3.3"/>
</g>
<g id="map-43">
	<path class="st4" d="M135,63.7h3.3v-4.3h-1.2c-0.5,0.8-1.3,1.4-2.1,1.8C135,61.2,135,63.7,135,63.7z"/>
</g>
<g id="map-42">
	<rect x="138.2" y="59.4" class="st4" width="3" height="4.3"/>
</g>
<g id="map-41">
	<rect x="141.3" y="59.4" class="st4" width="2.3" height="4.3"/>
</g>
<g id="map-40">
	<rect x="144.9" y="59.4" class="st4" width="3.7" height="4.3"/>
</g>
<g id="map-39">
	<rect x="148.6" y="59.4" class="st4" width="3.7" height="4.3"/>
</g>
<g id="map-38">
	<rect x="152.2" y="59.4" class="st4" width="5.4" height="4.3"/>
</g>
<g id="map-37">
	<rect x="157.7" y="59.4" class="st4" width="4.2" height="4.3"/>
</g>
<g id="map-36">
	<rect x="163" y="59.4" class="st4" width="5.6" height="4.3"/>
</g>
<g id="map-35">
	<rect x="168.6" y="59.4" class="st4" width="5.5" height="4.3"/>
</g>
<g id="map-34">
	<rect x="174.1" y="59.4" class="st4" width="5.5" height="4.3"/>
</g>
<g id="map-33">
	<rect x="179.6" y="59.4" class="st4" width="3.3" height="4.3"/>
</g>
<g id="map-32">
	<rect x="182.9" y="59.4" class="st4" width="3.3" height="4.3"/>
</g>
<g id="map-31">
	<path class="st5" d="M194.9,59.3h-7.4v4.5h8.1v-2.3l0.6-0.8C195.6,60.2,195.2,59.8,194.9,59.3z"/>
</g>
<g id="map-30">
	<path class="st5" d="M195.7,60.7l-0.6,0.8v2.2h3.5v-2.1C197.6,61.6,196.6,61.3,195.7,60.7z"/>
</g>
<g id="map-29">
	<path class="st5" d="M198.7,61.6v2.1h4.6v-1.8l-1.2-1.5C201.2,61.2,200,61.6,198.7,61.6L198.7,61.6z"/>
</g>
<g id="map-28">
	<path class="st5" d="M203.3,63.7v-1.8l-1.2-1.5c0.1-0.1,0.2-0.2,0.3-0.3l0,0c0.1-0.1,0.2-0.2,0.3-0.3l0,0c0.2-0.2,0.3-0.4,0.5-0.6
		l0,0c0.5-0.8,0.8-1.8,0.8-2.8c0-0.2,0-0.5,0-0.7l0,0c0,0,0,0,0-0.1s0-0.3-0.1-0.4v-0.1c0-0.1-0.1-0.3-0.1-0.4v-0.1
		c0-0.1-0.1-0.3-0.1-0.4c0,0,0,0,0-0.1c-0.1-0.1-0.1-0.3-0.2-0.4l0,0c-0.3-0.6-0.7-1.1-1.2-1.5l2.1-2.5v-5h21.8v4.8h2.8v14h-9.1v4.6
		h-9.5v-4.6h-7.1V63.7z"/>
</g>
<g id="map-27">
	<path class="st5" d="M202.1,52.4l2.1-2.5v-5h-4.4v6.4C200.6,51.4,201.4,51.8,202.1,52.4z"/>
</g>
<g id="map-26">
	<path class="st5" d="M197.7,44.9H194v8.6h0.3c0.8-1.1,1.9-2,3.3-2.2L197.7,44.9L197.7,44.9z"/>
</g>
<g id="map-25">
	<rect x="190.1" y="44.9" class="st5" width="3.9" height="8.6"/>
</g>
<g id="map-24">
	<polygon class="st5" points="190.1,44.9 189.2,44.9 189.2,51.1 185,51.1 185,53.5 190.1,53.5 	"/>
</g>
<g id="map-23">
	<polygon class="st5" points="185.7,51.1 185.7,44.9 180.9,44.9 180.9,53.5 185,53.5 185,51.1 	"/>
</g>
<g id="map-22">
	<polygon class="st4" points="179.5,53.5 179.5,44.9 174.1,44.9 174.1,50.6 175.3,50.6 175.3,53.5 	"/>
</g>
<g id="map-21">
	<polygon class="st4" points="175.3,53.5 175.3,50.6 173.2,50.6 173.2,44.9 167.3,44.9 167.3,53.5 	"/>
</g>
<g id="map-20">
	<rect x="167.3" y="44.9" class="st3" width="0" height="8.6"/>
</g>
<g id="map-19">
	<rect x="163.1" y="51.1" class="st4" width="4.2" height="2.3"/>
</g>
<g id="map-18">
	<polygon class="st4" points="163.6,51.1 163.6,44.9 159,44.9 159,53.5 163.1,53.5 163.1,51.1 	"/>
</g>
<g id="map-17">
	<rect x="154.8" y="44.9" class="st4" width="2.9" height="8.6"/>
</g>
<g id="map-16">
	<rect x="149.5" y="44.9" class="st4" width="5.3" height="8.6"/>
</g>
<g id="map-15">
	<polygon class="st4" points="149.5,53.5 149.5,44.9 145.4,44.9 145.4,51.1 144.9,51.1 144.9,53.5 	"/>
</g>
<g id="map-14">
	<rect x="141.3" y="51.1" class="st4" width="3.6" height="2.3"/>
</g>
<g id="map-13">
	<path class="st4" d="M141.6,51.1v-6.3h-4.5v6.4l-0.8,1.2c0.3,0.3,0.6,0.6,0.9,1h4.1v-2.3C141.3,51.1,141.6,51.1,141.6,51.1z"/>
</g>
<g id="map-12">
	<path class="st5" d="M132.8,51.1L132.8,51.1c0.2,0,0.5,0,0.7,0h0.1c0.2,0,0.3,0.1,0.5,0.1c0.1,0,0.2,0.1,0.3,0.1s0.2,0.1,0.3,0.1
		c0.1,0.1,0.2,0.1,0.4,0.2c0.1,0,0.1,0.1,0.2,0.1l0.6-0.9v-6h-12.2v6.3h-3.8v4.4h7.7C128.1,53,130.2,51.1,132.8,51.1z"/>
</g>
<g id="map-11">
	<rect x="108.5" y="44.9" class="st5" width="11.5" height="10.6"/>
</g>
<g id="map-10">
	<path class="st5" d="M127.6,55.5h-23v8.4h18.7v-1.6h4.8v-0.4l1.3-1.6c-1.1-1-1.9-2.4-1.9-4C127.6,56.1,127.6,55.8,127.6,55.5z"/>
	<rect x="108.6" y="54.6" class="st6" width="11.2" height="1.9"/>
</g>
<g id="map-9">
	<path class="st5" d="M130.6,61.1c-0.4-0.2-0.8-0.4-1.1-0.7l-1.3,1.6v0.4h2.4V61.1z"/>
</g>
<g id="map-8">
	<rect x="125.4" y="65.2" class="st3" width="5.1" height="3.3"/>
</g>
<g id="map-7">
	<path class="st3" d="M130.6,65.1h-5.1V76h4.3c0.1-0.7,0.7-1.4,0.9-1.6v-9.3H130.6z"/>
</g>
<g id="map-6">
	<path class="st3" d="M129.7,77.4h-4.4v5.8h5.3V79C130.1,78.6,129.8,78,129.7,77.4z"/>
</g>
<g id="map-5">
	<polygon class="st3" points="130.6,83.2 125.3,83.2 125.3,89.1 127.3,89.1 127.3,87.1 130.6,87.1 	"/>
</g>
<rect x="135" y="85" class="st2" width="5.3" height="4.1"/>
<polygon class="st2" points="135,79.5 135,82.5 135,84.9 140.3,84.9 140.3,82.5 141,82.5 141,79.5 "/>
<path class="st2" d="M140.9,76.8v-8.3h-6v5.9c0.7,0.6,1.1,1.4,1.1,2.4H140.9z"/>
<path class="st2" d="M129.7,77.4h-4.4v5.8v5.9h2v-2h3.3v-3.9V79C130.1,78.6,129.8,78,129.7,77.4z"/>
<g id="map-4">
	<rect x="127.3" y="87.1" class="st2" width="3.2" height="2.1"/>
</g>
<g id="map-3">
	<rect x="128.2" y="90.1" class="st2" width="2.3" height="1.8"/>
</g>
<g id="map-2">
	<path class="st2" d="M128.3,93.7h-1.5v4.7c2.9-2.3,3.2-4.1,3.6-5h0.2v-0.2h-2.3C128.3,93.2,128.3,93.7,128.3,93.7z"/>
</g>
<g id="map-1">
	<path class="st2" d="M125.6,99.2H119v4.6l0.8,0.4c0.6-1.3,1.8-2.7,4.1-4C124.6,99.8,125.1,99.5,125.6,99.2z"/>
</g>
<rect x="13" y="38.5" class="st7" width="50.2" height="8.9"/>
<rect x="13.1" y="41.1" class="st8" width="50.1" height="8.9"/>
<text transform="matrix(1 0 0 1 25.0269 44.9414)" class="st9 st10 st11">NAHVERSORGUNG</text>
<rect x="13" y="52.4" class="st6" width="50.2" height="8.9"/>
<rect x="13.1" y="55" class="st8" width="50.1" height="8.9"/>
<text transform="matrix(1 0 0 1 27.9189 58.7739)" class="st9 st10 st11">LEBENSMITTEL</text>
<rect x="13.1" y="66" class="st12" width="50.2" height="8.9"/>
<rect x="13.1" y="68.6" class="st8" width="50.1" height="8.9"/>
<text transform="matrix(1 0 0 1 31.9238 72.4209)" class="st9 st10 st11">SERVICE</text>
<rect x="92.5" y="11.9" class="st8" width="152.8" height="11.7"/>
<text transform="matrix(1 0 0 1 92.5 16.2373)" class="st13 st10 st14">UG: NAHVERSORGUNG UND SERVICE</text>
<rect x="92.5" y="18.9" class="st8" width="152.8" height="11.7"/>
<text transform="matrix(1 0 0 1 92.5 21.0586)" class="st13 st10 st15">SCHEMATISCHE DARSTELLUNG BRANCHEN BELEGUNSPLÄNE PRO ETAGE</text>
<path class="st2" d="M125.5,65.1V76h4.3c0.1-0.7,0.7-1.4,0.9-1.6v-9.3h-0.1H125.5z"/>
</svg>
