<?xml version="1.0" encoding="utf-8"?>
<!-- Generator: Adobe Illustrator 22.0.0, SVG Export Plug-In . SVG Version: 6.00 Build 0)  -->
<svg version="1.1" id="Ebene_1" xmlns="http://www.w3.org/2000/svg" xmlns:xlink="http://www.w3.org/1999/xlink" x="0px" y="0px"
	 viewBox="0 0 2473.3 1304.8" style="enable-background:new 0 0 2473.3 1304.8;" xml:space="preserve">
<style type="text/css">
	.st0{fill:#E0E0E0;stroke:#FFFFFF;stroke-width:0.656;}
	.st1{fill:#FBED22;stroke:#FFFFFF;stroke-width:2;stroke-miterlimit:10;}
	.st2{fill:#8AA80C;stroke:#FFFFFF;stroke-width:2;stroke-miterlimit:10;}
	.st3{fill:#CACF18;stroke:#FFFFFF;stroke-width:2;stroke-miterlimit:10;}
	.st4{fill:#68770C;stroke:#FFFFFF;stroke-width:2;stroke-miterlimit:10;}
	.st5{fill:#E0E0E0;stroke:#FFFFFF;stroke-width:2;stroke-miterlimit:10;}
	.st6{fill:none;}
	.st7{enable-background:new;}
	.st8{fill:#757575;}
	.st9{font-family:'Lato','Helvetica','Verdana';}
	.st10{font-size:60px;}
	.st11{font-family:'Lato','Helvetica','Verdana';}
	.st12{font-size:30px;}
	.st13{fill:#68770C;}
	.st14{fill:#353535;}
	.st15{font-size:18px;}
	.st16{fill:#8AA80C;}
	.st17{fill:#CACF18;}
	.st18{fill:#FBED22;}
    
      @import url('https://fonts.googleapis.com/css?family=Lato:300,400,700')
</style>
<g id="Ebene_1_1_">
	<g>
		<path class="st0" d="M952.1,1028.4v-22.1h27.5v-96.2h97.9c15.3,6.6,32.2,10.3,50,10.3c17.7,0,34.6-3.7,49.9-10.3h45.9
			c15.3,6.6,32.2,10.3,49.9,10.3c17.7,0,34.6-3.7,49.9-10.3h45.5c15.3,6.6,32.2,10.3,49.9,10.3c17.7,0,34.6-3.7,49.9-10.3h91.4v97.2
			h25.6v21.1h160.3v-21.1h26.3v-21.1h21.6v-83.1h124.9v-51.6H2145V652.8h28.5V519H2145V370.2H394.2V519h-25.8v133.8h25.8v198.6
			h326.3v34.7h46.9v120.2h27v22.1H952.1z"/>
	</g>
</g>
<g id="map-54">
	<polygon class="st1" points="368.3,555.9 547.2,555.9 547.2,446.7 394.2,446.7 394.2,519 368.3,519 	"/>
</g>
<g id="map-55">
	<rect x="547.2" y="446.7" class="st1" width="33" height="108.9"/>
</g>
<g id="map-56">
	<rect x="595.3" y="446.7" class="st2" width="40.2" height="108.9"/>
</g>
<g id="map-57">
	<rect x="635.5" y="446.7" class="st2" width="94.7" height="108.9"/>
</g>
<g id="map-58">
	<rect x="730.2" y="446.7" class="st2" width="48" height="108.9"/>
</g>
<g id="map-59">
	<polygon class="st2" points="778.2,446.7 778.2,555.6 787.3,555.6 844.4,550.9 844.4,446.7 	"/>
</g>
<g id="map-60">
	<polygon class="st2" points="844.4,550.9 888.3,547.8 888.3,446.7 844.4,446.7 	"/>
</g>
<g id="map-61">
	<polygon class="st2" points="888.3,547.8 888.3,446.7 936.3,446.7 936.3,544.8 	"/>
</g>
<g id="map-62">
	<polygon class="st2" points="936.3,544.8 936.3,446.7 978,446.7 978,542.5 	"/>
</g>
<g id="map-63">
	<polygon class="st3" points="991.3,541.8 991.3,446.7 1043.2,446.7 1043.2,539.4 	"/>
</g>
<g id="map-64">
	<polygon class="st3" points="1043.2,539.4 1043.2,446.7 1077.3,446.7 1077.4,538.1 	"/>
</g>
<g id="map-65">
	<polygon class="st3" points="1077.4,538.1 1077.4,446.7 1106.8,446.7 1106.8,537.1 	"/>
</g>
<g id="map-66">
	<polygon class="st3" points="1106.8,537.1 1106.8,446.7 1144.9,446.7 1144.9,536.1 	"/>
</g>
<g id="map-67">
	<polygon class="st3" points="1144.9,536.1 1144.9,446.7 1175.7,446.7 1175.7,535.4 	"/>
</g>
<g id="map-68">
	<polygon class="st3" points="1175.7,535.4 1175.7,446.7 1241.8,446.7 1241.8,534.6 	"/>
</g>
<g id="map-69">
	<polygon class="st3" points="1241.8,534.6 1241.8,446.7 1289.5,446.7 1289.5,473.9 1306.4,473.9 1306.4,534.6 	"/>
</g>
<g id="map-70">
	<polygon class="st3" points="1306.4,534.6 1306.4,473.9 1289.5,473.9 1289.5,446.7 1356.8,446.7 1356.8,535.2 	"/>
</g>
<g id="map-71">
	<polygon class="st3" points="1371.1,535.5 1371.1,446.7 1415.7,446.7 1415.7,472.1 1440.2,472.1 1440.2,489.4 1415.7,489.4 
		1415.7,536.5 	"/>
</g>
<g id="map-72">
	<polygon class="st3" points="1415.7,536.6 1415.7,489.4 1440.2,489.4 1440.2,537.3 	"/>
</g>
<g id="map-73">
	<polygon class="st3" points="1440.2,537.3 1440.2,472.1 1415.7,472.1 1415.7,446.7 1504.7,446.7 1504.7,539.7 	"/>
</g>
<g id="map-74">
	<polygon class="st3" points="1504.7,539.7 1504.7,446.7 1538.9,446.7 1538.9,541.2 	"/>
</g>
<g id="map-75">
	<polygon class="st3" points="1538.9,541.2 1538.9,446.7 1569.6,446.7 1569.6,542.8 	"/>
</g>
<g id="map-76">
	<polygon class="st3" points="1569.6,542.8 1569.6,446.7 1603.5,446.7 1603.5,492.3 1637.3,492.3 1637.3,546.7 	"/>
</g>
<g id="map-77">
	<polygon class="st2" points="1637.3,546.7 1637.3,492.3 1603.5,492.3 1603.5,446.7 1680.4,446.7 1680.4,549.7 	"/>
</g>
<g id="map-78">
	<polygon class="st2" points="1680.4,549.7 1680.4,446.7 1731.9,446.7 1731.9,553.7 	"/>
</g>
<g id="map-79">
	<polygon class="st2" points="1731.9,553.7 1731.9,446.7 1808.9,446.7 1808.9,555.6 1753.6,555.6 	"/>
</g>
<g id="map-80">
	<rect x="1808.9" y="446.7" class="st2" width="55.7" height="108.9"/>
</g>
<g id="map-81">
	<rect x="1887.1" y="516.7" class="st1" width="38.7" height="39"/>
</g>
<g id="map-82">
	<polygon class="st1" points="2058.5,555.6 1925.8,555.6 1925.8,516.7 1887.1,516.7 1887.1,394.1 2005.4,394.1 2005.4,498.3 
		2058.5,498.3 	"/>
</g>
<g id="map-83">
	<polygon class="st1" points="2058.5,555.6 2058.5,505.8 2102.1,505.8 2102.1,474.9 2145,474.9 2145,519 2173.5,519 2173.5,555.6 	
		"/>
</g>
<g id="map-84">
	<polygon class="st4" points="2173.5,652.8 2173.5,618.8 2088,618.8 2088,643.2 2030.8,643.2 2030.8,618.8 1834.5,618.8 
		1834.5,688.7 1805.4,688.7 1805.4,733.6 1813.6,733.6 1813.6,851.4 1918.6,851.4 2145,851.4 2145,652.8 	"/>
</g>
<g id="map-85">
	<rect x="2030.8" y="618.8" class="st4" width="57.3" height="24.4"/>
</g>
<g id="map-86">
	<rect x="1801.5" y="618.8" class="st4" width="33" height="70"/>
</g>
<g id="map-87">
	<polygon class="st4" points="1801.5,688.7 1801.5,618.8 1754.5,618.8 1754.5,733.6 1805.4,733.6 1805.4,688.7 	"/>
</g>
<g id="map-88">
	<rect x="1772.1" y="733.6" class="st4" width="41.5" height="32.9"/>
</g>
<g id="map-89">
	<rect x="1772.1" y="766.4" class="st4" width="41.5" height="31.9"/>
</g>
<g id="map-90">
	<polygon class="st5" points="1772.1,910.1 1723.7,910.1 1723.7,1028.4 1745.8,1028.4 1745.8,1007.3 1772.1,1007.3 	"/>
</g>
<g id="map-91">
	<polygon class="st3" points="1666.5,625 1726.3,621.1 1726.3,690.4 1666.5,690.4 	"/>
</g>
<g id="map-92">
	<polygon class="st3" points="1666.5,690.4 1605.4,690.4 1605.4,629 1666.5,625 	"/>
</g>
<g id="map-93">
	<polygon class="st5" points="1559.9,910.1 1559.9,1007.3 1585.5,1007.3 1585.5,1028.4 1606.8,1028.4 1606.8,910.1 	"/>
</g>
<g id="map-94">
	<g>
		<path class="st3" d="M1468.3,804.8h-141.9V754h-33.1v50.8v6.6v107.4c10.4-1.7,20.4-4.6,29.8-8.7h45.5
			c15.3,6.6,32.2,10.3,49.9,10.3c17.7,0,34.5-3.7,49.7-10.3L1468.3,804.8L1468.3,804.8z"/>
		<path class="st3" d="M1468.3,804.8h-141.9V754h-33.1v50.8v6.6v107.4c10.4-1.7,20.4-4.6,29.8-8.7h45.5
			c15.3,6.6,32.2,10.3,49.9,10.3c17.7,0,34.5-3.7,49.7-10.3L1468.3,804.8L1468.3,804.8z"/>
	</g>
</g>
<g id="map-95">
	<rect x="1504.7" y="793.2" class="st2" width="38.8" height="23"/>
</g>
<g id="map-96">
	<rect x="1504.7" y="764.6" class="st2" width="55.2" height="28.6"/>
</g>
<g id="map97">
	<rect x="1504.7" y="733.6" class="st2" width="55.2" height="31"/>
</g>
<g id="map-98">
	<polygon class="st2" points="1579.1,690.4 1528.4,690.4 1528.4,733.6 1559.9,733.6 1579.1,733.6 	"/>
</g>
<g id="map-99">
	<polygon class="st2" points="1579.1,690.4 1537.5,690.4 1537.5,632.5 1579.1,630.5 	"/>
</g>
<g id="map-100">
	<polygon class="st2" points="1537.5,690.4 1504.3,690.4 1504.3,633.8 1537.5,632.5 	"/>
</g>
<g id="map-101">
	<polygon class="st2" points="1528.4,690.4 1504.3,690.3 1504.3,633.8 1461.7,635.1 1373,637.9 1373,689.2 1331.4,689.2 
		1331.4,740.2 1326.4,740.2 1326.4,804.7 1504.7,804.7 1504.3,733.6 1528.4,733.6 	"/>
</g>
<g id="map-102">
	<polygon class="st2" points="1373,689.2 1331.4,689.2 1331.4,638.4 1373,637.8 	"/>
</g>
<g id="map-103">
	<polygon class="st2" points="1331.4,689.2 1289.7,689.2 1289.7,638.7 1331.4,638.4 	"/>
</g>
<g id="map-104">
	<polygon class="st2" points="1255.4,689.2 1207.3,689.2 1207.3,638.4 1255.4,638.7 	"/>
</g>
<g id="map-105">
	<polygon class="st2" points="1207.3,690 1174.2,690 1174.2,637.9 1207.3,638.4 	"/>
</g>
<g id="map-106">
	<polygon class="st2" points="1207.3,795.5 1107.8,795.5 1107.8,636.3 1174.2,637.9 1174.2,690 1207.3,690 	"/>
</g>
<g id="map-107">
	<polygon class="st2" points="1107.8,795.5 1040.2,795.5 1040.2,733.6 1010.1,733.6 1010.1,682.4 1040.2,682.4 1040.2,634 
		1107.8,636.3 	"/>
</g>
<g id="map-108">
	<polygon class="st2" points="1040.2,682.4 1005.9,682.4 1005.9,632.5 1040.2,634 	"/>
</g>
<g id="map-109">
	<polygon class="st2" points="1005.9,682.4 1005.9,632.5 962.7,630.5 962.7,682.4 	"/>
</g>
<g id="map-110">
	<polygon class="st2" points="1010.1,682.4 962.7,682.4 962.7,733.6 979.6,733.6 1010.1,733.6 	"/>
</g>
<g id="map-111">
	<rect x="979.6" y="733.6" class="st2" width="60.6" height="34.7"/>
</g>
<g id="map-112">
	<rect x="1001.4" y="768.3" class="st2" width="38.8" height="27.2"/>
</g>
<g id="map-113">
	<polygon class="st3" points="1207.4,754 1245.8,754 1245.8,917.4 1222.6,910.1 1177.4,910.1 1161.2,915.8 1146.3,919 1137.1,920.1 
		1127.2,920.4 1116.1,919.9 1104.7,918.4 1089.5,914.6 1077.5,910.1 1077.5,795.5 1207.4,795.5 	"/>
</g>
<g id="map-114">
	<polygon class="st5" points="952.2,1028.4 952.2,1006.3 979.6,1006.3 979.6,910.1 931.7,910.1 931.7,1028.4 	"/>
</g>
<g id="map-115">
	<g>
		<line class="st3" x1="931.7" y1="690.4" x2="931.7" y2="628.8"/>
		<path class="st3" d="M873,690.4h58.7v-61.6c-21.6-1.2-41.3-2.4-58.7-3.6V690.4z"/>
	</g>
</g>
<g id="map-116">
	<g>
		<line class="st3" x1="814.8" y1="621" x2="814.8" y2="690.4"/>
		<path class="st3" d="M873,625.2c-24.1-1.6-43.8-3-58.2-4.2v69.4H873V625.2z"/>
	</g>
</g>
<g id="map-117_1_">
	<polygon class="st5" points="767.4,910.1 767.4,1006.3 794.4,1006.3 794.4,1028.4 814.8,1028.4 814.8,910.1 	"/>
</g>
<g id="map-118_1_">
	<rect x="719.3" y="733.6" class="st1" width="48.1" height="60.1"/>
</g>
<g id="map-119_1_">
	<polygon class="st1" points="734.1,618.8 734.1,733.6 767.4,733.6 787.3,733.6 787.3,698.4 787.3,690.4 787.3,618.8 	"/>
</g>
<g id="map-120_1_">
	<polygon class="st1" points="734.1,733.6 734.1,618.8 676.3,618.8 676.3,725 660.9,725 660.9,851.4 734.1,851.4 734.1,793.7 
		719.3,793.7 719.3,733.6 	"/>
</g>
<g id="map-121_1_">
	<polygon class="st1" points="676.3,725 676.3,618.8 609.2,618.8 609.2,714.7 580.2,714.7 580.2,851.4 660.9,851.4 660.9,725 	"/>
</g>
<g id="map-122_1_">
	<polygon class="st1" points="514.1,618.8 514.1,676.8 477.7,676.8 477.7,828.4 488.5,828.4 488.5,851.4 580.2,851.4 580.2,714.7 
		609.2,714.7 609.2,618.8 	"/>
</g>
<g id="map-123">
	<polygon class="st1" points="514.1,618.8 514.1,676.8 477.7,676.8 477.7,828.4 488.5,828.4 488.5,851.4 394.2,851.4 394.2,652.8 
		368.3,652.8 368.3,618.8 	"/>
</g>
<g id="Ebene_72">
	<rect x="390.6" y="112" class="st6" width="1487" height="52.9"/>
	<text transform="matrix(1 0 0 1 390.6177 155.6901)" class="st7"><tspan x="0" y="0" class="st8 st9 st10">EG: VERZEHR UND SHOPPING</tspan></text>
	<rect x="390.6" y="185.8" class="st6" width="1705" height="67.4"/>
	<text transform="matrix(1 0 0 1 390.6177 207.8844)" class="st7"><tspan x="0" y="0" class="st8 st9 st12">SCHEMATISCHE DARSTELLUNG DER BRANCHEN UND BELEGUNGSPLÄNE PRO ETAGE</tspan></text>
	<rect x="14.6" y="370.2" class="st13" width="293.4" height="51.5"/>
	<rect x="15.1" y="385.6" class="st6" width="292.9" height="51.5"/>
	<text transform="matrix(1 0 0 1 30.5023 406.5836)" class="st14 st9 st15">UNTERHALTUNGSELEKTRONIK</text>
	<rect x="14.9" y="451" class="st16" width="293.4" height="51.5"/>
	<rect x="15.4" y="466.4" class="st6" width="292.9" height="51.5"/>
	<text transform="matrix(1 0 0 1 132.6124 487.3795)" class="st14 st9 st15">MODE</text>
	<rect x="15.1" y="530.7" class="st17" width="293.4" height="51.5"/>
	<rect x="15.6" y="546.1" class="st6" width="292.9" height="51.5"/>
	<text transform="matrix(1 0 0 1 127.5397 567.0895)" class="st14 st11 st15"> </text>
	<text transform="matrix(1 0 0 1 146.7397 567.0895)" class="st14 st11 st15"> </text>
	<text transform="matrix(1 0 0 1 102.2397 565.0895)" class="st14 st9 st15">GASTRONOMIE</text>
	<rect x="15.4" y="610.4" class="st18" width="293.4" height="51.5"/>
	<rect x="15.9" y="625.9" class="st6" width="292.9" height="51.5"/>
	<text transform="matrix(1 0 0 1 132.9769 644.7995)" class="st14 st11 st15"> </text>
	<text transform="matrix(1 0 0 1 115.4769 644.7995)" class="st14 st9 st15">GESUNDHEIT</text>
</g>
</svg>
