<?xml version="1.0" encoding="utf-8"?>
<!-- Generator: Adobe Illustrator 22.0.0, SVG Export Plug-In . SVG Version: 6.00 Build 0)  -->
<svg version="1.1" id="Ebene_1" xmlns="http://www.w3.org/2000/svg" xmlns:xlink="http://www.w3.org/1999/xlink" x="0px" y="0px"
	 viewBox="0 0 274.3 130.5" style="enable-background:new 0 0 274.3 130.5;" xml:space="preserve">
<style type="text/css">
	.st0{fill:#E0E0E0;stroke:#FFFFFF;stroke-width:0.656;}
	.st1{opacity:0.5;fill:#E0E0E0;stroke:#FFFFFF;stroke-width:0.25;enable-background:new    ;}
	.st2{fill:#E0E0E0;stroke:#FFFFFF;stroke-width:0.25;}
	.st3{fill:#E0E0E0;}
	.st4{fill:#FF0000;}
	.st5{fill:#96C31E;}
	.st6{fill:#0000FF;}
	.st7{fill:none;}
	.st8{fill:#353535;}
	.st9{font-family:'Helvetica';}
	.st10{font-size:3px;}
	.st11{enable-background:new    ;}
	.st12{font-size:6px;}
	.st13{font-family:'Helvetica';}
	.st14{font-size:2.5px;}
</style>
<g id="Ebene_1_1_">
</g>
<g id="Ebene_2_1_">
	<path class="st0" d="M64.5,38.5v12.3h-2.1v11.1h2.1v16.5h27v2.9h3.9v10h2.1V93h1.8v0.4h-1.6v5.3h-7.9v7.4h12.4v-3.2h8.6v-9.5h-2V93
		h2v-1.7h2.1v-8h8.1c1.3,0.5,2.7,0.9,4.1,0.9c1.5,0,2.9-0.3,4.1-0.9h3.8c1.3,0.5,2.7,0.9,4.1,0.9c1.5,0,2.9-0.3,4.1-0.9h3.8
		c1.3,0.5,2.7,0.9,4.1,0.9c1.5,0,2.9-0.3,4.1-0.9h7.6v8.1h2.1V93h13.3v-1.8h2.2v-1.8h1.8v-6.9h10.3v-4.3h18.8V61.9h2.4V50.8h-2.4
		V38.5H64.5z"/>
</g>
<g id="Ebene_58">
</g>
<g id="Ebene_60">
</g>
<g id="Ebene_57">
</g>
<g id="Ebene_59">
</g>
<g id="Ebene_3">
	<path class="st1" d="M188.4,38.5h-1.9v4.4h-17.3v8.3c-1.4,0.3-2.6,1.1-3.3,2.2h-57.2c-0.9-1.4-2.5-2.3-4.4-2.3
		c-2.9,0-5.2,2.3-5.2,5.2c0,2.1,1.2,3.9,3,4.7v13.4c-0.6,0.6-1,1.4-1,2.3s0.4,1.7,1,2.3v14.3h-0.2c-0.4,1.1-0.9,3.8-6.4,6.9
		c-3.3,1.9-4.3,3.9-4.7,5.8h4.6c1.4-2.7,3.4-1.4,8-6.2c2.4-2.5,3.2-6.5,3.2-6.5h-0.1V79.1c0.6-0.6,1-1.4,1-2.3s-0.4-1.8-1-2.3V61.1
		c0.9-0.4,1.6-1,2.1-1.8H166c0.9,1.3,2.5,2.2,4.3,2.2c2.9,0,5.2-2.3,5.2-5.2c0-2.5-1.8-4.7-4.2-5.1v-6.4h17.2v-6.3H188.4z"/>
</g>
<g id="map-53">
	<path class="st2" d="M101.1,101.8c-2.7,2.1-4.2,2-5.3,3.4h6v-2.8L101.1,101.8z"/>
</g>
<g id="map-52">
	<path class="st2" d="M101.8,102.4h5.2l1.6-1.5l-3-3l-0.6-0.3c-0.4,0.8-0.9,1.6-1.6,2.2c-0.7,0.7-1.3,1.3-1.9,1.8l0,0
		c-0.1,0.1-0.2,0.2-0.3,0.2L101.8,102.4z"/>
</g>
<g id="map-51">
	<path class="st2" d="M105,97.5l0.6,0.3l2.4,2.4l2-2v-4.6h-1.2v-0.5h-2.2v0.2c0.1,0,0.1,0,0.1,0S106.1,95.4,105,97.5z"/>
</g>
<g id="map-50">
	<rect x="106.5" y="90.1" class="st2" width="2.3" height="1.8"/>
	<rect x="106.5" y="90.1" class="st2" width="2.3" height="1.8"/>
</g>
<g id="map-49">
	<rect x="106.5" y="85" class="st2" width="5.3" height="4.1"/>
</g>
<g id="map-48">
	<rect x="106.5" y="82.5" class="st2" width="5.3" height="2.4"/>
</g>
<g id="map-47">
	<rect x="106.5" y="79.5" class="st2" width="6" height="3"/>
</g>
<g id="map-46">
	<path class="st2" d="M106.5,79.5h6v-2.7h-4.9c0,0.9-0.4,1.7-1,2.3L106.5,79.5L106.5,79.5z"/>
</g>
<g id="map-45">
	<path class="st2" d="M107.5,76.8h4.9v-8.3h-6v5.9C107.1,75,107.5,75.8,107.5,76.8L107.5,76.8z"/>
</g>
<g id="map-44">
	<rect x="106.5" y="65.2" class="st2" width="6" height="3.3"/>
</g>
<g id="map-43">
	<path class="st2" d="M106.5,63.7h3.3v-4.3h-1.2c-0.5,0.8-1.3,1.4-2.1,1.8C106.5,61.2,106.5,63.7,106.5,63.7z"/>
</g>
<g id="map-42">
	<rect x="109.7" y="59.4" class="st2" width="3" height="4.3"/>
</g>
<g id="map-41">
	<rect x="112.8" y="59.4" class="st2" width="2.3" height="4.3"/>
</g>
<g id="map-40">
	<rect x="116.4" y="59.4" class="st2" width="3.7" height="4.3"/>
</g>
<g id="map-39">
	<rect x="120.1" y="59.4" class="st2" width="3.7" height="4.3"/>
</g>
<g id="map-38">
	<rect x="123.7" y="59.4" class="st2" width="5.4" height="4.3"/>
</g>
<g id="map-37">
	<rect x="129.2" y="59.4" class="st2" width="4.2" height="4.3"/>
</g>
<g id="map-36">
	<rect x="134.5" y="59.4" class="st2" width="5.6" height="4.3"/>
</g>
<g id="map-35">
	<rect x="140.1" y="59.4" class="st2" width="5.5" height="4.3"/>
</g>
<g id="map-34">
	<rect x="145.6" y="59.4" class="st2" width="5.5" height="4.3"/>
</g>
<g id="map-33">
	<rect x="151.1" y="59.4" class="st2" width="3.3" height="4.3"/>
</g>
<g id="map-32">
	<rect x="154.4" y="59.4" class="st2" width="3.3" height="4.3"/>
</g>
<g id="map-31">
	<path class="st2" d="M166,59.4h-7v4.3h7.7v-2.2l0.6-0.8C166.7,60.3,166.3,59.9,166,59.4z"/>
</g>
<g id="map-30">
	<path class="st2" d="M167.2,60.7l-0.6,0.8v2.2h3.5v-2.1C169.1,61.6,168.1,61.3,167.2,60.7z"/>
</g>
<g id="map-29">
	<path class="st2" d="M170.2,61.6v2.1h4.6v-1.8l-1.2-1.5C172.7,61.2,171.5,61.6,170.2,61.6L170.2,61.6z"/>
</g>
<g id="map-28">
	<path class="st2" d="M174.8,63.7v-1.8l-1.2-1.5c0.1-0.1,0.2-0.2,0.3-0.3l0,0c0.1-0.1,0.2-0.2,0.3-0.3l0,0c0.2-0.2,0.3-0.4,0.5-0.6
		l0,0c0.5-0.8,0.8-1.8,0.8-2.8c0-0.2,0-0.5,0-0.7l0,0c0,0,0,0,0-0.1s0-0.3-0.1-0.4v-0.1c0-0.1-0.1-0.3-0.1-0.4v-0.1
		c0-0.1-0.1-0.3-0.1-0.4c0,0,0,0,0-0.1c-0.1-0.1-0.1-0.3-0.2-0.4l0,0c-0.3-0.6-0.7-1.1-1.2-1.5l2.1-2.5v-5h21.8v4.8h2.8v14h-9.1v4.6
		h-9.5v-4.6h-7.1V63.7z"/>
</g>
<g id="map-27">
	<path class="st2" d="M173.6,52.4l2.1-2.5v-5h-4.4v6.4C172.1,51.4,172.9,51.8,173.6,52.4z"/>
</g>
<g id="map-26">
	<path class="st2" d="M169.2,44.9h-3.7v8.6h0.3c0.8-1.1,1.9-2,3.3-2.2L169.2,44.9L169.2,44.9z"/>
</g>
<g id="map-25">
	<rect x="161.6" y="44.9" class="st2" width="3.9" height="8.6"/>
</g>
<g id="map-24">
	<polygon class="st2" points="161.6,44.9 160.7,44.9 160.7,51.1 156.5,51.1 156.5,53.5 161.6,53.5 	"/>
</g>
<g id="map-23">
	<polygon class="st2" points="157.2,51.1 157.2,44.9 152.4,44.9 152.4,53.5 156.5,53.5 156.5,51.1 	"/>
</g>
<g id="map-22">
	<polygon class="st2" points="151,53.5 151,44.9 145.6,44.9 145.6,50.6 146.8,50.6 146.8,53.5 	"/>
</g>
<g id="map-21">
	<polygon class="st2" points="146.8,53.5 146.8,50.6 144.7,50.6 144.7,44.9 138.8,44.9 138.8,53.5 	"/>
</g>
<g id="map-20">
	<rect x="138.8" y="44.9" class="st2" width="0" height="8.6"/>
</g>
<g id="map-19">
	<rect x="134.6" y="51.1" class="st2" width="4.2" height="2.3"/>
</g>
<g id="map-18">
	<polygon class="st2" points="135.1,51.1 135.1,44.9 130.5,44.9 130.5,53.5 134.6,53.5 134.6,51.1 	"/>
</g>
<g id="map-17">
	<rect x="126.3" y="44.9" class="st2" width="2.9" height="8.6"/>
</g>
<g id="map-16">
	<rect x="121" y="44.9" class="st2" width="5.3" height="8.6"/>
</g>
<g id="map-15">
	<polygon class="st2" points="121,53.5 121,44.9 116.9,44.9 116.9,51.1 116.4,51.1 116.4,53.5 	"/>
</g>
<g id="map-14">
	<rect x="112.8" y="51.1" class="st2" width="3.6" height="2.3"/>
</g>
<g id="map-13">
	<path class="st2" d="M113.1,51.1v-6.3h-4.5v6.4l-0.8,1.2c0.3,0.3,0.6,0.6,0.9,1h4.1v-2.3C112.8,51.1,113.1,51.1,113.1,51.1z"/>
</g>
<g id="map-12">
	<path class="st2" d="M104.3,51.1L104.3,51.1c0.2,0,0.5,0,0.7,0h0.1c0.2,0,0.3,0.1,0.5,0.1c0.1,0,0.2,0.1,0.3,0.1
		c0.1,0,0.2,0.1,0.3,0.1c0.1,0.1,0.2,0.1,0.4,0.2c0.1,0,0.1,0.1,0.2,0.1l0.6-0.9v-6H95.2v6.3h-3.8v4.4h7.7
		C99.6,53,101.7,51.1,104.3,51.1z"/>
</g>
<g id="map-11">
	<rect x="80" y="44.9" class="st2" width="11.5" height="10.6"/>
</g>
<g id="map-10">
	<path class="st2" d="M99.1,55.5h-23v8.4h18.7v-1.6h4.8v-0.4l1.3-1.6c-1.1-1-1.9-2.4-1.9-4C99.1,56.1,99.1,55.8,99.1,55.5z"/>
	<rect x="80.1" y="54.6" class="st3" width="11.2" height="1.9"/>
</g>
<g id="map-9">
	<path class="st2" d="M102.1,61.1c-0.4-0.2-0.8-0.4-1.1-0.7L99.7,62v0.4h2.4V61.1z"/>
</g>
<g id="map-8">
	<rect x="96.9" y="65.2" class="st2" width="5.1" height="3.3"/>
</g>
<g id="map-7">
	<path class="st2" d="M102.1,65.1H97V76h4.3c0.1-0.7,0.7-1.4,0.9-1.6v-9.3H102.1z"/>
</g>
<g id="map-6">
	<path class="st2" d="M101.2,77.4h-4.4v5.8h5.3V79C101.6,78.6,101.3,78,101.2,77.4z"/>
</g>
<g id="map-5">
	<polygon class="st2" points="102.1,83.2 96.8,83.2 96.8,89.1 98.8,89.1 98.8,87.1 102.1,87.1 	"/>
</g>
<g id="map-4">
	<rect x="98.8" y="87.1" class="st2" width="3.2" height="2.1"/>
</g>
<g id="map-3">
	<rect x="99.7" y="90.1" class="st2" width="2.3" height="1.8"/>
</g>
<g id="map-2">
	<path class="st2" d="M99.8,93.7h-1.5v4.7c2.9-2.3,3.2-4.1,3.6-5h0.2v-0.2h-2.3C99.8,93.2,99.8,93.7,99.8,93.7z"/>
</g>
<g id="map-1">
	<path class="st2" d="M97.1,99.2h-6.6v4.6l0.8,0.4c0.6-1.3,1.8-2.7,4.1-4C96.1,99.8,96.6,99.5,97.1,99.2z"/>
</g>
<g id="lines">
	<rect x="13" y="38.5" class="st3" width="38" height="6.7"/>
	<g>
		<polygon class="st4" points="106.4,46.5 106.4,46.5 101.3,51.6 101.3,51.6 101.3,51.6 96.2,56.6 96.2,56.6 96.2,56.7 91.1,61.8 
			91.1,61.8 86,66.8 86,66.8 86,66.9 84.4,68.5 84.6,68.5 86.1,66.9 91.2,61.9 91.2,61.9 91.2,61.9 91.2,61.8 96.3,56.8 96.3,56.8 
			96.3,56.8 101.4,51.7 101.4,51.7 101.4,51.7 106.5,46.6 106.5,46.6 106.5,46.6 106.5,46.6 107.3,45.8 107.3,45.6 		"/>
		<polygon class="st4" points="106.9,47 106.9,47 101.8,52.1 101.8,52.1 101.8,52.1 101.8,52.1 96.7,57.2 96.7,57.2 91.6,62.3 
			91.6,62.3 91.6,62.3 86.6,67.3 86.5,67.4 86.5,67.4 86.5,67.4 85.4,68.5 85.6,68.5 86.6,67.5 86.6,67.5 91.7,62.4 91.7,62.3 
			91.7,62.3 96.8,57.3 96.8,57.3 96.8,57.3 96.8,57.3 101.9,52.2 101.9,52.2 107,47.1 107,47.1 107,47.1 107.3,46.8 107.3,46.6 		
			"/>
		<polygon class="st4" points="104.9,55.1 104.9,55.1 104.8,55.2 99.8,60.2 99.8,60.2 94.7,65.3 94.7,65.3 94.7,65.3 91.5,68.5 
			91.7,68.5 94.8,65.4 94.8,65.4 94.8,65.4 99.9,60.3 99.9,60.3 99.9,60.3 99.9,60.3 105,55.2 105,55.2 107.3,53 107.3,52.7 		"/>
		<polygon class="st4" points="102.8,53.1 97.7,58.2 97.7,58.2 97.7,58.2 92.6,63.3 92.6,63.3 87.6,68.4 87.6,68.4 87.5,68.4 
			87.5,68.5 87.7,68.5 87.7,68.5 92.7,63.4 92.7,63.4 92.7,63.4 92.8,63.4 97.8,58.3 97.9,58.3 97.9,58.3 102.9,53.2 102.9,53.2 
			102.9,53.2 102.9,53.2 107.3,48.9 107.3,48.7 		"/>
		<polygon class="st4" points="104.4,54.6 99.3,59.7 99.2,59.7 99.2,59.7 94.2,64.8 94.2,64.8 90.5,68.5 90.7,68.5 94.3,64.9 
			94.3,64.9 94.3,64.9 94.3,64.9 99.4,59.8 99.4,59.8 99.4,59.8 104.4,54.7 104.5,54.7 104.5,54.7 104.5,54.7 107.3,51.9 
			107.3,51.7 		"/>
		<polygon class="st4" points="103.3,53.6 103.3,53.6 103.3,53.6 98.2,58.7 98.2,58.7 93.2,63.8 93.1,63.8 93.1,63.8 88.5,68.5 
			88.7,68.5 93.3,63.9 93.3,63.9 93.3,63.9 98.3,58.8 98.3,58.8 98.3,58.8 98.4,58.8 103.4,53.7 103.4,53.7 107.3,49.9 107.3,49.7 
			103.4,53.6 		"/>
		<polygon class="st4" points="106.4,56.6 106.4,56.7 101.3,61.8 101.3,61.8 101.3,61.8 96.2,66.8 96.2,66.9 96.2,66.9 94.6,68.5 
			94.8,68.5 96.3,66.9 96.3,66.9 96.3,66.9 101.4,61.9 101.4,61.8 101.4,61.8 106.5,56.8 106.5,56.8 106.5,56.8 107.3,56 
			107.3,55.8 		"/>
		<polygon class="st4" points="105.9,56.2 105.9,56.2 100.8,61.2 100.8,61.2 100.8,61.2 95.7,66.3 95.7,66.3 93.6,68.5 93.8,68.5 
			95.8,66.5 95.8,66.4 95.8,66.4 95.8,66.4 100.9,61.4 100.9,61.4 100.9,61.3 106,56.3 106,56.2 106,56.2 107.3,55 107.3,54.8 		"/>
		<polygon class="st4" points="103.8,54.1 103.8,54.1 98.8,59.2 98.8,59.2 98.8,59.2 98.7,59.2 93.7,64.3 93.7,64.3 93.7,64.3 
			89.5,68.5 89.7,68.5 93.7,64.4 93.7,64.4 93.8,64.4 98.9,59.3 98.9,59.3 103.9,54.2 104,54.2 104,54.2 107.3,50.9 107.3,50.7 		
			"/>
		<polygon class="st4" points="105.4,55.7 105.4,55.7 100.3,60.7 100.3,60.7 100.3,60.7 100.3,60.8 95.2,65.8 95.2,65.8 95.2,65.8 
			92.5,68.5 92.8,68.5 95.3,65.9 95.3,65.9 95.3,65.9 100.4,60.8 100.4,60.8 105.5,55.7 105.5,55.7 105.5,55.7 107.3,54 107.3,53.8 
			105.4,55.6 		"/>
		<polygon class="st4" points="102.3,52.6 102.3,52.6 97.2,57.7 97.2,57.7 92.2,62.8 92.1,62.8 92.1,62.8 92.1,62.8 87,67.9 
			87,67.9 87,67.9 86.4,68.5 86.6,68.5 87.1,68 87.2,67.9 87.2,67.9 92.2,62.9 92.2,62.9 97.3,57.8 97.3,57.8 102.4,52.7 
			102.4,52.7 102.4,52.7 107.3,47.9 107.3,47.7 		"/>
		<polygon class="st4" points="106.9,57.2 106.9,57.2 101.8,62.2 101.8,62.3 96.7,67.3 96.7,67.4 96.7,67.4 96.7,67.4 95.6,68.5 
			95.8,68.5 96.8,67.5 96.8,67.5 101.9,62.4 101.9,62.4 107,57.3 107,57.3 107,57.3 107.3,57 107.3,56.8 		"/>
		<polygon class="st4" points="104.9,65.3 104.9,65.3 104.8,65.3 101.7,68.5 101.9,68.5 105,65.4 105,65.4 107.3,63.1 107.3,62.9 		
			"/>
		<polygon class="st4" points="103.9,64.3 103.8,64.3 99.7,68.5 99.9,68.5 103.9,64.4 103.9,64.4 103.9,64.4 107.3,61.1 107.3,60.9 
					"/>
		<polygon class="st4" points="102.8,63.3 102.8,63.3 102.8,63.3 97.7,68.4 97.7,68.4 97.7,68.4 97.6,68.5 97.8,68.5 97.8,68.5 
			97.9,68.5 97.9,68.5 102.9,63.4 102.9,63.4 102.9,63.4 102.9,63.4 107.3,59.1 107.3,58.9 		"/>
		<polygon class="st4" points="105.4,65.8 105.4,65.8 102.7,68.5 102.9,68.5 105.5,65.9 105.5,65.9 105.5,65.9 107.3,64.2 
			107.3,63.9 		"/>
		<polygon class="st4" points="104.4,64.8 104.4,64.8 104.4,64.8 100.7,68.5 100.9,68.5 104.4,64.9 104.5,64.9 104.5,64.9 
			104.5,64.9 107.3,62.1 107.3,61.9 		"/>
		<polygon class="st4" points="103.3,63.8 103.3,63.8 103.3,63.8 98.7,68.5 98.9,68.5 103.4,63.9 103.4,63.9 107.3,60.1 107.3,59.9 
			103.4,63.8 		"/>
		<polygon class="st4" points="106.4,66.8 106.4,66.8 106.4,66.9 104.8,68.5 105,68.5 106.5,66.9 106.5,66.9 107.3,66.2 107.3,66 		
			"/>
		<polygon class="st4" points="76.5,44.8 76.2,45.1 76.2,45.3 76.7,44.8 		"/>
		<polygon class="st4" points="77.5,44.8 76.2,46.2 76.2,46.4 77.7,44.8 		"/>
		<polygon class="st4" points="79.5,50.1 79.5,50.1 84.6,45.1 84.6,45.1 84.6,45.1 84.6,45 84.8,44.8 84.6,44.8 84.5,44.9 
			84.5,44.9 84.5,45 84.5,45 79.4,50 79.4,50.1 79.4,50.1 76.2,53.3 76.2,53.5 		"/>
		<polygon class="st4" points="78.5,49.1 82.8,44.8 82.6,44.8 78.4,49 78.4,49 78.4,49 78.4,49 76.2,51.2 76.2,51.5 		"/>
		<polygon class="st4" points="77.5,48.1 77.5,48.1 80.7,44.8 80.5,44.8 77.4,48 77.4,48 77.4,48 76.2,49.2 76.2,49.4 		"/>
		<polygon class="st4" points="80,50.7 85.1,45.6 85.1,45.6 85.8,44.8 85.6,44.8 85,45.4 85,45.5 79.9,50.5 79.9,50.6 79.9,50.6 
			79.9,50.6 76.2,54.3 76.2,54.5 		"/>
		<polygon class="st4" points="79,49.6 79,49.6 83.8,44.8 83.6,44.8 78.9,49.5 78.9,49.6 78.9,49.6 76.2,52.3 76.2,52.5 		"/>
		<polygon class="st4" points="78,48.6 78,48.6 81.8,44.8 81.6,44.8 77.9,48.5 77.9,48.5 77.9,48.5 76.2,50.2 76.2,50.4 		"/>
		<polygon class="st4" points="77,47.6 79.7,44.8 79.5,44.8 76.9,47.5 76.9,47.5 76.9,47.5 76.8,47.5 76.2,48.2 76.2,48.4 		"/>
		<polygon class="st4" points="81.1,51.7 81.1,51.7 86.1,46.6 86.1,46.6 86.1,46.6 86.1,46.6 87.9,44.8 87.7,44.8 86,46.5 86,46.5 
			86,46.5 86,46.5 80.9,51.6 80.9,51.6 80.9,51.6 76.2,56.3 76.2,56.5 81,51.7 		"/>
		<polygon class="st4" points="105.9,66.4 105.9,66.4 103.7,68.5 104,68.5 106,66.4 106,66.4 106,66.4 107.3,65.2 107.3,65 
			105.9,66.3 		"/>
		<polygon class="st4" points="102.3,62.8 102.3,62.8 97.2,67.9 97.2,67.9 96.6,68.5 96.8,68.5 97.3,68 97.3,68 97.3,68 97.3,67.9 
			102.4,62.9 102.4,62.9 102.4,62.9 107.3,58 107.3,57.8 		"/>
		<polygon class="st4" points="106.9,67.4 106.9,67.4 105.8,68.5 106,68.5 107,67.5 107,67.4 107,67.4 107.3,67.2 107.3,67 		"/>
		<polygon class="st4" points="107,68.5 107.3,68.2 107.3,68 106.8,68.5 		"/>
		<polygon class="st4" points="76.5,47.1 78.7,44.8 78.5,44.8 76.4,47 76.4,47 76.2,47.2 76.2,47.4 76.4,47.1 		"/>
		<polygon class="st4" points="80.5,51.2 80.5,51.2 80.5,51.1 85.6,46.1 85.6,46.1 85.6,46.1 86.9,44.8 86.7,44.8 85.5,46 85.5,46 
			85.5,46 80.4,51.1 80.4,51.1 76.2,55.3 76.2,55.5 		"/>
		<polygon class="st4" points="83.6,54.2 83.6,54.2 83.6,54.2 83.6,54.2 88.7,49.1 88.7,49.1 88.7,49.1 93,44.8 92.8,44.8 88.6,49 
			88.6,49 88.6,49 83.5,54.1 83.5,54.1 78.4,59.2 78.4,59.2 78.4,59.2 76.2,61.4 76.2,61.6 78.5,59.3 		"/>
		<polygon class="st4" points="85.1,55.8 85.1,55.7 85.1,55.7 85.1,55.7 90.2,50.7 90.2,50.6 90.2,50.6 95.3,45.6 95.3,45.6 
			95.3,45.5 95.3,45.5 96,44.8 95.8,44.8 95.2,45.4 95.2,45.5 90.1,50.6 90.1,50.6 90.1,50.6 85,55.6 85,55.6 79.9,60.7 79.9,60.7 
			79.9,60.8 76.2,64.5 76.2,64.7 80,60.8 		"/>
		<polygon class="st4" points="79.5,60.3 79.5,60.3 84.6,55.2 84.6,55.2 89.7,50.2 89.7,50.1 94.8,45.1 94.8,45 94.8,45 95,44.8 
			94.8,44.8 94.7,45 94.7,45 94.7,45 89.6,50 89.6,50 84.5,55.1 84.5,55.1 84.5,55.1 84.5,55.2 79.4,60.2 79.4,60.2 79.4,60.2 
			76.2,63.5 76.2,63.7 		"/>
		<polygon class="st4" points="77.5,58.3 77.5,58.3 82.6,53.2 82.6,53.2 82.6,53.2 87.6,48.1 87.7,48.1 87.7,48.1 87.7,48.1 
			90.9,44.8 90.7,44.8 87.6,48 87.6,48 87.6,48 87.6,48 82.5,53.1 82.4,53.1 82.4,53.1 77.4,58.2 77.4,58.2 77.4,58.2 76.2,59.4 
			76.2,59.6 		"/>
		<polygon class="st4" points="79,59.8 79,59.8 84.1,54.7 84.1,54.7 84.1,54.7 89.2,49.7 89.2,49.6 89.2,49.6 89.2,49.6 94,44.8 
			93.8,44.8 89.1,49.5 89.1,49.5 89.1,49.5 89.1,49.5 84,54.6 84,54.6 84,54.6 78.9,59.7 78.9,59.7 78.9,59.7 76.2,62.4 76.2,62.7 
					"/>
		<polygon class="st4" points="78,58.8 78,58.8 83.1,53.7 83.1,53.7 88.1,48.6 88.2,48.6 91.9,44.8 91.7,44.8 88.1,48.5 88.1,48.5 
			83,53.6 83,53.6 83,53.6 83,53.6 77.9,58.7 77.9,58.7 77.9,58.7 76.2,60.4 76.2,60.6 		"/>
		<polygon class="st4" points="89.7,60.3 89.7,60.3 89.7,60.3 89.7,60.3 94.8,55.2 94.8,55.2 94.8,55.2 99.9,50.2 99.9,50.1 
			99.9,50.1 99.9,50.1 104.9,45.1 105,45.1 105,45.1 105,45 105.2,44.8 105,44.8 104.9,44.9 104.9,44.9 104.9,45 104.9,45 99.8,50 
			99.8,50 94.7,55.1 94.7,55.2 94.7,55.2 89.6,60.2 89.6,60.2 84.5,65.3 84.5,65.3 84.5,65.3 81.3,68.5 81.6,68.5 84.6,65.4 		"/>
		<polygon class="st4" points="88.1,58.8 88.2,58.8 88.2,58.8 88.2,58.8 93.3,53.7 93.3,53.7 93.3,53.7 98.3,48.6 98.3,48.6 
			98.4,48.6 98.4,48.6 102.1,44.8 101.9,44.8 98.3,48.5 98.2,48.5 93.2,53.6 93.1,53.6 93.1,53.6 88.1,58.7 88.1,58.7 83,63.8 
			83,63.8 83,63.8 78.3,68.5 78.5,68.5 83.1,63.9 		"/>
		<polygon class="st4" points="85.6,66.4 85.6,66.4 90.7,61.4 90.7,61.4 90.7,61.3 95.8,56.3 95.8,56.3 100.9,51.2 100.9,51.1 
			100.9,51.1 106,46.1 106,46.1 106,46.1 107.2,44.8 107,44.8 105.9,46 105.9,46 105.9,46 100.8,51.1 100.8,51.1 100.8,51.1 
			95.7,56.1 95.7,56.2 95.7,56.2 95.7,56.2 90.6,61.2 90.6,61.2 90.6,61.2 85.5,66.3 85.5,66.4 85.5,66.4 83.4,68.5 83.6,68.5 		"/>
		<polygon class="st4" points="84.1,64.9 84.1,64.9 89.2,59.8 89.2,59.8 94.3,54.7 94.3,54.7 99.4,49.6 99.4,49.6 99.4,49.6 
			104.2,44.8 104,44.8 99.3,49.5 99.2,49.6 99.2,49.6 94.2,54.6 94.2,54.6 89.1,59.7 89.1,59.7 89.1,59.7 89.1,59.7 84,64.8 
			84,64.8 84,64.8 80.3,68.5 80.5,68.5 		"/>
		<polygon class="st4" points="82.1,62.9 87.1,57.8 87.2,57.8 87.2,57.8 92.2,52.7 92.2,52.7 92.2,52.7 92.3,52.7 97.3,47.6 
			97.3,47.6 100.1,44.8 99.9,44.8 97.2,47.5 97.2,47.5 97.2,47.5 97.2,47.5 92.2,52.6 92.2,52.6 92.1,52.6 92.1,52.6 87,57.7 
			87,57.7 87,57.7 82,62.8 82,62.8 82,62.8 81.9,62.8 76.9,67.9 76.9,67.9 76.3,68.5 76.5,68.5 76.9,68 77,68 77,68 77,67.9 		"/>
		<polygon class="st4" points="81.1,61.8 81.1,61.8 86.1,56.8 86.1,56.8 86.1,56.8 91.2,51.7 91.2,51.7 96.3,46.6 96.3,46.6 
			96.3,46.6 98.1,44.8 97.9,44.8 96.2,46.5 96.2,46.5 96.2,46.5 91.1,51.6 91.1,51.6 91.1,51.6 91.1,51.6 86,56.6 86,56.6 86,56.7 
			80.9,61.8 80.9,61.8 80.9,61.8 76.2,66.5 76.2,66.7 81,61.9 		"/>
		<polygon class="st4" points="80.5,61.4 80.5,61.3 85.6,56.3 85.6,56.2 85.6,56.2 90.7,51.2 90.7,51.2 90.7,51.2 90.7,51.1 
			95.8,46.1 95.8,46.1 97,44.8 96.8,44.8 95.7,46 95.7,46 95.7,46 95.7,46 90.6,51 90.6,51 90.6,51.1 90.6,51.1 85.5,56.2 
			85.5,56.2 85.5,56.2 80.4,61.2 80.4,61.2 80.4,61.2 76.2,65.5 76.2,65.7 		"/>
		<polygon class="st4" points="76.5,57.3 76.5,57.3 76.5,57.3 81.5,52.2 81.5,52.2 86.6,47.1 86.6,47.1 88.9,44.8 88.7,44.8 
			86.6,47 86.5,47 81.5,52.1 81.4,52.1 81.4,52.1 81.4,52.1 76.4,57.2 76.4,57.2 76.2,57.4 76.2,57.6 76.4,57.3 		"/>
		<polygon class="st4" points="77,57.8 82,52.7 82.1,52.7 82.1,52.7 82.1,52.7 87.1,47.6 87.2,47.6 87.2,47.6 89.9,44.8 89.7,44.8 
			87,47.5 87,47.5 87,47.5 82,52.6 82,52.6 76.9,57.7 76.9,57.7 76.2,58.4 76.2,58.6 76.9,57.8 		"/>
		<polygon class="st4" points="83.6,64.4 83.6,64.4 88.7,59.3 88.7,59.3 88.7,59.3 93.7,54.2 93.8,54.2 93.8,54.2 93.8,54.2 
			98.9,49.1 98.9,49.1 103.2,44.8 102.9,44.8 98.8,49 98.8,49 98.8,49 98.7,49 93.7,54.1 93.7,54.1 93.7,54.1 93.7,54.1 88.6,59.2 
			88.6,59.2 88.6,59.2 83.5,64.3 83.5,64.3 83.5,64.3 79.3,68.5 79.5,68.5 		"/>
		<polygon class="st4" points="85.1,65.9 85.1,65.9 90.2,60.8 90.2,60.8 90.2,60.8 95.3,55.8 95.3,55.7 95.3,55.7 95.3,55.7 
			100.4,50.7 100.4,50.7 105.5,45.6 105.5,45.5 105.5,45.5 106.2,44.8 106,44.8 105.4,45.5 105.4,45.5 105.4,45.5 100.3,50.5 
			100.3,50.6 100.3,50.6 100.3,50.6 95.2,55.6 95.2,55.6 95.2,55.6 95.2,55.6 90.1,60.7 90.1,60.8 90.1,60.8 85,65.8 85,65.8 
			85,65.8 82.4,68.5 82.6,68.5 		"/>
		<polygon class="st4" points="82.6,63.4 82.6,63.4 82.6,63.4 87.7,58.3 87.7,58.3 92.7,53.2 92.7,53.2 97.8,48.1 97.9,48.1 
			97.9,48.1 101.1,44.8 100.9,44.8 97.7,48 97.7,48 97.7,48 92.7,53.1 92.6,53.1 87.6,58.2 87.6,58.2 87.6,58.2 87.5,58.2 
			82.5,63.3 82.4,63.3 82.4,63.3 77.4,68.4 77.4,68.4 77.4,68.4 77.3,68.5 77.5,68.5 77.5,68.5 77.5,68.5 77.5,68.5 		"/>
		<polygon class="st4" points="76.5,67.5 81.5,62.4 81.5,62.4 86.6,57.3 86.6,57.3 86.6,57.3 86.7,57.3 91.7,52.2 91.7,52.2 
			91.7,52.2 96.8,47.1 96.8,47.1 96.8,47.1 96.8,47.1 99.1,44.8 98.9,44.8 96.7,47 96.7,47 91.6,52.1 91.6,52.1 91.6,52.1 
			86.5,57.2 86.5,57.2 81.5,62.2 81.4,62.3 76.4,67.3 76.4,67.4 76.4,67.4 76.3,67.4 76.2,67.5 76.2,67.7 		"/>
	</g>
	<g>
		<polygon class="st4" points="44.9,42.3 48.7,38.5 48.5,38.5 44.8,42.2 44.8,42.2 44.8,42.2 44.8,42.2 41.8,45.2 42,45.2 		"/>
		<polygon class="st4" points="43.4,40.7 43.4,40.7 45.6,38.5 45.4,38.5 43.3,40.7 43.2,40.7 43.2,40.7 38.8,45.2 39,45.2 
			43.4,40.8 		"/>
		<polygon class="st4" points="50.2,45.2 51,44.3 51,44.1 50,45.2 		"/>
		<polygon class="st4" points="48.1,45.2 51,42.3 51,42.1 47.9,45.2 		"/>
		<path class="st4" d="M51,45.2L51,45.2L51,45.2z"/>
		<polygon class="st4" points="49.1,45.2 51,43.3 51,43.1 48.9,45.2 		"/>
		<polygon class="st4" points="46.3,43.7 46.3,43.7 46.3,43.7 46.3,43.7 44.9,45.2 45.1,45.2 46.4,43.8 46.4,43.8 51,39.2 51,39 		
			"/>
		<polygon class="st4" points="46.8,44.2 46.8,44.2 45.9,45.2 46.1,45.2 46.9,44.3 46.9,44.3 46.9,44.3 51,40.3 51,40.1 		"/>
		<polygon class="st4" points="34.7,42.3 34.7,42.3 38.5,38.5 38.3,38.5 34.6,42.2 34.6,42.2 34.6,42.2 31.6,45.2 31.8,45.2 		"/>
		<polygon class="st4" points="32.7,40.2 32.7,40.2 34.4,38.5 34.2,38.5 32.6,40.2 32.6,40.2 32.6,40.2 27.6,45.2 27.8,45.2 
			32.7,40.3 		"/>
		<polygon class="st4" points="34.2,41.8 34.2,41.8 37.5,38.5 37.3,38.5 34.1,41.7 34.1,41.7 34.1,41.7 30.6,45.2 30.8,45.2 		"/>
		<polygon class="st4" points="33.2,40.8 35.4,38.5 35.2,38.5 33.1,40.6 33.1,40.7 33.1,40.7 33.1,40.7 28.6,45.2 28.8,45.2 		"/>
		<polygon class="st4" points="43.9,41.3 43.9,41.3 46.6,38.5 46.4,38.5 43.8,41.2 43.8,41.2 43.8,41.2 39.8,45.2 40,45.2 		"/>
		<polygon class="st4" points="42.9,40.3 42.9,40.3 42.9,40.2 44.6,38.5 44.4,38.5 42.8,40.2 42.8,40.2 37.7,45.2 37.9,45.2 
			42.8,40.3 		"/>
		<polygon class="st4" points="44.4,41.8 44.4,41.8 44.4,41.8 47.7,38.5 47.5,38.5 44.3,41.7 44.3,41.7 40.8,45.2 41,45.2 		"/>
		<polygon class="st4" points="42.3,39.8 42.3,39.8 42.3,39.7 43.6,38.5 43.4,38.5 42.3,39.6 42.3,39.6 42.2,39.6 37.2,44.7 
			37.1,44.8 37.1,44.8 36.7,45.2 36.9,45.2 37.3,44.8 37.3,44.8 37.3,44.8 		"/>
		<polygon class="st4" points="35.7,43.3 35.7,43.3 40.5,38.5 40.3,38.5 35.6,43.2 35.6,43.2 35.6,43.2 33.7,45.2 33.9,45.2 		"/>
		<polygon class="st4" points="36.2,43.8 41.3,38.7 41.3,38.7 41.3,38.7 41.3,38.7 41.6,38.5 41.4,38.5 41.2,38.6 41.2,38.6 
			36.2,43.7 36.1,43.7 36.1,43.7 36.1,43.7 34.7,45.2 34.9,45.2 		"/>
		<polygon class="st4" points="45.4,42.8 45.4,42.8 49.7,38.5 49.5,38.5 45.3,42.7 45.3,42.7 45.3,42.7 42.8,45.2 43,45.2 		"/>
		<polygon class="st4" points="45.9,43.3 45.9,43.3 45.9,43.3 50.7,38.5 50.5,38.5 45.8,43.2 45.8,43.2 43.8,45.2 44.1,45.2 		"/>
		<polygon class="st4" points="47.3,44.7 46.9,45.2 47.1,45.2 47.4,44.9 47.4,44.8 47.4,44.8 47.5,44.8 51,41.3 51,41.1 		"/>
		<polygon class="st4" points="24.5,42.3 28.3,38.5 28.1,38.5 24.4,42.2 24.4,42.2 24.4,42.2 24.4,42.2 21.4,45.2 21.6,45.2 		"/>
		<polygon class="st4" points="23,40.8 25.3,38.5 25.1,38.5 22.9,40.6 22.9,40.7 22.9,40.7 22.9,40.7 18.4,45.2 18.6,45.2 		"/>
		<polygon class="st4" points="33.7,41.3 33.7,41.3 36.5,38.5 36.3,38.5 33.6,41.2 33.6,41.2 33.6,41.2 29.6,45.2 29.8,45.2 		"/>
		<polygon class="st4" points="32.1,39.8 32.2,39.7 33.4,38.5 33.2,38.5 32.1,39.6 32.1,39.6 32.1,39.6 27,44.7 27,44.7 26.5,45.2 
			26.7,45.2 27.1,44.9 27.1,44.8 27.1,44.8 27.1,44.8 		"/>
		<polygon class="st4" points="26.1,43.8 31.1,38.7 31.2,38.7 31.2,38.7 31.4,38.5 31.2,38.5 31,38.6 31,38.6 31,38.6 26,43.7 
			26,43.7 26,43.7 25.9,43.7 24.5,45.2 24.7,45.2 		"/>
		<polygon class="st4" points="36.7,44.3 36.7,44.3 41.8,39.2 41.9,39.2 41.9,39.2 42.6,38.5 42.4,38.5 41.7,39.1 41.7,39.2 
			41.7,39.2 36.7,44.2 36.7,44.2 36.6,44.2 35.7,45.2 35.9,45.2 		"/>
		<polygon class="st4" points="35.2,42.8 35.2,42.8 39.5,38.5 39.3,38.5 35.1,42.7 35.1,42.7 35.1,42.7 32.6,45.2 32.8,45.2 		"/>
		<polygon class="st4" points="13.9,38.5 13.1,39.3 13.1,39.5 14.1,38.5 		"/>
		<polygon class="st4" points="14.9,38.5 13.1,40.3 13.1,40.5 15.1,38.5 		"/>
		<polygon class="st4" points="14.4,42.3 14.4,42.3 18.1,38.5 17.9,38.5 14.2,42.2 14.2,42.2 14.2,42.2 13.1,43.4 13.1,43.6 
			14.3,42.3 		"/>
		<polygon class="st4" points="23.5,41.3 23.5,41.3 26.3,38.5 26.1,38.5 23.4,41.2 23.4,41.2 23.4,41.2 19.4,45.2 19.6,45.2 		"/>
		<polygon class="st4" points="22,39.8 22,39.7 23.2,38.5 23,38.5 21.9,39.6 21.9,39.6 21.9,39.6 16.8,44.7 16.4,45.2 16.6,45.2 
			16.9,44.9 16.9,44.8 16.9,44.8 		"/>
		<polygon class="st4" points="22.5,40.3 22.5,40.3 22.5,40.2 24.2,38.5 24,38.5 22.4,40.2 22.4,40.2 17.4,45.2 17.6,45.2 		"/>
		<polygon class="st4" points="24,41.8 24,41.8 24,41.8 27.3,38.5 27.1,38.5 23.9,41.7 23.9,41.7 20.4,45.2 20.6,45.2 		"/>
		<polygon class="st4" points="15.9,43.8 15.9,43.8 20.9,38.7 21,38.7 21,38.7 21,38.7 21.2,38.5 21,38.5 20.9,38.6 20.9,38.6 
			20.9,38.6 15.8,43.7 15.8,43.7 15.8,43.7 14.3,45.2 14.5,45.2 		"/>
		<polygon class="st4" points="26.5,44.3 26.6,44.3 31.7,39.2 31.7,39.2 31.7,39.2 32.4,38.5 32.2,38.5 31.6,39.1 31.6,39.1 
			31.6,39.1 31.5,39.2 26.5,44.2 26.5,44.2 26.5,44.2 25.5,45.2 25.7,45.2 		"/>
		<polygon class="st4" points="25,42.8 25,42.8 29.3,38.5 29.1,38.5 25,42.7 25,42.7 24.9,42.7 22.5,45.2 22.7,45.2 		"/>
		<polygon class="st4" points="25.5,43.3 25.5,43.3 25.6,43.3 30.4,38.5 30.1,38.5 25.4,43.2 25.4,43.2 23.5,45.2 23.7,45.2 		"/>
		<polygon class="st4" points="13.3,41.3 13.3,41.3 16.1,38.5 15.9,38.5 13.2,41.2 13.2,41.2 13.2,41.2 13.1,41.3 13.1,41.5 		"/>
		<polygon class="st4" points="13.8,41.8 13.9,41.8 17.1,38.5 16.9,38.5 13.7,41.7 13.1,42.4 13.1,42.6 		"/>
		<polygon class="st4" points="16.4,44.3 16.4,44.3 21.5,39.2 21.5,39.2 21.5,39.2 22.2,38.5 22,38.5 21.4,39.1 21.4,39.1 
			21.4,39.1 21.4,39.2 16.3,44.2 16.3,44.2 16.3,44.2 15.3,45.2 15.5,45.2 		"/>
		<polygon class="st4" points="14.8,42.8 14.9,42.8 19.2,38.5 18.9,38.5 14.8,42.7 14.8,42.7 14.8,42.7 13.1,44.4 13.1,44.6 		"/>
		<polygon class="st4" points="15.4,43.3 15.4,43.3 20.2,38.5 20,38.5 15.3,43.2 13.3,45.2 13.5,45.2 15.3,43.3 		"/>
	</g>
	<g>
		<polygon class="st4" points="198.5,47 198.5,47 198.5,47 193.5,52.1 193.5,52.1 193.5,52.1 193.4,52.1 188.4,57.2 188.4,57.2 
			188.4,57.2 188.4,57.2 183.3,62.2 183.3,62.3 178.2,67.4 178.2,67.4 178.2,67.4 177.4,68.1 177.7,68.1 178.3,67.5 178.3,67.4 
			178.3,67.4 183.4,62.4 183.4,62.4 183.4,62.3 183.4,62.3 188.4,57.3 188.5,57.3 188.5,57.3 188.5,57.3 193.6,52.2 193.6,52.2 
			198.6,47.1 198.7,47.1 198.7,47.1 200.1,45.7 200.1,45.4 		"/>
		<polygon class="st4" points="199.1,47.5 199.1,47.5 199,47.5 194,52.6 193.9,52.6 193.9,52.6 188.9,57.7 188.9,57.7 188.9,57.7 
			183.8,62.8 183.8,62.8 183.8,62.8 183.8,62.8 178.7,67.8 178.7,67.8 178.7,67.9 178.7,67.9 178.5,68.1 178.7,68.1 178.8,68 
			178.8,68 178.8,68 178.8,67.9 183.9,62.9 183.9,62.9 189,57.8 189,57.8 189,57.8 194.1,52.7 194.1,52.7 194.1,52.7 199.2,47.6 
			199.2,47.6 199.2,47.6 200.1,46.7 200.1,46.5 		"/>
		<polygon class="st4" points="200.1,48.5 200.1,48.5 195,53.6 195,53.6 195,53.6 195,53.6 189.9,58.7 189.9,58.7 189.9,58.7 
			189.9,58.7 184.8,63.8 184.8,63.8 184.8,63.8 180.5,68.1 180.7,68.1 184.9,63.9 184.9,63.9 184.9,63.9 190,58.8 190,58.8 
			190,58.8 190,58.8 195.1,53.7 195.1,53.7 200.1,48.7 200.1,48.5 200.1,48.5 		"/>
		<polygon class="st4" points="199.6,48 194.5,53.1 194.5,53.1 189.4,58.2 189.4,58.2 189.4,58.2 184.3,63.3 184.3,63.3 184.3,63.3 
			179.5,68.1 179.7,68.1 184.4,63.4 184.4,63.4 184.4,63.4 189.5,58.3 189.5,58.3 189.5,58.3 194.6,53.2 194.6,53.2 199.6,48.1 
			199.7,48.1 199.7,48.1 199.7,48.1 200.1,47.7 200.1,47.5 		"/>
		<polygon class="st4" points="197.5,56.2 197.5,56.2 192.5,61.2 192.5,61.2 192.4,61.2 187.3,66.3 187.3,66.3 185.6,68.1 
			185.8,68.1 187.4,66.5 187.4,66.4 187.4,66.4 187.5,66.4 192.5,61.4 192.5,61.4 192.5,61.3 197.6,56.3 200.1,53.8 200.1,53.6 
			197.5,56.1 		"/>
		<polygon class="st4" points="196.5,55.1 196.5,55.1 196.5,55.2 191.4,60.2 191.4,60.2 191.4,60.2 191.4,60.2 186.3,65.3 
			186.3,65.3 186.3,65.3 183.6,68.1 183.8,68.1 186.4,65.4 186.4,65.4 186.4,65.4 191.5,60.3 191.5,60.3 191.5,60.3 191.5,60.3 
			196.6,55.2 196.6,55.2 200.1,51.8 200.1,51.6 		"/>
		<polygon class="st4" points="196,54.6 190.9,59.7 190.9,59.7 190.9,59.7 185.8,64.8 185.8,64.8 185.8,64.8 182.5,68.1 182.7,68.1 
			185.9,64.9 185.9,64.9 185.9,64.9 191,59.8 191,59.8 191,59.8 196.1,54.7 196.1,54.7 200.1,50.7 200.1,50.5 		"/>
		<polygon class="st4" points="199.6,58.2 199.6,58.2 199.5,58.2 194.5,63.3 194.5,63.3 189.7,68.1 189.9,68.1 194.6,63.4 
			194.6,63.4 194.6,63.4 194.6,63.4 199.7,58.3 199.7,58.3 199.7,58.3 200.1,57.9 200.1,57.7 		"/>
		<polygon class="st4" points="199.1,57.7 194,62.8 193.9,62.8 193.9,62.8 188.9,67.9 188.9,67.9 188.9,67.9 188.6,68.1 188.9,68.1 
			189,68 189,67.9 189,67.9 194.1,62.9 194.1,62.9 194.1,62.9 199.1,57.8 199.2,57.8 200.1,56.9 200.1,56.6 		"/>
		<polygon class="st4" points="198.1,56.6 198,56.7 192.9,61.8 192.9,61.8 187.9,66.8 187.8,66.9 187.8,66.9 186.6,68.1 186.8,68.1 
			188,66.9 188,66.9 188,66.9 193,61.9 193,61.9 193,61.9 193.1,61.8 198.1,56.8 198.1,56.8 198.1,56.8 200.1,54.8 200.1,54.6 		"/>
		<polygon class="st4" points="195.5,54.1 195.5,54.1 190.4,59.2 190.4,59.2 190.4,59.2 190.4,59.2 185.3,64.3 185.3,64.3 
			185.3,64.3 181.5,68.1 181.7,68.1 185.4,64.4 185.4,64.4 185.4,64.4 190.5,59.3 190.5,59.3 195.6,54.2 195.6,54.2 195.6,54.2 
			200.1,49.7 200.1,49.5 		"/>
		<polygon class="st4" points="197,55.7 197,55.7 191.9,60.7 191.9,60.7 191.9,60.7 191.9,60.8 186.9,65.8 186.9,65.8 186.8,65.8 
			184.6,68.1 184.8,68.1 186.9,65.9 186.9,65.9 186.9,65.9 192,60.8 192,60.8 197.1,55.7 197.1,55.7 197.1,55.7 200.1,52.8 
			200.1,52.6 197,55.6 		"/>
		<polygon class="st4" points="198.5,57.2 198.5,57.2 193.5,62.2 193.5,62.3 188.4,67.3 188.4,67.4 188.4,67.4 188.3,67.4 
			187.6,68.1 187.8,68.1 188.5,67.5 188.5,67.5 193.5,62.4 193.6,62.4 198.6,57.3 198.7,57.3 198.7,57.3 200.1,55.8 200.1,55.6 		
			"/>
		<polygon class="st4" points="200.1,58.7 200.1,58.7 195,63.8 195,63.8 195,63.8 195,63.8 190.7,68.1 190.9,68.1 195.1,63.9 
			195.1,63.9 200.1,58.9 200.1,58.7 200.1,58.7 		"/>
		<polygon class="st4" points="196.5,65.3 196.5,65.3 196.5,65.3 193.7,68.1 193.9,68.1 196.6,65.4 196.6,65.4 200.1,61.9 
			200.1,61.7 		"/>
		<polygon class="st4" points="195.5,64.3 195.5,64.3 191.7,68.1 191.9,68.1 195.6,64.4 195.6,64.4 195.6,64.4 200.1,59.9 
			200.1,59.7 		"/>
		<polygon class="st4" points="197,65.8 197,65.8 194.8,68.1 195,68.1 197.1,65.9 197.1,65.9 197.1,65.9 200.1,63 200.1,62.8 		"/>
		<polygon class="st4" points="200.1,68.1 200.1,68.1 200.1,67.8 199.8,68.1 		"/>
		<polygon class="st4" points="199.1,67.8 199.1,67.9 199.1,67.9 198.8,68.1 199,68.1 199.1,68 199.2,68 199.2,68 199.2,67.9 
			200.1,67 200.1,66.8 		"/>
		<polygon class="st4" points="198,66.8 198,66.8 198,66.9 196.8,68.1 197,68.1 198.1,66.9 198.1,66.9 200.1,65 200.1,64.8 
			198.1,66.8 		"/>
		<polygon class="st4" points="197.5,66.3 195.8,68.1 196,68.1 197.6,66.5 197.6,66.4 197.6,66.4 197.6,66.4 200.1,64 200.1,63.8 		
			"/>
		<polygon class="st4" points="196,64.8 192.7,68.1 192.9,68.1 196.1,64.9 196.1,64.9 196.1,64.9 196.1,64.9 200.1,60.9 200.1,60.7 
					"/>
		<polygon class="st4" points="198.5,67.4 198.5,67.4 197.8,68.1 198,68.1 198.6,67.5 198.7,67.4 198.7,67.4 200.1,66 200.1,65.8 		
			"/>
		<polygon class="st4" points="159.9,44.9 158.8,46 158.8,46.2 160.1,44.9 		"/>
		<polygon class="st4" points="160.9,44.9 158.8,47 158.8,47.2 161.1,44.9 		"/>
		<polygon class="st4" points="158.9,44.9 158.8,44.9 158.8,45.2 159.1,44.9 		"/>
		<polygon class="st4" points="160,49.1 160,49.1 164.2,44.9 164,44.9 159.9,49 159.8,49 159.8,49 158.8,50 158.8,50.2 		"/>
		<polygon class="st4" points="161.5,50.6 161.5,50.6 166.6,45.6 166.6,45.6 166.6,45.5 166.6,45.5 167.2,44.9 167,44.9 166.5,45.4 
			166.5,45.5 161.4,50.6 161.4,50.6 161.4,50.6 158.8,53.1 158.8,53.3 161.5,50.7 		"/>
		<polygon class="st4" points="163,52.2 163,52.2 168.1,47.1 168.1,47.1 168.1,47.1 168.1,47.1 170.3,44.9 170.1,44.9 168,47 
			168,47 162.9,52.1 162.9,52.1 162.9,52.1 158.8,56.2 158.8,56.4 		"/>
		<polygon class="st4" points="162.5,51.7 167.6,46.6 167.6,46.6 167.6,46.6 169.3,44.9 169,44.9 167.5,46.5 167.5,46.5 167.5,46.5 
			162.4,51.6 162.4,51.6 162.4,51.6 162.4,51.6 158.8,55.1 158.8,55.3 		"/>
		<polygon class="st4" points="177.3,66.4 177.3,66.4 182.3,61.4 182.3,61.4 182.4,61.3 187.4,56.3 187.4,56.3 192.5,51.2 
			192.6,51.1 192.6,51.1 197.6,46.1 197.6,46.1 198.8,44.9 198.6,44.9 197.5,46 197.5,46 197.5,46 197.5,46 192.4,51.1 192.4,51.1 
			192.4,51.1 187.4,56.1 187.3,56.2 187.3,56.2 187.3,56.2 182.3,61.2 182.3,61.2 182.3,61.2 177.2,66.3 177.1,66.4 177.1,66.4 
			175.4,68.1 175.6,68.1 		"/>
		<polygon class="st4" points="176.2,65.4 181.3,60.3 181.4,60.3 181.4,60.3 186.4,55.2 186.4,55.2 186.4,55.2 191.5,50.2 
			191.5,50.1 196.6,45.1 196.6,45.1 196.6,45.1 196.6,45 196.7,44.9 196.5,44.9 196.5,44.9 196.5,45 196.5,45 191.4,50 191.4,50 
			186.3,55.1 186.3,55.2 186.3,55.2 181.2,60.2 181.2,60.2 181.2,60.2 176.2,65.3 176.1,65.3 176.1,65.3 176.1,65.3 173.4,68.1 
			173.6,68.1 		"/>
		<polygon class="st4" points="174.7,63.9 179.8,58.8 179.8,58.8 179.8,58.8 184.9,53.7 184.9,53.7 184.9,53.7 190,48.6 190,48.6 
			193.7,44.9 193.5,44.9 189.9,48.5 189.9,48.5 184.8,53.6 184.8,53.6 184.8,53.6 179.7,58.7 179.7,58.7 179.7,58.7 174.6,63.8 
			174.6,63.8 174.6,63.8 174.6,63.8 170.3,68.1 170.5,68.1 		"/>
		<polygon class="st4" points="173.7,62.9 173.7,62.9 178.8,57.8 178.8,57.8 178.8,57.8 178.8,57.8 183.9,52.7 183.9,52.7 
			183.9,52.7 183.9,52.7 189,47.6 189,47.6 189,47.6 191.7,44.9 191.4,44.9 188.9,47.5 188.9,47.5 188.9,47.5 183.8,52.6 
			183.8,52.6 183.8,52.6 183.8,52.6 178.7,57.7 178.7,57.7 173.6,62.8 173.6,62.8 173.6,62.8 168.5,67.9 168.5,67.9 168.3,68.1 
			168.5,68.1 168.6,68 168.6,68 168.6,68 168.6,67.9 		"/>
		<polygon class="st4" points="177.8,66.9 182.8,61.9 182.9,61.9 182.9,61.9 182.9,61.8 187.9,56.8 187.9,56.8 188,56.8 193,51.7 
			198.1,46.6 198.1,46.6 198.1,46.6 198.2,46.6 199.8,44.9 199.6,44.9 198,46.5 198,46.5 193,51.6 192.9,51.6 192.9,51.6 
			187.9,56.6 187.9,56.6 187.9,56.7 182.8,61.8 182.8,61.8 177.7,66.8 177.7,66.8 177.7,66.8 177.7,66.9 176.4,68.1 176.6,68.1 		
			"/>
		<polygon class="st4" points="162,51.2 162,51.2 162,51.1 167.1,46.1 167.1,46.1 168.2,44.9 168,44.9 167,46 167,46 167,46 167,46 
			161.9,51 161.9,51 161.9,51.1 161.9,51.1 158.8,54.1 158.8,54.3 		"/>
		<polygon class="st4" points="161,50.1 166.1,45.1 166.1,45 166.1,45 166.2,44.9 166,44.9 166,45 165.9,45 165.9,45 160.9,50 
			160.9,50 158.8,52.1 158.8,52.3 161,50.2 		"/>
		<polygon class="st4" points="158.9,48.1 158.9,48.1 159,48.1 162.1,44.9 161.9,44.9 158.8,48 158.8,48 158.8,48.2 		"/>
		<polygon class="st4" points="160.5,49.6 160.5,49.6 160.5,49.6 165.2,44.9 165,44.9 160.4,49.5 160.4,49.5 160.4,49.5 160.4,49.5 
			158.8,51.1 158.8,51.3 160.4,49.7 		"/>
		<polygon class="st4" points="159.4,48.6 163.1,44.9 162.9,44.9 159.4,48.5 159.3,48.5 158.8,49 158.8,49.2 		"/>
		<polygon class="st4" points="163.5,52.7 163.5,52.7 163.5,52.7 168.6,47.6 168.6,47.6 171.3,44.9 171.1,44.9 168.5,47.5 
			168.5,47.5 168.5,47.5 168.5,47.5 163.4,52.6 163.4,52.6 163.4,52.6 163.4,52.6 158.8,57.2 158.8,57.4 		"/>
		<polygon class="st4" points="160,59.3 160,59.3 165,54.2 165,54.2 165,54.2 165.1,54.2 170.1,49.1 170.1,49.1 174.3,44.9 
			174.1,44.9 170.1,49 170,49 170,49 170,49 165,54.1 165,54.1 164.9,54.1 164.9,54.1 159.9,59.2 159.8,59.2 159.8,59.2 158.8,60.2 
			158.8,60.4 		"/>
		<polygon class="st4" points="158.9,58.3 164,53.2 164,53.2 169.1,48.1 169.1,48.1 169.1,48.1 172.3,44.9 172.1,44.9 169,48 
			169,48 169,48 163.9,53.1 163.9,53.1 158.8,58.2 158.8,58.2 158.8,58.2 158.8,58.4 		"/>
		<polygon class="st4" points="161.5,60.8 161.5,60.8 166.6,55.8 166.6,55.7 166.6,55.7 166.6,55.7 171.7,50.7 171.7,50.7 
			176.8,45.6 176.8,45.5 176.8,45.5 177.4,44.9 177.2,44.9 176.7,45.5 176.6,45.5 176.6,45.5 171.6,50.5 171.6,50.6 171.6,50.6 
			171.5,50.6 166.5,55.6 166.5,55.6 166.5,55.6 166.5,55.6 161.4,60.7 161.4,60.8 161.4,60.8 158.8,63.3 158.8,63.5 		"/>
		<polygon class="st4" points="160.5,59.8 165.5,54.7 165.6,54.7 170.6,49.6 170.7,49.6 170.7,49.6 175.4,44.9 175.2,44.9 
			170.5,49.5 170.5,49.6 170.5,49.6 165.5,54.6 165.5,54.6 160.4,59.7 160.4,59.7 160.4,59.7 160.3,59.7 158.8,61.2 158.8,61.4 		
			"/>
		<polygon class="st4" points="166.1,65.4 166.1,65.4 171.1,60.3 171.2,60.3 171.2,60.3 171.2,60.3 176.2,55.2 176.2,55.2 
			181.3,50.1 181.4,50.1 181.4,50.1 186.4,45.1 186.4,45 186.4,45 186.6,44.9 186.4,44.9 186.3,45 186.3,45 186.3,45 181.2,50 
			181.2,50.1 181.2,50.1 176.2,55.1 176.1,55.1 176.1,55.1 176.1,55.2 171.1,60.2 171.1,60.2 166,65.3 165.9,65.3 165.9,65.3 
			163.2,68.1 163.4,68.1 		"/>
		<polygon class="st4" points="163,62.3 163,62.3 168.1,57.3 168.1,57.3 168.1,57.3 168.1,57.3 173.2,52.2 173.2,52.2 178.3,47.1 
			178.3,47.1 178.3,47.1 180.5,44.9 180.2,44.9 178.2,47 178.2,47 178.2,47 173.1,52.1 173.1,52.1 173.1,52.1 173.1,52.1 168,57.2 
			168,57.2 162.9,62.3 162.9,62.3 162.9,62.3 158.8,66.3 158.8,66.5 163,62.4 		"/>
		<polygon class="st4" points="164.6,63.9 164.6,63.9 169.6,58.8 169.6,58.8 169.6,58.8 169.6,58.8 174.7,53.7 174.7,53.7 
			179.8,48.6 179.8,48.6 179.8,48.6 183.5,44.9 183.3,44.9 179.7,48.5 179.7,48.5 179.7,48.5 174.6,53.6 174.6,53.6 174.6,53.6 
			174.6,53.6 169.5,58.7 169.5,58.7 164.4,63.8 164.4,63.8 164.4,63.8 160.1,68.1 160.3,68.1 164.5,63.9 		"/>
		<polygon class="st4" points="163.5,62.9 168.6,57.8 168.6,57.8 173.7,52.7 173.7,52.7 173.7,52.7 178.8,47.6 178.8,47.6 
			181.5,44.9 181.3,44.9 178.7,47.5 178.7,47.5 178.7,47.5 178.7,47.5 173.6,52.6 173.6,52.6 173.6,52.6 168.5,57.7 168.5,57.7 
			163.4,62.8 163.4,62.8 163.4,62.8 163.4,62.8 158.8,67.4 158.8,67.6 		"/>
		<polygon class="st4" points="175.2,64.4 175.2,64.4 180.3,59.3 180.3,59.3 180.3,59.3 185.4,54.2 185.4,54.2 185.4,54.2 
			185.4,54.2 190.5,49.1 190.5,49.1 194.7,44.9 194.5,44.9 190.4,49 190.4,49 190.4,49 190.4,49 185.3,54.1 185.3,54.1 185.3,54.1 
			185.3,54.1 180.2,59.2 180.2,59.2 180.2,59.2 175.1,64.3 175.1,64.3 175.1,64.3 171.3,68.1 171.5,68.1 		"/>
		<polygon class="st4" points="176.7,65.9 176.8,65.9 181.8,60.8 181.9,60.8 181.9,60.8 186.9,55.8 186.9,55.7 186.9,55.7 187,55.7 
			192,50.7 192,50.7 197.1,45.6 197.1,45.5 197.1,45.5 197.8,44.9 197.6,44.9 197,45.5 197,45.5 197,45.5 191.9,50.5 191.9,50.6 
			191.9,50.6 191.9,50.6 186.9,55.6 186.9,55.6 186.8,55.6 186.8,55.6 181.7,60.7 181.7,60.8 181.7,60.8 176.7,65.8 176.7,65.8 
			176.7,65.8 174.4,68.1 174.6,68.1 		"/>
		<polygon class="st4" points="174.2,63.4 174.2,63.4 174.2,63.4 179.3,58.3 179.3,58.3 184.4,53.2 184.4,53.2 184.4,53.2 
			189.5,48.1 189.5,48.1 189.5,48.1 192.7,44.9 192.5,44.9 189.4,48 189.4,48 189.4,48 184.3,53.1 184.3,53.1 184.3,53.1 
			179.2,58.2 179.2,58.2 179.2,58.2 179.2,58.2 174.1,63.3 174.1,63.3 174.1,63.3 174.1,63.3 169.3,68.1 169.5,68.1 		"/>
		<polygon class="st4" points="173.2,62.4 178.3,57.3 178.3,57.3 178.3,57.3 183.4,52.2 183.4,52.2 188.4,47.1 188.5,47.1 
			190.6,44.9 190.4,44.9 188.4,47 188.4,47 183.3,52.1 183.3,52.1 183.3,52.1 183.3,52.1 178.2,57.2 178.2,57.2 178.2,57.2 
			173.1,62.2 173.1,62.3 168,67.3 168,67.4 168,67.4 168,67.4 167.3,68.1 167.5,68.1 168.1,67.5 168.1,67.5 		"/>
		<polygon class="st4" points="175.7,64.9 175.7,64.9 175.8,64.9 180.8,59.8 180.8,59.8 185.9,54.7 185.9,54.7 185.9,54.7 191,49.6 
			191,49.6 191,49.6 195.7,44.9 195.5,44.9 190.9,49.5 190.9,49.6 190.9,49.6 185.8,54.6 185.8,54.6 185.8,54.6 180.7,59.7 
			180.7,59.7 180.7,59.7 180.7,59.7 175.7,64.8 175.7,64.8 175.6,64.8 175.6,64.8 172.4,68.1 172.6,68.1 		"/>
		<polygon class="st4" points="167.6,66.9 167.6,66.9 172.7,61.9 172.7,61.8 172.7,61.8 177.8,56.8 177.8,56.8 177.8,56.8 
			182.9,51.7 182.9,51.7 188,46.6 188,46.6 188,46.6 189.6,44.9 189.4,44.9 187.9,46.5 187.8,46.5 187.8,46.5 182.8,51.6 
			182.8,51.6 182.8,51.6 182.7,51.6 177.7,56.6 177.7,56.6 177.7,56.7 172.6,61.8 172.6,61.8 172.6,61.8 167.5,66.8 167.5,66.9 
			167.5,66.9 166.2,68.1 166.4,68.1 		"/>
		<polygon class="st4" points="162,61.4 162,61.3 167.1,56.3 167.1,56.3 172.2,51.2 172.2,51.1 172.2,51.1 177.3,46.1 177.3,46.1 
			177.3,46.1 178.4,44.9 178.2,44.9 177.2,46 177.1,46 177.1,46 172.1,51.1 172.1,51.1 172.1,51.1 167,56.1 167,56.2 167,56.2 
			167,56.2 161.9,61.2 161.9,61.2 161.9,61.2 158.8,64.3 158.8,64.5 		"/>
		<polygon class="st4" points="161,60.3 161,60.3 161,60.3 166.1,55.2 166.1,55.2 166.1,55.2 171.1,50.2 171.2,50.1 171.2,50.1 
			171.2,50.1 176.2,45.1 176.2,45.1 176.2,45.1 176.3,45 176.4,44.9 176.2,44.9 176.2,44.9 176.2,44.9 176.1,45 176.1,45 171.1,50 
			171.1,50 166,55.1 165.9,55.2 165.9,55.2 160.9,60.2 160.9,60.2 158.8,62.3 158.8,62.5 		"/>
		<polygon class="st4" points="159.4,58.8 159.4,58.8 159.5,58.8 164.5,53.7 164.6,53.7 164.6,53.7 169.6,48.6 169.6,48.6 
			169.6,48.6 169.6,48.6 173.3,44.9 173.1,44.9 169.5,48.5 169.5,48.5 164.4,53.6 164.4,53.6 164.4,53.6 159.3,58.7 159.3,58.7 
			158.8,59.2 158.8,59.4 		"/>
		<polygon class="st4" points="165,64.4 165,64.4 170.1,59.3 170.1,59.3 175.2,54.2 175.2,54.2 175.2,54.2 180.3,49.1 180.3,49.1 
			180.3,49.1 184.5,44.9 184.3,44.9 180.2,49 180.2,49 180.2,49 175.1,54.1 175.1,54.1 175.1,54.1 170.1,59.2 170,59.2 170,59.2 
			170,59.2 165,64.3 165,64.3 164.9,64.3 161.2,68.1 161.4,68.1 		"/>
		<polygon class="st4" points="166.6,65.9 166.6,65.9 171.7,60.8 171.7,60.8 176.8,55.7 176.8,55.7 176.8,55.7 181.8,50.7 
			181.9,50.6 181.9,50.6 186.9,45.6 186.9,45.6 187.6,44.9 187.4,44.9 186.9,45.4 186.8,45.5 181.7,50.6 181.7,50.6 181.7,50.6 
			176.7,55.6 176.6,55.7 176.6,55.7 171.6,60.7 171.6,60.7 171.6,60.7 171.5,60.8 166.5,65.8 166.5,65.8 166.5,65.8 164.2,68.1 
			164.4,68.1 		"/>
		<polygon class="st4" points="167.1,66.4 167.1,66.4 167.1,66.4 172.2,61.4 172.2,61.4 172.2,61.3 177.3,56.3 177.3,56.2 
			177.3,56.2 182.3,51.2 182.4,51.2 182.4,51.2 182.4,51.1 187.4,46.1 187.4,46.1 188.6,44.9 188.4,44.9 187.4,46 187.3,46 
			187.3,46 187.3,46 182.3,51.1 182.3,51.1 177.2,56.2 177.1,56.2 177.1,56.2 172.1,61.2 172.1,61.2 172.1,61.2 167,66.3 167,66.3 
			165.2,68.1 165.4,68.1 167.1,66.5 		"/>
		<polygon class="st4" points="164,63.4 164,63.4 164,63.4 169.1,58.3 169.1,58.3 169.1,58.3 174.2,53.2 174.2,53.2 174.2,53.2 
			174.2,53.2 179.3,48.1 179.3,48.1 179.3,48.1 179.3,48.1 182.5,44.9 182.3,44.9 179.2,48 179.2,48 174.1,53.1 174.1,53.1 
			169,58.2 169,58.2 169,58.2 163.9,63.3 163.9,63.3 159.1,68.1 159.3,68.1 		"/>
		<polygon class="st4" points="165.6,64.9 165.6,64.9 165.6,64.9 170.6,59.8 170.7,59.8 170.7,59.8 175.7,54.7 175.7,54.7 
			175.8,54.7 175.8,54.7 180.8,49.7 180.8,49.6 180.8,49.6 180.8,49.6 185.5,44.9 185.3,44.9 180.7,49.5 180.7,49.5 175.7,54.6 
			175.6,54.6 170.5,59.7 170.5,59.7 170.5,59.7 165.5,64.8 165.5,64.8 162.2,68.1 162.4,68.1 165.5,64.9 		"/>
		<polygon class="st4" points="162.5,61.9 162.5,61.9 162.5,61.8 167.6,56.8 167.6,56.8 167.6,56.8 172.7,51.7 172.7,51.7 
			172.7,51.7 177.8,46.6 177.8,46.6 177.8,46.6 177.8,46.6 179.4,44.9 179.2,44.9 177.7,46.5 177.7,46.5 172.6,51.6 172.6,51.6 
			172.6,51.6 167.5,56.6 167.5,56.6 167.5,56.7 162.4,61.8 162.4,61.8 158.8,65.3 158.8,65.5 		"/>
	</g>
	<g>
		<polygon class="st5" points="153.8,50.5 153.8,50.5 153.8,50.5 148.8,55.6 148.8,55.6 148.7,55.6 143.7,60.7 143.7,60.7 
			143.7,60.7 143.7,60.7 138.6,65.8 138.5,65.8 138.5,65.8 136.2,68.1 136.4,68.1 138.7,65.9 138.7,65.9 138.7,65.9 143.7,60.8 
			143.8,60.8 143.8,60.8 143.8,60.8 148.8,55.7 148.8,55.7 148.8,55.7 153.9,50.6 154,50.6 154,50.6 158.7,45.8 158.7,45.6 		"/>
		<polygon class="st5" points="154.4,51 154.3,51 149.3,56.1 149.2,56.1 149.2,56.1 144.2,61.2 144.2,61.2 144.2,61.2 144.1,61.2 
			139.1,66.3 139.1,66.3 139.1,66.3 137.2,68.1 137.4,68.1 139.2,66.4 139.2,66.4 139.2,66.4 144.3,61.3 144.3,61.3 149.4,56.2 
			149.4,56.2 149.4,56.2 154.4,51.1 154.4,51.1 154.4,51.1 158.7,46.8 158.7,46.6 		"/>
		<polygon class="st5" points="158.4,55.1 158.4,55.1 158.4,55.1 153.3,60.2 153.3,60.2 153.3,60.2 148.3,65.3 148.3,65.3 
			148.2,65.3 148.2,65.3 145.4,68.1 145.6,68.1 148.3,65.4 148.3,65.4 148.3,65.4 148.4,65.4 153.4,60.3 153.4,60.3 153.4,60.3 
			158.5,55.2 158.5,55.2 158.5,55.2 158.7,55 158.7,54.8 		"/>
		<polygon class="st5" points="157.4,54.1 157.4,54.1 152.3,59.2 152.3,59.2 147.2,64.2 147.2,64.3 147.2,64.3 147.2,64.3 
			143.4,68.1 143.6,68.1 147.3,64.4 147.3,64.4 152.4,59.3 152.4,59.3 152.4,59.3 152.4,59.3 157.5,54.2 157.5,54.2 157.5,54.2 
			158.7,53 158.7,52.8 		"/>
		<polygon class="st5" points="156.9,53.6 156.9,53.6 156.9,53.6 151.8,58.6 151.8,58.6 151.8,58.7 146.7,63.8 146.7,63.8 
			146.7,63.8 142.3,68.1 142.5,68.1 146.8,63.9 146.8,63.8 146.8,63.8 151.9,58.8 151.9,58.8 151.9,58.8 157,53.7 157,53.7 
			158.7,51.9 158.7,51.7 		"/>
		<polygon class="st5" points="155.3,52.1 155.3,52.1 150.3,57.1 150.3,57.1 150.3,57.1 145.2,62.2 145.2,62.2 145.2,62.2 
			145.2,62.2 140.1,67.3 140.1,67.3 140.1,67.3 139.3,68.1 139.5,68.1 140.2,67.4 140.2,67.4 140.2,67.4 145.3,62.3 145.3,62.3 
			145.3,62.3 145.3,62.3 150.4,57.3 150.4,57.3 150.4,57.2 155.5,52.1 155.5,52.1 155.5,52.1 158.7,48.9 158.7,48.7 155.4,52 		"/>
		<polygon class="st5" points="155.9,52.6 155.9,52.6 150.8,57.6 150.8,57.7 150.8,57.7 145.7,62.7 145.7,62.7 145.7,62.7 
			145.7,62.8 140.6,67.8 140.6,67.8 140.6,67.8 140.3,68.1 140.5,68.1 140.7,67.9 140.7,67.9 140.7,67.9 145.8,62.8 145.8,62.8 
			150.9,57.7 150.9,57.7 150.9,57.7 156,52.7 156,52.6 156,52.6 158.7,49.9 158.7,49.7 		"/>
		<polygon class="st5" points="156.4,53.1 151.3,58.2 151.3,58.2 151.3,58.2 146.2,63.2 146.2,63.2 146.2,63.2 141.3,68.1 
			141.5,68.1 146.3,63.4 146.3,63.4 146.3,63.3 151.4,58.3 151.4,58.2 151.4,58.2 156.5,53.2 156.5,53.2 156.5,53.2 156.5,53.1 
			158.7,50.9 158.7,50.7 		"/>
		<polygon class="st5" points="157.9,54.6 152.8,59.7 152.8,59.7 152.8,59.7 147.7,64.8 147.7,64.8 147.7,64.8 144.4,68.1 
			144.6,68.1 147.8,64.9 147.8,64.9 147.8,64.9 152.9,59.8 158,54.7 158,54.7 158,54.7 158,54.7 158.7,54 158.7,53.8 		"/>
		<polygon class="st5" points="154.9,51.5 149.8,56.6 149.7,56.6 149.7,56.6 144.7,61.7 144.7,61.7 144.7,61.7 139.6,66.8 
			139.6,66.8 138.3,68.1 138.5,68.1 139.7,66.9 139.7,66.9 139.7,66.9 139.7,66.9 144.8,61.8 144.8,61.8 144.8,61.8 149.9,56.7 
			149.9,56.7 149.9,56.7 154.9,51.7 155,51.6 155,51.6 155,51.6 158.7,47.9 158.7,47.7 		"/>
		<polygon class="st5" points="156.4,63.2 156.4,63.2 151.5,68.1 151.7,68.1 156.5,63.4 156.5,63.4 156.5,63.3 158.7,61.1 
			158.7,60.9 		"/>
		<polygon class="st5" points="157.9,64.8 157.9,64.8 154.6,68.1 154.8,68.1 158,64.9 158,64.9 158,64.9 158.7,64.2 158.7,64 		"/>
		<polygon class="st5" points="154.9,61.7 154.9,61.7 149.8,66.8 149.7,66.8 149.7,66.8 148.4,68.1 148.6,68.1 149.9,66.9 
			149.9,66.9 149.9,66.9 154.9,61.8 154.9,61.8 155,61.8 158.7,58 158.7,57.8 		"/>
		<polygon class="st5" points="154.3,61.2 154.3,61.2 149.3,66.3 149.3,66.3 149.3,66.3 147.4,68.1 147.6,68.1 149.3,66.4 
			149.3,66.4 149.4,66.4 154.4,61.3 154.5,61.3 154.5,61.3 158.7,57 158.7,56.8 		"/>
		<polygon class="st5" points="153.8,60.7 153.8,60.7 148.8,65.8 148.7,65.8 148.7,65.8 148.7,65.8 146.4,68.1 146.6,68.1 
			148.8,65.9 148.8,65.9 153.9,60.8 154,60.8 154,60.8 158.7,56 158.7,55.8 		"/>
		<polygon class="st5" points="157.4,64.3 157.4,64.3 153.5,68.1 153.7,68.1 157.5,64.4 157.5,64.3 157.5,64.3 158.7,63.1 
			158.7,62.9 		"/>
		<polygon class="st5" points="155.3,62.2 155.3,62.2 150.3,67.3 150.3,67.3 150.3,67.3 150.3,67.3 149.5,68.1 149.7,68.1 
			150.4,67.4 150.4,67.4 155.5,62.3 155.5,62.3 155.5,62.3 158.7,59.1 158.7,58.9 155.4,62.2 		"/>
		<polygon class="st5" points="155.9,62.8 155.9,62.8 150.8,67.8 150.8,67.8 150.8,67.8 150.5,68.1 150.7,68.1 150.9,67.9 
			150.9,67.9 150.9,67.9 156,62.8 156,62.8 156,62.8 158.7,60.1 158.7,59.9 155.9,62.7 		"/>
		<polygon class="st5" points="157.8,68.1 158.7,67.2 158.7,67 157.6,68.1 		"/>
		<polygon class="st5" points="158.4,65.3 155.6,68.1 155.8,68.1 158.5,65.4 158.5,65.4 158.5,65.4 158.5,65.4 158.7,65.2 158.7,65 
					"/>
		<polygon class="st5" points="156.8,68.1 158.7,66.2 158.7,66 156.6,68.1 		"/>
		<polygon class="st5" points="156.9,63.8 152.5,68.1 152.7,68.1 157,63.9 157,63.9 157,63.9 157,63.8 158.7,62.1 158.7,61.9 		"/>
		<polygon class="st5" points="158.7,68.1 158.7,68 158.6,68.1 		"/>
		<polygon class="st5" points="137.2,64.3 137.2,64.3 142.2,59.3 142.2,59.3 142.2,59.3 147.3,54.2 147.3,54.2 147.3,54.2 
			152.4,49.1 152.4,49.1 156.5,45 156.3,45 152.3,49 152.3,49 152.3,49 152.3,49 147.2,54.1 147.2,54.1 147.2,54.1 142.1,59.2 
			142.1,59.2 142.1,59.2 137,64.3 137,64.3 137,64.3 133.2,68.1 133.4,68.1 137.1,64.4 		"/>
		<polygon class="st5" points="135.6,62.8 135.6,62.8 140.7,57.8 140.7,57.7 140.7,57.7 140.7,57.7 145.8,52.7 145.8,52.7 
			150.9,47.6 150.9,47.5 150.9,47.5 153.5,45 153.3,45 150.8,47.5 150.8,47.5 150.8,47.5 145.7,52.5 145.7,52.6 145.7,52.6 
			145.7,52.6 140.6,57.6 140.6,57.6 140.6,57.6 140.6,57.6 135.5,62.7 135.5,62.8 135.5,62.8 130.4,67.8 130.4,67.8 130.4,67.8 
			130.1,68.1 130.3,68.1 130.5,67.9 130.5,67.9 130.5,67.9 		"/>
		<polygon class="st5" points="108.6,46 109.7,45 109.5,45 108.5,45.9 108.5,45.9 108.5,45.9 108.5,46 107.4,47 107.4,47.2 		"/>
		<polygon class="st5" points="107.6,45 107.6,45 107.7,45 107.6,45 107.5,45 107.5,45 107.4,45 107.4,45.2 		"/>
		<polygon class="st5" points="111.7,49.1 115.8,45 115.6,45 111.6,49 111.6,49 111.6,49 111.6,49 107.4,53.1 107.4,53.4 		"/>
		<polygon class="st5" points="110.7,48.1 110.7,48.1 113.8,45 113.6,45 110.6,48 110.5,48 110.5,48 107.4,51.1 107.4,51.3 		"/>
		<polygon class="st5" points="112.2,49.6 112.2,49.6 116.8,45 116.6,45 112.1,49.5 112.1,49.5 112.1,49.5 107.4,54.2 107.4,54.4 		
			"/>
		<polygon class="st5" points="111.2,48.6 111.2,48.6 114.8,45 114.6,45 111.1,48.5 111,48.5 111.1,48.5 107.4,52.1 107.4,52.3 		
			"/>
		<polygon class="st5" points="128,65.4 128,65.4 133,60.3 133,60.3 133.1,60.3 138.2,55.2 138.2,55.2 143.2,50.1 143.3,50.1 
			143.3,50.1 148.3,45 148.3,45 148.4,45 148.3,45 148.3,45 148.2,45 143.1,50 143.1,50 143.1,50 138.1,55.1 138.1,55.1 138.1,55.1 
			138,55.1 133,60.2 133,60.2 133,60.2 127.9,65.3 127.9,65.3 127.9,65.3 125,68.1 125.2,68.1 		"/>
		<polygon class="st5" points="127,64.4 132,59.3 132,59.3 132,59.3 132.1,59.3 137.1,54.2 137.1,54.2 137.1,54.2 142.2,49.1 
			142.2,49.1 142.2,49.1 146.4,45 146.2,45 142.1,49 142.1,49 142.1,49 137.1,54.1 137.1,54.1 137,54.1 131.9,59.2 131.9,59.2 
			126.9,64.2 126.9,64.3 126.9,64.3 126.8,64.3 123,68.1 123.2,68.1 		"/>
		<polygon class="st5" points="128.5,65.9 133.6,60.8 133.6,60.8 133.6,60.8 133.6,60.8 138.6,55.7 138.6,55.7 138.7,55.7 
			143.8,50.6 143.8,50.6 143.8,50.6 143.8,50.6 148.8,45.5 148.8,45.5 148.8,45.5 148.9,45.5 149.4,45 149.2,45 148.7,45.4 
			148.7,45.4 143.7,50.5 143.7,50.5 143.7,50.5 143.6,50.5 138.6,55.6 138.6,55.6 138.6,55.6 133.5,60.7 133.5,60.7 128.4,65.8 
			128.4,65.8 128.4,65.8 128.4,65.8 126,68.1 126.2,68.1 		"/>
		<polygon class="st5" points="126.5,63.8 126.5,63.8 131.5,58.8 131.5,58.8 131.5,58.8 136.6,53.7 136.6,53.7 141.7,48.6 
			141.7,48.6 141.7,48.6 145.3,45 145.1,45 141.6,48.5 141.6,48.5 141.6,48.5 136.5,53.6 136.5,53.6 136.5,53.6 136.5,53.6 
			131.5,58.6 131.4,58.6 131.4,58.7 126.3,63.8 126.3,63.8 126.3,63.8 122,68.1 122.2,68.1 126.4,63.9 		"/>
		<polygon class="st5" points="125.4,62.8 130.5,57.8 130.5,57.7 130.5,57.7 130.5,57.7 135.6,52.7 135.6,52.6 135.6,52.6 
			140.7,47.6 140.7,47.6 140.7,47.5 140.7,47.5 143.3,45 143.1,45 140.6,47.4 140.6,47.5 135.5,52.6 135.5,52.6 135.5,52.6 
			130.4,57.6 130.4,57.6 125.3,62.7 125.3,62.7 125.3,62.7 125.3,62.8 120.2,67.8 120.2,67.8 120.2,67.8 119.9,68.1 120.1,68.1 
			120.3,67.9 120.3,67.9 120.3,67.9 		"/>
		<polygon class="st5" points="136.1,63.4 136.1,63.3 141.2,58.3 141.2,58.3 146.3,53.2 146.3,53.1 146.3,53.1 151.4,48.1 
			151.4,48.1 151.4,48.1 154.5,45 154.3,45 151.3,48 151.3,48 151.3,48 146.2,53.1 146.2,53.1 146.2,53.1 141.1,58.1 141.1,58.2 
			141.1,58.2 141.1,58.2 136,63.2 136,63.2 136,63.2 131.1,68.1 131.3,68.1 		"/>
		<polygon class="st5" points="137.6,64.9 137.6,64.9 142.7,59.8 142.7,59.8 147.8,54.7 147.8,54.7 147.8,54.7 152.9,49.6 
			152.9,49.6 157.6,45 157.4,45 152.8,49.5 152.8,49.5 152.8,49.5 152.8,49.5 147.7,54.6 147.7,54.6 147.7,54.6 142.7,59.7 
			142.6,59.7 142.6,59.7 142.6,59.7 137.6,64.8 137.6,64.8 137.5,64.8 134.2,68.1 134.4,68.1 		"/>
		<polygon class="st5" points="138.2,65.4 138.2,65.4 138.2,65.4 143.2,60.3 143.2,60.3 143.2,60.3 148.3,55.2 148.3,55.2 
			148.4,55.2 148.4,55.2 153.4,50.1 153.4,50.1 153.4,50.1 153.4,50.1 158.5,45 158.5,45 158.6,45 158.5,45 158.5,45 158.4,45 
			153.3,50 153.3,50 148.3,55.1 148.2,55.1 148.2,55.1 148.2,55.1 143.2,60.2 143.2,60.2 143.1,60.2 138.1,65.3 138.1,65.3 
			135.2,68.1 135.4,68.1 138.1,65.4 		"/>
		<polygon class="st5" points="135.1,62.3 135.1,62.3 135.1,62.3 140.2,57.3 140.2,57.3 140.2,57.2 145.3,52.1 145.3,52.1 
			145.3,52.1 145.3,52.1 150.4,47.1 150.4,47.1 150.4,47.1 150.4,47 152.5,45 152.3,45 150.3,47 150.3,47 145.2,52 145.2,52 
			145.2,52 145.2,52.1 140.1,57.1 140.1,57.1 140.1,57.1 135,62.2 135,62.2 129.9,67.3 129.9,67.3 129.9,67.3 129.9,67.3 
			129.1,68.1 129.3,68.1 130,67.4 130,67.4 		"/>
		<polygon class="st5" points="136.6,63.9 136.6,63.9 136.6,63.8 141.7,58.8 141.7,58.8 141.7,58.8 146.8,53.7 146.8,53.7 
			146.8,53.7 151.9,48.6 151.9,48.6 151.9,48.6 151.9,48.6 155.5,45 155.3,45 151.8,48.5 151.8,48.5 146.7,53.6 146.7,53.6 
			146.7,53.6 141.6,58.6 141.6,58.6 141.6,58.7 136.5,63.8 136.5,63.8 132.1,68.1 132.4,68.1 		"/>
		<polygon class="st5" points="129.5,66.9 129.5,66.9 134.6,61.8 134.6,61.8 134.6,61.8 139.7,56.7 139.7,56.7 144.8,51.6 
			144.8,51.6 144.8,51.6 149.8,46.6 149.8,46.6 149.9,46.5 151.4,45 151.2,45 149.8,46.4 149.8,46.4 149.8,46.4 144.7,51.5 
			144.7,51.6 144.7,51.6 139.6,56.6 139.6,56.6 139.6,56.6 139.6,56.6 134.5,61.7 134.5,61.7 134.5,61.7 129.4,66.8 129.4,66.8 
			129.4,66.8 128.1,68.1 128.3,68.1 		"/>
		<polygon class="st5" points="108.1,45.5 108.1,45.5 108.1,45.5 108.7,45 108.5,45 108,45.4 108,45.4 107.4,46 107.4,46.2 		"/>
		<polygon class="st5" points="110.2,47.6 112.8,45 112.6,45 110.1,47.4 110,47.5 107.4,50.1 107.4,50.3 110.1,47.6 		"/>
		<polygon class="st5" points="109.1,46.6 109.1,46.5 110.7,45 110.5,45 109,46.4 109,46.4 109,46.4 107.4,48.1 107.4,48.3 		"/>
		<polygon class="st5" points="109.6,47.1 109.6,47.1 109.7,47 111.7,45 111.5,45 109.5,47 109.5,47 107.4,49.1 107.4,49.3 		"/>
		<polygon class="st5" points="107.6,55.2 107.6,55.2 112.7,50.1 112.7,50.1 112.7,50.1 112.7,50.1 117.8,45 117.8,45 117.8,45 
			117.8,45 117.7,45 117.6,45 112.6,50 112.6,50 107.5,55.1 107.5,55.1 107.5,55.1 107.4,55.2 107.4,55.4 		"/>
		<polygon class="st5" points="110.7,58.2 110.7,58.2 115.8,53.2 115.8,53.1 115.8,53.1 120.8,48.1 120.8,48.1 124,45 123.8,45 
			120.8,48 120.7,48 120.7,48 120.7,48 115.6,53.1 115.6,53.1 115.6,53.1 110.6,58.2 110.5,58.2 110.5,58.2 107.4,61.3 107.4,61.5 
			110.7,58.3 		"/>
		<polygon class="st5" points="112.2,59.8 112.2,59.8 117.3,54.7 117.3,54.7 117.3,54.7 117.3,54.7 122.4,49.6 122.4,49.6 127,45 
			126.8,45 122.3,49.5 122.3,49.5 122.3,49.5 122.3,49.5 117.2,54.6 117.2,54.6 112.1,59.7 112.1,59.7 112.1,59.7 107.4,64.4 
			107.4,64.6 		"/>
		<polygon class="st5" points="109.2,56.7 109.2,56.7 114.2,51.6 114.2,51.6 114.2,51.6 119.3,46.6 119.3,46.6 119.3,46.5 120.9,45 
			120.7,45 119.2,46.4 119.2,46.4 119.2,46.4 114.1,51.5 114.1,51.6 114.1,51.6 109,56.6 109,56.6 109,56.6 107.4,58.2 107.4,58.4 
			109.1,56.7 		"/>
		<polygon class="st5" points="116.8,64.4 121.9,59.3 121.9,59.3 121.9,59.3 126.9,54.2 126.9,54.2 127,54.2 132,49.1 132,49.1 
			136.2,45 136,45 132,49 131.9,49 131.9,49 131.9,49 126.9,54.1 126.9,54.1 126.8,54.1 121.8,59.2 121.7,59.2 121.7,59.2 
			116.7,64.2 116.7,64.3 116.7,64.3 116.7,64.3 112.8,68.1 113,68.1 		"/>
		<polygon class="st5" points="118.3,65.9 118.3,65.9 123.4,60.8 123.4,60.8 123.4,60.8 128.5,55.7 128.5,55.7 128.5,55.7 
			133.6,50.6 133.6,50.6 138.7,45.5 138.7,45.5 138.7,45.5 139.2,45 139,45 138.6,45.4 138.5,45.4 138.5,45.4 133.5,50.5 
			133.5,50.5 133.5,50.5 133.5,50.5 128.4,55.6 128.4,55.6 128.4,55.6 123.3,60.7 123.3,60.7 123.3,60.7 118.2,65.8 118.2,65.8 
			118.2,65.8 115.9,68.1 116.1,68.1 		"/>
		<polygon class="st5" points="115.3,62.8 115.3,62.8 120.3,57.7 120.4,57.7 120.4,57.7 125.4,52.7 125.4,52.7 130.5,47.6 
			130.5,47.6 133.1,45 132.9,45 130.4,47.4 130.4,47.5 125.3,52.5 125.3,52.6 125.3,52.6 125.3,52.6 120.2,57.6 120.2,57.7 
			120.2,57.7 115.1,62.7 115.1,62.8 115.1,62.8 110.1,67.8 110.1,67.8 110,67.8 109.7,68.1 110,68.1 110.1,67.9 110.1,67.9 
			110.2,67.9 115.2,62.8 		"/>
		<polygon class="st5" points="129,66.4 129,66.4 134.1,61.3 134.1,61.3 134.1,61.3 139.2,56.2 139.2,56.2 139.2,56.2 139.2,56.2 
			144.2,51.1 144.2,51.1 144.3,51.1 149.4,46 149.4,46 149.4,46 150.4,45 150.2,45 149.3,45.9 149.2,46 149.2,46 144.2,51 144.2,51 
			144.2,51 139.1,56.1 139.1,56.1 139.1,56.1 139.1,56.1 134,61.2 134,61.2 134,61.2 128.9,66.3 128.9,66.3 128.9,66.3 127.1,68.1 
			127.3,68.1 		"/>
		<polygon class="st5" points="125.9,63.4 125.9,63.3 131,58.3 131,58.2 131,58.2 136.1,53.2 136.1,53.2 136.1,53.2 136.1,53.1 
			141.2,48.1 141.2,48.1 144.3,45 144.1,45 141.1,48 141.1,48 141.1,48 141.1,48 136,53 136,53 136,53.1 136,53.1 130.9,58.2 
			130.9,58.2 130.9,58.2 125.9,63.2 125.8,63.2 125.8,63.2 120.9,68.1 121.2,68.1 		"/>
		<polygon class="st5" points="127.4,64.9 127.5,64.9 132.6,59.8 132.6,59.8 132.6,59.8 137.6,54.7 137.6,54.7 137.6,54.7 
			137.7,54.7 142.7,49.6 142.7,49.6 147.4,45 147.2,45 142.7,49.5 142.6,49.5 142.6,49.5 142.6,49.5 137.6,54.6 137.6,54.6 
			137.5,54.6 137.5,54.6 132.5,59.7 132.4,59.7 132.4,59.7 127.4,64.8 127.4,64.8 127.4,64.8 124,68.1 124.2,68.1 		"/>
		<polygon class="st5" points="124.9,62.3 124.9,62.3 124.9,62.3 130,57.3 130,57.3 130,57.2 135.1,52.1 135.1,52.1 140.2,47.1 
			140.2,47 140.2,47 142.3,45 142.1,45 140.1,47 140.1,47 140.1,47 135,52 135,52 135,52 135,52.1 129.9,57.1 129.9,57.1 
			129.9,57.1 124.8,62.2 124.8,62.2 124.8,62.2 119.7,67.3 119.7,67.3 119.7,67.3 118.9,68.1 119.1,68.1 119.8,67.4 119.8,67.4 
			119.8,67.4 		"/>
		<polygon class="st5" points="108.1,55.7 108.1,55.7 113.2,50.6 113.2,50.6 118.3,45.5 118.3,45.5 118.3,45.5 118.9,45 118.7,45 
			118.2,45.4 118.2,45.4 118.2,45.4 113.1,50.5 113.1,50.5 113.1,50.5 113.1,50.5 108,55.6 108,55.6 108,55.6 107.4,56.2 
			107.4,56.4 		"/>
		<polygon class="st5" points="108.6,56.2 108.6,56.2 108.6,56.2 113.7,51.1 113.7,51.1 113.7,51.1 118.8,46 118.8,46 118.8,46 
			119.9,45 119.7,45 118.7,45.9 118.7,46 118.7,46 113.6,51 113.6,51 113.6,51 108.5,56.1 108.5,56.1 107.4,57.2 107.4,57.4 		"/>
		<polygon class="st5" points="109.6,57.3 109.6,57.2 114.7,52.1 114.7,52.1 119.8,47.1 119.8,47 119.8,47 121.9,45 121.7,45 
			119.7,47 119.7,47 119.7,47 114.6,52 114.6,52 114.6,52 114.6,52.1 109.6,57.1 109.6,57.1 109.5,57.1 107.4,59.3 107.4,59.5 		"/>
		<polygon class="st5" points="111.2,58.8 111.2,58.8 116.3,53.7 116.3,53.7 121.3,48.6 121.4,48.6 121.4,48.6 121.4,48.6 125,45 
			124.8,45 121.3,48.5 121.3,48.5 116.2,53.6 116.2,53.6 116.2,53.6 116.1,53.6 111.1,58.6 111.1,58.6 111.1,58.7 107.4,62.3 
			107.4,62.5 		"/>
		<polygon class="st5" points="111.7,59.3 111.7,59.3 111.7,59.3 116.8,54.2 116.8,54.2 116.8,54.2 121.9,49.1 121.9,49.1 
			121.9,49.1 126,45 125.8,45 121.8,49 121.7,49 121.7,49 116.7,54.1 116.7,54.1 116.7,54.1 111.6,59.2 111.6,59.2 107.4,63.3 
			107.4,63.5 		"/>
		<polygon class="st5" points="113.2,60.8 113.2,60.8 113.2,60.8 113.2,60.8 118.3,55.7 118.3,55.7 118.3,55.7 123.4,50.6 
			123.4,50.6 123.4,50.6 128.5,45.5 128.5,45.5 128.5,45.5 128.5,45.5 129,45 128.8,45 128.4,45.4 128.4,45.4 128.4,45.4 
			128.4,45.4 123.3,50.5 123.3,50.5 123.3,50.5 118.2,55.6 118.2,55.6 118.2,55.6 113.1,60.7 113.1,60.7 108,65.8 108,65.8 
			108,65.8 107.4,66.4 107.4,66.6 108.1,65.9 		"/>
		<polygon class="st5" points="110.2,57.7 110.2,57.7 110.2,57.7 115.2,52.7 115.3,52.6 115.3,52.6 120.3,47.6 120.4,47.5 
			120.4,47.5 122.9,45 122.7,45 120.2,47.5 120.2,47.5 120.2,47.5 115.1,52.6 115.1,52.6 115.1,52.6 110,57.6 110,57.6 107.4,60.3 
			107.4,60.5 110.1,57.8 		"/>
		<polygon class="st5" points="107.6,65.4 107.6,65.4 112.7,60.3 112.7,60.3 112.7,60.3 117.8,55.2 117.8,55.2 122.9,50.1 
			122.9,50.1 122.9,50.1 122.9,50.1 128,45 128,45 128,45 128,45 127.9,45 127.9,45 127.8,45 122.8,50 122.8,50 117.7,55.1 
			117.7,55.1 117.7,55.1 117.7,55.1 112.6,60.2 112.6,60.2 112.6,60.2 107.5,65.3 107.5,65.3 107.5,65.3 107.4,65.4 107.4,65.6 		
			"/>
		<polygon class="st5" points="118.8,66.4 118.8,66.4 123.9,61.3 123.9,61.3 129,56.2 129,56.2 129,56.2 129,56.2 134.1,51.1 
			134.1,51.1 134.1,51.1 139.2,46 140.2,45 140,45 139.1,45.9 139.1,45.9 139.1,46 134,51 134,51 134,51 128.9,56.1 128.9,56.1 
			123.8,61.2 123.8,61.2 123.8,61.2 123.8,61.2 118.7,66.3 118.7,66.3 118.7,66.3 116.9,68.1 117.1,68.1 		"/>
		<polygon class="st5" points="115.7,63.4 115.8,63.3 120.8,58.3 120.8,58.3 125.9,53.2 125.9,53.2 125.9,53.2 126,53.1 131,48.1 
			131,48.1 131,48.1 134.1,45 133.9,45 130.9,48 130.9,48 130.9,48 125.8,53.1 125.8,53.1 120.8,58.1 120.7,58.2 120.7,58.2 
			120.7,58.2 115.7,63.2 115.7,63.2 115.6,63.2 110.8,68.1 111,68.1 		"/>
		<polygon class="st5" points="117.3,64.9 117.3,64.9 122.4,59.8 122.4,59.8 127.4,54.7 127.5,54.7 127.5,54.7 127.5,54.7 
			132.6,49.6 132.6,49.6 132.6,49.6 137.2,45 137,45 132.5,49.5 132.4,49.5 132.4,49.5 127.4,54.6 127.4,54.6 122.3,59.7 
			122.3,59.7 122.3,59.7 122.3,59.7 117.2,64.8 117.2,64.8 117.2,64.8 113.8,68.1 114,68.1 		"/>
		<polygon class="st5" points="117.8,65.4 117.8,65.4 117.8,65.4 122.9,60.3 122.9,60.3 122.9,60.3 128,55.2 128,55.2 128,55.2 
			133,50.1 133.1,50.1 133.1,50.1 133.1,50.1 138.2,45 138.2,45 138.2,45 138.1,45 138.1,45 138,45 133,50 133,50 133,50 133,50 
			127.9,55.1 127.9,55.1 127.9,55.1 122.8,60.2 122.8,60.2 122.8,60.2 117.7,65.3 117.7,65.3 114.8,68.1 115,68.1 		"/>
		<polygon class="st5" points="114.7,62.3 114.7,62.3 114.8,62.3 119.8,57.3 119.8,57.3 119.8,57.2 124.9,52.1 124.9,52.1 
			124.9,52.1 130,47.1 130,47.1 130,47.1 130,47 132.1,45 131.9,45 129.9,46.9 129.9,46.9 129.9,47 129.9,47 124.8,52 124.8,52.1 
			124.8,52.1 119.7,57.1 119.7,57.1 119.7,57.1 114.6,62.2 114.6,62.2 109.6,67.3 109.5,67.3 109.5,67.3 108.7,68.1 108.9,68.1 
			109.6,67.4 		"/>
		<polygon class="st5" points="116.3,63.9 116.3,63.9 116.3,63.8 121.3,58.8 121.3,58.8 121.4,58.8 126.4,53.7 126.5,53.7 
			126.5,53.7 131.5,48.6 131.5,48.6 131.5,48.6 131.6,48.6 135.2,45 135,45 131.4,48.5 131.4,48.5 131.4,48.5 131.4,48.5 
			126.3,53.6 126.3,53.6 126.3,53.6 121.3,58.6 121.3,58.6 121.2,58.7 116.2,63.8 116.2,63.8 111.8,68.1 112,68.1 116.2,63.9 		"/>
		<polygon class="st5" points="109.2,66.9 109.2,66.9 114.2,61.8 114.2,61.8 114.2,61.8 119.3,56.7 119.3,56.7 124.4,51.7 
			124.4,51.6 124.4,51.6 124.4,51.6 129.5,46.6 129.5,46.6 129.5,46.5 131.1,45 130.9,45 129.4,46.4 129.4,46.4 129.4,46.4 
			124.3,51.5 124.3,51.5 119.2,56.6 119.2,56.6 119.2,56.6 119.2,56.6 114.1,61.7 114.1,61.7 114.1,61.7 109,66.8 109,66.8 
			109,66.8 107.7,68.1 107.9,68.1 109.1,66.9 		"/>
		<polygon class="st5" points="119.3,66.9 119.3,66.9 119.3,66.9 124.4,61.8 124.4,61.8 124.4,61.8 129.5,56.7 129.5,56.7 
			129.5,56.7 134.6,51.7 134.6,51.6 134.6,51.6 134.6,51.6 139.7,46.6 139.7,46.6 139.7,46.5 141.3,45 141.1,45 139.6,46.4 
			139.6,46.4 139.6,46.4 134.5,51.5 134.5,51.5 134.5,51.5 134.5,51.5 129.4,56.6 129.4,56.6 129.4,56.6 124.3,61.7 124.3,61.7 
			124.3,61.7 119.2,66.8 119.2,66.8 117.9,68.1 118.1,68.1 		"/>
		<polygon class="st5" points="108.6,66.4 108.6,66.4 113.7,61.3 113.7,61.3 113.7,61.3 118.8,56.2 118.8,56.2 118.8,56.2 
			123.9,51.1 123.9,51.1 123.9,51.1 129,46 129,46 130.1,45 129.9,45 128.9,45.9 128.9,45.9 128.9,45.9 128.9,46 123.8,51 123.8,51 
			123.8,51 118.7,56.1 118.7,56.1 118.7,56.1 113.6,61.2 113.6,61.2 113.6,61.2 108.5,66.3 108.5,66.3 108.5,66.3 107.4,67.4 
			107.4,67.6 		"/>
	</g>
	<g>
		<polygon class="st6" points="110.5,70.9 110.4,70.9 110.4,70.9 105.4,76 105.4,76 105.4,76 100.3,81.1 100.3,81.1 100.3,81.1 
			95.2,86.2 95.2,86.2 90.5,90.8 90.5,91.1 95.3,86.3 95.3,86.3 95.3,86.3 95.3,86.3 100.4,81.2 100.4,81.2 100.4,81.2 105.5,76.1 
			105.5,76.1 105.5,76.1 110.6,71 110.6,71 110.6,71 112.4,69.2 112.4,69 		"/>
		<polygon class="st6" points="111,71.4 111,71.4 111,71.4 105.9,76.5 105.9,76.5 105.9,76.5 100.8,81.6 100.8,81.6 100.8,81.6 
			95.7,86.7 95.7,86.7 95.7,86.7 95.7,86.7 90.6,91.8 90.6,91.8 90.6,91.8 90.5,91.9 90.5,92.1 90.7,91.9 90.7,91.9 90.7,91.9 
			95.8,86.8 95.8,86.8 100.9,81.7 100.9,81.7 100.9,81.7 106,76.6 106,76.6 106,76.6 111.1,71.5 111.1,71.5 112.4,70.2 112.4,70 		
			"/>
		<polygon class="st6" points="111.5,71.9 111.5,71.9 106.4,77 106.4,77 101.3,82.1 101.3,82.1 101.3,82.1 96.2,87.2 96.2,87.2 
			96.2,87.2 91.1,92.3 91.1,92.3 90.5,92.9 90.5,93.1 91.2,92.4 91.2,92.4 91.2,92.4 91.2,92.4 96.3,87.3 96.3,87.3 96.3,87.3 
			101.4,82.2 101.4,82.2 101.4,82.2 106.5,77.1 106.5,77.1 106.5,77.1 106.5,77.1 111.6,72.1 111.6,72.1 111.6,72 112.4,71.2 
			112.4,71 		"/>
		<polygon class="st6" points="112,72.4 106.9,77.5 106.9,77.6 106.9,77.6 101.8,82.6 101.8,82.6 101.8,82.6 96.7,87.7 96.7,87.7 
			91.6,92.8 91.6,92.8 91.6,92.8 90.5,93.9 90.5,94.1 91.7,92.9 91.7,92.9 91.7,92.9 96.8,87.8 96.8,87.8 96.8,87.8 96.8,87.8 
			101.9,82.7 101.9,82.7 101.9,82.7 107,77.6 107,77.6 107,77.6 112.1,72.6 112.1,72.5 112.1,72.5 112.1,72.5 112.4,72.2 112.4,72 
					"/>
		<polygon class="st6" points="109,79.6 108.9,79.6 103.8,84.7 103.8,84.7 103.8,84.7 98.8,89.7 98.8,89.8 98.8,89.8 98.7,89.8 
			93.7,94.8 93.7,94.8 93.7,94.8 90.5,98 90.5,98.2 93.7,95 93.7,95 93.8,94.9 98.9,89.9 98.9,89.9 103.9,84.8 104,84.7 104,84.7 
			109,79.7 109,79.7 109,79.7 112.4,76.3 112.4,76.1 		"/>
		<polygon class="st6" points="110.5,81.1 110.5,81.1 105.4,86.2 105.4,86.2 105.4,86.2 100.3,91.3 100.3,91.3 100.3,91.3 
			100.3,91.3 95.2,96.4 95.2,96.4 95.2,96.4 90.5,101 90.5,101.2 95.3,96.5 95.3,96.5 95.3,96.5 100.4,91.4 100.4,91.4 105.5,86.3 
			105.5,86.3 105.5,86.3 110.5,81.2 110.5,81.2 110.6,81.2 112.4,79.4 112.4,79.1 		"/>
		<polygon class="st6" points="107.4,78 107.4,78 102.3,83.1 102.3,83.2 102.3,83.2 97.2,88.2 97.2,88.2 97.2,88.2 97.2,88.2 
			92.2,93.3 92.2,93.3 92.1,93.3 90.5,94.9 90.5,95.1 92.2,93.4 92.2,93.4 92.2,93.4 97.3,88.3 97.3,88.3 102.4,83.2 102.4,83.2 
			102.4,83.2 107.5,78.2 107.5,78.2 107.5,78.1 112.4,73.2 112.4,73 		"/>
		<polygon class="st6" points="112,82.6 112,82.6 106.9,87.7 106.9,87.7 106.9,87.7 101.8,92.8 101.8,92.8 101.8,92.8 101.8,92.8 
			96.7,97.9 96.7,97.9 96.7,97.9 91.6,103 91.6,103 91.6,103 90.5,104.1 90.5,104.3 91.7,103.1 91.7,103.1 91.7,103.1 96.8,98 
			96.8,98 96.8,98 101.9,92.9 101.9,92.9 107,87.8 107,87.8 107,87.8 112.1,82.7 112.1,82.7 112.1,82.7 112.4,82.4 112.4,82.2 		"/>
		<polygon class="st6" points="111.5,82.1 111.5,82.1 111.5,82.1 106.4,87.2 106.4,87.2 106.4,87.2 101.3,92.3 101.3,92.3 
			101.3,92.3 96.2,97.4 96.2,97.4 96.2,97.4 91.1,102.5 91.1,102.5 91.1,102.5 91.1,102.5 90.5,103.1 90.5,103.3 91.2,102.6 
			91.2,102.6 91.2,102.6 91.2,102.6 96.3,97.5 96.3,97.5 96.3,97.5 101.4,92.4 101.4,92.4 101.4,92.4 106.5,87.3 106.5,87.3 
			106.5,87.3 111.6,82.2 111.6,82.2 112.4,81.4 112.4,81.2 		"/>
		<polygon class="st6" points="93.8,68.4 93.6,68.4 90.6,71.4 90.6,71.4 90.6,71.4 90.5,71.5 90.5,71.7 90.7,71.5 		"/>
		<polygon class="st6" points="91.6,68.4 90.5,69.5 90.5,69.7 91.8,68.4 		"/>
		<polygon class="st6" points="92.6,68.4 90.5,70.5 90.5,70.7 92.8,68.4 		"/>
		<polygon class="st6" points="90.5,68.4 90.5,68.4 90.5,68.7 90.7,68.4 		"/>
		<polygon class="st6" points="98.8,69.5 98.9,69.5 98.9,69.5 98.9,69.5 99.9,68.4 99.7,68.4 98.8,69.4 98.8,69.4 93.7,74.5 
			93.7,74.5 93.6,74.5 90.5,77.6 90.5,77.8 93.8,74.6 		"/>
		<polygon class="st6" points="100.4,71 100.4,71 100.4,71 100.4,71 103,68.4 102.8,68.4 100.3,70.9 100.3,70.9 95.2,76 95.2,76 
			95.2,76 90.5,80.7 90.5,80.9 95.3,76.1 		"/>
		<polygon class="st6" points="96.8,68.4 96.6,68.4 92.2,72.9 92.1,73 92.1,73 90.5,74.6 90.5,74.8 92.2,73.1 		"/>
		<polygon class="st6" points="94.8,75.6 94.8,75.6 99.9,70.5 99.9,70.5 99.9,70.5 101.9,68.4 101.7,68.4 99.8,70.4 99.8,70.4 
			99.8,70.4 94.7,75.5 94.7,75.5 94.7,75.5 90.5,79.6 90.5,79.9 		"/>
		<polygon class="st6" points="91.7,72.5 91.7,72.5 95.8,68.4 95.6,68.4 91.6,72.4 91.6,72.5 91.6,72.5 90.5,73.5 90.5,73.7 		"/>
		<polygon class="st6" points="93.3,74.1 93.3,74.1 98.3,69 98.3,69 98.3,69 98.9,68.4 98.7,68.4 98.3,68.9 98.3,68.9 98.2,68.9 
			93.2,74 93.1,74 93.1,74 90.5,76.6 90.5,76.8 		"/>
		<polygon class="st6" points="109.9,80.6 109.9,80.6 104.9,85.7 104.9,85.7 104.9,85.7 99.8,90.8 99.8,90.8 94.7,95.9 94.7,95.9 
			94.7,95.9 90.5,100 90.5,100.2 94.8,96 94.8,95.9 94.8,95.9 99.9,90.9 99.9,90.9 99.9,90.9 99.9,90.9 104.9,85.8 104.9,85.8 
			105,85.8 110.1,80.7 110.1,80.7 110.1,80.7 112.4,78.3 112.4,78.1 110,80.6 		"/>
		<polygon class="st6" points="108.4,79.1 108.4,79.1 103.4,84.1 103.4,84.1 103.3,84.2 98.2,89.2 98.2,89.2 93.2,94.3 93.1,94.4 
			93.1,94.4 90.5,97 90.5,97.2 93.3,94.4 93.3,94.4 93.3,94.4 98.3,89.4 98.3,89.3 98.3,89.3 98.4,89.3 103.4,84.3 103.4,84.3 
			103.4,84.3 108.5,79.2 108.5,79.1 108.5,79.1 112.4,75.3 112.4,75.1 		"/>
		<polygon class="st6" points="111,81.6 105.9,86.7 105.9,86.7 105.9,86.7 100.8,91.8 100.8,91.8 100.8,91.8 95.7,96.9 95.7,96.9 
			90.6,102 90.6,102 90.6,102 90.6,102 90.5,102.1 90.5,102.3 90.7,102.1 90.7,102.1 95.8,97 95.8,97 95.8,97 95.8,97 100.9,91.9 
			100.9,91.9 100.9,91.9 106,86.8 106,86.8 106,86.8 111.1,81.7 111.1,81.7 111.1,81.7 111.1,81.7 112.4,80.4 112.4,80.2 		"/>
		<polygon class="st6" points="107.9,78.6 102.8,83.6 102.8,83.6 102.8,83.7 97.8,88.7 97.8,88.7 97.7,88.7 92.6,93.8 92.6,93.8 
			90.5,95.9 90.5,96.1 92.7,93.9 92.7,93.9 92.7,93.9 92.8,93.9 97.8,88.9 97.8,88.9 97.8,88.8 102.9,83.7 108,78.7 108,78.7 
			108,78.7 108,78.6 112.4,74.3 112.4,74.1 		"/>
		<polygon class="st6" points="109.4,80.1 104.4,85.2 104.4,85.2 104.3,85.2 99.3,90.2 99.3,90.2 99.3,90.3 94.2,95.4 94.2,95.4 
			90.5,99 90.5,99.2 94.3,95.5 94.3,95.5 94.3,95.5 94.3,95.4 99.3,90.4 99.3,90.4 99.4,90.4 104.5,85.3 109.5,80.2 109.5,80.2 
			109.5,80.2 109.6,80.2 112.4,77.3 112.4,77.1 		"/>
		<polygon class="st6" points="111,91.8 111,91.8 105.9,96.9 105.9,96.9 105.9,96.9 100.8,102 100.8,102 100.8,102 96.8,106 97,106 
			100.9,102.1 100.9,102.1 100.9,102.1 106,97 106,97 106,97 111.1,91.9 111.1,91.9 111.1,91.9 112.4,90.6 112.4,90.4 		"/>
		<polygon class="st6" points="107.9,88.7 107.9,88.7 102.8,93.8 102.8,93.8 97.7,98.9 97.7,98.9 97.7,98.9 92.7,104 92.7,104 
			92.6,104 90.7,106 90.9,106 92.7,104.1 92.7,104.1 92.7,104.1 97.8,99 97.9,99 97.9,99 102.9,93.9 102.9,93.9 102.9,93.9 
			102.9,93.9 108,88.9 108,88.9 108,88.8 112.4,84.4 112.4,84.2 		"/>
		<polygon class="st6" points="109.5,90.2 109.4,90.3 104.4,95.4 104.4,95.4 99.3,100.4 99.2,100.5 99.2,100.5 94.2,105.5 
			94.2,105.5 94.2,105.5 93.7,106 93.9,106 94.3,105.7 94.3,105.7 94.3,105.6 99.4,100.5 99.4,100.5 99.4,100.5 104.4,95.5 
			104.5,95.5 104.5,95.5 104.5,95.4 109.5,90.4 109.5,90.4 109.5,90.4 112.4,87.5 112.4,87.3 		"/>
		<polygon class="st6" points="107.4,88.2 107.4,88.2 102.3,93.3 102.3,93.3 102.3,93.3 97.2,98.4 97.2,98.4 92.2,103.5 92.1,103.5 
			92.1,103.5 92.1,103.5 90.5,105.1 90.5,105.3 92.2,103.6 92.2,103.6 97.3,98.5 97.3,98.5 97.3,98.5 97.3,98.5 102.4,93.4 
			102.4,93.4 102.4,93.4 107.5,88.3 112.4,83.4 112.4,83.2 		"/>
		<polygon class="st6" points="112,92.8 112,92.8 106.9,97.9 106.9,97.9 106.9,97.9 101.8,103 101.8,103 98.8,106 99,106 
			101.9,103.1 101.9,103.1 101.9,103.1 101.9,103.1 107,98 107,98 107,98 112.1,92.9 112.4,92.6 112.4,92.4 		"/>
		<polygon class="st6" points="92.7,73.6 92.7,73.6 97.8,68.5 97.9,68.5 97.9,68.5 97.9,68.4 97.8,68.4 97.8,68.4 97.7,68.4 
			92.7,73.4 92.7,73.4 92.6,73.5 90.5,75.6 90.5,75.8 		"/>
		<polygon class="st6" points="94.3,75.1 94.3,75.1 99.4,70 99.4,70 99.4,70 100.9,68.4 100.7,68.4 99.3,69.9 99.2,69.9 99.2,69.9 
			94.2,75 94.2,75 94.2,75 90.5,78.6 90.5,78.8 		"/>
		<polygon class="st6" points="91.2,72.1 91.2,72 94.8,68.4 94.6,68.4 91.1,71.9 91.1,71.9 91.1,71.9 90.5,72.5 90.5,72.7 		"/>
		<polygon class="st6" points="92.7,83.7 97.8,78.7 97.9,78.6 97.9,78.6 102.9,73.6 102.9,73.6 102.9,73.6 108,68.5 108,68.5 
			108,68.4 108,68.4 108,68.4 107.8,68.4 102.8,73.4 102.8,73.4 102.8,73.5 97.7,78.6 97.7,78.6 97.7,78.6 92.7,83.6 92.6,83.6 
			92.6,83.6 92.6,83.7 90.5,85.8 90.5,86 		"/>
		<polygon class="st6" points="94.3,85.3 99.4,80.2 99.4,80.2 99.4,80.2 104.4,75.1 104.4,75.1 104.5,75.1 109.5,70 109.5,70 
			111.1,68.4 110.9,68.4 109.5,69.9 109.4,69.9 109.4,69.9 109.4,69.9 104.4,75 104.4,75 104.4,75 99.3,80.1 99.2,80.1 99.2,80.1 
			94.2,85.2 94.2,85.2 94.2,85.2 94.2,85.2 90.5,88.8 90.5,89 		"/>
		<polygon class="st6" points="91.2,82.2 96.3,77.1 96.3,77.1 96.3,77.1 101.4,72.1 101.4,72.1 101.4,72 105,68.4 104.8,68.4 
			101.3,71.9 101.3,71.9 101.3,71.9 96.2,77 96.2,77 96.2,77 91.1,82.1 91.1,82.1 91.1,82.1 91.1,82.1 90.5,82.7 90.5,82.9 		"/>
		<polygon class="st6" points="109.9,90.8 109.9,90.8 104.9,95.8 104.9,95.9 104.9,95.9 104.8,95.9 99.8,100.9 99.8,100.9 99.8,101 
			94.7,106 94.9,106 99.9,101.1 99.9,101.1 99.9,101.1 105,96 105,96 110.1,90.9 110.1,90.9 110.1,90.9 112.4,88.5 112.4,88.3 
			110,90.8 		"/>
		<polygon class="st6" points="108.9,89.8 108.9,89.8 103.9,94.8 103.9,94.8 103.8,94.8 98.8,99.9 98.8,99.9 93.7,105 93.7,105 
			93.7,105 93.6,105 92.7,106 92.9,106 93.8,105.1 93.8,105.1 98.8,100.1 98.9,100 98.9,100 98.9,100 103.9,95 103.9,95 103.9,94.9 
			109,89.9 109.1,89.8 109.1,89.8 112.4,86.5 112.4,86.3 		"/>
		<polygon class="st6" points="110.4,91.3 110.4,91.3 105.4,96.4 105.4,96.4 105.4,96.4 100.3,101.5 100.3,101.5 95.8,106 96,106 
			100.4,101.6 100.4,101.6 100.4,101.6 100.4,101.5 105.5,96.5 105.5,96.5 105.5,96.5 110.6,91.4 110.6,91.4 110.6,91.4 112.4,89.5 
			112.4,89.3 110.5,91.3 		"/>
		<polygon class="st6" points="108.4,89.3 108.4,89.3 103.4,94.3 103.3,94.3 103.3,94.3 103.3,94.4 98.3,99.4 98.3,99.4 98.2,99.4 
			93.2,104.5 93.1,104.5 93.1,104.5 91.7,106 91.9,106 93.3,104.6 93.3,104.6 93.3,104.6 98.3,99.5 98.3,99.5 98.3,99.5 103.4,94.4 
			103.4,94.4 108.5,89.3 108.5,89.3 108.5,89.3 112.4,85.5 112.4,85.3 108.4,89.2 		"/>
		<polygon class="st6" points="106.4,97.4 106.4,97.4 106.4,97.4 106.4,97.4 101.3,102.5 101.3,102.5 101.3,102.5 97.8,106 98,106 
			101.4,102.6 101.4,102.6 101.4,102.6 106.5,97.5 106.5,97.5 111.6,92.4 111.6,92.4 111.6,92.4 112.4,91.6 112.4,91.4 111.5,92.3 
					"/>
		<polygon class="st6" points="111,102 111,102 111,102 107,106 107.2,106 111.1,102.1 111.1,102.1 112.4,100.7 112.4,100.5 		"/>
		<polygon class="st6" points="110,100.9 110,101 104.9,106 105.1,106 110,101.1 110,101.1 110.1,101.1 112.4,98.7 112.4,98.5 		"/>
		<polygon class="st6" points="107.9,98.9 107.9,98.9 107.9,98.9 102.8,104 102.8,104 102.8,104 100.9,106 101.1,106 102.9,104.1 
			102.9,104.1 102.9,104.1 108,99 108,99 112.4,94.6 112.4,94.4 		"/>
		<polygon class="st6" points="109.4,100.4 109.4,100.4 109.4,100.5 104.4,105.5 104.4,105.5 104.4,105.5 103.9,106 104.1,106 
			104.4,105.7 104.4,105.7 104.5,105.6 109.5,100.5 109.5,100.5 112.4,97.7 112.4,97.5 109.5,100.4 		"/>
		<polygon class="st6" points="108.4,99.4 108.4,99.4 103.3,104.5 103.3,104.5 101.9,106 102.1,106 103.4,104.6 103.4,104.6 
			103.4,104.6 103.5,104.6 108.5,99.5 108.5,99.5 108.5,99.5 112.4,95.6 112.4,95.4 		"/>
		<polygon class="st6" points="90.7,81.7 90.7,81.7 90.7,81.7 95.8,76.6 95.8,76.6 95.8,76.6 100.9,71.5 100.9,71.5 100.9,71.5 
			104,68.4 103.8,68.4 100.8,71.4 100.8,71.4 100.8,71.4 95.7,76.5 95.7,76.5 95.7,76.5 90.6,81.6 90.6,81.6 90.5,81.7 90.5,81.9 		
			"/>
		<polygon class="st6" points="94.8,85.8 94.8,85.8 99.9,80.7 104.9,75.6 105,75.6 105,75.6 105,75.6 110,70.5 110,70.5 110.1,70.5 
			112.1,68.4 111.9,68.4 110,70.4 110,70.4 110,70.4 104.9,75.5 104.9,75.5 99.8,80.6 99.8,80.6 99.8,80.6 94.7,85.7 94.7,85.7 
			94.7,85.7 90.5,89.8 90.5,90 		"/>
		<polygon class="st6" points="91.7,82.7 91.7,82.7 96.8,77.6 101.9,72.6 101.9,72.5 101.9,72.5 101.9,72.5 106,68.4 105.8,68.4 
			101.8,72.4 101.8,72.4 96.7,77.5 96.7,77.5 96.7,77.6 91.6,82.6 91.6,82.6 91.6,82.6 90.5,83.7 90.5,83.9 		"/>
		<polygon class="st6" points="93.2,84.3 93.3,84.3 98.3,79.2 103.4,74.1 103.4,74.1 103.4,74.1 103.5,74.1 108.5,69 108.5,69 
			108.5,69 109.1,68.4 108.9,68.4 108.4,68.9 108.4,68.9 108.4,68.9 103.3,74 103.3,74 98.3,79 98.2,79.1 98.2,79.1 93.2,84.1 
			93.2,84.1 93.2,84.2 90.5,86.8 90.5,87 		"/>
		<polygon class="st6" points="93.8,84.8 93.8,84.8 93.8,84.7 98.8,79.7 98.8,79.7 98.9,79.7 103.9,74.6 104,74.6 104,74.6 
			109,69.5 109.1,69.5 109.1,69.5 110.1,68.4 109.9,68.4 108.9,69.4 108.9,69.4 108.9,69.4 103.8,74.5 103.8,74.5 103.8,74.5 
			98.8,79.6 98.8,79.6 98.8,79.6 93.7,84.7 93.7,84.7 90.5,87.8 90.5,88 93.7,84.8 		"/>
		<polygon class="st6" points="92.2,83.2 92.2,83.2 92.3,83.2 97.3,78.2 97.3,78.2 97.3,78.1 102.4,73.1 102.4,73 102.4,73 
			107,68.4 106.8,68.4 102.3,73 102.3,73 102.3,73 97.2,78 97.2,78 97.2,78 92.1,83.1 92.1,83.1 90.5,84.7 90.5,84.9 92.2,83.3 		
			"/>
		<polygon class="st6" points="108.9,100 108.9,100 103.8,105 103.8,105 103.8,105 102.9,106 103.1,106 103.9,105.1 104,105.1 
			104,105.1 109,100 109.1,100 109.1,100 112.4,96.7 112.4,96.5 108.9,99.9 		"/>
		<polygon class="st6" points="110.4,101.5 110.4,101.5 105.9,106 106.1,106 110.6,101.6 110.6,101.5 110.6,101.5 112.4,99.7 
			112.4,99.5 110.5,101.5 		"/>
		<polygon class="st6" points="107.4,98.4 102.3,103.5 102.3,103.5 102.3,103.5 99.8,106 100,106 102.4,103.6 102.4,103.6 
			102.4,103.6 107.5,98.5 107.5,98.5 107.5,98.5 107.5,98.5 112.4,93.6 112.4,93.4 		"/>
		<polygon class="st6" points="111.2,106 112.4,104.8 112.4,104.6 111,106 		"/>
		<polygon class="st6" points="112,103 109,106 109.2,106 112.1,103.1 112.1,103.1 112.1,103.1 112.1,103.1 112.4,102.8 
			112.4,102.6 		"/>
		<polygon class="st6" points="112.3,106 112.4,105.8 112.4,105.6 112.1,106 		"/>
		<polygon class="st6" points="110.2,106 112.4,103.8 112.4,103.6 110,106 		"/>
		<polygon class="st6" points="111.5,102.5 108,106 108.2,106 111.6,102.6 111.6,102.6 111.6,102.6 111.6,102.6 112.4,101.8 
			112.4,101.6 		"/>
	</g>
	<rect x="13.1" y="40.5" class="st7" width="37.9" height="6.7"/>
	<text transform="matrix(1 0 0 1 22.6973 43.3721)" class="st8 st9 st10">LEBENSMITTEL</text>
	<rect x="13" y="49" class="st3" width="38" height="6.7"/>
	<g>
		<polygon class="st5" points="47.5,51.4 47.5,51.4 50,49 49.8,49 47.4,51.3 47.4,51.4 47.4,51.4 43.1,55.6 43.3,55.6 		"/>
		<polygon class="st5" points="47,50.9 47,50.9 49,49 48.8,49 46.9,50.8 46.9,50.8 46.9,50.8 42.1,55.6 42.3,55.6 		"/>
		<polygon class="st5" points="48.4,52.4 48.4,52.4 48.4,52.4 45.2,55.6 45.4,55.6 48.5,52.5 48.6,52.4 48.6,52.4 51,50 51,49.8 		
			"/>
		<polygon class="st5" points="49.5,53.4 47.2,55.6 47.4,55.6 49.5,53.5 49.6,53.5 51,52 51,51.8 		"/>
		<polygon class="st5" points="51,54.9 50.3,55.6 50.5,55.6 51,55.1 51,54.9 51,54.9 		"/>
		<polygon class="st5" points="50,53.9 50,53.9 50,53.9 48.2,55.6 48.4,55.6 50.1,54 50.1,54 51,53 51,52.8 		"/>
		<polygon class="st5" points="36.3,50.4 36.3,50.4 37.8,49 37.6,49 36.2,50.3 36.2,50.3 36.2,50.3 31.2,55.4 31.1,55.4 31.1,55.4 
			31.1,55.4 30.9,55.6 31.1,55.6 31.2,55.5 31.2,55.5 		"/>
		<polygon class="st5" points="36.8,50.9 38.8,49 38.6,49 36.8,50.8 36.7,50.8 36.7,50.8 36.7,50.8 31.9,55.6 32.1,55.6 		"/>
		<polygon class="st5" points="46.5,50.4 48,49 47.8,49 46.4,50.3 46.4,50.3 41.3,55.4 41.3,55.4 41.3,55.4 41.3,55.4 41.1,55.6 
			41.3,55.6 41.4,55.5 41.4,55.5 		"/>
		<polygon class="st5" points="46,49.9 46,49.9 46,49.9 46.9,49 46.7,49 45.9,49.8 45.9,49.8 45.9,49.8 40.8,54.9 40.8,54.9 
			40.8,54.9 40.1,55.6 40.3,55.6 40.9,55 40.9,55 40.9,55 		"/>
		<polygon class="st5" points="39.4,53.5 39.4,53.5 43.9,49 43.7,49 39.3,53.4 39.3,53.4 39.3,53.4 37,55.6 37.2,55.6 		"/>
		<polygon class="st5" points="38.4,52.5 41.9,49 41.7,49 38.3,52.3 38.3,52.4 38.3,52.4 38.2,52.4 35,55.6 35.2,55.6 		"/>
		<polygon class="st5" points="39.9,54 39.9,54 44.9,49 44.7,49 39.8,53.9 39.8,53.9 39.8,53.9 38,55.6 38.2,55.6 		"/>
		<polygon class="st5" points="37.9,51.9 37.9,51.9 40.8,49 40.6,49 37.8,51.8 37.7,51.9 37.7,51.9 34,55.6 34.2,55.6 		"/>
		<polygon class="st5" points="50.5,54.4 50.5,54.4 49.2,55.6 49.4,55.6 50.6,54.5 50.6,54.5 50.6,54.5 51,54 51,53.8 		"/>
		<polygon class="st5" points="48.9,52.9 48.9,52.9 46.2,55.6 46.4,55.6 49.1,53 49.1,52.9 49.1,52.9 51,51 51,50.8 49,52.9 		"/>
		<polygon class="st5" points="48,51.9 51,49 50.8,49 48,51.8 47.9,51.8 44.2,55.6 44.4,55.6 48,52 		"/>
		<polygon class="st5" points="27.2,51.4 27.2,51.4 29.6,49 29.4,49 27.1,51.3 27,51.4 27,51.4 22.8,55.6 23,55.6 		"/>
		<polygon class="st5" points="26.7,50.9 28.6,49 28.4,49 26.6,50.8 26.6,50.8 26.6,50.8 26.5,50.8 21.8,55.6 22,55.6 		"/>
		<polygon class="st5" points="25.7,49.9 25.7,49.9 26.6,49 26.4,49 25.5,49.8 25.5,49.8 25.5,49.8 20.5,54.9 20.4,54.9 19.7,55.6 
			19.9,55.6 20.5,55 20.5,55 25.6,49.9 		"/>
		<polygon class="st5" points="37.3,51.4 37.3,51.4 37.4,51.4 39.8,49 39.6,49 37.3,51.3 37.3,51.3 37.2,51.3 37.2,51.3 33,55.6 
			33.2,55.6 37.3,51.5 		"/>
		<polygon class="st5" points="35.8,49.9 35.8,49.9 35.8,49.9 35.8,49.9 36.8,49 36.6,49 35.7,49.8 35.7,49.8 35.7,49.8 35.7,49.8 
			30.6,54.9 30.6,54.9 29.9,55.6 30.1,55.6 30.7,55 30.7,55 30.7,55 30.7,55 		"/>
		<polygon class="st5" points="30.2,54.5 30.2,54.5 35.3,49.4 35.3,49.4 35.3,49.4 35.7,49 35.5,49 35.2,49.3 35.2,49.3 35.2,49.3 
			30.1,54.4 30.1,54.4 30.1,54.4 28.9,55.6 29.1,55.6 		"/>
		<polygon class="st5" points="28.2,52.5 31.7,49 31.5,49 28.1,52.3 28.1,52.4 28.1,52.4 28.1,52.4 24.8,55.6 25,55.6 		"/>
		<polygon class="st5" points="29.7,54 34.7,49 34.5,49 29.6,53.9 29.6,53.9 29.6,53.9 29.6,53.9 27.9,55.6 28.1,55.6 		"/>
		<polygon class="st5" points="28.7,52.9 28.7,52.9 32.7,49 32.5,49 28.6,52.9 28.6,52.9 28.6,52.9 25.8,55.6 26,55.6 28.7,53 		"/>
		<polygon class="st5" points="40.4,54.5 40.4,54.5 40.4,54.5 45.5,49.4 45.5,49.4 45.5,49.4 45.9,49 45.7,49 45.4,49.3 45.4,49.3 
			45.4,49.3 45.4,49.3 40.3,54.4 40.3,54.4 40.3,54.4 40.3,54.4 39.1,55.6 39.3,55.6 		"/>
		<polygon class="st5" points="38.9,53 38.9,53 38.9,52.9 42.9,49 42.7,49 38.8,52.8 38.8,52.8 38.8,52.9 38.8,52.9 36,55.6 
			36.2,55.6 		"/>
		<polygon class="st5" points="15,49.4 15,49.4 15.4,49 15.2,49 14.8,49.3 14.8,49.3 14.8,49.3 13.1,51 13.1,51.3 14.9,49.4 		"/>
		<polygon class="st5" points="16.5,50.9 16.5,50.9 18.4,49 18.2,49 16.4,50.8 16.4,50.8 16.4,50.8 13.1,54.1 13.1,54.3 		"/>
		<polygon class="st5" points="26.1,50.4 26.1,50.4 26.2,50.4 26.2,50.4 27.6,49 27.4,49 26.1,50.3 26,50.3 21,55.4 20.9,55.4 
			20.9,55.4 20.7,55.6 20.9,55.6 21.1,55.5 21.1,55.5 21.1,55.5 		"/>
		<polygon class="st5" points="18,52.4 18,52.4 21.5,49 21.3,49 17.9,52.4 17.9,52.4 17.9,52.4 14.6,55.6 14.8,55.6 18,52.5 		"/>
		<polygon class="st5" points="19.5,54 19.5,54 24.5,49 24.3,49 19.4,53.9 19.4,53.9 19.4,53.9 17.7,55.6 17.9,55.6 		"/>
		<polygon class="st5" points="29.2,53.5 29.2,53.5 29.2,53.5 33.7,49 33.5,49 29.1,53.4 29.1,53.4 26.8,55.6 27,55.6 		"/>
		<polygon class="st5" points="27.7,51.9 27.7,51.9 27.7,51.9 30.7,49 30.5,49 27.6,51.8 27.6,51.8 23.8,55.6 24,55.6 27.7,52 		"/>
		<polygon class="st5" points="17,51.4 17,51.4 17,51.4 19.5,49 19.3,49 16.9,51.3 16.9,51.3 16.9,51.3 16.9,51.3 13.1,55.1 
			13.1,55.3 17,51.5 		"/>
		<polygon class="st5" points="16,50.4 17.4,49 17.2,49 15.9,50.3 15.9,50.3 13.1,53.1 13.1,53.3 15.9,50.4 		"/>
		<polygon class="st5" points="13.1,49 13.1,49 13.1,49.2 13.3,49 		"/>
		<polygon class="st5" points="15.5,49.9 15.5,49.9 15.5,49.9 16.4,49 16.2,49 15.4,49.8 15.4,49.8 15.4,49.8 15.4,49.8 13.1,52.1 
			13.1,52.3 15.4,49.9 		"/>
		<polygon class="st5" points="14.2,49 13.1,50 13.1,50.2 14.4,49 		"/>
		<polygon class="st5" points="20,54.5 20,54.5 20.1,54.5 25.1,49.4 25.1,49.4 25.1,49.4 25.6,49 25.4,49 25,49.3 25,49.3 25,49.3 
			25,49.3 20,54.4 20,54.4 19.9,54.4 19.9,54.4 18.7,55.6 18.9,55.6 		"/>
		<polygon class="st5" points="19,53.5 23.5,49 23.3,49 18.9,53.4 18.9,53.4 16.7,55.6 16.9,55.6 		"/>
		<polygon class="st5" points="18.5,53 18.5,53 18.5,52.9 22.5,49 22.3,49 18.4,52.8 18.4,52.8 18.4,52.9 18.4,52.9 15.6,55.6 
			15.8,55.6 		"/>
		<polygon class="st5" points="17.5,51.9 20.5,49 20.3,49 17.4,51.8 17.4,51.8 13.6,55.6 13.8,55.6 17.5,52 		"/>
	</g>
	<rect x="13.1" y="51" class="st7" width="37.9" height="6.7"/>
	<text transform="matrix(1 0 0 1 20.2847 53.8354)" class="st8 st9 st10">NAHVERSORGUNG</text>
	<rect x="13.1" y="59.3" class="st3" width="38" height="6.7"/>
	<g>
		<polygon class="st6" points="44.4,61.1 46.2,59.3 46,59.3 44.3,61 44.3,61 44.3,61 44.3,61.1 39.4,66 39.6,66 		"/>
		<polygon class="st6" points="43.4,60.1 43.4,60.1 44.2,59.3 44,59.3 43.3,60 43.2,60 43.2,60 38.2,65.1 38.2,65.1 37.3,66 
			37.5,66 38.3,65.2 38.3,65.2 		"/>
		<polygon class="st6" points="50.8,66 51.1,65.7 51.1,65.5 50.6,66 		"/>
		<polygon class="st6" points="46.8,63.6 46.8,63.6 46.8,63.6 44.5,66 44.7,66 46.9,63.7 46.9,63.7 46.9,63.7 51.1,59.6 51.1,59.4 
					"/>
		<polygon class="st6" points="49.8,66 51.1,64.6 51.1,64.4 49.6,66 		"/>
		<polygon class="st6" points="48.9,65.6 48.9,65.6 48.8,65.6 48.5,66 48.7,66 49,65.7 49,65.7 51.1,63.6 51.1,63.4 		"/>
		<polygon class="st6" points="45.9,62.7 49.3,59.3 49.1,59.3 45.8,62.6 45.8,62.6 45.8,62.6 45.8,62.6 42.4,66 42.6,66 		"/>
		<polygon class="st6" points="47.3,64.1 47.3,64.1 47.3,64.1 45.5,66 45.7,66 47.4,64.2 47.4,64.2 51.1,60.6 51.1,60.4 47.4,64.1 
					"/>
		<polygon class="st6" points="45.4,62.1 45.4,62.1 48.3,59.3 48.1,59.3 45.3,62.1 45.3,62.1 45.3,62.1 41.4,66 41.6,66 45.4,62.2 
					"/>
		<polygon class="st6" points="34.7,61.6 34.7,61.6 37.1,59.3 36.9,59.3 34.6,61.6 34.6,61.6 34.6,61.6 30.2,66 30.4,66 34.7,61.7 
					"/>
		<polygon class="st6" points="34.2,61.1 34.2,61.1 36.1,59.3 35.9,59.3 34.1,61 34.1,61.1 34.1,61.1 29.2,66 29.4,66 		"/>
		<polygon class="st6" points="44.9,61.7 44.9,61.7 44.9,61.6 47.3,59.3 47.1,59.3 44.8,61.6 44.8,61.6 40.4,66 40.6,66 		"/>
		<polygon class="st6" points="43.9,60.6 43.9,60.6 43.9,60.6 45.2,59.3 45,59.3 43.8,60.5 43.8,60.6 43.8,60.6 38.7,65.6 
			38.7,65.6 38.7,65.6 38.4,66 38.6,66 38.8,65.7 38.8,65.7 38.8,65.7 		"/>
		<polygon class="st6" points="37.8,64.7 37.8,64.7 42.9,59.6 42.9,59.6 43.2,59.3 43,59.3 42.8,59.5 42.8,59.5 42.8,59.5 
			42.7,59.5 37.7,64.6 37.6,64.6 37.6,64.6 36.3,66 36.5,66 		"/>
		<polygon class="st6" points="35.7,62.7 35.7,62.7 39.1,59.3 38.9,59.3 35.6,62.6 35.6,62.6 35.6,62.6 32.2,66 32.4,66 		"/>
		<polygon class="st6" points="37.3,64.2 37.3,64.2 42.2,59.3 42,59.3 37.2,64.1 37.1,64.1 37.1,64.1 35.3,66 35.5,66 		"/>
		<polygon class="st6" points="48.3,65.1 48.3,65.1 47.5,66 47.7,66 48.5,65.2 48.5,65.2 48.5,65.2 51.1,62.6 51.1,62.4 48.4,65.1 
					"/>
		<polygon class="st6" points="47.8,64.6 46.5,66 46.7,66 47.9,64.7 47.9,64.7 47.9,64.7 48,64.7 51.1,61.6 51.1,61.4 		"/>
		<polygon class="st6" points="46.4,63.2 46.4,63.2 46.4,63.2 50.3,59.3 50.1,59.3 46.3,63.1 46.3,63.1 43.4,66 43.6,66 		"/>
		<polygon class="st6" points="23.5,60.6 23.5,60.6 24.9,59.3 24.7,59.3 23.4,60.5 23.4,60.6 23.4,60.6 18.3,65.6 18.3,65.6 
			18.3,65.6 18.3,65.6 18,66 18.2,66 18.4,65.7 18.4,65.7 		"/>
		<polygon class="st6" points="24,61.1 25.9,59.3 25.7,59.3 23.9,61 23.9,61 23.9,61 23.9,61.1 19,66 19.2,66 		"/>
		<polygon class="st6" points="33.7,60.6 35,59.3 34.8,59.3 33.6,60.5 33.6,60.5 28.5,65.6 28.5,65.6 28.5,65.6 28.5,65.6 28.2,66 
			28.4,66 28.6,65.7 28.6,65.7 33.7,60.7 		"/>
		<polygon class="st6" points="33.2,60.1 33.2,60.1 33.2,60.1 33.2,60.1 34,59.3 33.8,59.3 33.1,60 33.1,60 28,65.1 28,65.1 
			28,65.1 27.2,66 27.4,66 28.1,65.2 28.1,65.2 28.1,65.2 		"/>
		<polygon class="st6" points="26.6,63.7 26.6,63.7 31,59.3 30.8,59.3 26.5,63.6 26.4,63.6 26.4,63.6 24.1,66 24.3,66 		"/>
		<polygon class="st6" points="25.5,62.7 28.9,59.3 28.7,59.3 25.5,62.6 25.4,62.6 25.4,62.6 25.4,62.6 22.1,66 22.3,66 		"/>
		<polygon class="st6" points="27.1,64.2 32,59.3 31.8,59.3 27,64.1 27,64.1 27,64.1 27,64.1 25.1,66 25.3,66 		"/>
		<polygon class="st6" points="25.1,62.1 25.1,62.1 27.9,59.3 27.7,59.3 24.9,62.1 24.9,62.1 24.9,62.1 21,66 21.2,66 25,62.2 		"/>
		<polygon class="st6" points="36.7,63.7 41.2,59.3 40.9,59.3 36.7,63.6 36.6,63.6 34.3,66 34.5,66 		"/>
		<polygon class="st6" points="36.2,63.2 36.2,63.2 36.3,63.2 40.1,59.3 39.9,59.3 36.1,63.1 36.1,63.1 33.3,66 33.5,66 		"/>
		<polygon class="st6" points="35.2,62.2 38.1,59.3 37.9,59.3 35.1,62 35.1,62.1 31.2,66 31.4,66 		"/>
		<polygon class="st6" points="13.5,59.3 13.1,59.6 13.1,59.8 13.7,59.3 		"/>
		<polygon class="st6" points="14.4,61.6 14.4,61.6 16.7,59.3 16.5,59.3 14.2,61.6 14.2,61.6 14.2,61.6 13.1,62.7 13.1,62.9 
			14.3,61.7 		"/>
		<polygon class="st6" points="13.8,61.1 15.7,59.3 15.5,59.3 13.8,61 13.7,61 13.7,61 13.7,61.1 13.1,61.7 13.1,61.9 		"/>
		<polygon class="st6" points="24.5,61.7 24.5,61.7 24.5,61.6 26.9,59.3 26.7,59.3 24.4,61.6 24.4,61.6 20,66 20.2,66 		"/>
		<polygon class="st6" points="23,60.1 23,60.1 23,60.1 23,60.1 23.8,59.3 23.6,59.3 22.9,60 22.9,60 17.8,65.1 17.8,65.1 17,66 
			17.2,66 17.9,65.2 17.9,65.2 17.9,65.2 17.9,65.2 		"/>
		<polygon class="st6" points="17.4,64.7 17.4,64.7 22.5,59.6 22.5,59.6 22.8,59.3 22.6,59.3 22.4,59.5 22.4,59.5 22.4,59.5 
			22.4,59.5 17.3,64.6 17.3,64.6 17.3,64.6 16,66 16.2,66 		"/>
		<polygon class="st6" points="15.4,62.7 18.7,59.3 18.5,59.3 15.3,62.6 15.3,62.6 15.3,62.6 15.2,62.6 13.1,64.7 13.1,64.9 		"/>
		<polygon class="st6" points="16.9,64.2 21.8,59.3 21.6,59.3 16.8,64.1 16.8,64.1 16.8,64.1 16.8,64.1 14.9,66 15.1,66 		"/>
		<polygon class="st6" points="15.9,63.2 15.9,63.2 19.8,59.3 19.6,59.3 15.8,63.1 15.8,63.1 15.8,63.1 13.1,65.7 13.1,65.9 		"/>
		<polygon class="st6" points="27.6,64.7 27.6,64.7 27.6,64.7 32.7,59.6 32.7,59.6 32.7,59.6 33,59.3 32.8,59.3 32.6,59.5 
			32.6,59.5 32.6,59.5 27.5,64.6 27.5,64.6 26.1,66 26.3,66 		"/>
		<polygon class="st6" points="26.1,63.2 26.1,63.2 26.1,63.2 29.9,59.3 29.7,59.3 26,63.1 26,63.1 23.1,66 23.3,66 26,63.2 		"/>
		<polygon class="st6" points="13.3,60.6 13.3,60.6 13.3,60.6 14.7,59.3 14.5,59.3 13.2,60.5 13.2,60.5 13.1,60.6 13.1,60.8 
			13.3,60.7 		"/>
		<polygon class="st6" points="16.4,63.7 16.4,63.7 16.4,63.7 20.8,59.3 20.6,59.3 16.3,63.6 16.3,63.6 13.9,66 14.1,66 		"/>
		<polygon class="st6" points="14.9,62.2 14.9,62.1 14.9,62.1 17.7,59.3 17.5,59.3 14.8,62 14.8,62.1 13.1,63.7 13.1,63.9 
			14.8,62.2 		"/>
	</g>
	<rect x="13.1" y="61.3" class="st7" width="37.9" height="6.7"/>
	<text transform="matrix(1 0 0 1 26.314 64.1582)" class="st8 st9 st10">SERVICE</text>
	<rect x="64" y="11.9" class="st7" width="152.8" height="11.7"/>
	<text transform="matrix(1 0 0 1 64 16.2373)" class="st11"><tspan x="0" y="0" class="st9 st12">UG: NAHVERSORGUNG UND SERVICE</tspan></text>
	<rect x="64" y="18.9" class="st7" width="152.8" height="11.7"/>
	<text transform="matrix(1 0 0 1 64 21.0586)" class="st11"><tspan x="0" y="0" class="st9 st14">SCHEMATISCHE DARSTELLUNG BRANCHEN BELEGUNSPLNE PRO ETAGE</tspan></text>
</g>
</svg>
