<?xml version="1.0" encoding="iso-8859-1"?>
<!-- Generator: Adobe Illustrator 21.1.0, SVG Export Plug-In . SVG Version: 6.00 Build 0)  -->
<svg version="1.1" id="Ebene_1" xmlns="http://www.w3.org/2000/svg" xmlns:xlink="http://www.w3.org/1999/xlink" x="0px" y="0px"
	 viewBox="0 0 478.6 174.7" style="enable-background:new 0 0 478.6 174.7;" xml:space="preserve">
<style type="text/css">
	.st0{opacity:0.25;fill:#88A80D;stroke:#FFFFFF;stroke-width:0.25;}
	.st1{fill:#88A80D;stroke:#FFFFFF;stroke-width:0.25;stroke-miterlimit:10;}
	.st2{fill:none;}
	.st3{font-family:'Helvetica';}
	.st4{font-size:18px;}
	.st5{fill:#FF0000;}
</style>
<path class="st0" d="M7,0.1v39.4H0.1V75H7v52.6h86.5v9.2h12.4v31.8h7.2v5.8h41.8v-5.8h7.3v-25.5H188c4.1,1.8,8.5,2.7,13.2,2.7
	c4.7,0,9.2-1,13.2-2.7h12.2c4.1,1.8,8.5,2.7,13.2,2.7c4.7,0,9.2-1,13.2-2.7h12.1c4.1,1.8,8.5,2.7,13.2,2.7c4.7,0,9.2-1,13.2-2.7
	h24.2v25.8h6.8v5.6h42.5v-5.6h7v-5.6h5.7v-22h33.1v-13.7h60V75h7.5V39.6h-7.5V0.1h-46v23.7H404V0.1h-14.2v23.7H369V0.1h-14.2v23.7
	h-20.9V0.1h-14.2v23.7h-20.9V0.1h-14.2v23.7h-20.9V0.1h-14.2v23.7h-20.9V0.1h-14.2v23.7h-20.9V0.1h-14.2v23.7h-20.9V0.1h-14.2v23.7
	h-20.9V0.1h-14.2v23.7H88.4V0.1H7z"/>
<polygon class="st1" points="56.7,127.6 31.5,127.6 31.5,83.1 49.3,83.1 49.3,106.6 56.7,106.6 "/>
<polygon class="st1" points="49.3,83.1 71.4,83.1 71.4,96.2 73.8,96.2 73.8,127.6 56.7,127.6 56.7,106.6 49.3,106.6 "/>
<polygon class="st1" points="93.3,96.2 93.3,83.1 71.4,83.1 71.4,96.2 73.8,96.2 73.8,114.3 91.3,114.3 91.3,96.2 "/>
<polygon class="st1" points="105.9,114.3 105.9,83.1 93.3,83.1 93.3,96.2 91.3,96.2 91.3,114.3 "/>
<rect x="105.9" y="83.1" class="st1" width="19.3" height="13.1"/>
<rect x="142.8" y="83.1" class="st1" width="19.3" height="13.1"/>
<rect x="168.7" y="83.1" class="st1" width="9.3" height="14.3"/>
<path class="st1" d="M222.7,143.2V83.1H178v34h-15.9v26.1H188c4.1,1.8,8.5,2.7,13.2,2.7c4.7,0,9.2-1,13.2-2.7H222.7z"/>
<polygon class="st1" points="222.7,83.1 255.8,83.1 255.8,143.2 253.1,143.2 249.6,144.5 245.1,145.5 240.8,145.9 237.1,145.9 
	233.1,145.2 229.7,144.3 226.7,143.2 222.7,143.2 "/>
<polygon class="st1" points="255.8,83.1 273.3,83.1 273.3,145.5 269.9,144.8 265.2,143.2 255.8,143.2 "/>
<polygon class="st1" points="273.3,83.1 273.3,145.5 277.7,145.9 282.1,145.7 288.2,144.5 291.7,143.2 315.9,143.2 315.9,116.4 
	300.8,116.4 300.8,83.1 "/>
<rect x="300.8" y="83.1" class="st1" width="8.6" height="13.1"/>
<rect x="315.9" y="83.1" class="st1" width="19.3" height="13.1"/>
<rect x="352.8" y="83.1" class="st1" width="19.3" height="13.1"/>
<rect x="372.1" y="83.1" class="st1" width="17.5" height="30.5"/>
<polygon class="st1" points="406.3,96.6 406.3,83.1 397.6,83.1 389.6,83.1 389.6,96.6 389.6,106.6 397.6,106.6 397.6,96.6 "/>
<polygon class="st1" points="406.3,83.1 406.3,96.6 397.6,96.6 397.6,106.6 389.6,106.6 389.6,113.6 372.1,113.6 372.1,127.6 
	470.9,127.6 470.9,87.3 446.6,87.3 446.6,83.1 "/>
<rect x="13.4" y="6.5" class="st2" width="33" height="16"/>
<text transform="matrix(1 0 0 1 13.408 19.3267)" class="st3 st4">OG</text>
<circle class="st5" cx="278.9" cy="128" r="11.5"/>
</svg>
