<?xml version="1.0" encoding="iso-8859-1"?>
<!-- Generator: Adobe Illustrator 21.1.0, SVG Export Plug-In . SVG Version: 6.00 Build 0)  -->
<svg version="1.1" id="Ebene_1" xmlns="http://www.w3.org/2000/svg" xmlns:xlink="http://www.w3.org/1999/xlink" x="0px" y="0px"
	 viewBox="0 0 478.9 174.8" style="enable-background:new 0 0 478.9 174.8;" xml:space="preserve">
<style type="text/css">
	.st0{fill:none;}
	.st1{font-family:'Helvetica';}
	.st2{font-size:18px;}
	.st3{opacity:0.25;}
	.st4{fill:#88A80D;stroke:#FFFFFF;stroke-width:0.25;}
	.st5{fill:#88A80D;stroke:#FFFFFF;stroke-width:0.25;stroke-miterlimit:10;}
	.st6{fill:#FF0000;}
</style>
<rect x="16.8" y="4.9" class="st0" width="33" height="16"/>
<text transform="matrix(1 0 0 1 16.7929 17.7144)" class="st1 st2">EG</text>
<g>
	<g class="st3">
		<path class="st4" d="M154.9,174.7v-5.9h7.3v-25.5h26c4.1,1.8,8.5,2.7,13.3,2.7c4.7,0,9.2-1,13.2-2.7h12.2
			c4.1,1.8,8.5,2.7,13.2,2.7c4.7,0,9.2-1,13.2-2.7h12.1c4.1,1.8,8.5,2.7,13.2,2.7c4.7,0,9.2-1,13.2-2.7h24.2v25.8h6.8v5.6h42.5v-5.6
			h7v-5.6h5.7v-22h33.1v-13.7h60.1V75.1h7.5V39.6h-7.5V0.1H7v39.5H0.1v35.5H7v52.7h86.5v9.2h12.4v31.9h7.2v5.9H154.9z"/>
	</g>
	<polygon class="st5" points="0.1,49.4 47.6,49.4 47.6,20.4 7,20.4 7,39.6 0.1,39.6 	"/>
	<rect x="47.6" y="20.4" class="st5" width="8.7" height="28.9"/>
	<rect x="60.3" y="20.4" class="st5" width="10.7" height="28.9"/>
	<rect x="71" y="20.4" class="st5" width="25.1" height="28.9"/>
	<rect x="96.1" y="20.4" class="st5" width="12.7" height="28.9"/>
	<polygon class="st5" points="108.8,20.4 108.8,49.3 111.2,49.3 126.4,48.1 126.4,20.4 	"/>
	<polygon class="st5" points="126.4,48.1 138,47.2 138,20.4 126.4,20.4 	"/>
	<polygon class="st5" points="138,47.2 138,20.4 150.7,20.4 150.7,46.4 	"/>
	<polygon class="st5" points="150.7,46.4 150.7,20.4 161.8,20.4 161.8,45.8 	"/>
	<polygon class="st5" points="165.3,45.6 165.3,20.4 179.1,20.4 179.1,45 	"/>
	<polygon class="st5" points="179.1,45 179.1,20.4 188.1,20.4 188.1,44.6 	"/>
	<polygon class="st5" points="188.1,44.6 188.1,20.4 195.9,20.4 195.9,44.4 	"/>
	<polygon class="st5" points="195.9,44.4 195.9,20.4 206,20.4 206,44.1 	"/>
	<polygon class="st5" points="206,44.1 206,20.4 214.2,20.4 214.2,43.9 	"/>
	<polygon class="st5" points="214.2,43.9 214.2,20.4 231.8,20.4 231.8,43.7 	"/>
	<polygon class="st5" points="231.7,43.7 231.7,20.4 244.4,20.4 244.4,27.6 248.9,27.6 248.9,43.7 	"/>
	<polygon class="st5" points="248.9,43.7 248.9,27.6 244.4,27.6 244.4,20.4 262.2,20.4 262.2,43.9 	"/>
	<polygon class="st5" points="266,44 266,20.4 277.9,20.4 277.9,27.1 284.3,27.1 284.3,31.7 277.9,31.7 277.9,44.2 	"/>
	<polygon class="st5" points="277.9,44.2 277.9,31.7 284.3,31.7 284.3,44.4 	"/>
	<polygon class="st5" points="284.3,44.4 284.3,27.1 277.9,27.1 277.9,20.4 301.5,20.4 301.5,45.1 	"/>
	<polygon class="st5" points="301.5,45.1 301.5,20.4 310.5,20.4 310.5,45.5 	"/>
	<polygon class="st5" points="310.5,45.5 310.5,20.4 318.7,20.4 318.7,45.9 	"/>
	<polygon class="st5" points="318.7,45.9 318.7,20.4 327.6,20.4 327.6,32.5 336.6,32.5 336.6,46.9 	"/>
	<polygon class="st5" points="336.6,46.9 336.6,32.5 327.6,32.5 327.6,20.4 348,20.4 348,47.7 	"/>
	<polygon class="st5" points="348,47.7 348,20.4 361.7,20.4 361.7,48.8 	"/>
	<polygon class="st5" points="361.7,48.8 361.7,20.4 382.1,20.4 382.1,49.3 367.4,49.3 	"/>
	<rect x="382.1" y="20.4" class="st5" width="14.8" height="28.9"/>
	<rect x="402.9" y="39" class="st5" width="10.3" height="10.3"/>
	<polygon class="st5" points="448.3,49.3 413.1,49.3 413.1,39 402.9,39 402.9,6.5 434.2,6.5 434.2,34.1 448.3,34.1 	"/>
	<polygon class="st5" points="448.3,49.3 448.3,36.1 459.9,36.1 459.9,27.9 471.2,27.9 471.2,39.6 478.8,39.6 478.8,49.3 	"/>
	<polygon class="st5" points="478.8,75.1 478.8,66 456.1,66 456.1,72.5 440.9,72.5 440.9,66 388.9,66 388.9,84.6 381.2,84.6 
		381.2,96.5 383.4,96.5 383.4,127.7 411.2,127.7 471.2,127.7 471.2,75.1 	"/>
	<rect x="440.9" y="66" class="st5" width="15.2" height="6.5"/>
	<rect x="380.1" y="66" class="st5" width="8.7" height="18.5"/>
	<polygon class="st5" points="380.1,84.6 380.1,66 367.7,66 367.7,96.5 381.2,96.5 381.2,84.6 	"/>
	<rect x="372.4" y="96.5" class="st5" width="11" height="8.7"/>
	<rect x="372.4" y="105.2" class="st5" width="11" height="8.5"/>
	<polygon class="st5" points="372.4,143.3 359.5,143.3 359.5,174.7 365.4,174.7 365.4,169.1 372.4,169.1 	"/>
	<polygon class="st5" points="344.4,67.7 360.2,66.7 360.2,85 344.4,85 	"/>
	<polygon class="st5" points="344.4,85 328.2,85 328.2,68.8 344.4,67.7 	"/>
	<polygon class="st5" points="316.1,143.3 316.1,169.1 322.9,169.1 322.9,174.7 328.5,174.7 328.5,143.3 	"/>
	<g>
		<path class="st5" d="M291.8,115.4h-37.6v-13.5h-8.8v13.5v1.8v28.5c2.8-0.4,5.4-1.2,7.9-2.3h12.1c4.1,1.8,8.5,2.7,13.2,2.7
			c4.7,0,9.1-1,13.2-2.7V115.4z"/>
		<path class="st5" d="M291.8,115.4h-37.6v-13.5h-8.8v13.5v1.8v28.5c2.8-0.4,5.4-1.2,7.9-2.3h12.1c4.1,1.8,8.5,2.7,13.2,2.7
			c4.7,0,9.1-1,13.2-2.7V115.4z"/>
	</g>
	<rect x="301.5" y="112.3" class="st5" width="10.3" height="6.1"/>
	<rect x="301.5" y="104.7" class="st5" width="14.6" height="7.6"/>
	<rect x="301.5" y="96.5" class="st5" width="14.6" height="8.2"/>
	<polygon class="st5" points="321.2,85 307.7,85 307.7,96.5 316.1,96.5 321.2,96.5 	"/>
	<polygon class="st5" points="321.2,85 310.1,85 310.1,69.7 321.2,69.2 	"/>
	<polygon class="st5" points="310.1,85 301.4,85 301.4,70 310.1,69.7 	"/>
	<polygon class="st5" points="307.7,85 301.4,85 301.4,70 290.1,70.4 266.5,71.1 266.5,84.7 255.5,84.7 255.5,98.2 254.2,98.2 
		254.2,115.3 301.5,115.3 301.4,96.5 307.7,96.5 	"/>
	<polygon class="st5" points="266.5,84.7 255.5,84.7 255.5,71.2 266.5,71.1 	"/>
	<polygon class="st5" points="255.5,84.7 244.4,84.7 244.4,71.3 255.5,71.2 	"/>
	<polygon class="st5" points="235.4,84.7 222.6,84.7 222.6,71.2 235.4,71.3 	"/>
	<polygon class="st5" points="222.6,84.9 213.8,84.9 213.8,71.1 222.6,71.2 	"/>
	<polygon class="st5" points="222.6,112.9 196.2,112.9 196.2,70.7 213.8,71.1 213.8,84.9 222.6,84.9 	"/>
	<polygon class="st5" points="196.2,112.9 178.3,112.9 178.3,96.5 170.3,96.5 170.3,82.9 178.3,82.9 178.3,70.1 196.2,70.7 	"/>
	<polygon class="st5" points="178.3,82.9 169.2,82.9 169.2,69.7 178.3,70.1 	"/>
	<polygon class="st5" points="169.2,82.9 169.2,69.7 157.7,69.1 157.7,82.9 	"/>
	<polygon class="st5" points="170.3,82.9 157.7,82.9 157.7,96.5 162.2,96.5 170.3,96.5 	"/>
	<rect x="162.2" y="96.5" class="st5" width="16.1" height="9.2"/>
	<rect x="168" y="105.7" class="st5" width="10.3" height="7.2"/>
	<polygon class="st5" points="222.6,101.9 232.8,101.9 232.8,145.2 226.7,143.3 214.7,143.3 210.4,144.8 206.4,145.7 204,145.9 
		201.3,146 198.4,145.9 195.4,145.5 191.4,144.5 188.2,143.3 188.2,112.9 222.6,112.9 	"/>
	<polygon class="st5" points="154.9,174.7 154.9,168.8 162.2,168.8 162.2,143.3 149.5,143.3 149.5,174.7 	"/>
	<g>
		<line class="st5" x1="149.5" y1="85" x2="149.5" y2="68.7"/>
		<path class="st5" d="M133.9,85h15.6V68.7c-5.7-0.3-11-0.6-15.6-1V85z"/>
	</g>
	<g>
		<line class="st5" x1="118.5" y1="66.6" x2="118.5" y2="85"/>
		<path class="st5" d="M133.9,67.7c-6.4-0.4-11.6-0.8-15.4-1.1V85h15.4V67.7z"/>
	</g>
	<polygon class="st5" points="105.9,143.3 105.9,168.8 113.1,168.8 113.1,174.7 118.5,174.7 118.5,143.3 	"/>
	<rect x="93.2" y="96.5" class="st5" width="12.8" height="15.9"/>
	<polygon class="st5" points="97.1,66 97.1,96.5 105.9,96.5 111.2,96.5 111.2,87.1 111.2,85 111.2,66 	"/>
	<polygon class="st5" points="97.1,96.5 97.1,66 81.8,66 81.8,94.2 77.7,94.2 77.7,127.7 97.1,127.7 97.1,112.4 93.2,112.4 
		93.2,96.5 	"/>
	<polygon class="st5" points="81.8,94.2 81.8,66 64,66 64,91.5 56.3,91.5 56.3,127.7 77.7,127.7 77.7,94.2 	"/>
	<polygon class="st5" points="38.8,66 38.8,81.4 29.1,81.4 29.1,121.6 32,121.6 32,127.7 56.3,127.7 56.3,91.5 64,91.5 64,66 	"/>
	<polygon class="st5" points="38.8,66 38.8,81.4 29.1,81.4 29.1,121.6 32,121.6 32,127.7 7,127.7 7,75.1 0.1,75.1 0.1,66 	"/>
</g>
<circle class="st6" cx="209.3" cy="127.4" r="11.5"/>
</svg>
