<?xml version="1.0" encoding="utf-8"?>
<!-- Generator: Adobe Illustrator 22.0.0, SVG Export Plug-In . SVG Version: 6.00 Build 0)  -->
<svg version="1.1" id="Ebene_1" xmlns="http://www.w3.org/2000/svg" xmlns:xlink="http://www.w3.org/1999/xlink" x="0px" y="0px"
	 viewBox="0 0 477.8 215.8" style="enable-background:new 0 0 477.8 215.8;" xml:space="preserve">
<style type="text/css">
	.st0{fill:none;}
	.st1{font-family:'ArialMT';}
	.st2{font-size:18px;}
	.st3{opacity:0.3;fill:#FBED22;stroke:#FFFFFF;stroke-width:0.25;enable-background:new    ;}
	.st4{fill:#EDD924;stroke:#FFFFFF;stroke-width:0.25;enable-background:new    ;}
	.st5{fill:#FBED22;stroke:#FFFFFF;stroke-width:0.25;}
	.st6{fill:#88A80D;stroke:#FFFFFF;stroke-width:0.25;}
	.st7{fill:#FBED22;}
	.st8{fill:#FF0000;}
</style>
<rect x="13.7" y="5.6" class="st0" width="33" height="16"/>
<text transform="matrix(1 0 0 1 13.7337 18.4053)" class="st1 st2">UG</text>
<g>
	<path class="st3" d="M7,0.1v39.4H0.1v35.4H7v52.5h86.3v9.2h12.4v31.8h6.9v5.5h5.7v1.1h-5.1v17H88v23.6h39.6v-10.3H155V175h-6.4
		v-1.1h6.4v-5.5h6.9V143h25.9c4.1,1.8,8.5,2.7,13.2,2.7s9.2-1,13.2-2.7h12.1c4.1,1.8,8.5,2.7,13.2,2.7s9.2-1,13.2-2.7h12
		c4,1.8,8.5,2.7,13.2,2.7s9.2-1,13.2-2.7h24.2v25.7h6.8v5.6h42.4v-5.6h7v-5.6h5.7v-22h33v-13.7h59.9V74.9h7.5V39.5h-7.5V0.1H7z"/>
	<path class="st4" d="M402.6,0.1h-6v14.2h-55.4v26.5c-4.4,0.9-8.2,3.5-10.6,7.1H147.9c-3-4.5-8.1-7.5-13.9-7.5
		c-9.2,0-16.7,7.5-16.7,16.7c0,6.7,3.9,12.4,9.6,15.1V115c-1.9,1.8-3,4.4-3,7.3c0,2.8,1.2,5.4,3,7.3v45.6h-0.6
		c-1.4,3.5-2.8,12.1-20.4,22c-10.6,6.1-13.8,12.5-15,18.5h14.7c4.5-8.6,11-4.5,25.6-19.9c7.5-7.9,10.2-20.6,10.2-20.6H141v-45.4
		c2-1.9,3.3-4.5,3.3-7.5s-1.3-5.6-3.3-7.5V72.4c2.7-1.2,5-3.2,6.8-5.6H331c3,4.3,8,7.1,13.7,7.1c9.2,0,16.7-7.5,16.7-16.7
		c0-8.1-5.8-14.9-13.4-16.4V20.4h54.8V0.1H402.6z"/>
	<path class="st5" d="M123.9,202.3c-8.5,6.7-13.4,6.4-17,11h19v-9.1L123.9,202.3z"/>
	<path class="st5" d="M125.9,204.3h16.5l5-4.9l-9.6-9.6l-1.8-1c-1.4,2.5-3,5-5.1,7.1c-2.3,2.4-4.3,4.3-6.2,5.8l0,0
		c-0.3,0.3-0.6,0.5-1,0.8L125.9,204.3z"/>
	<path class="st5" d="M136.1,188.7l1.8,1l7.6,7.6l6.2-6.2v-14.8H148v-1.7h-7.1v0.5c0.2,0,0.4,0,0.4,0S139.8,181.9,136.1,188.7z"/>
	<rect x="140.9" y="165" class="st6" width="7.3" height="5.8"/>
	<rect x="140.9" y="165" class="st5" width="7.3" height="5.8"/>
	<rect x="140.9" y="148.5" class="st5" width="16.9" height="13.1"/>
	<rect x="140.9" y="140.7" class="st5" width="16.9" height="7.8"/>
	<rect x="140.9" y="131.1" class="st5" width="19" height="9.6"/>
	<path class="st5" d="M140.9,131.1h19v-8.8h-15.7c0,2.9-1.3,5.6-3.3,7.4V131.1z"/>
	<path class="st5" d="M144.1,122.3h15.7V95.8h-19v19C142.9,116.7,144.1,119.3,144.1,122.3L144.1,122.3z"/>
	<rect x="140.9" y="85.3" class="st5" width="19" height="10.5"/>
	<path class="st5" d="M140.9,80.5h10.5V66.8h-3.7c-1.7,2.4-4,4.4-6.8,5.6V80.5z"/>
	<rect x="151.3" y="66.8" class="st5" width="9.7" height="13.7"/>
	<rect x="161" y="66.8" class="st5" width="7.5" height="13.7"/>
	<rect x="172.6" y="66.8" class="st5" width="11.7" height="13.7"/>
	<rect x="184.3" y="66.8" class="st5" width="11.7" height="13.7"/>
	<rect x="196" y="66.8" class="st5" width="17.4" height="13.7"/>
	<rect x="213.4" y="66.8" class="st5" width="13.5" height="13.7"/>
	<rect x="230.5" y="66.8" class="st5" width="17.9" height="13.7"/>
	<rect x="248.4" y="66.8" class="st5" width="17.5" height="13.7"/>
	<rect x="265.8" y="66.8" class="st5" width="17.5" height="13.7"/>
	<rect x="283.3" y="66.8" class="st5" width="10.7" height="13.7"/>
	<rect x="293.9" y="66.8" class="st5" width="10.7" height="13.7"/>
	<path class="st5" d="M330.8,66.8h-22.3v13.7h24.7v-7.1l1.8-2.5C333.4,69.8,332,68.4,330.8,66.8z"/>
	<path class="st5" d="M335,70.9l-1.8,2.5v7.1h11.2v-6.6C340.9,73.9,337.6,72.8,335,70.9z"/>
	<path class="st5" d="M344.4,73.9v6.6h14.7v-5.7l-4-4.7C352.2,72.5,348.5,73.9,344.4,73.9C344.5,73.9,344.4,73.9,344.4,73.9z"/>
	<path class="st5" d="M359.1,80.5v-5.7l-4-4.7c0.3-0.3,0.6-0.5,0.9-0.8l0.1-0.1c0.3-0.3,0.6-0.6,0.8-0.8l0.1-0.1
		c0.5-0.6,1-1.3,1.5-2c0,0,0,0,0-0.1c1.6-2.6,2.6-5.6,2.6-8.9c0-0.7-0.1-1.5-0.2-2.2l0,0c0-0.1,0-0.1,0-0.2
		c-0.1-0.4-0.1-0.8-0.2-1.2c0-0.1,0-0.2-0.1-0.3c-0.1-0.4-0.2-0.8-0.3-1.2c0-0.1-0.1-0.2-0.1-0.3c-0.1-0.4-0.3-0.8-0.5-1.2
		c0-0.1,0-0.1-0.1-0.2c-0.2-0.5-0.4-0.9-0.7-1.3l0,0c-1-1.8-2.3-3.4-3.9-4.7l6.7-7.9V20.4h69.5v15.3h8.8v44.7h-29V95h-30.4V80.5
		H359.1z"/>
	<path class="st5" d="M355.2,44.4l6.6-7.9v-16h-14.1v20.3C350.6,41.4,353.1,42.6,355.2,44.4z"/>
	<path class="st5" d="M341.2,20.5h-11.7v27.4h1.1c2.4-3.6,6.2-6.2,10.6-7.1V20.5z"/>
	<rect x="317" y="20.5" class="st5" width="12.5" height="27.4"/>
	<polygon class="st5" points="317,20.5 313.9,20.5 313.9,40.5 300.7,40.5 300.7,47.9 317,47.9 	"/>
	<polygon class="st5" points="302.9,40.5 302.9,20.5 287.5,20.5 287.5,47.9 300.7,47.9 300.7,40.5 	"/>
	<polygon class="st5" points="283.2,47.9 283.2,20.5 265.8,20.5 265.8,38.9 269.8,38.9 269.8,47.9 	"/>
	<polygon class="st5" points="269.8,47.9 269.8,38.9 262.8,38.9 262.8,20.5 244.2,20.5 244.2,47.9 	"/>
	<rect x="244.2" y="20.5" class="st6" width="0" height="27.4"/>
	<rect x="230.8" y="40.5" class="st5" width="13.4" height="7.5"/>
	<polygon class="st5" points="232.2,40.5 232.2,20.5 217.7,20.5 217.7,47.9 230.8,47.9 230.8,40.5 	"/>
	<rect x="204.2" y="20.5" class="st5" width="9.3" height="27.4"/>
	<rect x="187.2" y="20.5" class="st5" width="17" height="27.4"/>
	<polygon class="st5" points="187.2,47.9 187.2,20.5 174.1,20.5 174.1,40.5 172.6,40.5 172.6,47.9 	"/>
	<rect x="161.1" y="40.5" class="st5" width="11.5" height="7.5"/>
	<path class="st5" d="M162.1,40.5v-20h-14.3V41l-2.7,3.8c1,0.9,2,2,2.7,3.2H161v-7.5H162.1z"/>
	<path class="st5" d="M133.9,40.5C134,40.5,134,40.5,133.9,40.5c0.7,0,1.4,0,2.1,0.1c0.1,0,0.3,0.1,0.4,0.1c0.6,0.1,1.1,0.2,1.6,0.3
		c0.4,0.1,0.7,0.2,1.1,0.3c0.3,0.1,0.6,0.2,0.9,0.3c0.4,0.2,0.8,0.4,1.2,0.6c0.2,0.1,0.4,0.2,0.6,0.3l1.9-2.8V20.5h-39v20h-12v13.9
		h24.7C118.8,46.5,125.7,40.5,133.9,40.5z"/>
	<rect x="56.3" y="20.5" class="st5" width="36.6" height="33.9"/>
	<path class="st5" d="M117.5,54.4H43.8v26.7h59.8v-5H119v-1.2l4.2-5c-3.6-3.1-6-7.6-6-12.8C117.3,56.2,117.3,55.3,117.5,54.4z"/>
	<rect x="56.6" y="51.6" class="st7" width="35.8" height="5.9"/>
	<path class="st5" d="M126.8,72.3c-1.3-0.6-2.5-1.4-3.6-2.3l-4.2,5v1.2h7.8C126.8,76.2,126.8,72.3,126.8,72.3z"/>
	<rect x="110.4" y="85.3" class="st6" width="16.4" height="10.5"/>
	<path class="st5" d="M126.8,85.2h-16.4v34.9H124c0.4-2.2,2.1-4.5,2.8-5.1V85.2z"/>
	<path class="st5" d="M124,124.3h-14.1v18.4h16.9v-13.2C125.4,128.1,124.4,126.3,124,124.3z"/>
	<polygon class="st5" points="126.8,142.7 109.9,142.7 109.9,161.6 116.4,161.6 116.4,155.4 126.8,155.4 	"/>
	<rect x="116.4" y="155.4" class="st5" width="10.4" height="6.8"/>
	<rect x="119.4" y="165" class="st5" width="7.5" height="5.8"/>
	<path class="st5" d="M119.5,176.3h-4.7v14.9c9.2-7.3,10.3-13.2,11.4-16h0.6v-0.5h-7.3V176.3z"/>
	<path class="st5" d="M111,193.9H90v14.6l2.7,1.3c2-4.2,5.8-8.5,13.1-12.7C107.7,196,109.5,194.9,111,193.9z"/>
</g>
<circle class="st8" cx="397.2" cy="54.1" r="11.5"/>
</svg>
