<?xml version="1.0" encoding="iso-8859-1"?>

<!-- Generator: Adobe Illustrator 21.1.0, SVG Export Plug-In . SVG Version: 6.00 Build 0)  -->
<svg version="1.1" id="Ebene_1" xmlns="http://www.w3.org/2000/svg" xmlns:xlink="http://www.w3.org/1999/xlink" x="0px" y="0px"
	 viewBox="0 0 510.1 649.4" style="enable-background:new 0 0 510.1 649.4;" xml:space="preserve">

<style type="text/css">
	.hst0{opacity:0.25;fill:#88A80D;stroke:#FFFFFF;stroke-width:0.25;}
	.hst1{fill:#88A80D;stroke:#FFFFFF;stroke-width:0.25;stroke-miterlimit:10;}
	.hst2{fill:none;}
	.hst3{font-family:'MyriadPro-Regular';}
	.hst4{font-size:18px;}
	.hst5{opacity:0.25;}
	.hst6{fill:#88A80D;stroke:#FFFFFF;stroke-width:0.25;}
	.hst7{fill:#FF0000;}
	.hst8{opacity:0.5;fill:#88A80D;stroke:#FFFFFF;stroke-width:0.25;}
	.hst9{fill:#88A80D;}
</style>
    
    
    
<path class="hst0" d="M37.6,474.9v39.4h-6.8v35.5h6.8v52.6H124v9.2h12.4v31.8h7.2v5.8h41.8v-5.8h7.3v-25.5h25.9
	c4.1,1.8,8.5,2.7,13.2,2.7c4.7,0,9.2-1,13.2-2.7h12.2c4.1,1.8,8.5,2.7,13.2,2.7c4.7,0,9.2-1,13.2-2.7h12.1c4.1,1.8,8.5,2.7,13.2,2.7
	c4.7,0,9.2-1,13.2-2.7h24.2v25.8h6.8v5.6h42.5v-5.6h7v-5.6h5.7v-22h33.1v-13.7h60v-52.6h7.5v-35.5h-7.5v-39.4h-46v23.7h-20.9v-23.7
	h-14.2v23.7h-20.9v-23.7h-14.2v23.7h-20.9v-23.7h-14.2v23.7h-20.9v-23.7h-14.2v23.7h-20.9v-23.7h-14.2v23.7h-20.9v-23.7h-14.2v23.7
	h-20.9v-23.7h-14.2v23.7h-20.9v-23.7H175v23.7h-20.9v-23.7h-14.2v23.7H119v-23.7H37.6z"/>
<polygon class="hst1" points="87.3,602.4 62.1,602.4 62.1,557.8 79.9,557.8 79.9,581.4 87.3,581.4 "/>
<polygon class="hst1" points="79.9,557.8 102,557.8 102,570.9 104.4,570.9 104.4,602.4 87.3,602.4 87.3,581.4 79.9,581.4 "/>
<polygon class="hst1" points="123.9,570.9 123.9,557.8 102,557.8 102,570.9 104.4,570.9 104.4,589.1 121.9,589.1 121.9,570.9 "/>
<polygon class="hst1" points="136.5,589.1 136.5,557.8 123.9,557.8 123.9,570.9 121.9,570.9 121.9,589.1 "/>
<rect x="136.5" y="557.8" class="hst1" width="19.3" height="13.1"/>
<rect x="173.4" y="557.8" class="hst1" width="19.3" height="13.1"/>
<rect x="199.3" y="557.8" class="hst1" width="9.3" height="14.3"/>
<path class="hst1" d="M253.3,617.9v-60.1h-44.7v34h-15.9v26.1h25.9c4.1,1.8,8.5,2.7,13.2,2.7c4.7,0,9.2-1,13.2-2.7H253.3z"/>
<polygon class="hst1" points="253.3,557.8 286.4,557.8 286.4,617.9 283.7,617.9 280.2,619.2 275.7,620.3 271.4,620.7 267.7,620.7 
	263.7,620 260.3,619.1 257.3,617.9 253.3,617.9 "/>
<polygon class="hst1" points="286.4,557.8 303.9,557.8 303.9,620.3 300.5,619.6 295.8,617.9 286.4,617.9 "/>
<polygon class="hst1" points="303.9,557.8 303.9,620.3 308.3,620.7 312.7,620.5 318.8,619.2 322.3,617.9 346.5,617.9 346.5,591.2 
	331.4,591.2 331.4,557.8 "/>
<rect x="331.4" y="557.8" class="hst1" width="8.6" height="13.1"/>
<rect x="346.5" y="557.8" class="hst1" width="19.3" height="13.1"/>
<rect x="383.4" y="557.8" class="hst1" width="19.3" height="13.1"/>
<rect x="402.7" y="557.8" class="hst1" width="17.5" height="30.5"/>
<polygon class="hst1" points="436.9,571.3 436.9,557.8 428.2,557.8 420.2,557.8 420.2,571.3 420.2,581.4 428.2,581.4 428.2,571.3 "/>
<polygon class="hst1" points="436.9,557.8 436.9,571.3 428.2,571.3 428.2,581.4 420.2,581.4 420.2,588.3 402.7,588.3 402.7,602.4 
	501.5,602.4 501.5,562.1 477.2,562.1 477.2,557.8 "/>
<rect y="475.3" class="hst2" width="33" height="16"/>
<text transform="matrix(1 0 0 1 0 488.0664)" class="hst3 hst4">OG</text>
<rect x="4" y="250.3" class="hst2" width="33" height="16"/>
<text transform="matrix(1 0 0 1 4 263.0664)" class="hst3 hst4">EG</text>
<rect x="1" y="2.3" class="hst2" width="33" height="16"/>
<text transform="matrix(1 0 0 1 1 15.0664)" class="hst3 hst4">UG</text>
<g>
	<g class="hst5">
		<path class="hst6" d="M186.1,425v-5.9h7.3v-25.5h26c4.1,1.8,8.5,2.7,13.3,2.7c4.7,0,9.2-1,13.2-2.7H258c4.1,1.8,8.5,2.7,13.2,2.7
			c4.7,0,9.2-1,13.2-2.7h12.1c4.1,1.8,8.5,2.7,13.2,2.7c4.7,0,9.2-1,13.2-2.7h24.2v25.8h6.8v5.6h42.5v-5.6h7v-5.6h5.7v-22h33.1
			v-13.7h60.1v-52.7h7.5v-35.5h-7.5v-39.5H38.2v39.5h-6.8v35.5h6.8v52.7h86.5v9.2h12.4v31.9h7.2v5.9H186.1z"/>
	</g>
	<polygon class="hst1" points="31.3,299.7 78.8,299.7 78.8,270.8 38.2,270.8 38.2,289.9 31.3,289.9 	"/>
	<rect x="78.8" y="270.8" class="hst1" width="8.7" height="28.9"/>
	<rect x="91.5" y="270.8" class="hst1" width="10.7" height="28.9"/>
	<rect x="102.2" y="270.8" class="hst1" width="25.1" height="28.9"/>
	<rect x="127.3" y="270.8" class="hst1" width="12.7" height="28.9"/>
	<polygon class="hst1" points="140,270.8 140,299.7 142.4,299.7 157.6,298.4 157.6,270.8 	"/>
	<polygon class="hst1" points="157.6,298.4 169.2,297.6 169.2,270.8 157.6,270.8 	"/>
	<polygon class="hst1" points="169.2,297.6 169.2,270.8 181.9,270.8 181.9,296.8 	"/>
	<polygon class="hst1" points="181.9,296.8 181.9,270.8 193,270.8 193,296.2 	"/>
	<polygon class="hst1" points="196.5,296 196.5,270.8 210.3,270.8 210.3,295.3 	"/>
	<polygon class="hst1" points="210.3,295.3 210.3,270.8 219.3,270.8 219.3,295 	"/>
	<polygon class="hst1" points="219.3,295 219.3,270.8 227.2,270.8 227.2,294.7 	"/>
	<polygon class="hst1" points="227.2,294.7 227.2,270.8 237.2,270.8 237.2,294.5 	"/>
	<polygon class="hst1" points="237.2,294.5 237.2,270.8 245.4,270.8 245.4,294.3 	"/>
	<polygon class="hst1" points="245.4,294.3 245.4,270.8 263,270.8 263,294.1 	"/>
	<polygon class="hst1" points="262.9,294.1 262.9,270.8 275.6,270.8 275.6,278 280.1,278 280.1,294.1 	"/>
	<polygon class="hst1" points="280.1,294.1 280.1,278 275.6,278 275.6,270.8 293.4,270.8 293.4,294.2 	"/>
	<polygon class="hst1" points="297.2,294.3 297.2,270.8 309.1,270.8 309.1,277.5 315.5,277.5 315.5,282.1 309.1,282.1 309.1,294.6 	
		"/>
	<polygon class="hst1" points="309.1,294.6 309.1,282.1 315.5,282.1 315.5,294.8 	"/>
	<polygon class="hst1" points="315.5,294.8 315.5,277.5 309.1,277.5 309.1,270.8 332.7,270.8 332.7,295.4 	"/>
	<polygon class="hst1" points="332.7,295.4 332.7,270.8 341.7,270.8 341.7,295.8 	"/>
	<polygon class="hst1" points="341.7,295.8 341.7,270.8 349.9,270.8 349.9,296.2 	"/>
	<polygon class="hst1" points="349.9,296.2 349.9,270.8 358.9,270.8 358.9,282.8 367.8,282.8 367.8,297.3 	"/>
	<polygon class="hst1" points="367.8,297.3 367.8,282.8 358.9,282.8 358.9,270.8 379.3,270.8 379.3,298.1 	"/>
	<polygon class="hst1" points="379.3,298.1 379.3,270.8 392.9,270.8 392.9,299.1 	"/>
	<polygon class="hst1" points="392.9,299.1 392.9,270.8 413.3,270.8 413.3,299.7 398.6,299.7 	"/>
	<rect x="413.3" y="270.8" class="hst1" width="14.8" height="28.9"/>
	<rect x="434.1" y="289.3" class="hst1" width="10.3" height="10.3"/>
	<polygon class="hst1" points="479.5,299.7 444.3,299.7 444.3,289.3 434.1,289.3 434.1,256.8 465.4,256.8 465.4,284.5 479.5,284.5 	
		"/>
	<polygon class="hst1" points="479.5,299.7 479.5,286.4 491.1,286.4 491.1,278.2 502.5,278.2 502.5,289.9 510,289.9 510,299.7 	"/>
	<polygon class="hst1" points="510,325.4 510,316.4 487.3,316.4 487.3,322.9 472.2,322.9 472.2,316.4 420.1,316.4 420.1,334.9 
		412.4,334.9 412.4,346.8 414.6,346.8 414.6,378.1 442.4,378.1 502.5,378.1 502.5,325.4 	"/>
	<rect x="472.2" y="316.4" class="hst1" width="15.2" height="6.5"/>
	<rect x="411.4" y="316.4" class="hst1" width="8.7" height="18.5"/>
	<polygon class="hst1" points="411.4,334.9 411.4,316.4 398.9,316.4 398.9,346.8 412.4,346.8 412.4,334.9 	"/>
	<rect x="403.6" y="346.8" class="hst1" width="11" height="8.7"/>
	<rect x="403.6" y="355.5" class="hst1" width="11" height="8.5"/>
	<polygon class="hst1" points="403.6,393.6 390.7,393.6 390.7,425 396.6,425 396.6,419.4 403.6,419.4 	"/>
	<polygon class="hst1" points="375.6,318 391.4,317 391.4,335.4 375.6,335.4 	"/>
	<polygon class="hst1" points="375.6,335.4 359.4,335.4 359.4,319.1 375.6,318 	"/>
	<polygon class="hst1" points="347.3,393.6 347.3,419.4 354.1,419.4 354.1,425 359.7,425 359.7,393.6 	"/>
	<g>
		<path class="hst1" d="M323,365.7h-37.6v-13.5h-8.8v13.5v1.8V396c2.8-0.4,5.4-1.2,7.9-2.3h12.1c4.1,1.8,8.5,2.7,13.2,2.7
			c4.7,0,9.1-1,13.2-2.7V365.7z"/>
		<path class="hst1" d="M323,365.7h-37.6v-13.5h-8.8v13.5v1.8V396c2.8-0.4,5.4-1.2,7.9-2.3h12.1c4.1,1.8,8.5,2.7,13.2,2.7
			c4.7,0,9.1-1,13.2-2.7V365.7z"/>
	</g>
	<rect x="332.7" y="362.6" class="hst1" width="10.3" height="6.1"/>
	<rect x="332.7" y="355" class="hst1" width="14.6" height="7.6"/>
	<rect x="332.7" y="346.8" class="hst1" width="14.6" height="8.2"/>
	<polygon class="hst1" points="352.4,335.4 338.9,335.4 338.9,346.8 347.3,346.8 352.4,346.8 	"/>
	<polygon class="hst1" points="352.4,335.4 341.4,335.4 341.4,320 352.4,319.5 	"/>
	<polygon class="hst1" points="341.4,335.4 332.6,335.4 332.6,320.4 341.4,320 	"/>
	<polygon class="hst1" points="338.9,335.4 332.6,335.4 332.6,320.4 321.3,320.7 297.7,321.5 297.7,335.1 286.7,335.1 286.7,348.6 
		285.4,348.6 285.4,365.7 332.7,365.7 332.6,346.8 338.9,346.8 	"/>
	<polygon class="hst1" points="297.7,335.1 286.7,335.1 286.7,321.6 297.7,321.4 	"/>
	<polygon class="hst1" points="286.7,335.1 275.6,335.1 275.6,321.7 286.7,321.6 	"/>
	<polygon class="hst1" points="266.6,335.1 253.8,335.1 253.8,321.6 266.6,321.7 	"/>
	<polygon class="hst1" points="253.8,335.3 245,335.3 245,321.5 253.8,321.6 	"/>
	<polygon class="hst1" points="253.8,363.3 227.4,363.3 227.4,321 245,321.5 245,335.3 253.8,335.3 	"/>
	<polygon class="hst1" points="227.4,363.3 209.5,363.3 209.5,346.8 201.5,346.8 201.5,333.3 209.5,333.3 209.5,320.4 227.4,321 	"/>
	<polygon class="hst1" points="209.5,333.3 200.4,333.3 200.4,320 209.5,320.4 	"/>
	<polygon class="hst1" points="200.4,333.3 200.4,320 188.9,319.5 188.9,333.3 	"/>
	<polygon class="hst1" points="201.5,333.3 188.9,333.3 188.9,346.8 193.4,346.8 201.5,346.8 	"/>
	<rect x="193.4" y="346.8" class="hst1" width="16.1" height="9.2"/>
	<rect x="199.2" y="356" class="hst1" width="10.3" height="7.2"/>
	<polygon class="hst1" points="253.8,352.2 264,352.2 264,395.6 257.9,393.6 245.9,393.6 241.6,395.2 237.6,396 235.2,396.3 
		232.5,396.4 229.6,396.2 226.6,395.8 222.6,394.8 219.4,393.6 219.4,363.3 253.8,363.3 	"/>
	<polygon class="hst1" points="186.1,425 186.1,419.2 193.4,419.2 193.4,393.6 180.7,393.6 180.7,425 	"/>
	<g>
		<line class="hst1" x1="180.7" y1="335.4" x2="180.7" y2="319"/>
		<path class="hst1" d="M165.1,335.4h15.6V319c-5.7-0.3-11-0.6-15.6-1V335.4z"/>
	</g>
	<g>
		<line class="hst1" x1="149.7" y1="317" x2="149.7" y2="335.4"/>
		<path class="hst1" d="M165.1,318.1c-6.4-0.4-11.6-0.8-15.4-1.1v18.4h15.4V318.1z"/>
	</g>
	<polygon class="hst1" points="137.1,393.6 137.1,419.2 144.3,419.2 144.3,425 149.7,425 149.7,393.6 	"/>
	<rect x="124.4" y="346.8" class="hst1" width="12.8" height="15.9"/>
	<polygon class="hst1" points="128.3,316.4 128.3,346.8 137.1,346.8 142.4,346.8 142.4,337.5 142.4,335.4 142.4,316.4 	"/>
	<polygon class="hst1" points="128.3,346.8 128.3,316.4 113,316.4 113,344.6 108.9,344.6 108.9,378.1 128.3,378.1 128.3,362.8 
		124.4,362.8 124.4,346.8 	"/>
	<polygon class="hst1" points="113,344.6 113,316.4 95.2,316.4 95.2,341.8 87.5,341.8 87.5,378.1 108.9,378.1 108.9,344.6 	"/>
	<polygon class="hst1" points="70,316.4 70,331.8 60.3,331.8 60.3,372 63.2,372 63.2,378.1 87.5,378.1 87.5,341.8 95.2,341.8 
		95.2,316.4 	"/>
	<polygon class="hst1" points="70,316.4 70,331.8 60.3,331.8 60.3,372 63.2,372 63.2,378.1 38.2,378.1 38.2,325.4 31.3,325.4 
		31.3,316.4 	"/>
</g>
<circle id="hotspot01" class="hst7" cx="309.5" cy="602.8" r="11.5"/> 
<circle id="hotspot02"class="hst7" cx="240.5" cy="377.8" r="11.5"/>
<g>
	<path class="hst0" d="M38.2,1.8v39.4h-6.8v35.4h6.8v52.5h86.3v9.2H137v31.8h6.9v5.5h5.7v1.1h-5.1v17h-25.2v23.6h39.6V207h27.4v-30.3
		h-6.4v-1.1h6.4v-5.5h6.9v-25.5H219c4.1,1.8,8.5,2.7,13.2,2.7c4.7,0,9.2-1,13.2-2.7h12.1c4.1,1.8,8.5,2.7,13.2,2.7
		c4.7,0,9.2-1,13.2-2.7h12c4,1.8,8.5,2.7,13.2,2.7c4.7,0,9.2-1,13.2-2.7h24.2v25.7h6.8v5.6h42.4v-5.6h7v-5.6h5.7v-22h33v-13.7h59.9
		V76.6h7.5V41.2h-7.5V1.8H38.2z"/>
	<path class="hst8" d="M433.8,1.8h-6v14.2h-55.4v26.5c-4.4,0.9-8.2,3.5-10.6,7.1H179.1c-3-4.5-8.1-7.5-13.9-7.5
		c-9.2,0-16.7,7.5-16.7,16.7c0,6.7,3.9,12.4,9.6,15.1v42.7c-1.9,1.8-3,4.4-3,7.3c0,2.8,1.2,5.4,3,7.3v45.6h-0.6
		c-1.4,3.5-2.8,12.1-20.4,22c-10.6,6.1-13.8,12.5-15,18.5h14.7c4.5-8.6,11-4.5,25.6-19.9c7.5-7.9,10.2-20.6,10.2-20.6h-0.4v-45.4
		c2-1.9,3.3-4.5,3.3-7.5c0-3-1.3-5.6-3.3-7.5V74.1c2.7-1.2,5-3.2,6.8-5.6h183.2c3,4.3,8,7.1,13.7,7.1c9.2,0,16.7-7.5,16.7-16.7
		c0-8.1-5.8-14.9-13.4-16.4V22h54.8V1.8z"/>
	<path class="hst6" d="M155.2,204c-8.5,6.7-13.4,6.4-17,11h19v-9.1L155.2,204z"/>
	<path class="hst6" d="M157.2,205.9h16.5l5-4.9l-9.6-9.6l-1.8-1c-1.4,2.5-3,5-5.1,7.1c-2.3,2.4-4.3,4.3-6.2,5.8v0
		c-0.3,0.3-0.6,0.5-1,0.8L157.2,205.9z"/>
	<path class="hst6" d="M167.4,190.3l1.8,1l7.6,7.6l6.2-6.2V178h-3.7v-1.7h-7.1v0.5c0.2,0,0.4,0,0.4,0S171.1,183.6,167.4,190.3z"/>
	<rect x="172.1" y="166.6" class="hst6" width="7.3" height="5.8"/>
	<rect x="172.1" y="166.6" class="hst6" width="7.3" height="5.8"/>
	<rect x="172.1" y="150.2" class="hst6" width="16.9" height="13.1"/>
	<rect x="172.1" y="142.4" class="hst6" width="16.9" height="7.8"/>
	<rect x="172.1" y="132.8" class="hst6" width="19" height="9.6"/>
	<path class="hst6" d="M172.1,132.8h19V124h-15.7c0,2.9-1.3,5.6-3.3,7.4V132.8z"/>
	<path class="hst6" d="M175.4,124h15.7V97.5h-19v19C174.1,118.3,175.4,121,175.4,124C175.4,124,175.4,124,175.4,124z"/>
	<rect x="172.1" y="87" class="hst6" width="19" height="10.5"/>
	<path class="hst6" d="M172.1,82.1h10.5V68.5h-3.7c-1.7,2.4-4,4.4-6.8,5.6V82.1z"/>
	<rect x="182.6" y="68.5" class="hst6" width="9.7" height="13.7"/>
	<rect x="192.3" y="68.5" class="hst6" width="7.5" height="13.7"/>
	<rect x="203.9" y="68.5" class="hst6" width="11.7" height="13.7"/>
	<rect x="215.6" y="68.5" class="hst6" width="11.7" height="13.7"/>
	<rect x="227.3" y="68.5" class="hst6" width="17.4" height="13.7"/>
	<rect x="244.7" y="68.5" class="hst6" width="13.5" height="13.7"/>
	<rect x="261.7" y="68.5" class="hst6" width="17.9" height="13.7"/>
	<rect x="279.6" y="68.5" class="hst6" width="17.5" height="13.7"/>
	<rect x="297.1" y="68.5" class="hst6" width="17.5" height="13.7"/>
	<rect x="314.5" y="68.5" class="hst6" width="10.7" height="13.7"/>
	<rect x="325.2" y="68.5" class="hst6" width="10.7" height="13.7"/>
	<path class="hst6" d="M362.1,68.5h-22.3v13.7h24.7v-7.1l1.8-2.5C364.6,71.5,363.2,70.1,362.1,68.5z"/>
	<path class="hst6" d="M366.2,72.6l-1.8,2.5v7.1h11.2v-6.6C372.2,75.5,368.9,74.4,366.2,72.6z"/>
	<path class="hst6" d="M375.7,75.6v6.6h14.7v-5.7l-4-4.7C383.5,74.1,379.8,75.6,375.7,75.6C375.7,75.6,375.7,75.6,375.7,75.6z"/>
	<path class="hst6" d="M390.4,82.1v-5.7l-4-4.7c0.3-0.3,0.6-0.5,0.9-0.8c0,0,0.1-0.1,0.1-0.1c0.3-0.3,0.6-0.6,0.8-0.8
		c0,0,0.1-0.1,0.1-0.1c0.5-0.6,1-1.3,1.5-2c0,0,0,0,0-0.1c1.6-2.6,2.6-5.6,2.6-8.9c0-0.7-0.1-1.5-0.2-2.2h0c0-0.1,0-0.1,0-0.2
		c-0.1-0.4-0.1-0.8-0.2-1.2c0-0.1,0-0.2-0.1-0.3c-0.1-0.4-0.2-0.8-0.3-1.2c0-0.1-0.1-0.2-0.1-0.3c-0.1-0.4-0.3-0.8-0.5-1.2
		c0-0.1,0-0.1-0.1-0.2c-0.2-0.5-0.4-0.9-0.7-1.3c0,0,0,0,0,0c-1-1.8-2.3-3.4-3.9-4.7l6.7-7.9V22h69.5v15.3h8.8V82h-29v14.7h-30.4
		V82.1H390.4z"/>
	<path class="hst6" d="M386.5,46.1l6.6-7.9V22.2H379v20.3C381.9,43,384.4,44.3,386.5,46.1z"/>
	<path class="hst6" d="M372.5,22.2h-11.7v27.4h1.1c2.4-3.6,6.2-6.2,10.6-7.1V22.2z"/>
	<rect x="348.2" y="22.2" class="hst6" width="12.5" height="27.4"/>
	<polygon class="hst6" points="348.2,22.2 345.2,22.2 345.2,42.2 332,42.2 332,49.6 348.3,49.6 	"/>
	<polygon class="hst6" points="334.2,42.2 334.2,22.2 318.7,22.2 318.7,49.6 332,49.6 332,42.2 	"/>
	<polygon class="hst6" points="314.5,49.6 314.5,22.2 297.1,22.2 297.1,40.5 301,40.5 301,49.6 	"/>
	<polygon class="hst6" points="301,49.6 301,40.5 294.1,40.5 294.1,22.2 275.5,22.2 275.5,49.6 	"/>
	<rect x="275.5" y="22.2" class="hst6" width="0" height="27.4"/>
	<rect x="262.1" y="42.2" class="hst6" width="13.4" height="7.5"/>
	<polygon class="hst6" points="263.5,42.2 263.5,22.2 249,22.2 249,49.6 262.1,49.6 262.1,42.2 	"/>
	<rect x="235.5" y="22.2" class="hst6" width="9.3" height="27.4"/>
	<rect x="218.5" y="22.2" class="hst6" width="17" height="27.4"/>
	<polygon class="hst6" points="218.5,49.6 218.5,22.2 205.3,22.2 205.3,42.2 203.9,42.2 203.9,49.6 	"/>
	<rect x="192.4" y="42.2" class="hst6" width="11.5" height="7.5"/>
	<path class="hst6" d="M193.4,42.2v-20h-14.3v20.5l-2.7,3.8c1,0.9,2,2,2.7,3.2h13.2v-7.5H193.4z"/>
	<path class="hst6" d="M165.2,42.2C165.2,42.2,165.2,42.2,165.2,42.2c0.7,0,1.4,0,2.1,0.1c0.1,0,0.3,0.1,0.4,0.1
		c0.6,0.1,1.1,0.2,1.6,0.3c0.4,0.1,0.7,0.2,1.1,0.3c0.3,0.1,0.6,0.2,0.9,0.3c0.4,0.2,0.8,0.4,1.2,0.6c0.2,0.1,0.4,0.2,0.6,0.3
		l1.9-2.8V22.2h-39v20h-12v13.9h24.7C150.1,48.2,156.9,42.2,165.2,42.2z"/>
	<rect x="87.5" y="22.2" class="hst6" width="36.6" height="33.9"/>
	<path class="hst6" d="M148.8,56.1H75.1v26.7h59.8v-5h15.4v-1.2l4.2-5c-3.6-3.1-6-7.6-6-12.8C148.5,57.9,148.6,57,148.8,56.1z"/>
	<rect x="87.9" y="53.2" class="hst9" width="35.8" height="5.9"/>
	<path class="hst6" d="M158.1,74c-1.3-0.6-2.5-1.4-3.6-2.3l-4.2,5v1.2h7.8V74z"/>
	<rect x="141.7" y="87" class="hst6" width="16.4" height="10.5"/>
	<path class="hst6" d="M158.1,86.8h-16.4v34.9h13.6c0.4-2.2,2.1-4.5,2.8-5.1V86.8z"/>
	<path class="hst6" d="M155.2,125.9h-14.1v18.4h16.9v-13.2C156.7,129.8,155.6,128,155.2,125.9z"/>
	<polygon class="hst6" points="158.1,144.4 141.2,144.4 141.2,163.3 147.7,163.3 147.7,157 158.1,157 	"/>
	<rect x="147.7" y="157" class="hst6" width="10.4" height="6.8"/>
	<rect x="150.6" y="166.6" class="hst6" width="7.5" height="5.8"/>
	<path class="hst6" d="M150.8,177.9h-4.7v14.9c9.2-7.3,10.3-13.2,11.4-16h0.6v-0.5h-7.3V177.9z"/>
	<path class="hst6" d="M142.3,195.5h-21.1v14.6l2.7,1.3c2-4.2,5.8-8.5,13.1-12.7C139,197.7,140.7,196.6,142.3,195.5z"/>
</g>
<circle id="hotspot03" class="hst7" cx="165.5" cy="121.8" r="11.5"/>
<circle id="hotspot04" class="hst7" cx="428.5" cy="55.8" r="11.5"/>
</svg>
