<?xml version="1.0" encoding="utf-8"?>
<!-- Generator: Adobe Illustrator 21.1.0, SVG Export Plug-In . SVG Version: 6.00 Build 0)  -->
<svg version="1.1" id="Ebene_1" xmlns="http://www.w3.org/2000/svg" xmlns:xlink="http://www.w3.org/1999/xlink" x="0px" y="0px"
	 viewBox="0 0 128 147.8" style="enable-background:new 0 0 128 147.8;" xml:space="preserve">
<style type="text/css">
	.st0{fill:#96C31E;}
	.st1{fill:#EEEEEE;}
</style>
<g>
	<path class="st0" d="M7.8,32.5C3.5,35,0,41,0,46v55.9c0,4.9,3.5,11,7.8,13.5l48.4,27.9c4.3,2.5,11.3,2.5,15.6,0l48.4-27.9
		c4.3-2.5,7.8-8.5,7.8-13.5V46c0-5-3.5-11-7.8-13.5l-48.4-28C67.5,2,60.5,2,56.2,4.5L7.8,32.5z"/>
</g>
<path class="st1" d="M49.4,74.7l10.5-10.5L33.8,38c-5.8,5.8-5.8,15.2,0,21.1L49.4,74.7z M74.7,67.9c5.7,2.6,13.7,0.8,19.6-5.1
	c7.1-7.1,8.5-17.3,3-22.8c-5.4-5.4-15.6-4.1-22.8,3c-5.9,5.9-7.8,13.9-5.1,19.6L33,99l5.2,5.2l25.6-25.6l25.6,25.6l5.2-5.2
	L69.2,73.4C69.2,73.4,74.7,67.9,74.7,67.9z"/>
</svg>
