<?xml version="1.0" encoding="iso-8859-1"?>
<!-- Generator: Adobe Illustrator 21.1.0, SVG Export Plug-In . SVG Version: 6.00 Build 0)  -->
<svg version="1.1" xmlns="http://www.w3.org/2000/svg" xmlns:xlink="http://www.w3.org/1999/xlink" x="0px" y="0px"
	 viewBox="0 0 1487 399" style="enable-background:new 0 0 1487 399;" xml:space="preserve">
<style type="text/css">
	.st0{fill:#DAD91B;}
	.st1{fill:#FCEE1D;}
	.st2{fill:#8AA80C;}
	.st3{fill:#98B20F;}
	.st4{fill:#B9C616;}
	.st5{fill:#CACF18;}
	.st6{fill:#FBED22;}
	.st7{fill:none;}
	.st8{font-family:'Helvetica';}
	.st9{font-size:14px;}
	.st10{fill:#ECE41F;}
</style>
<g id="Ebene_1">
	<circle class="st0" cx="199" cy="199" r="199"/>
	<path class="st1" d="M110.9,377.5c26.6,13.1,56.5,20.5,88.1,20.5c47.3,0,90.8-16.5,124.9-44.1L199,199L110.9,377.5z"/>
	<path class="st2" d="M1.9,226.7c9.2,66.2,51,122,108.7,150.6l0.4-0.3l88-178L1.9,226.7z"/>
	<path class="st3" d="M11,133.6C3.9,154.1,0,176.1,0,199c0,9.5,0.7,18.9,2,28l0,0l197-28L11,133.6z"/>
	<path class="st4" d="M11,134l188,65L67.7,49.4C42.1,72,22.3,101,10.9,133.9L11,134z"/>
	<path class="st5" d="M146.6,7c-29.4,8-56.1,22.6-78.5,42.1l0.6,0.7L199,199L146.6,7z"/>
	<path class="st6" d="M1166.2,299.8c34.6-59.7,37.1-135.8-0.1-199.8S1061.6,0.5,992.6,1l0.5,199.6L1166.2,299.8z"/>
	<path class="st2" d="M1166.2,299.8l-173.1-99.3L821.9,300l0,0c55.2,95,177,127.3,272,72.1C1125.1,354,1149.4,328.8,1166.2,299.8z"
		/>
	<path class="st5" d="M821.9,300l171.2-99.5L992.6,1c-33.5,0.2-67.5,8.9-98.6,27C799,83.1,766.7,204.9,821.9,300z"/>
	<rect x="472.6" y="202.6" class="st7" width="221.4" height="12.4"/>
	<text transform="matrix(1 0 0 1 472.605 212.8062)" class="st8 st9">GASTRONOMIE</text>
	<rect x="472.6" y="229.6" class="st7" width="221.4" height="12.4"/>
	<text transform="matrix(1 0 0 1 472.605 239.8062)" class="st8 st9">HARTWAREN</text>
	<rect x="472.6" y="256.6" class="st7" width="221.4" height="12.4"/>
	<text transform="matrix(1 0 0 1 472.605 266.8062)" class="st8 st9">LEBENSMITTEL</text>
	<rect x="472.6" y="94.6" class="st7" width="221.4" height="12.4"/>
	<text transform="matrix(1 0 0 1 472.605 104.8062)" class="st8 st9">DIENSTLEISTUNG</text>
	<rect x="472.6" y="121.6" class="st7" width="221.4" height="12.4"/>
	<text transform="matrix(1 0 0 1 472.605 131.8062)" class="st8 st9">TEXTIL</text>
	<rect x="472.6" y="148.6" class="st7" width="221.4" height="12.4"/>
	<text transform="matrix(1 0 0 1 472.605 158.8062)" class="st8 st9">GESUNDHEIT</text>
	<rect x="472.6" y="175.6" class="st7" width="221.4" height="12.4"/>
	<text transform="matrix(1 0 0 1 472.605 185.8062)" class="st8 st9">SCHUHE UND LEDER</text>
	<rect x="444" y="256" class="st1" width="11" height="11"/>
	<rect x="444" y="229" class="st10" width="11" height="11"/>
	<rect x="444" y="202" class="st0" width="11" height="11"/>
	<rect x="444" y="94" class="st2" width="11" height="11"/>
	<rect x="444" y="121" class="st3" width="11" height="11"/>
	<rect x="444" y="148" class="st4" width="11" height="11"/>
	<rect x="1265.6" y="94.6" class="st7" width="221.4" height="12.4"/>
	<text transform="matrix(1 0 0 1 1265.605 104.8062)" class="st8 st9">ANKOMMEN UND VERWEILEN</text>
	<rect x="1265.6" y="121.6" class="st7" width="221.4" height="12.4"/>
	<text transform="matrix(1 0 0 1 1265.605 131.8062)" class="st8 st9">VERSORGEN UND SERVICE</text>
	<rect x="1265.6" y="148.6" class="st7" width="221.4" height="12.4"/>
	<text transform="matrix(1 0 0 1 1265.605 158.8062)" class="st8 st9">VERZEHR UND SHOPPING</text>
	<rect x="1237" y="94" class="st2" width="11" height="11"/>
	<rect x="1237" y="121" class="st5" width="11" height="11"/>
	<rect x="1237" y="148" class="st6" width="11" height="11"/>
	<rect x="444" y="175" class="st5" width="11" height="11"/>
</g>
<g id="Ebene_2">
	<path class="st10" d="M304.3,30.1L199,199l124.7,155.1C369,317.6,398,261.7,398,199C398,127.8,360.6,65.3,304.3,30.1z"/>
</g>
</svg>
