<?xml version="1.0" encoding="iso-8859-1"?>
<!-- Generator: Adobe Illustrator 21.1.0, SVG Export Plug-In . SVG Version: 6.00 Build 0)  -->
<svg version="1.1" xmlns="http://www.w3.org/2000/svg" xmlns:xlink="http://www.w3.org/1999/xlink" x="0px" y="0px"
	 viewBox="0 0 1487 463" style="enable-background:new 0 0 1487 463;" xml:space="preserve">
<style type="text/css">
	.st0{fill:#DAD91B;}
	.st1{fill:#FCEE1D;}
	.st2{fill:#8AA80C;}
	.st3{fill:#98B20F;}
	.st4{fill:#B9C616;}
	.st5{fill:#CACF18;}
	.st6{fill:#FBED22;}
	.st7{fill:none;}
	.st8{font-family:'Helvetica';}
	.st9{font-size:18px;}
	.st10{fill:#ECE41F;}
	.st11{fill:#8CC63F;}
</style>
<g id="Ebene_1">
	<circle class="st0" cx="199" cy="199" r="199"/>
	<path class="st1" d="M110.9,377.5c26.6,13.1,56.5,20.5,88.1,20.5c47.3,0,90.8-16.5,124.9-44.1L199,199L110.9,377.5z"/>
	<path class="st2" d="M1.9,226.7c9.2,66.2,51,122,108.7,150.6l0.4-0.3l88-178L1.9,226.7z"/>
	<path class="st3" d="M11,133.6C3.9,154.1,0,176.1,0,199c0,9.5,0.7,18.9,2,28l0,0l197-28L11,133.6z"/>
	<path class="st4" d="M11,134l188,65L67.7,49.4C42.1,72,22.3,101,10.9,133.9L11,134z"/>
	<path class="st5" d="M146.6,7c-29.4,8-56.1,22.6-78.5,42.1l0.6,0.7L199,199L146.6,7z"/>
	<path class="st6" d="M1106.2,299.8c34.6-59.7,37.1-135.8-0.1-199.8S1001.6,0.5,932.6,1l0.5,199.6L1106.2,299.8z"/>
	<path class="st2" d="M1106.2,299.8l-173.1-99.3L761.9,300l0,0c55.2,95,177,127.3,272,72.1C1065.1,354,1089.4,328.8,1106.2,299.8z"
		/>
	<path class="st5" d="M761.9,300l171.2-99.5L932.6,1c-33.5,0.2-67.5,8.9-98.6,27C739,83.1,706.7,204.9,761.9,300z"/>
	<rect x="472.6" y="223.6" class="st7" width="234.4" height="17.4"/>
	<text transform="matrix(1 0 0 1 472.605 236.7202)" class="st8 st9">GASTRONOMIE</text>
	<rect x="472.6" y="256.6" class="st7" width="235.4" height="18.4"/>
	<text transform="matrix(1 0 0 1 472.605 269.7202)" class="st8 st9">HARTWAREN</text>
	<rect x="472.6" y="289.6" class="st7" width="243.4" height="24.4"/>
	<text transform="matrix(1 0 0 1 472.605 302.7202)" class="st8 st9">LEBENSMITTEL</text>
	<rect x="472.6" y="91.6" class="st7" width="261.4" height="21.4"/>
	<text transform="matrix(1 0 0 1 472.605 104.7202)" class="st8 st9">DIENSTLEISTUNG</text>
	<rect x="472.6" y="124.6" class="st7" width="298.4" height="18.4"/>
	<text transform="matrix(1 0 0 1 472.605 137.7202)" class="st8 st9">TEXTIL</text>
	<rect x="472.6" y="157.6" class="st7" width="231.4" height="15.4"/>
	<text transform="matrix(1 0 0 1 472.605 170.7202)" class="st8 st9">GESUNDHEIT</text>
	<rect x="472.6" y="190.6" class="st7" width="230.4" height="21.4"/>
	<text transform="matrix(1 0 0 1 472.605 203.7202)" class="st8 st9">SCHUHE UND LEDER</text>
	<rect x="444" y="292" class="st1" width="11" height="11"/>
	<rect x="444" y="259" class="st10" width="11" height="11"/>
	<rect x="444" y="226" class="st0" width="11" height="11"/>
	<rect x="444" y="94" class="st2" width="11" height="11"/>
	<rect x="444" y="127" class="st3" width="11" height="11"/>
	<rect x="444" y="160" class="st4" width="11" height="11"/>
	<rect x="1205.6" y="91.6" class="st7" width="279.4" height="17.4"/>
	<text transform="matrix(1 0 0 1 1205.6045 104.7573)" class="st8 st9">ANKOMMEN UND VERWEILEN</text>
	<rect x="1205.6" y="124.8" class="st7" width="269.4" height="20.3"/>
	<text transform="matrix(1 0 0 1 1205.6045 137.8701)" class="st8 st9">VERSORGEN UND SERVICE</text>
	<rect x="1205.6" y="157.2" class="st7" width="299.4" height="16.4"/>
	<text transform="matrix(1 0 0 1 1205.6045 170.3062)" class="st8 st9">VERZEHR UND SHOPPING</text>
	<rect x="1177" y="94" class="st2" width="11" height="11"/>
	<rect x="1177" y="127" class="st5" width="11" height="11"/>
	<rect x="1177" y="160" class="st6" width="11" height="11"/>
	<rect x="444" y="193" class="st5" width="11" height="11"/>
	<g>
		<rect x="198" y="417" class="st11" width="736" height="2"/>
	</g>
	<g>
		<path class="st11" d="M198,429.9v-22.9l16.2,11.5L198,429.9z"/>
	</g>
	<g>
		<path class="st11" d="M552,428.9v-22.9l16.2,11.5L552,428.9z"/>
	</g>
	<g>
		<path class="st11" d="M923,428.9v-22.9l16.2,11.5L923,428.9z"/>
	</g>
</g>
<g id="Ebene_2">
	<path class="st10" d="M304.3,30.1L199,199l124.7,155.1C369,317.6,398,261.7,398,199C398,127.8,360.6,65.3,304.3,30.1z"/>
</g>
</svg>
