<?xml version="1.0" encoding="utf-8"?>
<!-- Generator: Adobe Illustrator 22.0.0, SVG Export Plug-In . SVG Version: 6.00 Build 0)  -->
<svg version="1.1" id="Ebene_1" xmlns="http://www.w3.org/2000/svg" xmlns:xlink="http://www.w3.org/1999/xlink" x="0px" y="0px"
	 viewBox="0 0 1552 464" style="enable-background:new 0 0 1552 464;" xml:space="preserve">
<style type="text/css">
	.st0{fill:#8AA80C;}
	.st1{fill:#F00000;}
	.st2{fill:#FF7314;}
	.st3{fill:none;}
	.st4{enable-background:new    ;}
	.st5{font-family:'Helvetica';}
	.st6{font-size:18px;}
	.st7{font-family:'Helvetica';}
	.st8{fill:#DEDEDE;}
	.st9{fill:#BCBCBC;}
	.st10{fill:#9B9B9B;}
	.st11{fill:#212121;}
	.st12{fill:#424242;}
	.st13{fill:#636363;}
	.st14{fill:#7A7A7A;}
	.st15{fill:#757575;}
	.st16{font-size:24px;}
</style>
<g id="Ebene_1_1_">
	<g>
		<path class="st0" d="M1196.2,299.8c34.6-59.7,37.1-135.8-0.1-199.8S1091.6,0.5,1022.6,1l0.5,199.6L1196.2,299.8z"/>
		<path class="st1" d="M1196.2,299.8l-173.1-99.3L851.9,300l0,0c55.2,95,177,127.3,272,72.1C1155.1,354,1179.4,328.8,1196.2,299.8z"
			/>
		<path class="st2" d="M851.9,300l171.2-99.5L1022.6,1c-33.5,0.2-67.5,8.9-98.6,27C829,83.1,796.7,204.9,851.9,300z"/>
	</g>
	<rect x="1276.6" y="91.6" class="st3" width="279.4" height="17.4"/>
	<text transform="matrix(1 0 0 1 1276.6045 104.7573)" class="st4"><tspan x="0" y="0" class="st5 st6">ANKOMMEN UND VERWEILEN</tspan></text>
	<rect x="1276.6" y="124.8" class="st3" width="269.4" height="20.3"/>
	<text transform="matrix(1 0 0 1 1276.6045 137.8701)" class="st4"><tspan x="0" y="0" class="st5 st6">VERZEHR UND SHOPPING</tspan></text>
	<rect x="1276.6" y="157.2" class="st3" width="299.4" height="16.4"/>
	<text transform="matrix(1 0 0 1 1276.6045 170.3062)" class="st4"><tspan x="0" y="0" class="st5 st6">VERSORGEN UND SERVICE</tspan></text>
	<rect x="1248" y="94" class="st1" width="11" height="11"/>
	<rect x="1248" y="127" class="st2" width="11" height="11"/>
	<rect x="1248" y="160" class="st0" width="11" height="11"/>
	<g>
		<rect x="9" y="223.6" class="st3" width="198" height="17.4"/>
		<text transform="matrix(1 0 0 1 75.9438 236.7202)" class="st5 st6">GASTRONOMIE</text>
		<rect x="21" y="256.6" class="st3" width="186" height="18.4"/>
		<text transform="matrix(1 0 0 1 94.9424 269.7202)" class="st5 st6">HARTWAREN</text>
		<rect x="21" y="289.6" class="st3" width="186" height="24.4"/>
		<text transform="matrix(1 0 0 1 79.3369 302.7202)" class="st5 st6">LEBENSMITTEL</text>
		<rect x="20" y="91.6" class="st3" width="187" height="21.4"/>
		<text transform="matrix(1 0 0 1 58.3311 104.7202)" class="st5 st6">DIENSTLEISTUNG</text>
		<rect x="69" y="124.6" class="st3" width="138" height="18.4"/>
		<text transform="matrix(1 0 0 1 149.9409 137.7202)" class="st5 st6">TEXTIL</text>
		<rect x="25" y="157.6" class="st3" width="182" height="15.4"/>
		<text transform="matrix(1 0 0 1 92.8457 170.7202)" class="st5 st6">GESUNDHEIT</text>
		<rect x="27" y="190.6" class="st3" width="180" height="21.4"/>
		<text transform="matrix(1 0 0 1 30.917 203.7202)" class="st4"><tspan x="0" y="0" class="st5 st6">SCHUHE UND LEDER</tspan></text>
		<rect x="218" y="292" class="st8" width="11" height="11"/>
		<rect x="218" y="259" class="st9" width="11" height="11"/>
		<rect x="218" y="226" class="st10" width="11" height="11"/>
		<rect x="218" y="94" class="st11" width="11" height="11"/>
		<rect x="218" y="127" class="st12" width="11" height="11"/>
		<rect x="218" y="160" class="st13" width="11" height="11"/>
		<rect x="218" y="193" class="st14" width="11" height="11"/>
	</g>
	<polygon class="st0" points="759,212 759,167 781.5,189.5 	"/>
	<rect x="307" y="445" class="st3" width="396" height="55"/>
	<text transform="matrix(1 0 0 1 334.5298 462.6875)" class="st4"><tspan x="0" y="0" class="st15 st5 st16">BRANCHENAUFTEILUNG 2010 </tspan></text>
	<rect x="825" y="445" class="st3" width="396" height="55"/>
	<text transform="matrix(1 0 0 1 892.8257 462.6875)" class="st4"><tspan x="0" y="0" class="st15 st5 st16">BESUCHSMOTIVE 2020</tspan></text>
</g>
<circle class="st10" cx="504" cy="199" r="199"/>
<path class="st8" d="M415.9,377.5c26.6,13.1,56.5,20.5,88.1,20.5c47.3,0,90.8-16.5,124.9-44.1L504,199L415.9,377.5z"/>
<path class="st11" d="M306.9,226.7c9.2,66.2,51,122,108.7,150.6l0.4-0.3l88-178L306.9,226.7z"/>
<path class="st12" d="M316,133.6c-7.1,20.5-11,42.5-11,65.4c0,9.5,0.7,18.9,2,28l0,0l197-28L316,133.6z"/>
<path class="st13" d="M316,134l188,65L372.7,49.4c-25.6,22.5-45.4,51.5-56.8,84.5L316,134z"/>
<path class="st14" d="M451.6,7c-29.4,8-56.1,22.6-78.5,42.1l0.6,0.7L504,199L451.6,7z"/>
<path class="st9" d="M609.3,30.1L504,199l124.7,155.1C674,317.6,703,261.7,703,199C703,127.8,665.6,65.3,609.3,30.1z"/>
</svg>
