<?xml version="1.0" encoding="utf-8"?>
<!-- Generator: Adobe Illustrator 21.0.0, SVG Export Plug-In . SVG Version: 6.00 Build 0)  -->
<svg version="1.1" id="Ebene_1" xmlns="http://www.w3.org/2000/svg" xmlns:xlink="http://www.w3.org/1999/xlink" x="0px" y="0px"
	 viewBox="0 0 210.2 78.2" style="enable-background:new 0 0 210.2 78.2;" xml:space="preserve">
<style type="text/css">
	.st0{fill:#FCFCFC;}
	.st1{fill:#E3000F;}
	.st2{fill:#FFFFFF;}
</style>
<g>
	<path class="st0" d="M41.4,46.6H39v4.2h-4.7V37.9h7.5c4.1,0,6.8,1.2,6.8,4.3C48.5,45.4,45.6,46.6,41.4,46.6 M41.6,40.8H39v2.9h2.5
		c1.6,0,2.2-0.5,2.2-1.5C43.7,41.4,43.2,40.8,41.6,40.8"/>
	<path class="st0" d="M60.6,50.7l-2.8-4.3h-1.9v4.3h-4.7V37.9h7.8c4.1,0,6.8,1.1,6.8,4.2c0,1.9-1.2,3.1-3.1,3.8l3.5,4.9H60.6z
		 M58.8,40.8h-2.9v2.8h2.8c1.6,0,2.2-0.5,2.2-1.4C60.9,41.4,60.3,40.8,58.8,40.8"/>
	<path class="st0" d="M75.7,50.9c-4.7,0-8-2.3-8-6.6c0-4.3,3.3-6.7,8.1-6.7c4.7,0,8,2.3,8,6.6C83.7,48.6,80.4,50.9,75.7,50.9
		 M75.7,40.8c-1.9,0-3,1.2-3,3.5c0,2.3,1.1,3.5,3.1,3.5c1.9,0,3-1.2,3-3.5C78.7,42,77.6,40.8,75.7,40.8"/>
	<path class="st0" d="M99.4,50.7v-3.1c0-1.3,0-2.4,0.1-3.4c-0.5,1-1.4,2.4-2,3.4l-2.3,3.6l-2.3-3.6c-0.6-0.9-1.5-2.4-2-3.4
		c0.1,1,0.1,2.1,0.1,3.4v3.1h-4.5V37.9h4.4l2.1,3.4c1,1.7,1.9,3.2,2.2,3.9c0.3-0.7,1.1-2.1,2.2-3.9l2.1-3.4h4.4v12.9H99.4z"/>
	<polygon class="st0" points="107.4,50.7 107.4,37.9 120.7,37.9 120.7,40.9 112.2,40.9 112.2,42.6 117.3,42.6 117.3,45.5 
		112.2,45.5 112.2,47.8 120.9,47.8 120.9,50.7 	"/>
	<path class="st0" d="M135.3,50.7l-4.1-4.2c-0.8-0.8-2.3-2.4-2.7-3c0.1,0.6,0.1,2.3,0.1,3.3v3.9H124V37.9h4.2l3.8,3.8
		c0.8,0.8,2.3,2.5,2.7,3c-0.1-0.6-0.1-2.3-0.1-3.3v-3.5h4.6v12.9H135.3z"/>
	<path class="st0" d="M153.4,50.7l-0.9-2.3h-5.2l-0.9,2.3h-5.2l6.3-12.9h4.9l6.3,12.9H153.4z M151,44.8c-0.6-1.7-0.9-2.4-1.1-3.2
		c-0.2,0.9-0.5,1.6-1.1,3.2l-0.3,0.8h2.9L151,44.8z"/>
	<path class="st0" d="M166.2,50.7h-5.6V37.9h6.1c5.5,0,8.9,1.5,8.9,6.4S172.4,50.7,166.2,50.7 M166.6,40.9h-1.2v6.8h1
		c3,0,4.2-0.8,4.2-3.4C170.6,41.9,169.6,40.9,166.6,40.9"/>
	<polygon class="st0" points="178.3,50.7 178.3,37.9 191.6,37.9 191.6,40.9 183.1,40.9 183.1,42.6 188.2,42.6 188.2,45.5 
		183.1,45.5 183.1,47.8 191.8,47.8 191.8,50.7 	"/>
	<path class="st0" d="M206.2,50.7l-4.1-4.2c-0.8-0.8-2.3-2.4-2.7-3c0.1,0.6,0.1,2.3,0.1,3.3v3.9h-4.6V37.9h4.2l3.8,3.8
		c0.8,0.8,2.3,2.5,2.7,3c-0.1-0.6-0.1-2.3-0.1-3.3v-3.5h4.6v12.9H206.2z"/>
	<polygon class="st1" points="42.2,63 42.2,59.8 38,59.8 38,63 34.3,63 34.3,54.8 38,54.8 38,57.8 42.2,57.8 42.2,54.8 45.9,54.8 
		45.9,63 	"/>
	<path class="st1" d="M58.2,63l-0.7-1.4h-4L52.8,63h-3.9l4.8-8.2h3.7l4.8,8.2H58.2z M56.3,59.2c-0.5-1.1-0.7-1.5-0.9-2.1
		c-0.2,0.6-0.4,1-0.9,2.1l-0.2,0.5h2.2L56.3,59.2z"/>
	<path class="st1" d="M70.4,63.2c-3.3,0-5.8-1-5.8-3.6v-4.7h3.8v4.7c0,1,0.6,1.6,2.1,1.6c1.4,0,2.1-0.6,2.1-1.6v-4.7h3.8v4.7
		C76.3,62.1,73.8,63.2,70.4,63.2"/>
	<path class="st1" d="M85.7,60.4h-1.8V63h-3.6v-8.2H86c3.1,0,5.2,0.7,5.2,2.7C91.1,59.6,88.9,60.4,85.7,60.4 M85.9,56.7h-2v1.8h1.9
		c1.2,0,1.7-0.3,1.7-0.9C87.5,57,87,56.7,85.9,56.7"/>
	<polygon class="st1" points="100.7,56.8 100.7,63 97,63 97,56.8 93.3,56.8 93.3,54.8 104.4,54.8 104.4,56.8 	"/>
	<path class="st1" d="M114,63h-6.4v-8.2h6.4c3.3,0,4.7,0.8,4.7,2.1c0,0.9-0.7,1.3-1.6,1.6c1.2,0.3,1.9,0.9,1.9,1.8
		C119,62.1,117.4,63,114,63 M114,56.6h-2.8v1.3h2.8c0.9,0,1.2-0.3,1.2-0.6C115.1,56.9,114.8,56.6,114,56.6 M114.1,59.6h-2.9v1.6h2.9
		c0.9,0,1.3-0.3,1.3-0.8C115.4,59.9,115,59.6,114.1,59.6"/>
	<path class="st1" d="M130.5,63l-0.7-1.4h-4l-0.7,1.4h-3.9l4.8-8.2h3.7l4.8,8.2H130.5z M128.7,59.2c-0.5-1.1-0.7-1.5-0.9-2.1
		c-0.2,0.6-0.4,1-0.9,2.1l-0.2,0.5h2.2L128.7,59.2z"/>
	<polygon class="st1" points="145.5,63 145.5,59.8 141.3,59.8 141.3,63 137.6,63 137.6,54.8 141.3,54.8 141.3,57.8 145.5,57.8 
		145.5,54.8 149.2,54.8 149.2,63 	"/>
	<path class="st1" d="M161.9,63l-3.2-2.7c-0.6-0.5-1.7-1.6-2.1-1.9c0.1,0.4,0.1,1.5,0.1,2.1V63h-3.5v-8.2h3.2l2.9,2.4
		c0.6,0.5,1.8,1.6,2.1,1.9c-0.1-0.4-0.1-1.5-0.1-2.1v-2.2h3.5V63H161.9z"/>
	<polygon class="st1" points="176.8,63 176.8,59.8 172.7,59.8 172.7,63 168.9,63 168.9,54.8 172.7,54.8 172.7,57.8 176.8,57.8 
		176.8,54.8 180.6,54.8 180.6,63 	"/>
	<path class="st1" d="M190.1,63.2c-3.6,0-6.1-1.5-6.1-4.2c0-2.7,2.6-4.3,6.2-4.3c3.6,0,6.1,1.5,6.1,4.2
		C196.3,61.6,193.7,63.2,190.1,63.2 M190.1,56.7c-1.5,0-2.3,0.8-2.3,2.2c0,1.5,0.9,2.3,2.4,2.3c1.5,0,2.3-0.8,2.3-2.2
		C192.4,57.4,191.6,56.7,190.1,56.7"/>
</g>
<g>
	<polygon class="st1" points="203.3,56.7 203.3,57.9 207.5,57.9 207.5,59.8 203.3,59.8 203.3,63 199.6,63 199.6,54.8 210.2,54.8 
		210.2,56.7 	"/>
	<path class="st1" d="M0,51c11.5-23.8,42.4-51,83.8-51c35-0.1,58.2,16.5,69.5,28.4c-2.8,0-5.4,0-8.4,0c-15.1-12-33.7-19.7-56.9-19.6
		C50.9,8.8,23.1,33.1,13.6,51H0z"/>
</g>
<g>
	<path class="st2" d="M199.7,76.4H198V78h1.6V76.4z M196.1,71.6h2.3v-1.4h-6.3v1.4h2.3V78h1.6V71.6z M186.6,71.6h1.5
		c0.7,0,1.8,0.2,1.8,2.5c0,1.3-0.4,2.6-1.8,2.6h-1.6V71.6z M185,78h3.3c2.5,0,3.2-2.4,3.2-4c0-1.5-0.5-3.7-3.1-3.7H185V78z
		 M180.3,72L180.3,72l1,3.1h-2L180.3,72z M178.9,76.4h2.8l0.5,1.6h1.8l-2.7-7.7h-1.9l-2.8,7.7h1.7L178.9,76.4z M174.8,71.6h2.3v-1.4
		h-6.3v1.4h2.3V78h1.6V71.6z M163.9,75.6c0,1,0.5,2.6,3.3,2.6c0.7,0,3-0.2,3-2.5c0-1.4-1-1.8-2-2.1l-1.9-0.5
		c-0.3-0.1-0.8-0.2-0.8-0.8c0-0.7,0.7-0.9,1.3-0.9c1.4,0,1.5,0.8,1.6,1.2h1.5c0-0.9-0.6-2.5-3-2.5c-2.5,0-3,1.5-3,2.4
		c0,1.7,1.2,2,2.5,2.3l0.8,0.2c0.8,0.2,1.4,0.4,1.4,1c0,0.8-0.8,1-1.6,1c-1.4,0-1.6-0.8-1.6-1.2H163.9z M155.2,73.7v-2.1h2
		c0.9,0,1.1,0.6,1.1,1c0,0.8-0.4,1.1-1.2,1.1H155.2z M153.6,78h1.6v-3h1.7c1.2,0,1.3,0.4,1.3,1.5c0,0.8,0.1,1.2,0.2,1.6h1.8v-0.2
		c-0.3-0.1-0.3-0.4-0.3-1.5c0-1.4-0.3-1.7-1-2c0.8-0.3,1.2-1,1.2-1.8c0-0.7-0.4-2.2-2.4-2.2h-3.9V78z M152.1,70.3h-5.7V78h5.9v-1.4
		H148v-2h3.8v-1.4H148v-1.6h4.1V70.3z M140.2,71.6h1.5c0.7,0,1.8,0.2,1.8,2.5c0,1.3-0.4,2.6-1.8,2.6h-1.6V71.6z M138.7,78h3.3
		c2.5,0,3.2-2.4,3.2-4c0-1.5-0.5-3.7-3.1-3.7h-3.4V78z M134.1,72.5c0-0.9-0.3-2.5-3-2.5c-1.9,0-2.7,1.2-2.7,2.4
		c0,1.3,1.1,1.7,1.6,1.8l1.6,0.4c1.3,0.3,1.6,0.6,1.6,1.4c0,1.1-1.3,1.3-2,1.3c-1,0-2.1-0.4-2.1-1.8h-1c0,0.7,0.1,1.4,0.8,2
		c0.3,0.3,0.9,0.7,2.3,0.7c1.3,0,3-0.5,3-2.3c0-1.2-0.8-1.8-1.8-2.1l-2.2-0.5c-0.5-0.1-0.9-0.3-0.9-1c0-1.2,1.1-1.4,1.8-1.4
		c0.9,0,1.9,0.4,1.9,1.6H134.1z M123.6,70.3h-1V78h5v-0.9h-3.9V70.3z M119.8,70.3v4.9c0,1.7-1.1,2.1-2,2.1c-0.9,0-2-0.5-2-2.1v-4.9
		h-1v5.1c0,1.4,0.9,2.8,3,2.8c2.1,0,3.1-1.3,3.1-2.9v-5H119.8z M108.7,74.7h2.4c1.7,0,2.3-1.2,2.3-2.3c0-1.2-0.9-2.2-2.3-2.2h-3.5
		V78h1V74.7z M108.7,71.2h2.1c0.9,0,1.5,0.3,1.5,1.3c0,1-0.6,1.4-1.6,1.4h-2.1V71.2z M103,78v-7.7h-1.5l-2.2,6.5h0l-2.2-6.5h-1.5V78
		h1v-4.6c0-0.2,0-1.2,0-1.9h0l2.2,6.5h1l2.2-6.5h0c0,0.7,0,1.7,0,1.9V78H103z M90,74.8l1.2-3.4h0l1.1,3.4H90z M92.8,75.8l0.8,2.2
		h1.1l-2.8-7.7h-1.2L87.8,78h1.1l0.8-2.2H92.8z"/>
</g>
</svg>
