<?xml version="1.0" encoding="utf-8"?>
<!-- Generator: Adobe Illustrator 21.1.0, SVG Export Plug-In . SVG Version: 6.00 Build 0)  -->
<svg version="1.1" id="Ebene_1" xmlns="http://www.w3.org/2000/svg" xmlns:xlink="http://www.w3.org/1999/xlink" x="0px" y="0px"
	 viewBox="0 0 463.7 59.2" style="enable-background:new 0 0 463.7 59.2;" xml:space="preserve">
<style type="text/css">
	.st0{fill:#E2231A;}
	.st1{clip-path:url(#SVGID_2_);fill:#005195;}
	.st2{clip-path:url(#SVGID_4_);fill:#FFFFFF;}
</style>
<g>
	<polygon class="st0" points="8.2,7.3 22.5,31 8,54.8 28.3,54.8 43.3,30.8 28.4,7.3 	"/>
	<g>
		<g>
			<defs>
				<rect id="SVGID_1_" x="8" y="6.5" width="448" height="48.3"/>
			</defs>
			<clipPath id="SVGID_2_">
				<use xlink:href="#SVGID_1_"  style="overflow:visible;"/>
			</clipPath>
			<path class="st1" d="M40,19.2c3.2-4,8.1-6.6,13.6-6.6c9.6,0,17.4,7.9,17.4,17.7S63.2,48,53.6,48c-5.3,0-10.1-2.4-13.3-6.2l7-11.2
				L40,19.2z"/>
		</g>
		<g>
			<defs>
				<rect id="SVGID_3_" x="8" y="6.5" width="448" height="48.3"/>
			</defs>
			<clipPath id="SVGID_4_">
				<use xlink:href="#SVGID_3_"  style="overflow:visible;"/>
			</clipPath>
			<path class="st2" d="M435.6,35.9c0.3,1.3,0.9,2.4,1.6,3.4s1.7,1.9,2.8,2.5c1.1,0.7,2.5,1,4,1c2.4,0,4.3-0.6,5.7-1.9
				c1.4-1.3,2.3-2.9,2.8-5h3.3c-0.7,3.1-2,5.5-3.9,7.1c-1.9,1.7-4.5,2.5-8,2.5c-2.1,0-4-0.4-5.5-1.1c-1.6-0.8-2.8-1.8-3.8-3.1
				s-1.7-2.8-2.2-4.6c-0.5-1.7-0.7-3.6-0.7-5.5c0-1.8,0.2-3.5,0.7-5.2s1.2-3.2,2.2-4.6c1-1.3,2.2-2.4,3.8-3.3
				c1.6-0.8,3.4-1.2,5.5-1.2c2.2,0,4,0.4,5.6,1.3c1.5,0.9,2.8,2,3.8,3.4s1.7,3,2.1,4.9c0.4,1.8,0.6,3.7,0.5,5.6h-20.8
				C435.1,33.4,435.2,34.6,435.6,35.9 M452,25.8c-0.4-1.2-1-2.2-1.7-3.1s-1.6-1.6-2.7-2.2c-1-0.5-2.2-0.8-3.6-0.8s-2.6,0.3-3.6,0.8
				s-1.9,1.3-2.7,2.2c-0.7,0.9-1.3,1.9-1.8,3.1c-0.4,1.2-0.7,2.4-0.9,3.6h17.5C452.6,28.1,452.4,26.9,452,25.8 M424.2,27.1
				c-0.3-1.4-0.9-2.6-1.6-3.7s-1.6-2-2.8-2.7c-1.1-0.7-2.5-1-4-1c-1.8,0-3.3,0.3-4.6,0.9c-1.2,0.6-2.2,1.5-2.9,2.5
				c-0.7,1.1-1.3,2.3-1.5,3.7c-0.3,1.4-0.4,2.9-0.4,4.4c0,1.4,0.2,2.8,0.5,4.2c0.3,1.4,0.9,2.6,1.6,3.7c0.8,1.1,1.7,2,2.9,2.7
				c1.2,0.7,2.7,1,4.4,1c1.6,0,2.9-0.3,4-1s2-1.6,2.8-2.7c0.7-1.1,1.2-2.3,1.6-3.7c0.3-1.4,0.5-2.8,0.5-4.2
				C424.7,29.9,424.5,28.5,424.2,27.1 M406,17.7v5.1h0.1c0.8-1.9,2-3.4,3.8-4.4c1.7-1,3.7-1.5,5.9-1.5c2.1,0,3.9,0.4,5.4,1.2
				c1.5,0.8,2.8,1.8,3.8,3.1c1,1.3,1.8,2.8,2.3,4.6c0.5,1.7,0.7,3.6,0.7,5.5s-0.2,3.8-0.7,5.5s-1.2,3.3-2.3,4.6
				c-1,1.3-2.3,2.3-3.8,3.1s-3.3,1.1-5.4,1.1c-1,0-2-0.1-2.9-0.4c-1-0.2-1.9-0.6-2.7-1.1c-0.8-0.5-1.6-1.1-2.2-1.8s-1.1-1.6-1.5-2.6
				h-0.1v15.1H403V17.7H406z M394,27.1c-0.3-1.4-0.9-2.6-1.6-3.7s-1.6-2-2.8-2.7c-1.1-0.7-2.5-1-4-1c-1.8,0-3.3,0.3-4.6,0.9
				c-1.2,0.6-2.2,1.5-2.9,2.5c-0.7,1.1-1.3,2.3-1.5,3.7c-0.3,1.4-0.4,2.9-0.4,4.4c0,1.4,0.2,2.8,0.5,4.2c0.3,1.4,0.9,2.6,1.6,3.7
				c0.8,1.1,1.7,2,2.9,2.7c1.2,0.7,2.7,1,4.4,1c1.6,0,2.9-0.3,4-1s2-1.6,2.8-2.7c0.7-1.1,1.2-2.3,1.6-3.7c0.3-1.4,0.5-2.8,0.5-4.2
				C394.5,29.9,394.4,28.5,394,27.1 M375.9,17.7v5.1h0.1c0.8-1.9,2-3.4,3.8-4.4c1.7-1,3.7-1.5,5.9-1.5c2.1,0,3.9,0.4,5.4,1.2
				c1.5,0.8,2.8,1.8,3.8,3.1c1,1.3,1.8,2.8,2.3,4.6c0.5,1.7,0.7,3.6,0.7,5.5s-0.2,3.8-0.7,5.5s-1.2,3.3-2.3,4.6
				c-1,1.3-2.3,2.3-3.8,3.1s-3.3,1.1-5.4,1.1c-1,0-2-0.1-2.9-0.4c-1-0.2-1.9-0.6-2.7-1.1c-0.8-0.5-1.6-1.1-2.2-1.8s-1.1-1.6-1.5-2.6
				h-0.1v15.1H373V17.7H375.9z M363.6,44.8v-4.9h-0.1c-0.9,1.8-2.1,3.2-3.8,4.2c-1.7,1-3.5,1.4-5.5,1.4c-1.7,0-3.2-0.2-4.4-0.7
				c-1.2-0.5-2.2-1.1-2.9-2c-0.8-0.9-1.3-1.9-1.7-3.2s-0.5-2.7-0.5-4.3V17.7h3.3v17.6c0.1,2.5,0.6,4.3,1.7,5.6s2.9,1.9,5.5,1.9
				c1.4,0,2.7-0.3,3.7-0.9c1-0.6,1.9-1.4,2.5-2.4c0.7-1,1.2-2.2,1.5-3.5s0.5-2.7,0.5-4V17.7h3.3v27.1
				C366.7,44.8,363.6,44.8,363.6,44.8z M331.2,17.7v6.4h0.1c0.8-2.2,2.1-3.9,3.9-5.1s3.9-1.7,6.3-1.6v3.3c-1.5-0.1-2.9,0.1-4.1,0.6
				s-2.3,1.1-3.2,2c-0.9,0.9-1.6,1.9-2.1,3.1s-0.7,2.5-0.7,4v14.4h-3.3V17.7H331.2z M319.3,44.8l-0.5-6.8h-0.1
				c-0.6,1.3-1.4,2.5-2.3,3.4c-0.9,1-2,1.7-3.1,2.4c-1.1,0.6-2.3,1.1-3.6,1.3c-1.3,0.3-2.6,0.4-4,0.4c-2.9,0-5.5-0.5-7.7-1.6
				s-4.1-2.5-5.5-4.3c-1.5-1.8-2.6-3.9-3.3-6.2c-0.7-2.3-1.1-4.8-1.1-7.4s0.4-5.1,1.1-7.4s1.8-4.4,3.3-6.2s3.3-3.2,5.5-4.3
				s4.8-1.6,7.7-1.6c2,0,3.8,0.3,5.6,0.8c1.8,0.5,3.3,1.3,4.7,2.4c1.4,1.1,2.5,2.3,3.5,3.9c0.9,1.5,1.6,3.3,1.9,5.4h-3.6
				c-0.1-1.1-0.5-2.2-1.1-3.3s-1.4-2.1-2.5-3c-1-0.9-2.3-1.7-3.7-2.2c-1.4-0.6-3-0.9-4.8-0.9c-2.5,0-4.6,0.5-6.4,1.4
				s-3.2,2.2-4.4,3.8c-1.1,1.6-2,3.3-2.5,5.3s-0.8,4-0.8,6s0.3,4,0.8,6s1.4,3.7,2.5,5.3s2.6,2.8,4.4,3.8c1.8,0.9,3.9,1.4,6.4,1.4
				c2.1,0,3.9-0.3,5.5-1s3-1.6,4.1-2.9s2-2.7,2.5-4.4c0.6-1.7,0.8-3.5,0.8-5.5H306v-3h15.9v19.1h-2.6V44.8z M250.3,17.7v3.8h0.2
				c0.9-1.6,2.2-2.7,3.7-3.4c1.5-0.7,3-1.1,4.6-1.1c2,0,3.6,0.3,4.9,0.8s2.3,1.3,3,2.3s1.3,2.1,1.5,3.5c0.3,1.4,0.4,2.9,0.4,4.6
				v16.7h-7.5V29.5c0-2.2-0.4-3.9-1.1-5s-1.9-1.7-3.7-1.7c-2,0-3.5,0.6-4.4,1.8c-0.9,1.2-1.4,3.2-1.4,6v14.2H243V17.7H250.3z
				 M221,38.3c1.1,1.1,2.7,1.6,4.8,1.6c1.5,0,2.8-0.4,3.9-1.1c1.1-0.8,1.7-1.5,2-2.4h6.6c-1.1,3.3-2.7,5.6-4.8,7
				c-2.2,1.4-4.8,2.1-7.9,2.1c-2.1,0-4.1-0.3-5.8-1s-3.2-1.7-4.4-2.9c-1.2-1.3-2.1-2.8-2.8-4.5c-0.6-1.7-1-3.7-1-5.8
				c0-2,0.3-3.9,1-5.7c0.7-1.7,1.6-3.3,2.8-4.5c1.2-1.3,2.7-2.3,4.4-3s3.6-1.1,5.6-1.1c2.3,0,4.3,0.4,6,1.3s3.1,2.1,4.2,3.6
				c1.1,1.5,1.9,3.2,2.4,5.1s0.7,3.9,0.5,6h-19.6C219.3,35.5,219.9,37.2,221,38.3 M229.4,24c-0.9-1-2.2-1.5-4.1-1.5
				c-1.2,0-2.2,0.2-3,0.6s-1.4,0.9-1.9,1.5s-0.8,1.2-1,1.9c-0.2,0.7-0.3,1.3-0.3,1.8h12.1C230.9,26.4,230.3,25,229.4,24 M207.1,44.8
				h-7.5V7.3h7.5V44.8z M177.3,38.3c1.1,1.1,2.7,1.6,4.8,1.6c1.5,0,2.8-0.4,3.9-1.1c1.1-0.8,1.8-1.5,2-2.4h6.6
				c-1.1,3.3-2.7,5.6-4.8,7c-2.2,1.4-4.8,2.1-7.9,2.1c-2.1,0-4.1-0.3-5.8-1s-3.2-1.7-4.4-2.9c-1.2-1.3-2.1-2.8-2.8-4.5
				c-0.6-1.7-1-3.7-1-5.8c0-2,0.3-3.9,1-5.7c0.7-1.7,1.6-3.3,2.8-4.5c1.2-1.3,2.7-2.3,4.4-3s3.6-1.1,5.6-1.1c2.3,0,4.3,0.4,6,1.3
				s3.1,2.1,4.2,3.6c1.1,1.5,1.9,3.2,2.4,5.1s0.7,3.9,0.5,6h-19.6C175.6,35.5,176.2,37.2,177.3,38.3 M185.7,24
				c-0.9-1-2.2-1.5-4.1-1.5c-1.2,0-2.2,0.2-3,0.6s-1.4,0.9-1.9,1.5s-0.8,1.2-1,1.9c-0.2,0.7-0.3,1.3-0.3,1.8h12.1
				C187.3,26.4,186.6,25,185.7,24 M145.7,7.3v14.1h0.2c0.9-1.6,2.2-2.7,3.6-3.4c1.5-0.7,2.9-1.1,4.3-1.1c2,0,3.6,0.3,4.9,0.8
				c1.3,0.5,2.3,1.3,3,2.3s1.2,2.1,1.5,3.5s0.4,2.9,0.4,4.6v16.7h-7.5V29.5c0-2.2-0.4-3.9-1-5c-0.7-1.1-1.9-1.7-3.7-1.7
				c-2,0-3.5,0.6-4.4,1.8c-0.9,1.2-1.4,3.2-1.4,6v14.2h-7.5V7.3H145.7z M104,14.3v-7h30.7v6.9h-11.2v30.6h-8.2V14.3H104z"/>
		</g>
	</g>
</g>
</svg>
