<svg xmlns="http://www.w3.org/2000/svg" xmlns:xlink="http://www.w3.org/1999/xlink" x="0px" y="0px"
	 viewBox="0 0 207 222.5" style="enable-background:new 0 0 207 222.5;">
<style type="text/css">
	.st0{fill:none;stroke:#4d4d4d;stroke-width:2;stroke-miterlimit:10;}
	.st1{fill:none;stroke:#4d4d4d;stroke-width:2;stroke-linecap:round;stroke-miterlimit:10;}
</style>
<polyline class="st0" points="74.3,0 74.3,50.1 74.3,96.4 74.3,120.5 "/>
<polyline class="st0" points="89,0 89,91.6 89,177 89,222.5 "/>
<polyline class="st0" points="103.6,0 103.6,66.9 103.6,129 103.6,161.3 "/>
<polyline class="st0" points="118.2,0 118.2,65.8 118.2,126.9 118.2,158.7 "/>
<polyline class="st0" points="132.8,0 132.8,47.4 132.8,91 132.8,113.8 "/>
<polyline class="st0" points="74.3,112.6 74.3,157 74.3,198.9 74.3,222.5 "/>
<polyline class="st0" points="103.6,157.9 103.6,183.7 103.6,208 103.6,222.5 "/>
<polyline class="st0" points="118.2,157.9 118.2,183.7 118.2,208 118.2,222.5 "/>
<polyline class="st0" points="132.8,157.9 132.8,183.7 132.8,208 132.8,222.5 "/>
<polyline class="st0" points="15.7,0 15.7,91.3 15.7,176.4 15.7,222.5 "/>
<polyline class="st0" points="30.5,0 30.5,91.3 30.5,176.4 30.5,222.5 "/>
<polyline class="st0" points="1,0 1,91.3 1,176.4 1,222.5 "/>
<polyline class="st0" points="45.1,0 45.1,10.7 45.1,19.9 45.1,24.7 "/>
<polyline class="st0" points="45.1,13.6 45.1,99.1 45.1,179.6 45.1,222.5 "/>
<polyline class="st0" points="59.6,0 59.6,91.3 59.6,176.4 59.6,222.5 "/>
<polyline class="st0" points="147.6,0 147.6,91.1 147.6,176.1 147.6,222.5 "/>
<polyline class="st0" points="162.2,0 162.2,91.3 162.2,176.4 162.2,222.5 "/>
<polyline class="st0" points="176.8,0 176.8,91.3 176.8,176.4 176.8,222.5 "/>
<polyline class="st0" points="191.4,0 191.4,91.3 191.4,176.4 191.4,222.5 "/>
<polyline class="st0" points="205.9,0 205.9,91.3 205.9,176.4 205.9,222.5 "/>
<path class="st1" d="M45.1,24.7c0,3-1.5,5.9-3.9,7.7l-5.6,4c-3.2,2.3-5.1,5.9-5.1,9.9v0.2"/>
<path class="st1" d="M147.6,137c0,3-1.5,5.9-3.9,7.7l-5.6,4c-3.2,2.3-5.1,5.9-5.1,9.9v0.2"/>
<path class="st1" d="M147.6,137c0,3,1.5,5.9,3.9,7.7l5.6,4c3.2,2.3,5.1,5.9,5.1,9.9v0.2"/>
<path class="st1" d="M74.3,154.5c0,3,1.5,5.9,3.9,7.7l5.6,4c3.2,2.3,5.1,5.9,5.1,9.9v0.2"/>
<path class="st1" d="M206,151.7V174c0,3-1.5,5.9-3.9,7.7l-5.6,4c-3.2,2.3-5.1,5.9-5.1,9.9v0.2v20.6"/>
<path class="st1" d="M132.9,106.9v22.3c0,3-1.5,5.9-3.9,7.7l-5.6,4c-3.2,2.3-5.1,5.9-5.1,9.9v0.2v20.6"/>
</svg>
