<svg xmlns="http://www.w3.org/2000/svg" xmlns:xlink="http://www.w3.org/1999/xlink" viewBox="0 0 929.63 496.16"><defs><style>.cls-1,.cls-5{fill:#ececed;}.cls-2,.cls-8{fill:#b1b2b3;}.cls-2{opacity:0.4;}.cls-3{fill:#ffed00;}.cls-3,.cls-6,.cls-7{opacity:0.5;}.cls-4{clip-path:url(#clip-path);}.cls-5{stroke:#b1b2b3;stroke-width:1.07px;}.cls-5,.cls-9{stroke-miterlimit:10;}.cls-6{fill:#be1421;}.cls-7{fill:#f39100;}.cls-9{fill:none;stroke:#878786;stroke-width:3px;}</style><clipPath id="clip-path" transform="translate(-178.25 -224)"><polygon class="cls-1" points="1023.54 318.5 1023.54 537.48 961.12 537.48 961.12 589.42 1105.5 589.42 1105.5 318.5 1023.54 318.5"/></clipPath></defs><title>the_grundriss</title><g id="hall"><polygon class="cls-2" points="423.06 54.33 423.06 42.67 318.82 42.67 318.82 54.33 277.09 54.33 277.09 12.33 230.56 12.33 160.25 12.33 154.7 12.33 125.75 12.33 125.75 0 82.75 0 82.75 12.33 59.4 12.33 55.75 12.33 22.16 12.33 13.75 12.33 0 12.33 0 228.9 13.75 228.9 22.16 228.9 55.75 228.9 55.75 365.42 160.25 365.42 160.25 228.9 260.42 228.9 260.42 291.25 331.75 291.25 331.75 228.9 331.75 213.55 331.75 141 413.75 141 413.75 119.32 423.75 119.32 423.75 60.33 423.75 54.33 423.06 54.33"/><polygon class="cls-2" points="782.87 94.5 782.87 54.33 691.09 54.33 691.09 42.67 651.54 42.67 651.54 54.33 605.21 54.33 605.21 359.67 782.87 359.67 782.87 313.48 845.29 313.48 845.29 94.5 782.87 94.5"/><polygon class="cls-2" points="423.75 42.67 423.75 120.15 413.75 120.15 413.75 141 331.75 141 331.75 292.05 260.94 292.05 260.94 359.67 605.21 359.67 605.21 54.33 506.75 54.33 506.75 42.67 423.75 42.67"/><rect class="cls-3" x="230.56" y="12.33" width="46.52" height="42"/><rect class="cls-3" x="288.42" y="54.33" width="30.67" height="12"/><rect class="cls-3" x="551.2" y="316.37" width="43.3" height="43.3"/><polygon class="cls-3" points="470.67 54.33 425.23 54.33 425.23 60.33 425.23 69.22 425.23 119.32 438.37 119.32 438.37 69.22 470.67 69.22 470.67 54.33"/><rect class="cls-3" x="782.87" y="94.5" width="18.22" height="17.83"/><polygon class="cls-1" points="845.29 94.5 845.29 313.48 782.87 313.48 782.87 365.42 927.25 365.42 927.25 94.5 845.29 94.5"/><g class="cls-4"><line class="cls-5" x1="771.39" y1="164.36" x2="929.25" y2="6.5"/><line class="cls-5" x1="771.39" y1="211.71" x2="929.25" y2="53.85"/><line class="cls-5" x1="771.39" y1="259.05" x2="929.25" y2="101.19"/><line class="cls-5" x1="771.39" y1="306.4" x2="929.25" y2="148.54"/><line class="cls-5" x1="771.39" y1="353.74" x2="929.25" y2="195.88"/><line class="cls-5" x1="771.39" y1="401.09" x2="929.25" y2="243.23"/><line class="cls-5" x1="771.39" y1="448.43" x2="929.25" y2="290.57"/><line class="cls-5" x1="771.39" y1="495.78" x2="929.25" y2="337.92"/></g></g><g id="entsorgung"><rect class="cls-6" x="13.75" y="12.33" width="101.33" height="57.33"/></g><g id="technikräume"><polygon class="cls-7" points="115.09 12.33 115.09 69.67 172.82 69.67 172.82 101.06 230.56 101.06 230.56 69.67 230.56 63 230.56 12.33 115.09 12.33"/><rect class="cls-7" x="318.83" y="42.67" width="104.23" height="11.67"/><rect class="cls-7" x="260.42" y="228.9" width="71.33" height="62.34"/><rect class="cls-7" x="594.5" y="335.52" width="10.7" height="24.15"/></g><g id="ramps"><rect class="cls-8" y="12.33" width="13.75" height="216.57"/><rect class="cls-8" x="55.75" y="353.92" width="104.5" height="13.28"/><rect class="cls-8" x="82.75" width="43" height="12.33"/><rect class="cls-8" x="506.75" y="51.5" width="98.33" height="11.5"/><rect class="cls-8" x="260.94" y="353.92" width="345.48" height="11.5"/><rect class="cls-8" x="606.42" y="51.5" width="45.12" height="11.5"/><rect class="cls-8" x="606.42" y="353.92" width="176.45" height="11.5"/></g><g id="borders"><polyline class="cls-9" points="423.75 42.67 423.75 120.15 413.75 120.15 413.75 141 331.75 141 331.75 291.67 260.42 291.67 260.42 365.42"/><line class="cls-9" x1="606.42" y1="51.5" x2="606.42" y2="365.42"/></g></svg>