<svg xmlns="http://www.w3.org/2000/svg" id="Ebene_1" style="" viewBox="0 0 494 124" x="0px" y="0px" xmlns:xml="http://www.w3.org/XML/1998/namespace" xml:space="preserve" version="1.1">
<style type="text/css">
	.st0{fill:#010202;}
</style>
<path class="st0" d="M 270.6 16.9 c -1.3 0.8 -2.9 2.4 -4.7 4.7 c -1.8 2.3 -4 5.6 -6.6 10 c -2.6 4.4 -4.4 7.2 -5.3 8.6 c -0.9 1.3 -2.1 2.8 -3.6 4.4 c -3.2 3.5 -7.1 5.9 -11.7 7.2 c -3.2 0.9 -6.3 1.4 -9.3 1.4 c -2.9 0 -5.1 -0.5 -6.5 -1.5 c -1.1 -0.8 -1.6 -1.8 -1.6 -3.2 c 0 -1.4 0.6 -2.6 1.7 -3.6 c 0.9 -0.8 1.9 -1.2 2.9 -1.2 c 0.7 0 1.2 0.2 1.7 0.7 c 0.5 0.5 0.7 1 0.7 1.7 c 0 0.7 -0.3 1.3 -0.8 1.8 c -0.5 0.5 -1.1 0.7 -1.9 0.7 c -0.4 0 -1 -0.2 -1.8 -0.5 c -0.2 -0.1 -0.4 -0.1 -0.5 -0.1 c -0.5 0 -0.7 0.3 -0.7 1 c 0 0.9 0.6 1.6 1.7 2.2 c 1.1 0.6 2.5 0.9 4.2 0.9 c 3.2 0 6.3 -1.2 9.4 -3.4 c 3.1 -2.3 6.5 -6 10.1 -11.1 c 2.9 -4 5.2 -7.1 6.8 -9 c 1.6 -1.9 3.5 -3.9 5.6 -5.7 c 2.4 -2.1 5.5 -4.4 9.3 -6.7 c -2.6 -1.5 -6 -2.3 -10.2 -2.3 c -6.7 0 -12.6 1.6 -17.8 4.9 c -3 1.8 -5.3 4 -7 6.4 c -1.6 2.2 -2.4 4.3 -2.4 6.3 c 0 1.2 0.4 2.2 1.3 3 c 0.9 0.8 2 1.2 3.4 1.2 c 3.5 0 7.1 -1.7 10.8 -5.2 c 3.7 -3.4 6.5 -7.6 8.4 -12.6 l 0.8 0.2 c -0.5 2.4 -2.1 5.6 -4.8 9.6 c -2.2 3.2 -4.6 5.5 -7.3 7.1 c -2.5 1.4 -4.9 2.1 -7.4 2.1 c -2 0 -3.6 -0.6 -4.8 -1.8 c -1 -1 -1.5 -2.2 -1.5 -3.7 c 0 -3 1.5 -6.1 4.6 -9.3 c 3.1 -3.1 6.8 -5.5 11 -7 c 4 -1.5 8.2 -2.2 12.5 -2.2 c 2.3 0 4.5 0.2 6.6 0.7 c 2.1 0.5 3.6 1.1 4.7 2 c 1.3 -0.8 2 -1.3 2.2 -1.4 c 1.2 -0.7 1.9 -1.1 2.1 -1.2 l 0.4 0.8 c -2.1 1.3 -3.4 2.1 -3.8 2.4 c 3.3 2.5 4.9 5.2 4.9 8 c 0 1.5 -0.3 2.9 -1 4.4 c -0.7 1.5 -1.6 2.8 -2.7 4 c -1.3 1.2 -2.7 2.2 -4.4 2.9 c -1.7 0.7 -3.4 1 -5.1 1 c -1 0 -1.8 -0.2 -2.4 -0.6 c -0.6 -0.4 -0.9 -1 -0.9 -1.7 c 0 -0.9 0.4 -1.7 1 -2.6 c 0.7 -0.8 1.6 -1.5 2.6 -1.9 l 0.2 0.8 c -0.8 0.4 -1.5 0.9 -2.1 1.5 c -0.5 0.7 -0.8 1.3 -0.8 2 c 0 0.9 0.5 1.3 1.4 1.3 c 0.8 0 1.6 -0.4 2.7 -1.2 c 1 -0.8 2 -1.9 3 -3.3 c 1.1 -1.6 2 -3.3 2.7 -5.2 c 0.7 -1.9 1 -3.6 1 -5.2 C 271.7 19 271.4 17.8 270.6 16.9 M 298.2 34.9 l -10.1 13 c -1.6 2.1 -2.4 3.3 -2.4 3.6 c 0 0.4 0.2 0.6 0.6 0.6 c 0.5 0 1.8 -0.7 3.8 -2.2 c 2 -1.5 3.8 -3.1 5.5 -4.7 l 0.6 0.7 c -1.4 1.3 -2.9 2.7 -4.7 4.1 c -1.8 1.4 -3.1 2.3 -4 2.8 c -0.9 0.5 -1.7 0.7 -2.6 0.7 c -0.9 0 -1.6 -0.2 -2.2 -0.6 c -0.9 -0.6 -1.3 -1.5 -1.3 -2.6 c 0 -1 0.4 -2.2 1.3 -3.9 c -1.1 1.2 -2.3 2.3 -3.5 3.3 c -1.6 1.3 -2.9 2.2 -4.1 2.8 c -1.1 0.6 -2.2 0.9 -3.2 0.9 c -1.5 0 -2.6 -0.7 -3.3 -2 c -0.4 -0.7 -0.6 -1.5 -0.6 -2.2 c 0 -2.7 1.4 -5.5 4.2 -8.3 c 2 -2 4.3 -3.6 6.9 -4.8 c 2.6 -1.2 5.1 -1.8 7.4 -1.8 c 1.9 0 2.9 0.6 2.9 1.9 c 0 0.7 -0.2 1.5 -0.7 2.4 l 2.8 -3.7 H 298.2 Z M 288 35.7 c -0.4 -0.1 -1.2 0.3 -2.5 1.2 c -1.3 0.8 -2.6 1.8 -3.9 3 c -2.1 1.9 -4.3 4.1 -6.4 6.7 c -2.1 2.6 -3.2 4.2 -3.2 5 c 0 0.5 0.3 0.7 0.8 0.7 c 1 0 2.5 -0.7 4.5 -2.2 c 2 -1.5 4.1 -3.4 6.2 -5.7 c 3.4 -3.6 5.1 -6.3 5.1 -8 C 288.6 35.9 288.4 35.7 288 35.7 M 313.2 34.9 l -10.1 13.1 l 10.8 -9 c 0.1 -0.5 0.3 -1.1 0.7 -1.8 c 0.4 -0.7 0.9 -1.3 1.4 -1.7 c 0.4 -0.4 0.8 -0.6 1.3 -0.7 c 0.5 -0.1 1.3 -0.2 2.6 -0.2 c 1 0 1.7 0 2 0.1 c 0.3 0.1 0.5 0.1 0.5 0.3 c 0 0.2 -0.3 0.4 -0.8 0.9 c -0.9 0.8 -1.7 1.5 -2.3 2.3 c -0.6 0.8 -0.9 1.4 -0.9 1.8 c 0 0.3 0.2 0.5 0.5 0.5 c 0.2 0 0.3 0 0.5 -0.1 l -0.2 1 c -0.5 0.1 -1 0.2 -1.5 0.2 c -2 0 -3.3 -0.5 -3.7 -1.6 l -14 11.8 l -0.9 1.1 h -6.9 l 13.9 -18 H 313.2 Z M 334.5 37.5 l -6.3 8.6 c 0.7 0.2 1.3 0.3 1.9 0.3 c 1 0 2.2 -0.2 3.6 -0.7 c 1.4 -0.5 2.6 -1 3.7 -1.7 l 0.4 0.8 c -1.1 0.7 -2.3 1.3 -3.8 1.7 c -1.4 0.5 -2.8 0.7 -3.9 0.7 c -0.8 0 -1.6 -0.1 -2.4 -0.3 l -15.3 20.9 l -6.7 -0.1 l 16.9 -23.1 c -0.2 -0.5 -0.4 -1.1 -0.4 -1.6 c 0 -0.6 0.1 -1.1 0.3 -1.5 c 0.2 -0.4 0.7 -0.9 1.3 -1.4 c 1.3 -1.1 2.5 -2 3.4 -2.7 c 5.8 -7.3 11 -12.9 15.6 -16.9 c 5.5 -4.8 9.6 -7.2 12.3 -7.2 c 1.1 0 1.6 0.5 1.6 1.4 c 0 1.9 -2.4 5.2 -7.1 9.8 c -2 2 -3.7 3.5 -5 4.7 c -1.3 1.1 -4.3 3.5 -8.9 7.3 L 334.5 37.5 Z M 336.5 34.9 c 5.9 -4.9 10.5 -9.1 13.8 -12.5 c 3.3 -3.5 4.9 -5.9 4.9 -7.3 c 0 -0.5 -0.3 -0.8 -0.8 -0.8 c -1.2 0 -3.2 1.6 -6 4.8 C 345.7 22.2 341.7 27.5 336.5 34.9 M 364.9 34.9 l -10.5 13.8 c -1.3 1.7 -2 2.6 -2 2.9 c 0 0.3 0.2 0.5 0.5 0.5 c 0.5 0 1.5 -0.5 3 -1.6 c 1.7 -1.2 3.8 -2.9 6.4 -5.2 l 0.3 -0.3 l 0.6 0.6 c -2.8 2.6 -5.2 4.6 -7.1 5.8 c -1.9 1.2 -3.5 1.8 -4.8 1.8 c -0.9 0 -1.7 -0.3 -2.3 -0.8 c -0.6 -0.6 -0.9 -1.3 -0.9 -2.2 c 0 -1 0.3 -2 1 -3.3 c -2.2 2 -3.7 3.3 -4.6 3.9 c -2.1 1.6 -3.9 2.4 -5.2 2.4 c -1 0 -1.9 -0.3 -2.5 -1 c -0.6 -0.7 -1 -1.6 -1 -2.8 c 0 -1.1 0.2 -2.1 0.6 -2.9 c 0.4 -0.8 1.6 -2.5 3.6 -5.2 l 5 -6.4 h 7 l -9.7 12.6 l -1.5 1.9 c -0.8 1.2 -1.2 2 -1.2 2.2 c 0 0.4 0.2 0.6 0.6 0.6 c 0.4 0 1.1 -0.3 2.2 -1 c 1.1 -0.7 2.2 -1.5 3.3 -2.4 c 2.7 -2.3 5.2 -4.9 7.4 -7.8 l 4.7 -6.1 H 364.9 Z M 354.3 24.1 c 0.8 0 1.4 0.3 1.9 0.8 c 0.5 0.5 0.8 1.2 0.8 2 c 0 1.2 -0.5 2.2 -1.4 3.1 c -1 0.9 -2 1.4 -3.2 1.4 c -0.8 0 -1.4 -0.2 -1.9 -0.7 c -0.5 -0.5 -0.7 -1.1 -0.7 -1.9 c 0 -1.2 0.5 -2.3 1.4 -3.2 C 352 24.6 353.1 24.1 354.3 24.1 M 364.2 24.1 c 0.8 0 1.4 0.3 1.9 0.8 c 0.5 0.5 0.8 1.2 0.8 2 c 0 1.2 -0.5 2.2 -1.4 3.1 c -1 0.9 -2 1.4 -3.2 1.4 c -0.8 0 -1.4 -0.2 -1.9 -0.7 c -0.5 -0.5 -0.7 -1.1 -0.7 -1.9 c 0 -1.2 0.5 -2.3 1.4 -3.2 C 362 24.6 363 24.1 364.2 24.1 M 379.2 34.9 l -5.5 7.1 l 0.3 0.2 c 5.1 -5.2 9 -7.8 11.9 -7.8 c 0.9 0 1.5 0.3 2 0.8 c 0.5 0.5 0.8 1.2 0.8 2.1 c 0 1 -0.2 1.9 -0.7 2.8 c -0.6 1 -1 1.7 -1.1 2.1 c 2.3 -2.4 4.5 -4.3 6.7 -5.7 c 2.1 -1.4 3.9 -2.1 5.2 -2.1 c 0.9 0 1.6 0.3 2.2 0.9 c 0.6 0.6 0.8 1.3 0.8 2.2 c 0 1.4 -0.5 2.9 -1.6 4.4 c -0.2 0.3 -1 1.2 -2.4 2.8 l -3.2 3.7 c -1.6 1.9 -2.4 2.9 -2.4 3.2 c 0 0.3 0.2 0.5 0.6 0.5 c 0.4 0 1.1 -0.3 2.3 -1 c 1.2 -0.6 2.3 -1.4 3.4 -2.3 c 1.3 -1 2.8 -2.2 4.6 -3.7 l 0.6 0.6 c -0.4 0.4 -2 1.7 -4.9 4 c -1.4 1.1 -2.8 2 -4.2 2.6 c -1.4 0.7 -2.6 1 -3.5 1 c -1 0 -1.7 -0.3 -2.3 -0.9 c -0.6 -0.6 -0.9 -1.4 -0.9 -2.3 c 0 -1 0.3 -2.1 1 -3.2 c 0.7 -1.1 1.8 -2.6 3.5 -4.4 l 3.2 -3.5 c 1.5 -1.6 2.3 -2.6 2.3 -3 c 0 -0.3 -0.1 -0.4 -0.4 -0.4 c -0.5 0 -1.3 0.3 -2.4 1 c -1.1 0.7 -2.3 1.5 -3.5 2.6 c -3.7 3.1 -7.1 6.7 -10.3 10.8 l -2.3 3.1 H 372 L 382.7 39 c 1.2 -1.5 1.8 -2.5 1.8 -2.8 c 0 -0.3 -0.2 -0.5 -0.5 -0.5 c -0.4 0 -1.2 0.4 -2.4 1.1 c -1.2 0.8 -2.3 1.6 -3.5 2.7 c -4.8 4.2 -8.3 7.9 -10.6 11.1 l -1.6 2.3 h -7.1 l 13.9 -18 H 379.2 Z M 412.3 45.1 c -2.4 2.9 -3.6 5 -3.6 6.2 c 0 0.7 0.5 1.1 1.5 1.1 c 2.4 0 5.6 -1.3 9.7 -3.9 c 2.3 -1.4 3.9 -2.7 5 -3.6 l 0.5 0.8 c -1.5 1.3 -3.5 2.6 -6 4.2 c -3.9 2.4 -7.2 3.5 -9.9 3.5 c -1.6 0 -2.8 -0.4 -3.7 -1.3 c -0.9 -0.9 -1.4 -2 -1.4 -3.4 c 0 -3 1.5 -5.9 4.5 -8.6 c 2 -1.8 4.2 -3.2 6.7 -4.2 c 2.5 -1 5 -1.5 7.5 -1.5 c 2 0 2.9 0.6 2.9 1.7 c 0 1.3 -1.1 2.7 -3.3 4.3 c -1.2 0.9 -2.4 1.6 -3.7 2.2 C 417.6 43.1 415.4 44 412.3 45.1 M 413.5 43.8 c 2.9 -0.9 5.6 -2.2 7.9 -3.8 c 2.3 -1.6 3.5 -2.9 3.5 -4 c 0 -0.4 -0.2 -0.6 -0.7 -0.6 C 422.2 35.3 418.6 38.1 413.5 43.8 M 442.2 34.9 l -10.1 13.1 l 10.8 -9 c 0.1 -0.5 0.3 -1.1 0.7 -1.8 c 0.4 -0.7 0.9 -1.3 1.4 -1.7 c 0.4 -0.4 0.8 -0.6 1.3 -0.7 c 0.5 -0.1 1.3 -0.2 2.6 -0.2 c 1 0 1.7 0 2 0.1 c 0.3 0.1 0.5 0.1 0.5 0.3 c 0 0.2 -0.3 0.4 -0.8 0.9 c -0.9 0.8 -1.7 1.5 -2.3 2.3 c -0.6 0.8 -0.9 1.4 -0.9 1.8 c 0 0.3 0.2 0.5 0.5 0.5 c 0.2 0 0.3 0 0.5 -0.1 l -0.2 1 c -0.5 0.1 -1 0.2 -1.5 0.2 c -2 0 -3.3 -0.5 -3.7 -1.6 l -14 11.8 l -0.9 1.1 h -6.9 l 13.9 -18 H 442.2 Z M 463.6 34.9 L 453.4 48 c -1.5 1.9 -2.2 3 -2.2 3.3 c 0 0.4 0.2 0.6 0.7 0.6 c 0.5 0 1.7 -0.7 3.6 -2.1 c 1.9 -1.4 3.8 -3 5.7 -4.9 l 0.5 0.7 c -5.3 5 -9.1 7.5 -11.3 7.5 c -1.1 0 -1.9 -0.3 -2.5 -0.9 c -0.6 -0.6 -0.9 -1.5 -0.9 -2.6 c 0 -0.9 0.2 -1.8 0.6 -2.6 c 0.4 -0.8 1.1 -1.9 2.1 -3.2 l 7 -9.1 H 463.6 Z M 466.1 24 c 0.8 0 1.5 0.3 2.1 0.8 c 0.6 0.6 0.9 1.2 0.9 2 c 0 1.2 -0.5 2.3 -1.4 3.1 c -0.8 0.8 -1.7 1.1 -2.7 1.1 c -0.9 0 -1.6 -0.3 -2.2 -0.9 c -0.6 -0.6 -0.9 -1.3 -0.8 -2.2 c 0.1 -1.2 0.7 -2.3 1.7 -3.1 C 464.5 24.3 465.3 24 466.1 24 M 470.6 45.1 c -2.4 2.9 -3.6 5 -3.6 6.2 c 0 0.7 0.5 1.1 1.5 1.1 c 2.4 0 5.6 -1.3 9.7 -3.9 c 2.3 -1.4 3.9 -2.7 5 -3.6 l 0.5 0.8 c -1.5 1.3 -3.5 2.6 -6 4.2 c -3.9 2.4 -7.2 3.5 -9.9 3.5 c -1.6 0 -2.8 -0.4 -3.7 -1.3 c -0.9 -0.9 -1.4 -2 -1.4 -3.4 c 0 -3 1.5 -5.9 4.5 -8.6 c 2 -1.8 4.2 -3.2 6.7 -4.2 c 2.5 -1 5 -1.5 7.5 -1.5 c 1.9 0 2.9 0.6 2.9 1.7 c 0 1.3 -1.1 2.7 -3.3 4.3 c -1.2 0.9 -2.4 1.6 -3.8 2.2 C 475.9 43.1 473.7 44 470.6 45.1 M 471.8 43.8 c 2.9 -0.9 5.6 -2.2 7.9 -3.8 c 2.3 -1.6 3.5 -2.9 3.5 -4 c 0 -0.4 -0.2 -0.6 -0.7 -0.6 C 480.5 35.3 476.9 38.1 471.8 43.8" />
<path class="st0" d="M 215.7 67.5 h 34.1 v 11.6 h -10.9 v 32.3 h -12.2 V 79.1 h -11 V 67.5 Z M 254 67.5 h 10.7 v 15.9 c 1.3 -1.8 2.5 -3.1 3.8 -3.8 c 1.3 -0.7 2.8 -1.1 4.4 -1.1 c 3.6 0 6.2 1.2 7.9 3.6 c 1.7 2.4 2.5 5.6 2.5 9.7 v 19.4 h -10.8 V 94.8 c 0 -2.2 -0.3 -3.8 -0.9 -4.7 c -0.6 -1 -1.6 -1.5 -2.9 -1.5 c -2.7 0 -4.1 2.1 -4.1 6.3 v 16.5 H 254 V 67.5 Z M 289.2 79.5 h 10.7 v 31.9 h -10.7 V 79.5 Z M 289.2 66.4 h 10.7 v 9 h -10.7 V 66.4 Z M 315.3 91.8 h 9.9 c -0.1 -1.6 -0.6 -2.9 -1.6 -3.9 c -1 -1 -2 -1.5 -3.3 -1.5 c -1.6 0 -2.8 0.5 -3.7 1.5 C 315.8 88.7 315.3 90.1 315.3 91.8 M 324.7 101.8 H 335 c -0.6 2.9 -2.1 5.4 -4.5 7.4 c -2.5 2.1 -5.9 3.1 -10.4 3.1 c -3.1 0 -5.8 -0.7 -8.1 -2.1 c -2.3 -1.4 -4.1 -3.3 -5.4 -5.9 c -1.3 -2.5 -1.9 -5.4 -1.9 -8.7 c 0 -2.2 0.3 -4.3 1 -6.3 c 0.6 -2 1.6 -3.9 2.9 -5.5 c 1.3 -1.6 2.9 -2.9 4.8 -3.8 c 1.9 -0.9 4.1 -1.4 6.6 -1.4 c 2.9 0 5.4 0.6 7.4 1.8 c 2.1 1.2 3.7 2.7 5 4.6 c 1.2 1.9 2.1 4 2.7 6.3 c 0.6 2.3 0.9 4.6 0.9 7 h -20.6 c 0.1 2 0.6 3.5 1.7 4.6 c 1.1 1.1 2.3 1.7 3.7 1.7 C 322.6 104.6 324 103.7 324.7 101.8 M 339.9 79.5 h 9.9 v 4.7 c 0.9 -1.6 2.2 -2.9 3.8 -4 c 1.6 -1.1 3.2 -1.6 4.9 -1.6 c 4.4 0 7.3 1.9 8.8 5.8 c 2.3 -3.9 5.4 -5.8 9.3 -5.8 c 2.4 0 4.3 0.4 5.8 1.3 c 1.5 0.9 2.7 2.4 3.4 4.4 c 0.7 2 1.1 4.7 1.1 8 v 19.1 h -10.7 V 95.1 c 0 -2.5 -0.3 -4.2 -0.8 -5.1 c -0.5 -0.9 -1.5 -1.4 -2.9 -1.4 c -0.7 0 -1.3 0.1 -1.8 0.3 c -0.5 0.2 -1 0.8 -1.3 1.7 c -0.4 0.9 -0.6 2.4 -0.6 4.4 v 16.3 H 358 V 94.8 c 0 -2.2 -0.2 -3.8 -0.7 -4.8 c -0.5 -1 -1.4 -1.4 -2.8 -1.4 c -2.5 0 -3.8 2.2 -3.8 6.5 v 16.3 h -10.8 V 79.5 Z M 392.1 89.3 c 0 -2.1 0.4 -3.9 1.3 -5.5 c 0.9 -1.6 2.5 -2.8 4.8 -3.8 c 2.3 -1 5.4 -1.4 9.4 -1.4 c 3.5 0.1 6.2 0.6 8.1 1.5 c 1.9 0.9 3.1 2.2 3.8 3.9 c 0.7 1.7 1 3.9 1 6.6 v 15.6 c 0 1.3 0.1 2.3 0.2 2.8 c 0.1 0.5 0.6 1.1 1.2 1.7 v 0.6 h -11.1 l -0.5 -3.5 c -2.7 3 -6.1 4.4 -10.5 4.4 c -1.5 -0.1 -2.9 -0.4 -4.3 -1 c -1.4 -0.6 -2.6 -1.6 -3.6 -3.1 c -1 -1.5 -1.5 -3.4 -1.5 -5.7 c 0 -2.7 0.7 -4.8 2 -6.4 c 0.9 -1.1 2.1 -1.9 3.4 -2.4 c 1.4 -0.6 2.9 -1 4.7 -1.3 c 1.8 -0.3 3.3 -0.6 4.7 -0.8 c 1.3 -0.2 2.4 -0.5 3.1 -0.9 c 0.8 -0.4 1.3 -1.1 1.3 -2 c 0 -0.8 -0.3 -1.4 -0.9 -1.9 c -0.6 -0.5 -1.4 -0.7 -2.5 -0.7 c -2.4 0 -3.6 1 -3.8 3.1 H 392.1 Z M 409.7 97.3 c -0.7 0.4 -1.8 0.8 -3.4 1.2 c -1.6 0.4 -2.8 0.9 -3.6 1.4 c -0.8 0.5 -1.2 1.4 -1.2 2.6 c 0.1 1.6 1.2 2.5 3.3 2.7 c 1.6 -0.1 2.8 -0.7 3.6 -2 c 0.8 -1.2 1.3 -2.8 1.3 -4.8 V 97.3 Z M 426.2 79.5 h 9.8 v 5.1 c 2.4 -4 5.4 -6 9.2 -6 c 2 0 3.8 0.4 5.3 1.3 c 1.6 0.9 2.8 2.3 3.8 4.4 c 0.9 2 1.4 4.6 1.4 7.9 v 19.2 h -10.8 v -17 c 0 -3.9 -1.2 -5.8 -3.7 -5.8 c -1.4 0 -2.4 0.5 -3.2 1.4 c -0.7 0.9 -1.1 2.6 -1.1 5.1 v 16.3 h -10.7 V 79.5 Z M 460.7 79.5 h 9.8 v 5.1 c 2.4 -4 5.4 -6 9.2 -6 c 2 0 3.8 0.4 5.3 1.3 c 1.6 0.9 2.8 2.3 3.8 4.4 c 0.9 2 1.4 4.6 1.4 7.9 v 19.2 h -10.8 v -17 c 0 -3.9 -1.2 -5.8 -3.7 -5.8 c -1.4 0 -2.4 0.5 -3.2 1.4 c -0.7 0.9 -1.1 2.6 -1.1 5.1 v 16.3 h -10.7 V 79.5 Z" />
<g>
	<path class="st0" d="M 111.3 62.3 c -1.5 1.3 -2.8 2.5 -4.9 6 c -2 3.3 -3.6 6.8 -5.6 10.2 c -1.1 1.8 -3.7 6 -8.4 9.4 c -0.6 0.4 -2.2 1.5 -4.3 2.4 c -0.9 0.4 -2.9 1.1 -5.6 1.5 c -2 0.3 -4.1 0.4 -4.7 0.4 c -0.2 0 -3.6 0 -5.4 -1.1 c -0.5 -0.4 -1.7 -1.3 -1.7 -3.1 c 0 -0.4 0 -0.9 0.4 -1.7 c 0.6 -1.3 2.1 -2.6 3.7 -2.6 c 1.9 0 2.3 1.6 2.3 2.2 c 0 1.4 -1.1 2.3 -2.4 2.3 c -0.6 0 -0.9 -0.2 -1.1 -0.3 c -0.5 -0.2 -0.6 -0.3 -0.9 -0.3 c -0.2 0 -0.6 0.2 -0.6 0.8 c 0 1 0.9 1.6 1 1.7 c 1.6 1.1 4.1 1.1 4.5 1.1 c 3.7 0 6.3 -1.6 8.9 -4.1 c 3.1 -2.9 5.6 -6.6 8.2 -9.9 c 1.6 -2.1 3.3 -4.1 5.2 -6 c 3.5 -3.8 6.9 -6.4 11.2 -9.5 L 111.3 62.3 Z M 125.1 57.4 c -0.9 0.5 -1.8 1.1 -2.7 1.6 c -1.7 0.9 -4.5 2.2 -9.3 2.2 c -2.9 0 -5.5 -0.4 -11.2 -1.7 c -0.6 -0.1 -4.7 -1.1 -7.8 -1.1 c -1.4 0 -5.1 0.1 -8.3 2.8 c -0.8 0.6 -1.6 1.5 -2.2 2.4 c -0.9 1.3 -1.6 2.9 -1.6 4.6 c 0 2 1 4.3 5.3 4.3 c 5.9 0 10.3 -3.7 11.5 -5 c 1.4 -1.4 2.5 -3.1 3.6 -4.8 h 0.8 c -0.4 0.8 -0.8 1.6 -1.3 2.4 c -0.6 0.8 -2.5 3.6 -5.2 5.5 c -1.2 0.9 -4.6 2.9 -9.1 3 c -0.6 0 -2.9 0 -4.7 -1.3 c -1.4 -1 -2 -2.4 -2 -4.2 c 0 -1.2 0.3 -2.4 0.8 -3.5 c 0.6 -1.3 2.3 -3.7 5.4 -5.7 c 2.2 -1.5 5.8 -3.1 11.9 -3.1 c 4.9 0 11.2 1.1 12.3 1.2 c 2.5 0.4 5.6 1 8.2 1 c 2.9 0 4.1 -0.6 5.3 -1.2 L 125.1 57.4 Z" />
</g>
<g>
	<path class="st0" d="M 95.9 28.4 l 0.3 0.7 l -3.1 2 c 0.9 0.6 4.1 3 4.1 6.9 c 0 3.3 -2.3 6.7 -5.1 8.5 c -1.1 0.6 -2.2 1 -2.6 1.2 c -0.5 0.1 -1.8 0.6 -3.3 0.6 c -0.2 0 -2.9 0 -2.9 -2.1 c 0 -1.3 1.1 -2.5 2 -3.1 c 0.4 -0.2 0.7 -0.4 1.1 -0.6 l 0.2 0.7 c -0.3 0.2 -0.6 0.3 -0.9 0.5 c -0.7 0.6 -1.5 1.6 -1.5 2.6 c 0 0.6 0.4 0.9 1 0.9 c 2 0 4.2 -2.7 5.1 -4.1 c 0.5 -0.7 2.9 -4.5 2.9 -8.2 c 0 -1.7 -0.5 -2.4 -0.9 -3 c -1.2 1 -2.1 1.8 -4 4.2 c -1.9 2.5 -3.6 5.3 -5.2 8 c -2.3 3.7 -4.2 7.1 -7 10.3 c -1.8 2.1 -4.5 4.9 -10.5 6.7 c -1.1 0.3 -4.2 1.2 -7.7 1.2 c -2.5 0 -6.8 -0.5 -6.8 -4 c 0 -0.5 0 -0.9 0.2 -1.3 c 0.5 -1.4 1.9 -2.7 3.5 -2.7 c 1.8 0 2.1 1.5 2.1 2 c 0 0.2 0 0.5 -0.1 0.8 c -0.4 0.7 -1.2 1.3 -2 1.3 c -0.4 0 -0.8 -0.1 -1.2 -0.2 c -0.4 -0.2 -0.7 -0.3 -0.9 -0.3 c -0.4 0 -0.6 0.5 -0.6 0.9 c 0 0.2 0.1 0.6 0.5 1.1 c 0.7 0.8 2.1 1.5 4.4 1.5 c 1.8 0 4.2 -0.3 7.5 -2.6 c 2.5 -1.8 5 -4.2 8.7 -9.4 c 0.7 -1 1.4 -2 2.1 -3 c 0.9 -1.3 3.7 -5.1 7.2 -8.5 c 2.8 -2.7 5.6 -4.6 8.8 -6.7 c -0.2 -0.1 -1 -0.6 -1.8 -0.9 c -1.8 -0.7 -4.7 -1 -6.7 -1 c -1.7 0 -6 0.1 -10.4 1.8 c -0.9 0.3 -2.6 1.1 -4.6 2.4 c -1.5 1 -3 2.2 -4.3 3.5 c -0.3 0.4 -3.3 3.5 -3.3 6.7 c 0 2.1 1.4 3 2.1 3.3 c 0.6 0.2 1.3 0.3 1.9 0.3 c 1.1 0 2.3 -0.3 3.3 -0.6 c 3.9 -1.4 7.2 -5.3 7.8 -5.9 c 0.6 -0.7 1.2 -1.5 1.8 -2.3 c 1.8 -2.8 2.4 -4.5 3.1 -6 l 0.7 0.3 c -0.5 1.4 -1.2 3.6 -3.1 6.7 c -1.9 3.1 -4.3 5.9 -7.6 7.6 c -0.6 0.3 -3 1.5 -5.5 1.5 c -3.1 0 -5.5 -1.6 -5.5 -4.9 c 0 -2.9 1.9 -5.3 2.4 -6 c 2.7 -3.5 9.6 -9.2 21.2 -9.2 c 0.7 0 4.5 0 7.3 1.2 c 0.7 0.3 1.4 0.7 2 1.1 L 95.9 28.4 Z" />
</g>
<path class="st0" d="M 170.9 89.9 c -2.3 -5 -4.5 -10 -6.8 -14.7 c 1.9 -2.8 3.8 -5.4 5.7 -7.9 l 1.4 -1.9 l -2.1 -1 c -5.7 -2.6 -11.5 -4.8 -17.3 -6.5 V 47.1 v -1.4 l -1.4 -0.4 c -2.1 -0.5 -4.3 -1.1 -6.4 -1.6 c 0 -1.9 -0.2 -3.3 -0.6 -4.4 c -0.9 -2.3 -3.4 -4.8 -5.9 -7.2 c -1.5 -1.4 -2.8 -2.8 -3.5 -3.8 c -0.7 -1 -1.5 -2.8 -2.3 -4.7 c -1.4 -3.1 -2.8 -6.4 -4.7 -8.1 c -1.9 -1.7 -5.3 -2.7 -8.5 -3.7 c -2 -0.6 -3.8 -1.1 -4.9 -1.7 c -1.1 -0.6 -2.6 -1.8 -4.2 -3.1 c -2.7 -2.1 -5.4 -4.4 -7.9 -5 c -0.6 -0.2 -1.4 -0.2 -2.2 -0.2 c -2.1 0 -4.6 0.5 -7.1 1 c -2 0.4 -3.9 0.8 -5.1 0.8 C 85.9 3.7 84 3.4 82 3 c -2.4 -0.5 -5 -1 -7.1 -1 c -0.8 0 -1.6 0.1 -2.2 0.2 c -2.4 0.6 -5.2 2.8 -7.9 5 c -1.6 1.3 -3.1 2.5 -4.2 3.1 c -1.1 0.6 -2.9 1.1 -4.9 1.7 c -3.3 1 -6.7 2 -8.5 3.7 c -1.9 1.7 -3.3 4.9 -4.7 8 c -0.8 1.9 -1.6 3.6 -2.3 4.7 c -0.7 1 -2.1 2.4 -3.5 3.8 c -2.4 2.4 -5 4.9 -5.9 7.2 c -0.4 1.1 -0.6 2.5 -0.6 4.4 c -2.1 0.5 -4.2 1 -6.3 1.5 l -1.4 0.4 v 1.4 v 10.6 C 17 59.4 11.4 61.5 5.8 64 l -2.1 1 l 1.4 1.9 c 1.9 2.5 3.8 5.2 5.7 7.9 C 8.6 79.5 6.3 84.5 4 89.5 L 2 94 l 4.5 -2.1 c 9.5 -4.3 18.6 -7.2 27.9 -8.8 c 0.2 0.8 0.3 1.7 0.5 2.6 c 0.6 3.4 1.3 6.9 2.7 9 c 1 1.5 2.8 2.8 4.9 4.1 c 2.4 1.6 5.3 3.2 7.1 4.6 c 0.9 0.9 2 2.3 3.1 3.8 c 1.3 1.7 2.6 3.4 4 4.8 c 1.1 1.3 2.2 2.5 3.2 3 c 3.1 1.7 10.5 1 13.9 1.9 c 3.4 0.9 9.7 5 13.2 5 c 3.5 0 9.8 -4.2 13.2 -5 c 3.4 -0.9 10.8 -0.2 13.9 -1.9 c 0.8 -0.4 1.7 -1.3 2.6 -2.2 c 1.7 -1.4 3.3 -3.5 4.8 -5.6 c 1.2 -1.6 2.4 -3.2 3.3 -4 c 0.2 -0.2 0.5 -0.4 0.8 -0.6 c 1 -0.7 2.2 -1.4 3.3 -2.1 c 0.1 0 0.1 -0.1 0.2 -0.1 c 3 -1.7 6 -3.5 7.4 -5.6 c 1.4 -2.1 2 -5.5 2.6 -8.9 c 0.1 -0.9 0.3 -1.7 0.4 -2.5 c 9.4 1.5 19.1 4.5 28.7 8.9 l 4.5 2.1 L 170.9 89.9 Z M 149.4 47.5 V 76 c -2.1 -0.5 -5.4 -1.3 -7.7 -1.8 c -1.7 -0.4 -3.5 -0.8 -5.1 -1.1 c -1.8 -0.4 -3.7 -0.7 -5.6 -1 c 0.9 -3.6 1.4 -7.3 1.4 -11.2 c 0 -6.3 -1.3 -12.3 -3.6 -17.7 c 2.2 0.4 4.4 0.8 6.7 1.2 c 2 0.4 4.3 0.9 6.5 1.4 C 144.3 46.3 147.4 47 149.4 47.5 Z M 49.8 41.5 c 7 -13.3 20.9 -22.4 37 -22.4 c 16.1 0 30 9.1 37 22.4 c 2.7 5.6 4.8 12.8 4.8 19.4 c 0 3.7 -0.7 8.1 -1.6 11.5 c -5 17.5 -21.1 30.3 -40.2 30.3 c -19.1 0 -35.2 -12.8 -40.2 -30.3 c -0.9 -3.4 -1.6 -7.9 -1.6 -11.5 C 45.1 54.3 47.1 47 49.8 41.5 Z M 39.1 43.3 C 46.2 23.6 65 9.5 87.1 9.5 c 22.1 0 40.9 14.1 48 33.8 c -2.3 -0.4 -4.5 -0.8 -6.8 -1.2 c -7.2 -15.8 -23.1 -26.8 -41.5 -26.8 c -18.5 0 -34.4 11 -41.5 26.9 C 43.3 42.5 41.2 42.9 39.1 43.3 Z M 86.9 106.4 c 20.9 0 38.6 -14.2 43.9 -33.5 c 1.9 0.3 3.7 0.7 5.6 1 c -5.9 21.6 -25.7 37.6 -49.2 37.6 c -23.7 0 -43.5 -15.8 -49.2 -37.6 c 1.7 -0.3 3.4 -0.6 5.1 -0.9 C 48.3 92.2 66 106.4 86.9 106.4 Z M 32.6 39.3 c 1.2 -3.3 7.2 -7.7 9.2 -10.6 c 2 -2.9 4 -10 6.6 -12.4 c 2.6 -2.3 10 -3.5 13.1 -5.1 c 3.1 -1.6 8.2 -7 11.6 -7.9 c 0.3 -0.1 0.5 -0.1 0.8 -0.1 c 0.3 0 0.6 0 0.9 0 c 0.5 0 1 0 1.5 0.1 c 0.1 0 0.2 0 0.3 0 c 0.4 0 0.8 0.1 1.2 0.2 c 3 0.4 6.4 1.3 8.6 1.4 c 0.2 0 0.3 0 0.5 0 c 0 0 0 0 0.1 0 c 0 0 0 0 0.1 0 c 0.2 0 0.3 0 0.5 0 c 2.3 -0.1 5.6 -1 8.7 -1.5 c 0.4 -0.1 0.8 -0.1 1.2 -0.2 c 0.1 0 0.2 0 0.3 0 c 0.5 0 1 -0.1 1.5 -0.1 c 0.3 0 0.6 0 0.9 0 c 0.3 0 0.6 0.1 0.8 0.1 c 3.4 0.8 8.5 6.2 11.6 7.9 c 3.1 1.6 10.5 2.8 13.1 5.1 c 2.6 2.3 4.7 9.5 6.6 12.4 c 2 2.9 8 7.3 9.2 10.6 c 0.5 1.3 0.6 3.3 0.5 5.5 c -2 -0.4 -3.9 -0.9 -5.9 -1.2 c -7.1 -20.3 -26.4 -34.9 -49.1 -34.9 c -22.7 0 -42 14.6 -49.1 34.9 c -2 0.4 -3.9 0.8 -5.9 1.2 C 32 42.7 32.1 40.7 32.6 39.3 Z M 24.7 47.5 c 2.2 -0.6 4.3 -1.1 6.5 -1.6 c 1.9 -0.4 4.7 -1 6.6 -1.4 l 1.1 -0.2 c 2 -0.4 4 -0.8 6 -1.1 c -2.3 5.4 -3.6 11.4 -3.6 17.7 c 0 3.9 0.5 7.6 1.4 11.2 c -1.6 0.3 -3.3 0.6 -4.9 0.9 c -1.6 0.3 -4.4 0.9 -6.2 1.3 c -2.4 0.5 -4.8 1.1 -6.9 1.6 V 47.5 Z M 6.6 89.3 c 2.2 -5 4.5 -9.8 6.7 -14.5 l 0.1 -0.2 l -0.1 -0.2 c -2 -2.9 -4 -5.8 -6 -8.5 c 5.5 -2.5 11 -4.5 16.5 -6.1 v 17.4 l 10.1 3.7 C 24.6 82.4 16.1 85.1 6.6 89.3 Z M 138.6 79.6 c -1.2 3.3 -1.5 10.7 -3.5 13.6 c -2 2.9 -8.8 5.8 -11.5 8.1 c -2.6 2.3 -6.3 8.8 -9.4 10.4 c -3.1 1.6 -10.5 1 -13.9 1.8 c -3.4 0.8 -9.7 4.9 -13.2 4.9 c -3.5 0 -9.8 -4 -13.2 -4.9 c -3.4 -0.8 -10.8 -0.2 -13.9 -1.8 c -3.1 -1.6 -6.8 -8.1 -9.4 -10.4 c -2.6 -2.3 -9.5 -5.2 -11.5 -8.1 c -2 -2.9 -2.3 -10.3 -3.5 -13.6 c -0.5 -1.3 -1.5 -2.9 -2.5 -4.6 c 1.3 -0.3 2.6 -0.6 3.9 -0.8 c 6 22.1 26.2 38.4 50.1 38.4 c 23.9 0 44.2 -16.3 50.1 -38.4 c 1.3 0.3 2.6 0.5 3.9 0.8 C 140 76.7 139.1 78.3 138.6 79.6 Z M 140 81.2 l 10.3 -4 V 60 c 7.7 2 9.3 2.8 17.2 6.3 c -2 2.7 -4 5.5 -6 8.5 l -0.1 0.2 l 0.1 0.2 c 2.2 4.7 4.5 9.6 6.7 14.5 C 158.4 85.4 149.5 82.6 140 81.2 Z" />
<rect class="st0" transform="matrix(8.30687e-011 -1 1 8.30687e-011 128.79 254.377)" x="138.5" y="62" width="106.1" height="1.7" />
</svg>